<svg xmlns="http://www.w3.org/2000/svg" width="33.298" height="31.217" viewBox="0 0 33.298 31.217">
  <g id="Group_555" data-name="Group 555" transform="translate(-2771.355 -4257.868)">
    <g id="love" transform="translate(2771.355 4241.868)">
      <path id="Path_914" data-name="Path 914" d="M128.277,21.853c0-2.263-1.481-5.853-5.454-5.853a4.9,4.9,0,0,0-4.094,2.291A4.9,4.9,0,0,0,114.634,16c-3.974,0-5.454,3.59-5.454,5.853,0,3.9,3.045,6.342,7.205,9.9.611.523,1.243,1.063,1.917,1.648a.65.65,0,0,0,.852,0c.674-.585,1.306-1.125,1.917-1.648,4.355-3.724,7.205-6.08,7.205-9.9Zm-9.548,10.2c-.52-.448-1.015-.872-1.5-1.285-4.352-3.722-6.75-5.772-6.75-8.911a4.292,4.292,0,0,1,4.154-4.552c1.441,0,2.593.827,3.523,2.529a.65.65,0,0,0,1.141,0c.93-1.7,2.083-2.529,3.523-2.529a4.3,4.3,0,0,1,4.154,4.552c0,3.139-2.4,5.189-6.75,8.911C119.744,31.177,119.248,31.6,118.728,32.049Z" transform="translate(-102.079)" fill="#707070" />
      <path id="Path_915" data-name="Path 915" d="M4.673,135,7.8,136.563v3.5a.65.65,0,0,0,.65.65h6.894a.65.65,0,0,0,.65-.65v-8.49a3.849,3.849,0,0,0-3.472-3.843l-.053-.006a8.264,8.264,0,0,1-3.971-1.7l-1.461-1.46A2.584,2.584,0,0,0,5.2,123.8v-5.2a2.6,2.6,0,0,0-5.2,0v8.834A8.455,8.455,0,0,0,4.673,135ZM1.3,118.6a1.3,1.3,0,1,1,2.6,0v5.551a2.6,2.6,0,0,0-.539,4.092l3.33,3.331a.65.65,0,0,0,.92-.92l-3.33-3.331a1.3,1.3,0,0,1,.486-2.146h0a1.3,1.3,0,0,1,1.353.307l1.461,1.46c1.508,1.508,4.8,2.075,4.809,2.077a2.554,2.554,0,0,1,2.306,2.549v7.84H9.1v-3.252a.65.65,0,0,0-.36-.582l-3.49-1.745a7.116,7.116,0,0,1-3.954-6.4Z" transform="translate(0 -93.497)" fill="#707070" />
      <path id="Path_916" data-name="Path 916" d="M279.4,116a2.6,2.6,0,0,0-2.6,2.6v5.2a2.584,2.584,0,0,0-1.839.762l-1.461,1.46a8.266,8.266,0,0,1-3.976,1.7l-.043,0A3.851,3.851,0,0,0,266,131.573v8.49a.65.65,0,0,0,.65.65h6.894a.65.65,0,0,0,.65-.65v-3.5l2.129-1.064a.65.65,0,0,0-.582-1.163l-2.488,1.244a.65.65,0,0,0-.359.582v3.252H267.3v-7.84a2.555,2.555,0,0,1,2.311-2.55l.043,0a9.554,9.554,0,0,0,4.761-2.072l1.461-1.46a1.3,1.3,0,0,1,1.352-.307h0a1.3,1.3,0,0,1,.486,2.146l-3.33,3.331a.65.65,0,1,0,.92.92l3.33-3.331a2.6,2.6,0,0,0-.539-4.092V118.6a1.3,1.3,0,0,1,2.6,0v8.834a7.174,7.174,0,0,1-.868,3.416.65.65,0,1,0,1.143.621A8.478,8.478,0,0,0,282,127.436V118.6A2.6,2.6,0,0,0,279.4,116Z" transform="translate(-248.701 -93.496)" fill="#707070"/>
      <path id="Path_917" data-name="Path 917" d="M31.6,37.729s-2.771,3.1-4.641,3.888" fill="none" stroke="#707070" stroke-linecap="round" stroke-width="1.5" />
    </g>
  </g>
</svg>
