<svg xmlns="http://www.w3.org/2000/svg" width="31.026" height="29.176" viewBox="0 0 31.026 29.176">
  <g id="handshake" transform="translate(0 -13.955)">
    <path id="Path_446" data-name="Path 446" d="M28.423,16.554a8.941,8.941,0,0,0-12.911.321A8.911,8.911,0,1,0,2.83,29.373a3.123,3.123,0,0,0,1.755,5.333,3.125,3.125,0,0,0,3.1,3.327,3.121,3.121,0,0,0,3.9,2.8,3.124,3.124,0,0,0,5.212,1.391c.953-.947,1.711-1.545,1.759-2.98a3.127,3.127,0,0,0,2.962-3,3.125,3.125,0,0,0,3-3,3.127,3.127,0,0,0,3-3.195l.9-.9A8.913,8.913,0,0,0,28.423,16.554ZM4.195,30.822l.85-.85a1.127,1.127,0,0,1,1.593,1.593l-.85.85a1.127,1.127,0,0,1-1.593-1.593Zm2.37,4.1a1.119,1.119,0,0,1,.33-.8l.85-.85a1.127,1.127,0,0,1,1.593,1.594l-.75.75a1.181,1.181,0,0,1-.9.43A1.132,1.132,0,0,1,6.565,34.919Zm3.43,3.7a1.132,1.132,0,0,1,0-1.593l.75-.75a1.141,1.141,0,0,1,1.693-.1,1.128,1.128,0,0,1,0,1.593l-.85.85a1.128,1.128,0,0,1-1.593,0Zm6.243,1.35-.85.85a1.127,1.127,0,0,1-1.593,0,1.132,1.132,0,0,1,0-1.593l.85-.85a1.127,1.127,0,1,1,1.593,1.593ZM25.2,30.928a1.132,1.132,0,0,1-1.593,0L19.18,26.5l-1.407,1.407L22.2,32.335a1.127,1.127,0,0,1-1.593,1.593l-4.352-4.352L16.18,29.5l-1.407,1.407.075.075L19.2,35.334a1.127,1.127,0,1,1-1.593,1.593h0a3.117,3.117,0,0,0-2.958-.772,3.131,3.131,0,0,0-3-2.3,3.127,3.127,0,0,0-2.7-2.873A3.123,3.123,0,0,0,4.32,28.05a6.927,6.927,0,1,1,9.785-9.768,4.08,4.08,0,0,0-1.5,2.151,3.506,3.506,0,0,0,1.011,2.278,4.51,4.51,0,0,0,5.585.625l6,6a1.128,1.128,0,0,1,0,1.593Zm1.817-3.191-.3.3q-.052-.057-.107-.112L19.28,20.6l-.7.7a2.583,2.583,0,0,1-3.595.283s-.549-.444-.523-.847S17.24,17.96,17.24,17.96a6.913,6.913,0,0,1,9.777,9.777Z" transform="translate(0 0)" fill="#707070" fill-opacity="0.8" stroke-width="1"/>
  </g>
</svg>
