<svg xmlns="http://www.w3.org/2000/svg" width="28.153" height="26.938" viewBox="0 0 28.153 26.938">
  <g id="Group_565" data-name="Group 565" transform="translate(0.717 0.7)">
    <g id="Group_550" data-name="Group 550" transform="translate(0 0)">
      <path id="Path_908" data-name="Path 908" d="M270.261,349.571H252.32a.664.664,0,0,1-.663-.663V337.024a.359.359,0,0,0-.359-.36h-2.7a.663.663,0,0,1-.439-1.161l12.932-11.394a.3.3,0,0,1,.2-.076.306.306,0,0,1,.2.076L274.423,335.5a.663.663,0,0,1-.439,1.161h-2.7a.359.359,0,0,0-.359.36v11.883A.663.663,0,0,1,270.261,349.571Z" transform="translate(-247.931 -324.033)" fill="none" stroke="#7f7f7f" stroke-miterlimit="10" stroke-width="1.4"/>
      <path id="Path_911" data-name="Path 911" d="M13.009,0,26.981,12.208H0Z" transform="translate(0 0.561)" fill="none"/>
    </g>
    <rect id="Rectangle_1620" data-name="Rectangle 1620" width="4.646" height="4.646" transform="translate(11.151 20.667)" fill="#7f7f7f"/>
  </g>
</svg>
