<svg xmlns="http://www.w3.org/2000/svg" width="44.822" height="33.761" viewBox="0 0 44.822 33.761">
  <g id="Group_563" data-name="Group 563" transform="translate(-0.976)">
    <g id="Group_528" data-name="Group 528" transform="translate(31.442 0)">
      <g id="Group_282" data-name="Group 282" transform="translate(0)">
        <path id="Path_387" data-name="Path 387" d="M333.416,445.066c.007-.522,1.792-7.925,3.916-6.68s-2.753,6.783-3.062,7.064a.493.493,0,0,1-.853-.384Z" transform="translate(-333.414 -438.245)" fill="#d8bce8"/>
        <path id="Path_388" data-name="Path 388" d="M338.867,444.352c1.154-1.045,8.88-5.751,10.093-2.762s-8.931,3.876-9.5,3.852S337.719,445.393,338.867,444.352Z" transform="translate(-334.704 -438.86)" fill="#ffafcc"/>
        <path id="Path_389" data-name="Path 389" d="M336.717,449.386c.37-.112,6.095-.472,5.854,1.374s-5.585-.494-5.87-.66S336.349,449.5,336.717,449.386Z" transform="translate(-334.207 -441.114)" fill="#a2d2ff"/>
      </g>
    </g>
    <g id="Group_560" data-name="Group 560" transform="matrix(-0.966, 0.259, -0.259, -0.966, 16.546, 31.736)">
      <g id="Group_282-2" data-name="Group 282" transform="translate(0 0)">
        <path id="Path_387-2" data-name="Path 387" d="M0,6.821C.01,6.3,1.794-1.1,3.918.141S1.165,6.924.856,7.2A.493.493,0,0,1,0,6.821Z" transform="translate(0 0)" fill="#d8bce8"/>
        <path id="Path_388-2" data-name="Path 388" d="M.487,3.742C1.641,2.7,9.368-2.009,10.58.98s-8.931,3.876-9.5,3.852S-.66,4.783.487,3.742Z" transform="translate(3.675 1.751)" fill="#ffafcc"/>
        <path id="Path_389-2" data-name="Path 389" d="M.253.1c.37-.112,6.095-.472,5.854,1.374S.521.985.237.818-.115.216.253.1Z" transform="translate(2.258 8.169)" fill="#a2d2ff"/>
      </g>
    </g>
    <g id="Group_533" data-name="Group 533" transform="translate(10.493 12.568)">
      <path id="Path_445" data-name="Path 445" d="M4176.808,1143.637s8.047-5.464,9.99-2.137c.837,1.417-3.445,7.192-4.555,5.862-.662-.638-.341-8.52,11.423-8.956,3.757-.244,3.163,2.752,2.466,3.914s-3.5,4.434,2.2,3.89" transform="translate(-4175.159 -1138.391)" fill="none" stroke="#707070" stroke-width="1.1"/>
      <circle id="Ellipse_300" data-name="Ellipse 300" cx="1.372" cy="1.372" r="1.372" transform="translate(0 4)" fill="#707070"/>
    </g>
  </g>
</svg>
