<svg xmlns="http://www.w3.org/2000/svg" width="26.396" height="23.272" viewBox="0 0 26.396 23.272">
  <g id="Group_855" data-name="Group 855" transform="translate(0.701 0.703)">
    <path id="Union_43" data-name="Union 43" d="M11.389,21.4,1.944,11.644A7.009,7.009,0,0,1,2.427,1.5a6.675,6.675,0,0,1,9.109.664l.962.991.962-.991A6.675,6.675,0,0,1,22.567,1.5a7,7,0,0,1,.479,10.148L13.6,21.4a1.53,1.53,0,0,1-2.211,0Z" fill="none" stroke="#707070" stroke-linejoin="round" stroke-width="1.4"/>
    <rect id="Rectangle_1625" data-name="Rectangle 1625" width="5.491" height="1.647" rx="0.824" transform="translate(19.26 4.934) rotate(90)" fill="#707070"/>
    <rect id="Rectangle_1626" data-name="Rectangle 1626" width="5.491" height="1.648" rx="0.824" transform="translate(15.757 6.666) rotate(4)" fill="#707070"/>
  </g>
</svg>
