<svg id="Component_37_1" data-name="Component 37 – 1" xmlns="http://www.w3.org/2000/svg" width="157.907" height="157.907" viewBox="0 0 157.907 157.907">
  <g id="Group_192" data-name="Group 192">
    <path id="Path_308" data-name="Path 308" d="M78.953,0A78.953,78.953,0,1,1,0,78.953,78.953,78.953,0,0,1,78.953,0Z" transform="translate(0 0)" fill="#fbd9d9"/>
    <g id="Group_187" data-name="Group 187" transform="translate(4.896 4.896)">
      <g id="Group_179" data-name="Group 179" transform="translate(9.051 9.405)" opacity="0.5">
        <circle id="Ellipse_247" data-name="Ellipse 247" cx="65.007" cy="65.007" r="65.007" fill="#fff"/>
      </g>
      <circle id="Ellipse_248" data-name="Ellipse 248" cx="74.058" cy="74.058" r="74.058" fill="#fff"/>
      <path id="Path_250" data-name="Path 250" d="M297.719,288.2a63.335,63.335,0,0,0,34.98-10.467c-2.345-12.812-11.269-13.547-11.269-13.547h-49.2s-8.414.69-11.05,12.481A63.341,63.341,0,0,0,297.719,288.2Z" transform="translate(-223.482 -150.334)" fill="#fff"/>
      <circle id="Ellipse_249" data-name="Ellipse 249" cx="28.209" cy="28.209" r="28.209" transform="translate(45.36 44.446)" fill="#fff"/>
      <path id="Path_251" data-name="Path 251" d="M98.18,164.57h19.683v15.745a9.839,9.839,0,0,1-9.839,9.839h0a9.839,9.839,0,0,1-9.839-9.839V164.57Z" transform="translate(-34.522 -66.33)" fill="#fff" opacity="0.1"/>
      <path id="Path_252" data-name="Path 252" d="M100.064,163.27h15.925a1.879,1.879,0,0,1,1.879,1.879v13.866a9.839,9.839,0,0,1-9.839,9.839h0a9.839,9.839,0,0,1-9.839-9.839V165.149A1.879,1.879,0,0,1,100.064,163.27Z" transform="translate(-34.527 -65.76)" fill="#fff"/>
      <path id="Path_253" data-name="Path 253" d="M307.53,247.752a28.327,28.327,0,0,0,19.683.056V245.39H307.53Z" transform="translate(-243.833 -142.079)" fill="#fff" opacity="0.1"/>
      <circle id="Ellipse_250" data-name="Ellipse 250" cx="28.209" cy="28.209" r="28.209" transform="translate(45.36 50.572)" fill="#fff"/>
      <path id="Path_254" data-name="Path 254" d="M274.262,153.32c.331-1.217.746-2.558,1.84-3.192a5.239,5.239,0,0,1,2.934-.376c7.8.426,15.527-1.352,23.111-3.209,4.336-1.06,8.975-2.35,11.78-5.845s-.853-14.478-5.121-15.773c-2.8-.858-6.058.74-8.717-.516a16.924,16.924,0,0,1-3.074-2.429c-2.092-1.683-4.779-2.362-7.382-3-3.04-.752-6.327-1.486-9.216-.28-2.244.931-3.882,2.9-6.008,4.067-4.044,2.244-8.975,1.2-13.608,1.189-1.565,0-3.433.314-4.056,1.75-.421.976-.084,2.087-.039,3.147.135,3.366-2.642,5.985-4.97,8.414s-4.527,5.9-3.057,8.913c.561,1.15,1.587,2.019,2.171,3.158,1,1.975.5,4.358.864,6.54a16.456,16.456,0,0,0,1.834,4.712c1.728,3.366,10.405,21.484,14.394,16.878,1.93-2.244,2.244-8.728,3.023-11.645Q272.579,159.535,274.262,153.32Z" transform="translate(-217.784 -86.173)" fill="#fff"/>
      <ellipse id="Ellipse_251" data-name="Ellipse 251" cx="2.625" cy="4.919" rx="2.625" ry="4.919" transform="translate(50.874 72.835)" fill="#fff"/>
    </g>
  </g>
  <g id="Group_198" data-name="Group 198" transform="translate(11.607 8.641)">
    <path id="Path_314" data-name="Path 314" d="M66.827,0A66.827,66.827,0,1,1,0,66.827,66.827,66.827,0,0,1,66.827,0Z" transform="translate(0 0)" fill="#fff"/>
    <path id="Path_280" data-name="Path 280" d="M298.7,534.069a66.515,66.515,0,0,0,36.73-10.992C332.971,509.622,323.6,508.85,323.6,508.85H271.905s-8.836.725-11.605,13.107a66.52,66.52,0,0,0,38.4,12.112Z" transform="translate(-231.817 -400.15)" fill="#fbd9d9"/>
    <circle id="Ellipse_274" data-name="Ellipse 274" cx="32.259" cy="32.259" r="32.259" transform="translate(33.92 33.16)" fill="#333"/>
    <path id="Path_281" data-name="Path 281" d="M97.34,409.21h20.671v16.536a10.333,10.333,0,0,1-10.333,10.333h0a10.333,10.333,0,0,1-10.333-10.333V409.21Z" transform="translate(-41.57 -316.922)" opacity="0.1"/>
    <path id="Path_282" data-name="Path 282" d="M99.313,407.906h16.724a1.974,1.974,0,0,1,1.973,1.974v14.574a10.333,10.333,0,0,1-10.333,10.333h0A10.333,10.333,0,0,1,97.34,424.454v-14.58a1.973,1.973,0,0,1,1.973-1.973Z" transform="translate(-41.57 -316.384)" fill="#fdb797"/>
    <path id="Path_283" data-name="Path 283" d="M306.69,492.5a29.75,29.75,0,0,0,20.671.059V490H306.69Z" transform="translate(-250.879 -392.405)" opacity="0.1"/>
    <circle id="Ellipse_275" data-name="Ellipse 275" cx="29.626" cy="29.626" r="29.626" transform="translate(36.553 42.226)" fill="#fdb797"/>
    <path id="Path_284" data-name="Path 284" d="M288.48,395.336s12.483,25.331,47.717,10.6l-8.2-12.86-14.533-5.219Z" transform="translate(-243.396 -350.435)" opacity="0.1"/>
    <path id="Path_285" data-name="Path 285" d="M288.48,394.706s12.483,25.331,47.717,10.6l-8.2-12.86-14.533-5.219Z" transform="translate(-243.396 -350.176)" fill="#333"/>
    <path id="Path_286" data-name="Path 286" d="M287.859,382.737a17.113,17.113,0,0,1,4.242-6.9c5.826-5.761,15.381-6.975,20.283-13.549a3.835,3.835,0,0,1-1.767,5.408c4.713-.029,10.138-.442,12.789-4.306a8.783,8.783,0,0,1-1.479,9.272c4.159.189,8.6,3.01,8.872,7.169.177,2.769-1.555,5.39-3.835,6.981a21.364,21.364,0,0,1-7.741,2.916C311.317,391.486,282.7,398.8,287.859,382.737Z" transform="translate(-242.887 -339.928)" fill="#333"/>
    <ellipse id="Ellipse_276" data-name="Ellipse 276" cx="2.757" cy="5.166" rx="2.757" ry="5.166" transform="translate(33.785 66.656)" fill="#fdb797"/>
    <ellipse id="Ellipse_277" data-name="Ellipse 277" cx="2.757" cy="5.166" rx="2.757" ry="5.166" transform="translate(93.042 66.656)" fill="#fdb797"/>
  </g>
</svg>
