<svg id="Component_36_1" data-name="Component 36 – 1" xmlns="http://www.w3.org/2000/svg" width="158" height="158" viewBox="0 0 158 158">
  <g id="Group_193" data-name="Group 193" transform="translate(0.216 0.425)">
    <circle id="Ellipse_241" data-name="Ellipse 241" cx="79" cy="79" r="79" transform="translate(-0.216 -0.425)" fill="#ddedfa"/>
    <g id="Group_187" data-name="Group 187" transform="translate(4.896 4.896)">
      <g id="Group_179" data-name="Group 179" transform="translate(9.051 9.405)" opacity="0.5">
        <circle id="Ellipse_247" data-name="Ellipse 247" cx="65.007" cy="65.007" r="65.007" fill="#fff"/>
      </g>
      <circle id="Ellipse_248" data-name="Ellipse 248" cx="74.058" cy="74.058" r="74.058" fill="#fff"/>
      <path id="Path_250" data-name="Path 250" d="M297.719,288.2a63.335,63.335,0,0,0,34.98-10.467c-2.345-12.812-11.269-13.547-11.269-13.547h-49.2s-8.414.69-11.05,12.481A63.341,63.341,0,0,0,297.719,288.2Z" transform="translate(-223.482 -150.334)" fill="#fff"/>
      <circle id="Ellipse_249" data-name="Ellipse 249" cx="28.209" cy="28.209" r="28.209" transform="translate(45.36 44.446)" fill="#fff"/>
      <path id="Path_251" data-name="Path 251" d="M98.18,164.57h19.683v15.745a9.839,9.839,0,0,1-9.839,9.839h0a9.839,9.839,0,0,1-9.839-9.839V164.57Z" transform="translate(-34.522 -66.33)" fill="#fff" opacity="0.1"/>
      <path id="Path_252" data-name="Path 252" d="M100.064,163.27h15.925a1.879,1.879,0,0,1,1.879,1.879v13.866a9.839,9.839,0,0,1-9.839,9.839h0a9.839,9.839,0,0,1-9.839-9.839V165.149A1.879,1.879,0,0,1,100.064,163.27Z" transform="translate(-34.527 -65.76)" fill="#fff"/>
      <path id="Path_253" data-name="Path 253" d="M307.53,247.752a28.327,28.327,0,0,0,19.683.056V245.39H307.53Z" transform="translate(-243.833 -142.079)" fill="#fff" opacity="0.1"/>
      <circle id="Ellipse_250" data-name="Ellipse 250" cx="28.209" cy="28.209" r="28.209" transform="translate(45.36 50.572)" fill="#fff"/>
      <path id="Path_254" data-name="Path 254" d="M274.262,153.32c.331-1.217.746-2.558,1.84-3.192a5.239,5.239,0,0,1,2.934-.376c7.8.426,15.527-1.352,23.111-3.209,4.336-1.06,8.975-2.35,11.78-5.845s-.853-14.478-5.121-15.773c-2.8-.858-6.058.74-8.717-.516a16.924,16.924,0,0,1-3.074-2.429c-2.092-1.683-4.779-2.362-7.382-3-3.04-.752-6.327-1.486-9.216-.28-2.244.931-3.882,2.9-6.008,4.067-4.044,2.244-8.975,1.2-13.608,1.189-1.565,0-3.433.314-4.056,1.75-.421.976-.084,2.087-.039,3.147.135,3.366-2.642,5.985-4.97,8.414s-4.527,5.9-3.057,8.913c.561,1.15,1.587,2.019,2.171,3.158,1,1.975.5,4.358.864,6.54a16.456,16.456,0,0,0,1.834,4.712c1.728,3.366,10.405,21.484,14.394,16.878,1.93-2.244,2.244-8.728,3.023-11.645Q272.579,159.535,274.262,153.32Z" transform="translate(-217.784 -86.173)" fill="#fff"/>
      <ellipse id="Ellipse_251" data-name="Ellipse 251" cx="2.625" cy="4.919" rx="2.625" ry="4.919" transform="translate(50.874 72.835)" fill="#fff"/>
    </g>
  </g>
  <g id="Group_201" data-name="Group 201" transform="translate(12.26 9.831)">
    <path id="Path_312" data-name="Path 312" d="M66.827,0A66.827,66.827,0,1,1,0,66.827,66.827,66.827,0,0,1,66.827,0Z" transform="translate(0 0)" fill="#fff"/>
    <path id="Path_272" data-name="Path 272" d="M844.064,283.225A66.515,66.515,0,0,0,880.8,272.233C878.331,258.772,868.965,258,868.965,258H817.3s-8.836.725-11.605,13.107A66.52,66.52,0,0,0,844.064,283.225Z" transform="translate(-777.177 -149.3)" fill="#ddedfa"/>
    <circle id="Ellipse_268" data-name="Ellipse 268" cx="32.259" cy="32.259" r="32.259" transform="translate(33.926 33.16)" fill="#72351c"/>
    <path id="Path_273" data-name="Path 273" d="M642.68,158.36h20.671V174.9a10.333,10.333,0,0,1-10.333,10.35h0a10.333,10.333,0,0,1-10.333-10.333V158.36Z" transform="translate(-586.91 -66.072)" opacity="0.1"/>
    <path id="Path_274" data-name="Path 274" d="M644.628,157.06h16.724a1.974,1.974,0,0,1,1.974,1.973V173.6a10.333,10.333,0,0,1-10.333,10.333h0A10.333,10.333,0,0,1,642.66,173.6V159.033a1.973,1.973,0,0,1,1.974-1.973Z" transform="translate(-586.902 -65.538)" fill="#fda57d"/>
    <path id="Path_275" data-name="Path 275" d="M852,241.66a29.749,29.749,0,0,0,20.671.059V239.18H852Z" transform="translate(-796.207 -141.567)" opacity="0.1"/>
    <circle id="Ellipse_269" data-name="Ellipse 269" cx="29.626" cy="29.626" r="29.626" transform="translate(36.559 42.226)" fill="#fda57d"/>
    <path id="Path_276" data-name="Path 276" d="M833.82,144.5s12.483,25.331,47.717,10.6l-8.2-12.86L858.8,137.02Z" transform="translate(-788.736 -99.589)" opacity="0.1"/>
    <path id="Path_277" data-name="Path 277" d="M833.82,143.866s12.483,25.331,47.717,10.6l-8.2-12.86L858.8,136.39Z" transform="translate(-788.736 -99.33)" fill="#72351c"/>
    <path id="Path_278" data-name="Path 278" d="M833.2,131.907a17.113,17.113,0,0,1,4.241-6.9c5.826-5.761,15.381-6.975,20.282-13.549a3.835,3.835,0,0,1-1.767,5.408c4.713-.029,10.138-.442,12.789-4.306a8.783,8.783,0,0,1-1.479,9.272c4.159.189,8.6,3.01,8.872,7.169.177,2.769-1.555,5.39-3.835,6.981a21.084,21.084,0,0,1-7.735,2.892C856.663,140.644,828.038,147.954,833.2,131.907Z" transform="translate(-788.227 -89.086)" fill="#72351c"/>
    <path id="Path_279" data-name="Path 279" d="M878.613,195.89h-.783L862.549,209.5c-14.727-6.892-25.531,0-25.531,0l-16.023-13.043-1.614.2a29.624,29.624,0,1,0,59.243-.76Zm-29.667,18.822c-5.761,0-10.433-1.178-10.433-2.61s4.672-2.61,10.433-2.61,10.433,1.178,10.433,2.61-4.672,2.61-10.439,2.61Z" transform="translate(-782.803 -123.779)" fill="#72351c"/>
    <ellipse id="Ellipse_270" data-name="Ellipse 270" cx="2.757" cy="5.166" rx="2.757" ry="5.166" transform="translate(33.791 66.656)" fill="#fda57d"/>
    <ellipse id="Ellipse_271" data-name="Ellipse 271" cx="2.757" cy="5.166" rx="2.757" ry="5.166" transform="translate(93.048 66.656)" fill="#fda57d"/>
  </g>
</svg>
