<svg id="Component_35_1" data-name="Component 35 – 1" xmlns="http://www.w3.org/2000/svg" width="157.907" height="157.907" viewBox="0 0 157.907 157.907">
  <g id="Group_194" data-name="Group 194">
    <path id="Path_310" data-name="Path 310" d="M78.953,0A78.953,78.953,0,1,1,0,78.953,78.953,78.953,0,0,1,78.953,0Z" fill="#fcd5e4"/>
    <g id="Group_187" data-name="Group 187" transform="translate(4.896 4.896)">
      <g id="Group_179" data-name="Group 179" transform="translate(9.051 9.405)" opacity="0.5">
        <circle id="Ellipse_247" data-name="Ellipse 247" cx="65.007" cy="65.007" r="65.007" fill="#fff"/>
      </g>
      <circle id="Ellipse_248" data-name="Ellipse 248" cx="74.058" cy="74.058" r="74.058" fill="#fff"/>
      <path id="Path_250" data-name="Path 250" d="M297.719,288.2a63.335,63.335,0,0,0,34.98-10.467c-2.345-12.812-11.269-13.547-11.269-13.547h-49.2s-8.414.69-11.05,12.481A63.341,63.341,0,0,0,297.719,288.2Z" transform="translate(-223.482 -150.334)" fill="#fff"/>
      <circle id="Ellipse_249" data-name="Ellipse 249" cx="28.209" cy="28.209" r="28.209" transform="translate(45.36 44.446)" fill="#fff"/>
      <path id="Path_251" data-name="Path 251" d="M98.18,164.57h19.683v15.745a9.839,9.839,0,0,1-9.839,9.839h0a9.839,9.839,0,0,1-9.839-9.839V164.57Z" transform="translate(-34.522 -66.33)" fill="#fff" opacity="0.1"/>
      <path id="Path_252" data-name="Path 252" d="M100.064,163.27h15.925a1.879,1.879,0,0,1,1.879,1.879v13.866a9.839,9.839,0,0,1-9.839,9.839h0a9.839,9.839,0,0,1-9.839-9.839V165.149A1.879,1.879,0,0,1,100.064,163.27Z" transform="translate(-34.527 -65.76)" fill="#fff"/>
      <path id="Path_253" data-name="Path 253" d="M307.53,247.752a28.327,28.327,0,0,0,19.683.056V245.39H307.53Z" transform="translate(-243.833 -142.079)" fill="#fff" opacity="0.1"/>
      <circle id="Ellipse_250" data-name="Ellipse 250" cx="28.209" cy="28.209" r="28.209" transform="translate(45.36 50.572)" fill="#fff"/>
      <path id="Path_254" data-name="Path 254" d="M274.262,153.32c.331-1.217.746-2.558,1.84-3.192a5.239,5.239,0,0,1,2.934-.376c7.8.426,15.527-1.352,23.111-3.209,4.336-1.06,8.975-2.35,11.78-5.845s-.853-14.478-5.121-15.773c-2.8-.858-6.058.74-8.717-.516a16.924,16.924,0,0,1-3.074-2.429c-2.092-1.683-4.779-2.362-7.382-3-3.04-.752-6.327-1.486-9.216-.28-2.244.931-3.882,2.9-6.008,4.067-4.044,2.244-8.975,1.2-13.608,1.189-1.565,0-3.433.314-4.056,1.75-.421.976-.084,2.087-.039,3.147.135,3.366-2.642,5.985-4.97,8.414s-4.527,5.9-3.057,8.913c.561,1.15,1.587,2.019,2.171,3.158,1,1.975.5,4.358.864,6.54a16.456,16.456,0,0,0,1.834,4.712c1.728,3.366,10.405,21.484,14.394,16.878,1.93-2.244,2.244-8.728,3.023-11.645Q272.579,159.535,274.262,153.32Z" transform="translate(-217.784 -86.173)" fill="#fff"/>
      <ellipse id="Ellipse_251" data-name="Ellipse 251" cx="2.625" cy="4.919" rx="2.625" ry="4.919" transform="translate(50.874 72.835)" fill="#fff"/>
    </g>
  </g>
  <g id="Group_200" data-name="Group 200" transform="translate(12.944 9.47)">
    <circle id="Ellipse_284" data-name="Ellipse 284" cx="66.827" cy="66.827" r="66.827" transform="translate(0 0)" fill="#fff"/>
    <path id="Path_294" data-name="Path 294" d="M338.722,682.723c0,24.612-16.059,52.011-35.87,52.011S267,707.335,267,682.723s16.059-37.113,35.87-37.113S338.722,658.117,338.722,682.723Z" transform="translate(-234.93 -609.887)" fill="#ffefa8"/>
    <path id="Path_295" data-name="Path 295" d="M299.554,794.609a66.515,66.515,0,0,0,36.736-10.992c-2.462-13.455-11.835-14.227-11.835-14.227H272.785s-8.836.725-11.605,13.107A66.521,66.521,0,0,0,299.554,794.609Z" transform="translate(-232.538 -660.749)" fill="#fcd5e4"/>
    <path id="Path_296" data-name="Path 296" d="M98.18,669.74h20.671v16.536a10.333,10.333,0,0,1-10.333,10.333h0a10.333,10.333,0,0,1-10.333-10.333V669.74Z" transform="translate(-42.275 -577.517)" opacity="0.1"/>
    <path id="Path_297" data-name="Path 297" d="M100.158,668.44h16.724a1.973,1.973,0,0,1,1.973,1.973v14.563a10.333,10.333,0,0,1-10.333,10.333h0A10.333,10.333,0,0,1,98.19,684.976V670.413A1.973,1.973,0,0,1,100.158,668.44Z" transform="translate(-42.279 -576.983)" fill="#f7c4ad"/>
    <path id="Path_298" data-name="Path 298" d="M307.53,753.04a29.749,29.749,0,0,0,20.671.059V750.56H307.53Z" transform="translate(-251.584 -653.012)" opacity="0.1"/>
    <circle id="Ellipse_285" data-name="Ellipse 285" cx="29.626" cy="29.626" r="29.626" transform="translate(36.689 42.161)" fill="#f7c4ad"/>
    <ellipse id="Ellipse_286" data-name="Ellipse 286" cx="2.757" cy="5.166" rx="2.757" ry="5.166" transform="translate(34.545 65.354)" fill="#f7c4ad"/>
    <ellipse id="Ellipse_287" data-name="Ellipse 287" cx="2.757" cy="5.166" rx="2.757" ry="5.166" transform="translate(92.417 65.354)" fill="#f7c4ad"/>
    <path id="Path_299" data-name="Path 299" d="M280.57,667.956s16.748,22.922,55.157,15.093c0,0,4.289-5.219-6.15-21.243S290.072,648.392,280.57,667.956Z" transform="translate(-240.506 -612.239)" opacity="0.1"/>
    <path id="Path_300" data-name="Path 300" d="M280.57,667.326s16.748,22.922,55.157,15.093c0,0,4.289-5.219-6.15-21.243S290.072,647.762,280.57,667.326Z" transform="translate(-240.506 -611.981)" fill="#ffefa8"/>
  </g>
</svg>
