<svg id="Component_38_1" data-name="Component 38 – 1" xmlns="http://www.w3.org/2000/svg" xmlns:xlink="http://www.w3.org/1999/xlink" width="157.907" height="157.907" viewBox="0 0 157.907 157.907">
  <defs>
    <linearGradient id="linear-gradient" x1="0.5" y1="1" x2="0.5" gradientUnits="objectBoundingBox">
      <stop offset="0" stop-color="gray" stop-opacity="0.251"/>
      <stop offset="0.54" stop-color="gray" stop-opacity="0.122"/>
      <stop offset="1" stop-color="gray" stop-opacity="0.102"/>
    </linearGradient>
  </defs>
  <circle id="Ellipse_257" data-name="Ellipse 257" cx="7.829" cy="7.829" r="7.829" transform="translate(70.925 21.677)" fill="#f55f44"/>
  <path id="Path_262" data-name="Path 262" d="M574,391.534a147.178,147.178,0,0,1,23.081,0S580.032,393.119,574,391.534Z" transform="translate(-507.09 -347.59)" fill="#333"/>
  <path id="Path_263" data-name="Path 263" d="M595.217,353.236a7.847,7.847,0,0,0-1.767.135h.454a7.823,7.823,0,0,1,1.178,15.511,7.824,7.824,0,0,0,.141-15.646Z" transform="translate(-519.849 -332.037)" fill="#f55f44"/>
  <g id="Group_219" data-name="Group 219">
    <g id="Group_191" data-name="Group 191">
      <path id="Path_309" data-name="Path 309" d="M78.953,0A78.953,78.953,0,1,1,0,78.953,78.953,78.953,0,0,1,78.953,0Z" transform="translate(0 0)" fill="#eee2f7"/>
      <g id="Group_187" data-name="Group 187" transform="translate(4.896 4.896)">
        <g id="Group_179" data-name="Group 179" transform="translate(9.051 9.405)" opacity="0.5">
          <circle id="Ellipse_247" data-name="Ellipse 247" cx="65.007" cy="65.007" r="65.007" fill="url(#linear-gradient)"/>
        </g>
        <circle id="Ellipse_248" data-name="Ellipse 248" cx="74.058" cy="74.058" r="74.058" fill="#fff"/>
        <path id="Path_250" data-name="Path 250" d="M297.719,288.2a63.335,63.335,0,0,0,34.98-10.467c-2.345-12.812-11.269-13.547-11.269-13.547h-49.2s-8.414.69-11.05,12.481A63.341,63.341,0,0,0,297.719,288.2Z" transform="translate(-223.482 -150.334)" fill="#6c63ff"/>
        <circle id="Ellipse_249" data-name="Ellipse 249" cx="28.209" cy="28.209" r="28.209" transform="translate(45.36 44.446)" fill="#333"/>
        <path id="Path_251" data-name="Path 251" d="M98.18,164.57h19.683v15.745a9.839,9.839,0,0,1-9.839,9.839h0a9.839,9.839,0,0,1-9.839-9.839V164.57Z" transform="translate(-34.522 -66.33)" opacity="0.1"/>
        <path id="Path_252" data-name="Path 252" d="M100.064,163.27h15.925a1.879,1.879,0,0,1,1.879,1.879v13.866a9.839,9.839,0,0,1-9.839,9.839h0a9.839,9.839,0,0,1-9.839-9.839V165.149A1.879,1.879,0,0,1,100.064,163.27Z" transform="translate(-34.527 -65.76)" fill="#be7c5e"/>
        <path id="Path_253" data-name="Path 253" d="M307.53,247.752a28.327,28.327,0,0,0,19.683.056V245.39H307.53Z" transform="translate(-243.833 -142.079)" opacity="0.1"/>
        <circle id="Ellipse_250" data-name="Ellipse 250" cx="28.209" cy="28.209" r="28.209" transform="translate(45.36 50.572)" fill="#be7c5e"/>
        <path id="Path_254" data-name="Path 254" d="M274.262,153.32c.331-1.217.746-2.558,1.84-3.192a5.239,5.239,0,0,1,2.934-.376c7.8.426,15.527-1.352,23.111-3.209,4.336-1.06,8.975-2.35,11.78-5.845s-.853-14.478-5.121-15.773c-2.8-.858-6.058.74-8.717-.516a16.924,16.924,0,0,1-3.074-2.429c-2.092-1.683-4.779-2.362-7.382-3-3.04-.752-6.327-1.486-9.216-.28-2.244.931-3.882,2.9-6.008,4.067-4.044,2.244-8.975,1.2-13.608,1.189-1.565,0-3.433.314-4.056,1.75-.421.976-.084,2.087-.039,3.147.135,3.366-2.642,5.985-4.97,8.414s-4.527,5.9-3.057,8.913c.561,1.15,1.587,2.019,2.171,3.158,1,1.975.5,4.358.864,6.54a16.456,16.456,0,0,0,1.834,4.712c1.728,3.366,10.405,21.484,14.394,16.878,1.93-2.244,2.244-8.728,3.023-11.645Q272.579,159.535,274.262,153.32Z" transform="translate(-217.784 -86.173)" fill="#333"/>
        <ellipse id="Ellipse_251" data-name="Ellipse 251" cx="2.625" cy="4.919" rx="2.625" ry="4.919" transform="translate(50.874 72.835)" fill="#be7c5e"/>
      </g>
    </g>
    <circle id="Ellipse_253" data-name="Ellipse 253" cx="66.827" cy="66.827" r="66.827" transform="translate(12.044 8.64)" fill="#fff"/>
    <path id="Path_255" data-name="Path 255" d="M567.91,541.659a66.514,66.514,0,0,0,36.712-10.993c-2.462-13.455-11.835-14.227-11.835-14.227H541.135s-8.836.725-11.605,13.107A66.521,66.521,0,0,0,567.91,541.659Z" transform="translate(-488.046 -399.1)" fill="#eee2f7"/>
    <circle id="Ellipse_254" data-name="Ellipse 254" cx="32.259" cy="32.259" r="32.259" transform="translate(46.837 41.801)" fill="#f55f44"/>
    <path id="Path_256" data-name="Path 256" d="M366.53,416.8H387.2v16.536a10.333,10.333,0,0,1-10.333,10.333h0a10.333,10.333,0,0,1-10.333-10.333V416.8Z" transform="translate(-298.282 -315.872)" opacity="0.1"/>
    <path id="Path_257" data-name="Path 257" d="M368.508,415.5h16.724a1.973,1.973,0,0,1,1.973,1.973v14.562a10.333,10.333,0,0,1-10.333,10.333h0a10.333,10.333,0,0,1-10.333-10.333V417.473a1.973,1.973,0,0,1,1.974-1.973Z" transform="translate(-298.292 -315.338)" fill="#fda57d"/>
    <path id="Path_258" data-name="Path 258" d="M575.88,500.1a29.749,29.749,0,0,0,20.671.059V497.62H575.88Z" transform="translate(-507.632 -391.367)" opacity="0.1"/>
    <circle id="Ellipse_255" data-name="Ellipse 255" cx="29.626" cy="29.626" r="29.626" transform="translate(49.513 50.867)" fill="#fda57d"/>
    <circle id="Ellipse_256" data-name="Ellipse 256" cx="11.923" cy="11.923" r="11.923" transform="translate(66.91 29.324)" fill="#f55f44"/>
    <path id="Path_259" data-name="Path 259" d="M579.4,387.736a11.923,11.923,0,0,1-6.215-15.246c-.083.165-.165.336-.242.507a11.925,11.925,0,0,0,21.761,9.761c.077-.171.147-.342.218-.518a11.923,11.923,0,0,1-15.523,5.5Z" transform="translate(-504.982 -339.95)" fill="#f55f44"/>
    <path id="Path_260" data-name="Path 260" d="M557.67,402.936s12.483,25.331,47.717,10.6l-8.2-12.86-14.533-5.219Z" transform="translate(-502.804 -349.389)" opacity="0.1"/>
    <path id="Path_261" data-name="Path 261" d="M557.67,402.3s12.483,25.331,47.717,10.6l-8.2-12.86-14.533-5.219Z" transform="translate(-502.804 -349.125)" fill="#f55f44"/>
    <ellipse id="Ellipse_258" data-name="Ellipse 258" cx="2.757" cy="5.166" rx="2.757" ry="5.166" transform="translate(76.277 75.297)" fill="#fda57d"/>
    <ellipse id="Ellipse_259" data-name="Ellipse 259" cx="2.757" cy="5.166" rx="2.757" ry="5.166" transform="translate(76.277 75.297)" fill="#fda57d"/>
    <path id="Path_264" data-name="Path 264" d="M345.22,334.921,351,331.94l1.3,4.778-3.54,2.409Z" transform="translate(-270.281 -281.003)" fill="#f55f44"/>
  </g>
</svg>
