<svg id="Component_34_1" data-name="Component 34 – 1" xmlns="http://www.w3.org/2000/svg" width="158" height="158" viewBox="0 0 158 158">
  <path id="Path_302" data-name="Path 302" d="M577.609,809.693a71.271,71.271,0,0,0,39.37-11.779C614.341,783.5,604.3,782.67,604.3,782.67H548.925s-9.469.776-12.435,14.045A71.28,71.28,0,0,0,577.609,809.693Z" transform="translate(-497.467 -661.174)" fill="#fcd5e4"/>
  <path id="Path_303" data-name="Path 303" d="M373.479,683h22.15v17.719a11.072,11.072,0,0,1-11.1,11.091h0a11.072,11.072,0,0,1-11.072-11.072V683Z" transform="translate(-304.996 -579.11)" opacity="0.1"/>
  <path id="Path_304" data-name="Path 304" d="M375.587,681.726h17.921a2.115,2.115,0,0,1,2.115,2.115v15.6a11.072,11.072,0,0,1-11.091,11.072h0a11.072,11.072,0,0,1-11.072-11.072v-15.61a2.115,2.115,0,0,1,2.115-2.115Z" transform="translate(-304.996 -578.637)" fill="#fda57d"/>
  <path id="Path_305" data-name="Path 305" d="M582.84,766.507a31.877,31.877,0,0,0,22.15.063V763.85H582.84Z" transform="translate(-514.376 -654.235)" opacity="0.1"/>
  <g id="Group_218" data-name="Group 218" transform="translate(0.216 -0.333)">
    <g id="Group_190" data-name="Group 190">
      <circle id="Ellipse_241" data-name="Ellipse 241" cx="79" cy="79" r="79" transform="translate(-0.216 0.332)" fill="#fcd5e4"/>
      <g id="Group_187" data-name="Group 187" transform="translate(4.896 4.896)">
        <g id="Group_179" data-name="Group 179" transform="translate(9.051 9.405)" opacity="0.5">
          <circle id="Ellipse_247" data-name="Ellipse 247" cx="65.007" cy="65.007" r="65.007" fill="#fff"/>
        </g>
        <circle id="Ellipse_248" data-name="Ellipse 248" cx="74.058" cy="74.058" r="74.058" fill="#fff"/>
        <path id="Path_250" data-name="Path 250" d="M297.719,288.2a63.335,63.335,0,0,0,34.98-10.467c-2.345-12.812-11.269-13.547-11.269-13.547h-49.2s-8.414.69-11.05,12.481A63.341,63.341,0,0,0,297.719,288.2Z" transform="translate(-223.482 -150.334)" fill="#fff"/>
        <circle id="Ellipse_249" data-name="Ellipse 249" cx="28.209" cy="28.209" r="28.209" transform="translate(45.36 44.446)" fill="#fff"/>
        <path id="Path_251" data-name="Path 251" d="M98.18,164.57h19.683v15.745a9.839,9.839,0,0,1-9.839,9.839h0a9.839,9.839,0,0,1-9.839-9.839V164.57Z" transform="translate(-34.522 -66.33)" fill="#fff" opacity="0.1"/>
        <path id="Path_252" data-name="Path 252" d="M100.064,163.27h15.925a1.879,1.879,0,0,1,1.879,1.879v13.866a9.839,9.839,0,0,1-9.839,9.839h0a9.839,9.839,0,0,1-9.839-9.839V165.149A1.879,1.879,0,0,1,100.064,163.27Z" transform="translate(-34.527 -65.76)" fill="#fff"/>
        <path id="Path_253" data-name="Path 253" d="M307.53,247.752a28.327,28.327,0,0,0,19.683.056V245.39H307.53Z" transform="translate(-243.833 -142.079)" fill="#fff" opacity="0.1"/>
        <circle id="Ellipse_250" data-name="Ellipse 250" cx="28.209" cy="28.209" r="28.209" transform="translate(45.36 50.572)" fill="#fff"/>
        <path id="Path_254" data-name="Path 254" d="M274.262,153.32c.331-1.217.746-2.558,1.84-3.192a5.239,5.239,0,0,1,2.934-.376c7.8.426,15.527-1.352,23.111-3.209,4.336-1.06,8.975-2.35,11.78-5.845s-.853-14.478-5.121-15.773c-2.8-.858-6.058.74-8.717-.516a16.924,16.924,0,0,1-3.074-2.429c-2.092-1.683-4.779-2.362-7.382-3-3.04-.752-6.327-1.486-9.216-.28-2.244.931-3.882,2.9-6.008,4.067-4.044,2.244-8.975,1.2-13.608,1.189-1.565,0-3.433.314-4.056,1.75-.421.976-.084,2.087-.039,3.147.135,3.366-2.642,5.985-4.97,8.414s-4.527,5.9-3.057,8.913c.561,1.15,1.587,2.019,2.171,3.158,1,1.975.5,4.358.864,6.54a16.456,16.456,0,0,0,1.834,4.712c1.728,3.366,10.405,21.484,14.394,16.878,1.93-2.244,2.244-8.728,3.023-11.645Q272.579,159.535,274.262,153.32Z" transform="translate(-217.784 -86.173)" fill="#fff"/>
        <ellipse id="Ellipse_251" data-name="Ellipse 251" cx="2.625" cy="4.919" rx="2.625" ry="4.919" transform="translate(50.874 72.835)" fill="#fff"/>
      </g>
    </g>
    <circle id="Ellipse_289" data-name="Ellipse 289" cx="71.608" cy="71.608" r="71.608" transform="translate(6.691 5.353)" fill="#fff"/>
    <path id="Path_301" data-name="Path 301" d="M616.94,697.572c0,23.823-17.113,35.545-39.339,35.545S536.47,721.4,536.47,697.572,554.485,654.44,576.7,654.44,616.94,673.731,616.94,697.572Z" transform="translate(-497.662 -613.555)" fill="#333"/>
    <circle id="Ellipse_290" data-name="Ellipse 290" cx="31.745" cy="31.745" r="31.745" transform="translate(46.837 50.593)" fill="#fda57d"/>
    <path id="Path_306" data-name="Path 306" d="M542.48,701.979s19.77-2.4,34.718-21.563c0,0,19.77,21.765,33.544,19.366,0,0,7.985-8.389,0-16.772s-14.178-18.969-24.757-17.574-23.564,1.995-29.151,6.988S542.48,701.979,542.48,701.979Z" transform="translate(-499.657 -617.564)" opacity="0.1"/>
    <path id="Path_307" data-name="Path 307" d="M542.48,701.349s19.77-2.4,34.718-21.563c0,0,19.77,21.765,33.544,19.367,0,0,7.985-8.389,0-16.772s-14.178-18.969-24.757-17.574-23.539,1.969-29.125,7.019S542.48,701.349,542.48,701.349Z" transform="translate(-499.657 -617.332)" fill="#333"/>
    <ellipse id="Ellipse_291" data-name="Ellipse 291" cx="2.954" cy="5.536" rx="2.954" ry="5.536" transform="translate(76.277 76.777)" fill="#fda57d"/>
    <ellipse id="Ellipse_292" data-name="Ellipse 292" cx="2.954" cy="5.536" rx="2.954" ry="5.536" transform="translate(76.277 76.777)" fill="#fda57d"/>
  </g>
</svg>
