<svg id="undraw_feeling_blue_4b7q" xmlns="http://www.w3.org/2000/svg" xmlns:xlink="http://www.w3.org/1999/xlink" width="308.278" height="227.392" viewBox="0 0 308.278 227.392">
  <defs>
    <linearGradient id="linear-gradient" x1="0.5" y1="1" x2="0.5" gradientUnits="objectBoundingBox">
      <stop offset="0" stop-color="gray" stop-opacity="0.251"/>
      <stop offset="0.54" stop-color="gray" stop-opacity="0.122"/>
      <stop offset="1" stop-color="gray" stop-opacity="0.102"/>
    </linearGradient>
  </defs>
  <path id="Path_779" data-name="Path 779" d="M61.83,433.31c4.868,18.813,15.164,35.075,31.435,42.959,33.826,16.383,110.111,7.934,167.046-1.766,29.451-5.016,55.337-18.861,74.142-38.343Z" transform="translate(-58.509 -324.29)" fill="#6c63ff" opacity="0.1"/>
  <path id="Path_780" data-name="Path 780" d="M380.6,64.759H349.356a2.455,2.455,0,1,1,0-4.885h5.4a2.455,2.455,0,1,1,0-4.885H350.9a2.455,2.455,0,1,1,0-4.885h16.3a46.725,46.725,0,0,0-12.72-3.172c-44.461-5.165-60.334-1.749-65.933,1.763A65.723,65.723,0,0,1,265.7,57.759c-27.43,5.12-78.729,11.28-125.225-1.962C117.37,49.2,100.193,60.331,89.9,78.934H386.021a40.2,40.2,0,0,0-3.668-14.769,2.85,2.85,0,0,1-1.757.594Z" transform="translate(-78.713 -44.294)" fill="#6c63ff" opacity="0.1"/>
  <path id="Path_781" data-name="Path 781" d="M50.653,293.19a112.807,112.807,0,0,0,1.211,32.822l274.27,9.077A116.36,116.36,0,0,0,345.191,308.8ZM159.131,316.6h-5.4a2.455,2.455,0,1,1,0,4.885H122.491a2.455,2.455,0,1,1,0-4.885h5.4a2.455,2.455,0,1,1,0-4.885h-3.859a2.455,2.455,0,1,1,0-4.885h31.239a2.455,2.455,0,1,1,0,4.885h3.856a2.455,2.455,0,1,1,0,4.885Z" transform="translate(-49.981 -223.438)" fill="#6c63ff" opacity="0.1"/>
  <path id="Path_782" data-name="Path 782" d="M359.128,168.5,59.691,175.086a99.347,99.347,0,0,0-7.171,27.977H353.881a106.3,106.3,0,0,0,4.349-17.832A76.338,76.338,0,0,0,359.128,168.5ZM113.316,190.093h-5.4a2.456,2.456,0,1,1,0,4.887H76.677a2.456,2.456,0,1,1,0-4.887h5.4a2.455,2.455,0,1,1,0-4.885H78.221a2.455,2.455,0,1,1,0-4.885H109.46a2.455,2.455,0,1,1,0,4.885h3.856a2.455,2.455,0,1,1,0,4.885Z" transform="translate(-51.808 -133.692)" fill="#6c63ff" opacity="0.1"/>
  <ellipse id="Ellipse_344" data-name="Ellipse 344" cx="125.264" cy="11.524" rx="125.264" ry="11.524" transform="translate(27.495 195.845)" fill="#6c63ff" opacity="0.1"/>
  <path id="Path_783" data-name="Path 783" d="M894.473,346.449a.4.4,0,0,1,0-.059V346.3h0a2.4,2.4,0,0,0-.356-.9,7.089,7.089,0,0,0-2.6-2.455c-1.85-1.015-4.391-1.449-5.131-3.385a10.335,10.335,0,0,1-.345-1.881,5.686,5.686,0,0,0-3.752-4.268c-.88-.294-1.83-.376-2.685-.74-1.911-.813-2.92-2.816-3.775-4.669q-1.659-3.587-3.318-7.177a2.791,2.791,0,0,1-2.716-.305,5.634,5.634,0,0,1-1.757-2.172c-1.141-2.214-1.631-4.722-2.971-6.83s-4.016-3.772-6.381-2.856a10.9,10.9,0,0,1-1.429.591c-2.026.474-4.268-1.841-6-.717a1.961,1.961,0,0,0-.681.745.33.33,0,0,1,0-.056,3.582,3.582,0,0,0-.37,1.463h0v.353c0,.4.025.813.031,1.222a5.458,5.458,0,0,1-.078,1.026v-.028a3.48,3.48,0,0,1-.146.56c-.451,1.211-1.7,2-2.287,3.142v-.056a2.955,2.955,0,0,0-.171.384,2.857,2.857,0,0,0-.16.928c-.051,2.138,2.217,4.15,2.48,6.446a3.426,3.426,0,0,0,1.942,3.066l.3.2c-.12,0-.244.017-.381.02a.923.923,0,0,0-.16.017,1.709,1.709,0,0,0-1.44.252c-1.059.841-3.565.193-4.677,0s-4.924.328-5.456,2.441-1.446,6.474-1.446,6.474a12.617,12.617,0,0,1-.339,3.282.165.165,0,0,0,0,.112c0,.776.028,5.442-.723,6.645a2.714,2.714,0,0,0-.034,1.662c-.79,1.017-1.533,2.206-1.4,2.984.241,1.595,3.475,6.608,8.11,3.923,0,0,2.637-4.823-.681-7.387l.143-.56c1,1.233,1.746,2.119,1.746,2.119s.039.1.1.28h-.1a13.177,13.177,0,0,1,.779,3.666,4.489,4.489,0,0,1-.247,1.348H846c-.025.1-.053.191-.087.28a2.443,2.443,0,0,1-.872,1.18c-2.318,1.642-4.972,13.37-4.972,13.37S834.814,389,833.763,390.08c-.869.886,4.59,3.38,8.688,3.083a6.685,6.685,0,0,0,1.682-.32c.025.28.053.56.081.815.087.841.177,1.62.233,1.864.146.611.434,6.849.434,6.849a44.01,44.01,0,0,0-.448,6.872c0,.193.025.378.042.56l-.51.078c-.773,1.738,2.413,16.235,2.847,17.454a11.619,11.619,0,0,1,.482,2.956,3.223,3.223,0,0,0-.048,1.595,3.875,3.875,0,0,1,.28,1.079,2.97,2.97,0,0,0,.1,1.547,2.927,2.927,0,0,1-.048,1.681,25.726,25.726,0,0,1-.964,6.521,3.756,3.756,0,0,0,.6,3.722,2.307,2.307,0,0,0,.2.227s4.792.039,5.636,0h.109c.339-.048,1.208-3.848.434-5.678a6.907,6.907,0,0,1-.1-4.083v-3.329s.869-.8,0-2.522-.726-2.242-.726-2.242.967-2.769-.048-3.66.193-4.271.193-4.271l.342-11.266a4.439,4.439,0,0,0-.547-.14c-.02-.185-.039-.376-.059-.577-.2-2.04-.37-4.815.073-5.605s.656-7.69.726-12.485l4.417.168c.092,2.242.19,4.288.252,4.548.146.611.437,6.849.437,6.849a43.88,43.88,0,0,0-.451,6.872c0,.193.025.378.042.56l-.51.078c-.773,1.738,2.413,16.235,2.847,17.454a11.681,11.681,0,0,1,.485,2.956,3.247,3.247,0,0,0-.05,1.595,3.871,3.871,0,0,1,.28,1.079,2.971,2.971,0,0,0,.1,1.547,2.927,2.927,0,0,1-.048,1.681,25.732,25.732,0,0,1-.964,6.521,3.755,3.755,0,0,0,.622,3.716,2.307,2.307,0,0,0,.2.227s4.792.039,5.636,0h.109c.339-.048,1.208-3.848.434-5.678a6.907,6.907,0,0,1-.1-4.083v-3.324s.869-.8,0-2.522-.726-2.242-.726-2.242.967-2.769-.048-3.66.193-4.271.193-4.271l.347-11.266a4.29,4.29,0,0,0-.56-.14c-.02-.185-.039-.376-.059-.577-.2-2.04-.37-4.815.073-5.605.356-.647.561-4.817.653-8.889,0-.28,0-.56.022-.841a43.476,43.476,0,0,0,6.048-.678s-2.363-8.354-1.64-9.713c.311-.586-.137-3.7-.751-7.065a4.909,4.909,0,0,0,3.021,1.093c1.057,2.032,4.271,6.706,6.081,7.427,2.124.841.53-6.614-.482-7.693a9.073,9.073,0,0,1-1.2-1.925c.028-.034.059-.062.087-.092s.05-7.931-.434-7.788-1.062-1.174-1.062-1.174l-1.5-13.135-.628-5.5h0c.524.387,1.146.633,1.681,1.017,1.457,1.068,1.934,2.943,2.573,4.6a7.558,7.558,0,0,0,2.48,3.576,3.748,3.748,0,0,0,4.2.216c1.121-.815,1.452-2.287,1.7-3.629a3.325,3.325,0,0,0,4.24-3.284c-.064-.516-.255-1.079.014-1.53.538-.891,2.242-.373,2.8-1.253a.936.936,0,0,0,.14-.507A.359.359,0,0,0,894.473,346.449Zm-27.215,7.225c-.031.5.659,4.531,1.219,7.721a9.787,9.787,0,0,0-3.2-5.563,2.514,2.514,0,0,0-.022-.28h.022s-.076-.8-.087-1.942a21.4,21.4,0,0,1,.224-3.021v-.025h-.036a1.593,1.593,0,0,1,.036-.255,9.112,9.112,0,0,1,.681-2.449,6.82,6.82,0,0,1,.519-.88C866.916,349.689,867.286,353.166,867.258,353.674Zm1.508,9.338c.246,1.376.423,2.343.423,2.343l1.488,10.218v.048c-.8-4.313-1.824-8.859-1.824-8.859A17.651,17.651,0,0,0,868.766,363.011Z" transform="translate(-614.046 -234.262)" fill="url(#linear-gradient)"/>
  <path id="Path_784" data-name="Path 784" d="M887.659,326.828c-.28-2.589-3.083-4.823-2.242-7.286.457-1.342,1.886-2.163,2.368-3.5a8.172,8.172,0,0,0,.179-2.783,2.922,2.922,0,0,1,1-2.5c1.682-1.121,3.845,1.185,5.807.715a10.278,10.278,0,0,0,1.382-.588c2.29-.911,4.879.748,6.166,2.844s1.768,4.6,2.872,6.8a5.574,5.574,0,0,0,1.7,2.161,2.64,2.64,0,0,0,2.629.305l3.209,7.146c.841,1.841,1.8,3.837,3.643,4.647.824.362,1.743.443,2.6.737a5.6,5.6,0,0,1,3.643,4.246,10.477,10.477,0,0,0,.333,1.875c.715,1.928,3.172,2.36,4.963,3.363a6.941,6.941,0,0,1,2.522,2.441,1.617,1.617,0,0,1,.221,1.6c-.541.874-2.186.359-2.707,1.247a2.329,2.329,0,0,0,0,1.525,3.24,3.24,0,0,1-4.1,3.268c-.238,1.337-.561,2.8-1.642,3.612a3.53,3.53,0,0,1-4.061-.213,7.512,7.512,0,0,1-2.4-3.559c-.619-1.653-1.082-3.52-2.491-4.582-.51-.381-1.121-.628-1.62-1.012a6.834,6.834,0,0,1-2.082-3.643,38.113,38.113,0,0,0-1.682-5.081,7.647,7.647,0,0,0-3.568-3.853c-1.527-.687-3.287-.642-4.865-1.2-2.716-.958-4.725-3.242-7.427-4.319a12.02,12.02,0,0,1-2.438-1.379A3.349,3.349,0,0,1,887.659,326.828Z" transform="translate(-651.178 -235.862)" fill="#3f3d56"/>
  <g id="Group_392" data-name="Group 392" transform="translate(234.102 75.581)" opacity="0.1">
    <path id="Path_785" data-name="Path 785" d="M894.72,318.042a2.86,2.86,0,0,0,.151-.339,8.241,8.241,0,0,0,.179-2.783,4.988,4.988,0,0,1,.087-.93,3.922,3.922,0,0,0-.367,1.771A12.893,12.893,0,0,1,894.72,318.042Z" transform="translate(-892.089 -313.99)"/>
    <path id="Path_786" data-name="Path 786" d="M922.511,380.053a3.53,3.53,0,0,1-4.061-.216,7.388,7.388,0,0,1-2.385-3.562c-.619-1.653-1.079-3.52-2.491-4.582-.507-.381-1.121-.631-1.617-1.012a6.869,6.869,0,0,1-2.085-3.629,37.73,37.73,0,0,0-1.682-5.081,7.646,7.646,0,0,0-3.567-3.853c-1.525-.687-3.285-.642-4.862-1.2-2.719-.958-4.728-3.242-7.427-4.319a12.17,12.17,0,0,1-2.441-1.379,3.465,3.465,0,0,1-1.878-3.052c-.28-2.427-2.746-4.543-2.362-6.83a3.6,3.6,0,0,0-.165.381c-.841,2.466,1.962,4.7,2.242,7.286a3.459,3.459,0,0,0,1.878,3.052,12.187,12.187,0,0,0,2.441,1.379c2.7,1.076,4.708,3.363,7.427,4.319,1.578.56,3.338.513,4.862,1.2a7.708,7.708,0,0,1,3.568,3.853,34.385,34.385,0,0,1,1.681,5.081,6.85,6.85,0,0,0,2.085,3.629c.507.381,1.121.631,1.617,1.012,1.4,1.062,1.872,2.928,2.491,4.582a7.506,7.506,0,0,0,2.4,3.556,3.535,3.535,0,0,0,4.061.216,4.141,4.141,0,0,0,1.37-2.332A3.444,3.444,0,0,1,922.511,380.053Z" transform="translate(-885.331 -333.675)"/>
    <path id="Path_787" data-name="Path 787" d="M1038.194,446.755a1.18,1.18,0,0,0-.134.656c.633-.625,2.063-.258,2.561-1.062a1.023,1.023,0,0,0,.129-.659C1040.1,446.307,1038.67,445.939,1038.194,446.755Z" transform="translate(-995.255 -408.782)"/>
    <path id="Path_788" data-name="Path 788" d="M1023.414,462.207c-.053.28-.106.58-.174.872a3.289,3.289,0,0,0,3.976-2.578A3.259,3.259,0,0,1,1023.414,462.207Z" transform="translate(-984.592 -419.441)"/>
  </g>
  <path id="Path_789" data-name="Path 789" d="M899.779,369.57s.933,1.883-1.821,1.922,1.774,12.23,1.774,12.23l4.579,5.829,5.7-3.083.328-8.5.42-5.137s-5.325-1.729-4.344-4.016S899.779,369.57,899.779,369.57Z" transform="translate(-659.677 -277.256)" fill="#fbbebe"/>
  <path id="Path_790" data-name="Path 790" d="M965.75,540.069s3.363,3.31,7.286-1.082l-3.013-3.2h-3.811Z" transform="translate(-709.111 -398.051)" fill="#727272"/>
  <path id="Path_791" data-name="Path 791" d="M965.862,535.79l-.462,4.279s3.363,3.31,7.286-1.082" transform="translate(-708.859 -400.051)" fill="#727272" opacity="0.1"/>
  <path id="Path_792" data-name="Path 792" d="M977.646,537.87a21.968,21.968,0,0,0,2.335,4.624c.981,1.073,2.522,8.5.468,7.659s-5.978-7.1-6.213-8.172a36.363,36.363,0,0,1-.325-4.111Z" transform="translate(-714.984 -399.548)" fill="#fbbebe"/>
  <path id="Path_793" data-name="Path 793" d="M832.42,540.226l18.121.7-2.1-7.662-9.128-.185Z" transform="translate(-599.136 -383.688)" fill="#727272"/>
  <path id="Path_794" data-name="Path 794" d="M841.41,540.226l5.638.218,12.485.483-2.1-7.662-9.13-.185Z" transform="translate(-604.607 -387.269)" fill="#7f7f7f" opacity="0.1"/>
  <path id="Path_795" data-name="Path 795" d="M881.74,604.124c-.429.8-.263,3.562-.07,5.6.123,1.3.258,2.3.258,2.3s-6.774,2.1-7.8.28a5.541,5.541,0,0,1-.434-2.222,44.82,44.82,0,0,1,.434-6.841s-.28-6.21-.42-6.818c-.056-.244-.143-1.017-.227-1.855-.123-1.244-.241-2.629-.241-2.629l9.248-4.9s0,.919-.017,2.334C882.421,593.819,882.272,603.143,881.74,604.124Z" transform="translate(-642.526 -434.938)" fill="#fbbebe"/>
  <path id="Path_796" data-name="Path 796" d="M883.094,669.887s-6.773,2.1-7.8.28a5.537,5.537,0,0,1-.434-2.222c1.4-.213,5.667-.8,7.976-.359C882.959,668.887,883.094,669.887,883.094,669.887Z" transform="translate(-643.692 -492.796)" opacity="0.1"/>
  <path id="Path_797" data-name="Path 797" d="M881.861,706.637h-.106c-.816.031-5.451,0-5.451,0a2.524,2.524,0,0,1-.191-.224,3.823,3.823,0,0,1-.6-3.7,26.322,26.322,0,0,0,.933-6.493,3.01,3.01,0,0,0,.048-1.682,3.034,3.034,0,0,1-.1-1.541,3.991,3.991,0,0,0-.28-1.073,3.2,3.2,0,0,1,.048-1.589,11.9,11.9,0,0,0-.468-2.943c-.42-1.213-3.5-15.646-2.755-17.375,0,0,6.538-1.121,9.016-.28l-.328,11.21s-1.169,3.363-.188,4.251.047,3.643.047,3.643-.14.513.7,2.242,0,2.522,0,2.522v3.315a7.089,7.089,0,0,0,.092,4.063C883.027,702.806,882.189,706.578,881.861,706.637Z" transform="translate(-642.226 -494.235)" fill="#3f3d56"/>
  <path id="Path_798" data-name="Path 798" d="M929.03,600.453c-.429.8-.263,3.562-.07,5.6.123,1.3.258,2.3.258,2.3s-6.773,2.1-7.8.28a5.541,5.541,0,0,1-.434-2.222,44.82,44.82,0,0,1,.434-6.841s-.28-6.21-.42-6.818c-.076-.328-.207-3.455-.311-6.261-.087-2.393-.157-4.557-.157-4.557l9.248,1.429s0,4.066-.115,8.245C929.562,595.666,929.375,599.82,929.03,600.453Z" transform="translate(-676.563 -431.268)" fill="#fbbebe"/>
  <path id="Path_799" data-name="Path 799" d="M930.384,669.887s-6.774,2.1-7.8.28a5.542,5.542,0,0,1-.434-2.222c1.4-.213,5.667-.8,7.976-.359C930.249,668.887,930.384,669.887,930.384,669.887Z" transform="translate(-677.729 -492.796)" opacity="0.1"/>
  <path id="Path_800" data-name="Path 800" d="M929.129,706.608h-.106c-.816.031-5.451,0-5.451,0a2.472,2.472,0,0,1-.191-.224,3.822,3.822,0,0,1-.6-3.7,26.289,26.289,0,0,0,.925-6.5,3.01,3.01,0,0,0,.048-1.682,3.035,3.035,0,0,1-.1-1.541,3.989,3.989,0,0,0-.28-1.073,3.2,3.2,0,0,1,.048-1.589,11.892,11.892,0,0,0-.468-2.943c-.42-1.213-3.5-15.646-2.755-17.375,0,0,6.538-1.121,9.016-.28l-.328,11.21s-1.169,3.363-.188,4.251.047,3.643.047,3.643-.14.513.7,2.242,0,2.522,0,2.522v3.315a7.089,7.089,0,0,0,.093,4.063C930.287,702.766,929.457,706.549,929.129,706.608Z" transform="translate(-676.242 -494.206)" fill="#3f3d56"/>
  <ellipse id="Ellipse_345" data-name="Ellipse 345" cx="6.586" cy="6.586" rx="6.586" ry="6.586" transform="translate(237.16 81.345)" opacity="0.1"/>
  <ellipse id="Ellipse_346" data-name="Ellipse 346" cx="6.586" cy="6.586" rx="6.586" ry="6.586" transform="translate(237.16 81.065)" fill="#fbbebe"/>
  <path id="Path_801" data-name="Path 801" d="M873.24,591.944l9.248-4.9s0,.919-.017,2.334c-1.351.807-3.388,2.021-5.347,3.167-1.065.625-2.1,1.23-3,1.737a3.974,3.974,0,0,1-.647.28C873.358,593.329,873.24,591.944,873.24,591.944Z" transform="translate(-642.526 -434.938)" opacity="0.1"/>
  <path id="Path_802" data-name="Path 802" d="M929.807,583.329s0,4.066-.115,8.245h-.034a15.555,15.555,0,0,1-2.071-.065c-1.208-.129-2.175-.448-2.522-1.082-.7-1.233-2.674-2.8-4.338-3.971-.087-2.393-.157-4.557-.157-4.557Z" transform="translate(-676.592 -431.239)" opacity="0.1"/>
  <path id="Path_803" data-name="Path 803" d="M868.47,401.6a26.677,26.677,0,0,0-.134,5.5c4.248,3.5,3.455,10.882,3.455,10.882s3.271,14.948,2.57,16.3,1.586,9.668,1.586,9.668a40.773,40.773,0,0,1-5.9.678,15.558,15.558,0,0,1-2.071-.065c-1.208-.129-2.175-.448-2.522-1.082-1.306-2.287-6.959-5.7-6.959-5.7s-3.582,2.147-6.916,4.1c-1.065.625-2.1,1.23-3,1.737a5.561,5.561,0,0,1-2.34.642c-3.965.294-9.248-2.189-8.407-3.069,1.029-1.076,6.121-19.945,6.121-19.945s2.567-11.678,4.809-13.312a2.423,2.423,0,0,0,.841-1.174c.768-2.133-.516-5.552-.516-5.552s-7.239-8.92-6.914-9.436a13.061,13.061,0,0,0,.328-3.268s.888-4.344,1.4-6.446,4.2-2.617,5.277-2.43,3.5.841,4.526,0,2.758.328,2.758.328l4.254,1.171,3.826-2.242s3.834.2,4.162.709,5.372,1.5,5.372,1.5c2.567,1.726,2.475,9.949,2.475,9.949s-6.166,5.37-7.427,8.127A9.266,9.266,0,0,0,868.47,401.6Z" transform="translate(-616.976 -285.121)" fill="#7f7f7f"/>
  <path id="Path_804" data-name="Path 804" d="M956.118,418.2l1.4,1.121,1.449,13.031,1.446,13.079s.561,1.309,1.029,1.169.42,7.752.42,7.752-5.364-3.3-7.286,1.082l-1.5-10.562s-1.917-10.789-1.869-11.63-.981-9.949-.981-9.949Z" transform="translate(-697.94 -313.415)" fill="#7f7f7f"/>
  <path id="Path_805" data-name="Path 805" d="M852.458,420.37l-1.028,1.261s.1,5.417-.7,6.726,2.2,8.968,3.318,8.5,3.643-12.423,3.643-12.563S852.458,420.37,852.458,420.37Z" transform="translate(-626.228 -314.977)" fill="#575a89"/>
  <path id="Path_806" data-name="Path 806" d="M849.078,447.87s-3.271,3.315-3.038,4.9,3.363,6.58,7.847,3.9C853.887,456.672,858.045,448.851,849.078,447.87Z" transform="translate(-622.94 -334.77)" fill="#575a89"/>
  <path id="Path_807" data-name="Path 807" d="M890.2,800.355c-.815.031-5.451,0-5.451,0a2.531,2.531,0,0,1-.191-.224C885.746,799.728,888.307,799.122,890.2,800.355Z" transform="translate(-650.674 -587.945)" opacity="0.1"/>
  <path id="Path_808" data-name="Path 808" d="M937.511,800.355c-.815.031-5.451,0-5.451,0a2.528,2.528,0,0,1-.191-.224C933.05,799.728,935.611,799.122,937.511,800.355Z" transform="translate(-684.725 -587.945)" opacity="0.1"/>
  <path id="Path_809" data-name="Path 809" d="M873.687,509.11c-.714,6.855-.479,20.458-.331,26.5-1.065.625-2.1,1.23-3,1.737a5.559,5.559,0,0,1-2.34.642C867.724,536.162,871.838,517.394,873.687,509.11Z" transform="translate(-638.758 -378.848)" opacity="0.1"/>
  <path id="Path_810" data-name="Path 810" d="M889.154,495.23c-.02.1-.359,1.589-.874,3.89A9.927,9.927,0,0,1,889.154,495.23Z" transform="translate(-653.351 -368.858)" opacity="0.1"/>
  <path id="Path_811" data-name="Path 811" d="M912,492.59s3.971,24.942-7.788,28.024C904.207,520.6,912.345,519.367,912,492.59Z" transform="translate(-664.817 -366.957)" opacity="0.1"/>
  <path id="Path_812" data-name="Path 812" d="M939.533,525.707a15.515,15.515,0,0,1-2.071-.064l-3.172-34.1C936.313,492.863,938.735,517.065,939.533,525.707Z" transform="translate(-686.467 -366.202)" opacity="0.1"/>
  <path id="Path_813" data-name="Path 813" d="M898.447,332.613a1.737,1.737,0,0,1,.625.065,2.725,2.725,0,0,1,.79.594,2.817,2.817,0,0,0,2.674.518,3.528,3.528,0,0,1,1.006-.28,1.6,1.6,0,0,1,1.275.841c.277.448.42.981.659,1.46a1.835,1.835,0,0,0,1.143,1.051,2,2,0,0,1,.729.168,1.031,1.031,0,0,1,.314.434c.437.944.785,2.06,1.718,2.522a2.57,2.57,0,0,0,1.1.238,2.288,2.288,0,0,0,1.121-.2,2.146,2.146,0,0,0,.824-.821,5.122,5.122,0,0,0,.513-3.276,9.012,9.012,0,0,0-1.466-3.94,8.225,8.225,0,0,0-7.525-3.472,10.484,10.484,0,0,0-1.5.28,8.19,8.19,0,0,0-4.613,2.861,9.706,9.706,0,0,1-.861,1.059C897.461,332.667,897.954,332.624,898.447,332.613Z" transform="translate(-659.606 -248.835)" opacity="0.1"/>
  <path id="Path_814" data-name="Path 814" d="M898.447,331.613a1.736,1.736,0,0,1,.625.064,2.726,2.726,0,0,1,.79.594,2.817,2.817,0,0,0,2.674.519,3.526,3.526,0,0,1,1.006-.28,1.6,1.6,0,0,1,1.275.841c.277.448.42.981.659,1.46a1.835,1.835,0,0,0,1.143,1.051,2,2,0,0,1,.729.168,1.032,1.032,0,0,1,.314.434c.437.944.785,2.06,1.718,2.522a2.569,2.569,0,0,0,1.1.238,2.289,2.289,0,0,0,1.121-.2,2.147,2.147,0,0,0,.824-.821,5.121,5.121,0,0,0,.513-3.276,9.013,9.013,0,0,0-1.466-3.94,8.225,8.225,0,0,0-7.525-3.472,10.505,10.505,0,0,0-1.5.28,8.192,8.192,0,0,0-4.613,2.861,9.693,9.693,0,0,1-.861,1.059C897.461,331.667,897.954,331.624,898.447,331.613Z" transform="translate(-659.606 -248.115)" fill="#3f3d56"/>
  <path id="Path_815" data-name="Path 815" d="M873.8,398.2s.328,2.617-.793,3.27S873.8,398.2,873.8,398.2Z" transform="translate(-642.104 -299.02)" opacity="0.1"/>
  <path id="Path_816" data-name="Path 816" d="M961.57,462.825s2.662-3.924,3.038-2.8S961.57,462.825,961.57,462.825Z" transform="translate(-706.102 -343.372)" opacity="0.1"/>
  <path id="Path_817" data-name="Path 817" d="M962.24,469.41s2.626-3.223,2.878-1.962S962.24,469.41,962.24,469.41Z" transform="translate(-706.584 -348.651)" opacity="0.1"/>
  <path id="Path_818" data-name="Path 818" d="M894.068,458.667a4.263,4.263,0,0,1-2.64-.869h-.23a4.148,4.148,0,0,1-2.884,1.085,4.092,4.092,0,0,1-2.99-1.2h-.305a4.4,4.4,0,0,1-5.683-.1l-1.1-.02s1.284,3.419.516,5.552l18.729.334a26.669,26.669,0,0,1,.135-5.5v-.025l-1.029-.02A4.309,4.309,0,0,1,894.068,458.667Z" transform="translate(-646.125 -341.744)" opacity="0.1"/>
  <path id="Path_819" data-name="Path 819" d="M894.068,460.667a4.263,4.263,0,0,1-2.64-.869h-.23a4.148,4.148,0,0,1-2.884,1.085,4.092,4.092,0,0,1-2.99-1.2h-.305a4.4,4.4,0,0,1-5.683-.1l-1.1-.02s1.284,3.419.516,5.552l18.729.334a26.669,26.669,0,0,1,.135-5.5v-.025l-1.029-.02A4.31,4.31,0,0,1,894.068,460.667Z" transform="translate(-646.125 -343.184)" opacity="0.1"/>
  <path id="Path_820" data-name="Path 820" d="M894.068,459.667a4.262,4.262,0,0,1-2.64-.869h-.23a4.147,4.147,0,0,1-2.884,1.084,4.092,4.092,0,0,1-2.99-1.2h-.305a4.4,4.4,0,0,1-5.683-.1l-1.1-.02s1.284,3.419.516,5.552l18.729.333a26.668,26.668,0,0,1,.135-5.5v-.025l-1.029-.02A4.309,4.309,0,0,1,894.068,459.667Z" transform="translate(-646.125 -342.464)" fill="#707070"/>
  <path id="Path_821" data-name="Path 821" d="M931.75,395.83s3.943.252,3.968.813S931.75,395.83,931.75,395.83Z" transform="translate(-684.639 -297.314)" opacity="0.1"/>
  <path id="Path_822" data-name="Path 822" d="M887.378,387.3s-3.943.252-3.968.813S887.378,387.3,887.378,387.3Z" transform="translate(-649.845 -291.174)" opacity="0.1"/>
  <path id="Path_823" data-name="Path 823" d="M939.068,428c-.039-.028-.078-.05-.118-.076,1.009.908.841,2.892-.4,4.529s-3.119,2.318-4.263,1.583c.036.031.067.065.107.1,1.121.858,3.083.185,4.377-1.508S940.195,428.856,939.068,428Z" transform="translate(-686.467 -320.411)" opacity="0.1"/>
  <path id="Path_824" data-name="Path 824" d="M871.695,431.67c-1-1.8-.869-3.786.26-4.54-.042.02-.087.036-.129.059-1.239.689-1.4,2.755-.376,4.616s2.875,2.8,4.114,2.124a1.086,1.086,0,0,0,.118-.078C874.446,434.411,872.692,433.469,871.695,431.67Z" transform="translate(-640.753 -319.842)" opacity="0.1"/>
  <path id="Path_825" data-name="Path 825" d="M875.514,387.456h0l-.362.56-.922-.49.485-.746A2.03,2.03,0,0,1,875.514,387.456Z" transform="translate(-643.238 -290.8)" opacity="0.1"/>
  <path id="Path_826" data-name="Path 826" d="M855.566,430.805s.821-3.862-.28-5.089-.748-7.662.933-7.522,4.2,5.229,3.783,6.306-2.009,6.586-2.009,6.586Z" transform="translate(-629.148 -313.409)" fill="#fbbebe"/>
  <path id="Path_827" data-name="Path 827" d="M912.413,346.83a2.146,2.146,0,0,1-.824.821,2.289,2.289,0,0,1-1.121.2,2.57,2.57,0,0,1-1.1-.238c-.933-.465-1.281-1.581-1.718-2.522a1.033,1.033,0,0,0-.286-.443,2,2,0,0,0-.72-.177,1.849,1.849,0,0,1-1.143-1.051c-.241-.477-.384-1-.659-1.46a1.544,1.544,0,0,0-1.275-.841,3.444,3.444,0,0,0-1.006.294,2.825,2.825,0,0,1-2.673-.521,2.724,2.724,0,0,0-.791-.594,1.735,1.735,0,0,0-.625-.065c-.322,0-.642.031-.964.056a7.045,7.045,0,0,1-.513.6c.49-.042.984-.084,1.477-.1a1.736,1.736,0,0,1,.625.064,2.727,2.727,0,0,1,.79.594,2.825,2.825,0,0,0,2.673.521,3.443,3.443,0,0,1,1.006-.294,1.6,1.6,0,0,1,1.275.841c.277.448.42.981.659,1.46a1.834,1.834,0,0,0,1.143,1.051,2,2,0,0,1,.72.177,1.031,1.031,0,0,1,.314.434c.437.944.785,2.06,1.718,2.522a2.569,2.569,0,0,0,1.1.238,2.29,2.29,0,0,0,1.121-.2,2.144,2.144,0,0,0,.824-.821,4.649,4.649,0,0,0,.561-2.6A4.281,4.281,0,0,1,912.413,346.83Z" transform="translate(-659.627 -257.296)" opacity="0.1"/>
  <ellipse id="Ellipse_347" data-name="Ellipse 347" cx="2.522" cy="1.709" rx="2.522" ry="1.709" transform="translate(225.137 117.04)" fill="#575a89"/>
  <ellipse id="Ellipse_348" data-name="Ellipse 348" cx="86.456" cy="86.456" rx="86.456" ry="86.456" transform="translate(58.991 40.996)" fill="#d8bce8"/>
  <path id="Path_828" data-name="Path 828" d="M497.836,558.7c0,13.648-21.456,1.166-44.458,1.166s-46.268,11.966-46.268-1.681c0-7.782,7.415-18.606,18.053-26.466h0c8.015-5.924,17.857-10.167,27.744-10.167,10.167,0,20.127,4.593,28.072,10.9C491.007,540.4,497.836,551.082,497.836,558.7Z" transform="translate(-307.026 -387.802)" fill="#444053"/>
  <path id="Path_829" data-name="Path 829" d="M527.344,532.429c-12.227-1.841-34.341-4.086-55.813-.731,8.015-5.925,17.857-10.167,27.744-10.167C509.439,521.53,519.4,526.123,527.344,532.429Z" transform="translate(-353.393 -387.787)" fill="#f6f8fb"/>
  <path id="Path_830" data-name="Path 830" d="M340.767,281.31S314.724,297.959,314.937,324,340.767,281.31,340.767,281.31Z" transform="translate(-240.683 -214.888)" opacity="0.05"/>
  <path id="Path_831" data-name="Path 831" d="M823.318,113.441s-23.6-1.421-20.814,15.114a4.019,4.019,0,0,0,2.1,4.249s.042-1.225,2.418-.81a10.93,10.93,0,0,0,2.564.123,5.325,5.325,0,0,0,3.133-1.295h0s6.633-2.738,9.214-13.581c0,0,1.908-2.365,1.833-2.971l-3.982,1.7s1.359,2.872.28,5.26c0,0-.129-5.154-.894-5.044-.154.025-2.068.995-2.068.995s2.34,5.005.561,8.64c0,0,.67-6.165-1.306-8.278l-2.8,1.637s2.735,5.168.88,9.385c0,0,.476-6.468-1.469-8.987l-2.542,1.981s2.57,5.095,1,8.592c0,0-.2-7.53-1.553-8.1a15.554,15.554,0,0,0-2.562,2.766s1.76,3.7.67,5.647c0,0-.67-5.016-1.219-5.044,0,0-2.214,3.324-2.447,5.6a12.116,12.116,0,0,1,1.908-5.922,6.648,6.648,0,0,0-3.388,1.757s.345-2.351,3.924-2.556c0,0,1.83-2.522,2.32-2.674,0,0-3.573-.3-5.74.661,0,0,1.906-2.217,6.392-1.211l2.522-2.046s-4.7-.645-6.7.067c0,0,2.3-1.962,7.373-.532l2.732-1.634a25.054,25.054,0,0,0-6.4-.56s2.522-1.359,7.2.115l1.962-.877s-2.94-.577-3.8-.667-.905-.331-.905-.331a10.188,10.188,0,0,1,5.529.642S823.388,113.7,823.318,113.441Z" transform="translate(-591.449 -94.041)" fill="#6c63ff"/>
  <path id="Path_832" data-name="Path 832" d="M766.585,87.254s-10.649-.645-9.405,6.827a1.823,1.823,0,0,0,.947,1.92s.017-.561,1.093-.364a5.061,5.061,0,0,0,1.157.056,2.435,2.435,0,0,0,1.418-.586h0s3-1.239,4.162-6.137c0,0,.863-1.068.841-1.342l-1.8.768a3.218,3.218,0,0,1,.132,2.376s-.059-2.329-.4-2.273c-.07,0-.936.448-.936.448s1.059,2.262.261,3.9c0,0,.3-2.786-.589-3.741l-1.267.74s1.236,2.337.4,4.243c0,0,.213-2.923-.664-4.061l-1.149.894s1.16,2.3.454,3.881c0,0-.093-3.4-.7-3.66a7.03,7.03,0,0,0-1.157,1.25s.8,1.681.3,2.553c0,0-.3-2.267-.56-2.276a7.511,7.511,0,0,0-1.1,2.522,5.459,5.459,0,0,1,.86-2.676,3,3,0,0,0-1.53.793s.154-1.062,1.777-1.155a6.986,6.986,0,0,1,1.048-1.208,6.571,6.571,0,0,0-2.592.3,2.929,2.929,0,0,1,2.889-.56l1.121-.922a9.733,9.733,0,0,0-3.027.028s1.037-.886,3.332-.238l1.233-.74a11.214,11.214,0,0,0-2.892-.249,4.436,4.436,0,0,1,3.254.053l.883-.4s-1.328-.261-1.715-.3-.412-.149-.412-.149a4.593,4.593,0,0,1,2.494.28A11.283,11.283,0,0,0,766.585,87.254Z" transform="translate(-558.918 -75.205)" fill="#6c63ff"/>
  <ellipse id="Ellipse_349" data-name="Ellipse 349" cx="7.547" cy="1.275" rx="7.547" ry="1.275" transform="translate(293.184 202.03)" fill="#6c63ff" opacity="0.1"/>
  <ellipse id="Ellipse_350" data-name="Ellipse 350" cx="7.547" cy="1.275" rx="7.547" ry="1.275" transform="translate(5.563 223.242)" fill="#6c63ff" opacity="0.1"/>
  <ellipse id="Ellipse_351" data-name="Ellipse 351" cx="7.547" cy="1.275" rx="7.547" ry="1.275" transform="translate(49.373 224.842)" fill="#6c63ff" opacity="0.1"/>
  <ellipse id="Ellipse_352" data-name="Ellipse 352" cx="11.269" cy="1.906" rx="11.269" ry="1.906" transform="translate(272.944 215.064)" fill="#6c63ff"/>
  <path id="Path_833" data-name="Path 833" d="M1054,794.06a3.289,3.289,0,0,0,1.076-1.623,1.446,1.446,0,0,0-.751-1.651c-.689-.263-1.427.216-1.984.7a2.66,2.66,0,0,1-1.931.93,2.934,2.934,0,0,0,.908-2.749,1.155,1.155,0,0,0-.252-.56c-.384-.409-1.076-.236-1.536.087-1.457,1.026-1.864,3-1.872,4.787a8.959,8.959,0,0,1-.025-1.962,2.028,2.028,0,0,0-.74-1.746,2.243,2.243,0,0,0-1.121-.263,2.332,2.332,0,0,0-1.833.519,1.8,1.8,0,0,0,.073,2.242,7.264,7.264,0,0,0,1.894,1.519,4.2,4.2,0,0,1,1.356,1.292,1.37,1.37,0,0,1,.1.233h4.105A11.422,11.422,0,0,0,1054,794.06Z" transform="translate(-765.126 -580.204)" fill="#6c63ff"/>
  <path id="Path_834" data-name="Path 834" d="M98.438,723.55s1.539,2.012-.712,5.044-4.106,5.6-3.363,7.5c0,0,3.394-5.644,6.165-5.725S101.475,726.944,98.438,723.55Z" transform="translate(-81.805 -533.192)" fill="#6c63ff"/>
  <path id="Path_835" data-name="Path 835" d="M98.67,723.55a2.521,2.521,0,0,1,.314.631c2.7,3.167,4.131,6.123,1.541,6.2-2.416.07-5.325,4.386-6.006,5.476a2.6,2.6,0,0,0,.084.249s3.394-5.644,6.165-5.725S101.708,726.944,98.67,723.55Z" transform="translate(-82.038 -533.192)" opacity="0.1"/>
  <path id="Path_836" data-name="Path 836" d="M118.626,731.521c0,.709-.081,1.284-.179,1.284s-.177-.561-.177-1.284.1-.375.2-.375S118.626,730.812,118.626,731.521Z" transform="translate(-99.132 -538.599)" fill="#ffd037"/>
  <path id="Path_837" data-name="Path 837" d="M119.882,734.476c-.622.339-1.163.544-1.211.457s.42-.429,1.043-.768.376-.093.423,0S120.515,734.137,119.882,734.476Z" transform="translate(-99.419 -540.707)" fill="#ffd037"/>
  <path id="Path_838" data-name="Path 838" d="M71.428,723.55s-1.539,2.012.709,5.044,4.106,5.6,3.363,7.5c0,0-3.4-5.644-6.165-5.725S68.387,726.944,71.428,723.55Z" transform="translate(-62.928 -533.192)" fill="#6c63ff"/>
  <path id="Path_839" data-name="Path 839" d="M71.417,723.55a2.42,2.42,0,0,0-.314.631c-2.7,3.167-4.134,6.123-1.541,6.2,2.413.07,5.325,4.386,6,5.476a2.584,2.584,0,0,1-.081.249s-3.4-5.644-6.165-5.725S68.376,726.944,71.417,723.55Z" transform="translate(-62.918 -533.192)" opacity="0.1"/>
  <path id="Path_840" data-name="Path 840" d="M70.1,731.521c0,.709.078,1.284.177,1.284s.177-.561.177-1.284-.1-.375-.2-.375S70.1,730.812,70.1,731.521Z" transform="translate(-64.462 -538.599)" fill="#ffd037"/>
  <path id="Path_841" data-name="Path 841" d="M65.622,734.476c.622.339,1.166.544,1.213.457s-.42-.429-1.043-.768-.378-.093-.423,0S65,734.137,65.622,734.476Z" transform="translate(-60.967 -540.707)" fill="#ffd037"/>
  <path id="Path_842" data-name="Path 842" d="M71.85,761.415s4.3-.132,5.6-1.057,6.622-2.026,6.944-.561,6.468,7.37,1.609,7.41-11.291-.76-12.586-1.547S71.85,761.415,71.85,761.415Z" transform="translate(-65.721 -558.769)" fill="#a8a8a8"/>
  <path id="Path_843" data-name="Path 843" d="M86.089,772.677c-4.859.039-11.291-.759-12.586-1.547-.986-.6-1.379-2.755-1.511-3.75H71.85s.28,3.472,1.567,4.26,7.726,1.586,12.586,1.547c1.4,0,1.886-.513,1.861-1.25C87.667,772.388,87.135,772.668,86.089,772.677Z" transform="translate(-65.721 -564.739)" opacity="0.2"/>
  <path id="Path_844" data-name="Path 844" d="M407.377,444.763c1.645-.093,9.388-.675,14.307-3.481a5.574,5.574,0,0,1,2.6-.765c1.564-.045,3.363.608,2.211,4.263-1.866,5.978-12.7,12.7-19.43,12.331-6.468-.359-14.141-2.965-19.208-12.129a5.6,5.6,0,0,1-.692-2.884c.059-1.85.732-4.167,4.2-1.583,4.691,3.489,13.592,4.15,15.377,4.249a5.926,5.926,0,0,0,.633,0Z" transform="translate(-292.667 -328.648)" fill="#444053"/>
  <path id="Path_845" data-name="Path 845" d="M629.377,444.763c1.645-.093,9.388-.675,14.307-3.481a5.574,5.574,0,0,1,2.6-.765c1.564-.045,3.363.608,2.211,4.263-1.866,5.978-12.7,12.7-19.429,12.331-6.468-.359-14.141-2.965-19.208-12.129a5.6,5.6,0,0,1-.692-2.884c.059-1.85.731-4.167,4.2-1.583,4.691,3.489,13.592,4.15,15.377,4.249A5.926,5.926,0,0,0,629.377,444.763Z" transform="translate(-452.453 -328.648)" fill="#444053"/>
</svg>
