<svg id="undraw_Relaxing_at_home_re_mror" xmlns="http://www.w3.org/2000/svg" width="401.805" height="226.404" viewBox="0 0 401.805 226.404">
  <ellipse id="Ellipse_301" data-name="Ellipse 301" cx="10.644" cy="1.774" rx="10.644" ry="1.774" transform="translate(359.576 222.412)" fill="#f2f2f2"/>
  <rect id="Rectangle_1573" data-name="Rectangle 1573" width="0.887" height="18.627" transform="translate(381.751 54.771)" fill="#f2f2f2"/>
  <rect id="Rectangle_1574" data-name="Rectangle 1574" width="5.322" height="183.606" transform="translate(367.559 42.797)" fill="#f2f2f2"/>
  <path id="Path_448" data-name="Path 448" d="M970.842,251.961h-48.73a3.769,3.769,0,0,1-3.74-4.237l6.209-49.671a3.776,3.776,0,0,1,3.741-3.3h36.311a3.776,3.776,0,0,1,3.741,3.3l6.209,49.671a3.77,3.77,0,0,1-3.741,4.237Z" transform="translate(-576.257 -194.75)" fill="#ffc8dd"/>
  <circle id="Ellipse_302" data-name="Ellipse 302" cx="3.104" cy="3.104" r="3.104" transform="translate(379.09 70.294)" fill="#f2f2f2"/>
  <path id="Path_449" data-name="Path 449" d="M229.655,554.711c-2.241,7.773-8.783,13.214-15.607,17.836q-1.429.968-2.859,1.892c-.006,0-.013.009-.02.012-.046.029-.092.059-.135.089l-.589.379.107.048s.105.056-.01.009l-.1-.042c-3.965-1.6-8-3.316-11.038-6.311-3.152-3.111-4.994-7.989-3.287-12.076a7.8,7.8,0,0,1,.845-1.516c.138-.2.288-.388.443-.574A8.362,8.362,0,0,1,211.764,557c.5-4.668-3.348-8.578-7.052-11.464s-7.917-6.024-8.633-10.666a9.048,9.048,0,0,1,2.134-7.1c.051-.061.1-.122.153-.181a12.2,12.2,0,0,1,7.844-4.208c5.683-.591,11.2,2.417,15.331,6.368C228.185,536.109,232.2,545.873,229.655,554.711Z" transform="translate(-173.97 -377.595)" fill="#f2f2f2"/>
  <path id="Path_450" data-name="Path 450" d="M220.851,549.89a20.747,20.747,0,0,1,2.486,5.482,18.015,18.015,0,0,1,.623,5.321,23.081,23.081,0,0,1-3.023,10.5,33.219,33.219,0,0,1-5.011,6.7q-1.429.968-2.86,1.892l-.02.012c-.046.029-.092.059-.135.089l-.589.379s.212.1.1.057l-.1-.042a18.2,18.2,0,0,0-13.48-19.9c.138-.2.288-.388.443-.574a19.2,19.2,0,0,1,3.17,1.2,18.815,18.815,0,0,1,8.507,8.2,19.236,19.236,0,0,1,2.094,10.556c.163-.148.326-.3.484-.448a33.73,33.73,0,0,0,7.5-9.753,21.472,21.472,0,0,0,2.248-10.159,19.406,19.406,0,0,0-3.891-10.487,44.946,44.946,0,0,0-8.52-8.78,51.069,51.069,0,0,0-10.6-6.542.367.367,0,0,1-.185-.471.313.313,0,0,1,.153-.181.272.272,0,0,1,.236.01c.467.215.932.433,1.392.661a51.653,51.653,0,0,1,10.672,7.039A41.57,41.57,0,0,1,220.851,549.89Z" transform="translate(-175.847 -382.942)" fill="#fff"/>
  <path id="Path_451" data-name="Path 451" d="M197.242,638.25H221.8a1.9,1.9,0,0,1,1.885,2.135l-3.129,25.028a1.9,1.9,0,0,1-1.885,1.664h-18.3a1.9,1.9,0,0,1-1.885-1.664l-3.129-25.028a1.9,1.9,0,0,1,1.885-2.135Z" transform="translate(-173.903 -441.561)" fill="#f2f2f2"/>
  <circle id="Ellipse_303" data-name="Ellipse 303" cx="3.073" cy="3.073" r="3.073" transform="translate(100.322 219.563)" fill="#ccc"/>
  <circle id="Ellipse_304" data-name="Ellipse 304" cx="3.073" cy="3.073" r="3.073" transform="translate(294.424 219.563)" fill="#ccc"/>
  <path id="Path_452" data-name="Path 452" d="M436.152,537.994H388.011a8.46,8.46,0,0,1-8.45-8.45V496.766a8.46,8.46,0,0,1,8.45-8.45h48.141a8.46,8.46,0,0,1,8.45,8.45v32.777A8.46,8.46,0,0,1,436.152,537.994Z" transform="translate(-276.422 -358.121)" fill="#e6e6e6"/>
  <path id="Path_453" data-name="Path 453" d="M582.233,538.572H534.091a8.46,8.46,0,0,1-8.45-8.45V497.344a8.46,8.46,0,0,1,8.45-8.45h48.141a8.46,8.46,0,0,1,8.45,8.45v32.777a8.46,8.46,0,0,1-8.45,8.45Z" transform="translate(-357.716 -358.443)" fill="#e6e6e6"/>
  <path id="Path_454" data-name="Path 454" d="M728.313,539.148H680.171a8.46,8.46,0,0,1-8.45-8.45V497.921a8.46,8.46,0,0,1,8.45-8.45h48.141a8.46,8.46,0,0,1,8.45,8.45V530.7A8.46,8.46,0,0,1,728.313,539.148Z" transform="translate(-439.01 -358.764)" fill="#e6e6e6"/>
  <rect id="Rectangle_1575" data-name="Rectangle 1575" width="212.026" height="44.3" transform="translate(95.713 178.08)" fill="#e6e6e6"/>
  <path id="Path_455" data-name="Path 455" d="M357.967,626.706h-9.218c-4.66,0-8.45-4.3-8.45-9.595V570.883h17.669Z" transform="translate(-254.572 -404.07)" fill="#e6e6e6"/>
  <path id="Path_456" data-name="Path 456" d="M827.021,617.709H817.8V554.716h17.669v52.166C835.471,612.853,831.68,617.709,827.021,617.709Z" transform="translate(-520.305 -395.073)" fill="#e6e6e6"/>
  <path id="Path_457" data-name="Path 457" d="M445.18,588.02H380.138V574.192q32.521-18.655,65.042,0Z" transform="translate(-276.743 -400.721)" fill="#ccc"/>
  <path id="Path_458" data-name="Path 458" d="M591.26,588.6H526.218V574.769q32.521-18.655,65.042,0Z" transform="translate(-358.037 -401.042)" fill="#ccc"/>
  <path id="Path_459" data-name="Path 459" d="M737.341,589.174H672.3V575.346q32.521-18.655,65.042,0Z" transform="translate(-439.332 -401.363)" fill="#ccc"/>
  <circle id="Ellipse_305" data-name="Ellipse 305" cx="15.108" cy="15.108" r="15.108" transform="translate(75.74 148.376)" fill="#ccc"/>
  <circle id="Ellipse_306" data-name="Ellipse 306" cx="15.108" cy="15.108" r="15.108" transform="translate(296.984 147.864)" fill="#ccc"/>
  <path id="Path_460" data-name="Path 460" d="M738.746,490.516a4.667,4.667,0,0,1,.047.734l18.11,12.482,4.829-2.286,4.4,6.837-8.156,4.878a3.548,3.548,0,0,1-4.235-.444L735.4,495.694a4.655,4.655,0,1,1,3.342-5.178Z" transform="translate(-471.158 -357.142)" fill="#ffb8b8"/>
  <path id="Path_461" data-name="Path 461" d="M791.993,514.907a1.993,1.993,0,0,1,1.085-1.259l9.106-4.172a5.543,5.543,0,1,1,6.074,9.273l-7.528,6.657a2,2,0,0,1-2.995-.406l-5.5-8.448A1.994,1.994,0,0,1,791.993,514.907Z" transform="translate(-505.898 -369.392)" fill="#6c63ff"/>
  <path id="Path_462" data-name="Path 462" d="M738.063,490.65l-.091.007-.248-3.435c-.079-1.1-.79-1.941-1.586-1.884h0l-5.28.382c-.8.058-2.263,1.058-2.183,2.156l.064.885,1.3,17.96c.079,1.1,1.674,1.877,2.471,1.82h0l5.28-.382c.8-.058,1.378-.994,1.3-2.092h0l-.938-12.964.091-.007Z" transform="translate(-470.703 -356.462)" fill="#3f3d56"/>
  <path id="Path_463" data-name="Path 463" d="M739.025,487.9l1.362,18.817c.059.82-.375,1.52-.97,1.563l-5.306.384c-.595.043-1.125-.587-1.185-1.407l-1.362-18.817c-.059-.82.375-1.52.97-1.563l.644-.047a.819.819,0,0,0,.348.9.394.394,0,0,0,.2.038l3.025-.219c.283-.021.489-.354.461-.743a.945.945,0,0,0-.057-.263l.689-.05C738.436,486.452,738.966,487.082,739.025,487.9Z" transform="translate(-472.311 -357.107)" fill="#fff"/>
  <path id="Path_464" data-name="Path 464" d="M431.365,374.886l-1.75-5.148,19.023-9.2,2.583,7.6Z" transform="translate(-239.083 -200.642)" fill="#ffb8b8"/>
  <path id="Path_465" data-name="Path 465" d="M563.235,573.05l-5.643-16.6.21-.071a6.824,6.824,0,0,1,8.657,4.264h0l3.446,10.138Z" transform="translate(-375.497 -395.796)" fill="#2f2e41"/>
  <path id="Path_466" data-name="Path 466" d="M668.754,559.625a23.218,23.218,0,0,1-11.794-2.469l-22.37-15.217-26.12,9.672a2.892,2.892,0,0,1-3.6-1.62l-1.28-3.079a2.868,2.868,0,0,1,1.481-3.736l24.954-11.206a14.585,14.585,0,0,1,9.539-.825l34.642,8.828,9.157,10.875-.1.14C678.769,557.188,673.437,559.286,668.754,559.625Z" transform="translate(-400.971 -381.707)" fill="#2f2e41"/>
  <circle id="Ellipse_307" data-name="Ellipse 307" cx="10.893" cy="10.893" r="10.893" transform="translate(285.183 110.692)" fill="#ffb8b8"/>
  <path id="Path_467" data-name="Path 467" d="M767.387,538.425l-17.531-13.046,11.956-8.5c-.342-1.1-1.859-7.393,6.438-11.682a31.53,31.53,0,0,0,5.624-3.473,8.414,8.414,0,0,1,13.557,8.832c-1.73,5.624-4.486,13.075-7.79,16.639a103.159,103.159,0,0,1-12.121,11.128Z" transform="translate(-482.493 -364.437)" fill="#d8bce8"/>
  <path id="Path_468" data-name="Path 468" d="M437.633,385.172l-1.75-5.148,19.023-9.2,2.583,7.6Z" transform="translate(-242.572 -206.366)" fill="#ffb8b8"/>
  <path id="Path_469" data-name="Path 469" d="M569.5,583.335l-5.643-16.6.21-.071a6.824,6.824,0,0,1,8.657,4.264h0l3.446,10.138Z" transform="translate(-378.986 -401.52)" fill="#2f2e41"/>
  <path id="Path_470" data-name="Path 470" d="M675.022,569.91a23.218,23.218,0,0,1-11.794-2.469l-22.369-15.218-26.12,9.672a2.892,2.892,0,0,1-3.6-1.62l-1.28-3.079a2.868,2.868,0,0,1,1.481-3.736L636.3,542.254a14.585,14.585,0,0,1,9.538-.825l34.643,8.828,9.157,10.875-.1.14C685.037,567.474,679.7,569.572,675.022,569.91Z" transform="translate(-404.459 -387.43)" fill="#2f2e41"/>
  <path id="Path_471" data-name="Path 471" d="M735.046,522.368a4.671,4.671,0,0,1,.357.643l21.71,3.526L760.5,522.4,767.4,526.7l-5.282,7.9a3.548,3.548,0,0,1-4.017,1.411l-23.862-7.531a4.655,4.655,0,1,1,.8-6.11Z" transform="translate(-469.511 -375.927)" fill="#ffb8b8"/>
  <path id="Path_472" data-name="Path 472" d="M795.132,516.857a1.994,1.994,0,0,1,.442-1.6l6.443-7.669a5.543,5.543,0,1,1,9.459,5.779l-3.953,9.239a2,2,0,0,1-2.88.915l-8.586-5.281a1.994,1.994,0,0,1-.925-1.381Z" transform="translate(-507.675 -367.368)" fill="#d8bce8"/>
  <path id="Path_473" data-name="Path 473" d="M796.084,460.677a23.778,23.778,0,0,0,5-14.22,14.682,14.682,0,0,1-4.97,2.4,8.678,8.678,0,0,1-5.788-.208,6.854,6.854,0,0,1-3.729-6.838,8.433,8.433,0,0,1,4.673-6.457,11.025,11.025,0,0,1,8.1-.49,9.632,9.632,0,0,1,10.349-1.381c3.856,1.892,5.988,6.275,6.358,10.554s-.73,8.534-1.819,12.688l-.123.469c-.339,1.293-1.326,3.775-1.326,3.775s-5.728-1.13-8-1.855A40.584,40.584,0,0,1,796.084,460.677Z" transform="translate(-502.921 -327.096)" fill="#2f2e41"/>
  <path id="Path_474" data-name="Path 474" d="M740.01,497.194l-4.667.338a.443.443,0,1,1-.064-.885l4.667-.338a.444.444,0,0,1,.064.885Z" transform="translate(-474.152 -362.569)" fill="#3f3d56"/>
  <path id="Path_475" data-name="Path 475" d="M740.371,502.181l-4.667.338a.443.443,0,1,1-.064-.885l4.667-.338a.444.444,0,1,1,.064.885Z" transform="translate(-474.352 -365.344)" fill="#3f3d56"/>
  <path id="Path_476" data-name="Path 476" d="M740.731,507.168l-4.667.338a.443.443,0,0,1-.064-.885l4.667-.338a.443.443,0,1,1,.064.885Z" transform="translate(-474.553 -368.12)" fill="#3f3d56"/>
  <path id="Path_477" data-name="Path 477" d="M548.362,704.137H147.443a.443.443,0,1,1,0-.887H548.362a.443.443,0,0,1,0,.887Z" transform="translate(-147 -477.733)" fill="#3f3d56"/>
  <path id="Path_478" data-name="Path 478" d="M566.564,313.817H521.771a4,4,0,0,1-3.991-3.991V271.241a4,4,0,0,1,3.991-3.991h44.793a4,4,0,0,1,3.992,3.991v38.584A4,4,0,0,1,566.564,313.817Zm-44.793-45.68a3.108,3.108,0,0,0-3.1,3.1v38.584a3.108,3.108,0,0,0,3.1,3.1h44.793a3.108,3.108,0,0,0,3.1-3.1V271.241a3.108,3.108,0,0,0-3.1-3.1Z" transform="translate(-353.341 -235.097)" fill="#f2f2f2"/>
  <path id="Path_479" data-name="Path 479" d="M568.511,315.343H536.817a3.774,3.774,0,0,1-3.77-3.77V284.52a3.774,3.774,0,0,1,3.77-3.77h31.695a3.774,3.774,0,0,1,3.77,3.77v27.053A3.774,3.774,0,0,1,568.511,315.343Z" transform="translate(-361.838 -242.61)" fill="#e6e6e6"/>
  <circle id="Ellipse_308" data-name="Ellipse 308" cx="2.217" cy="2.217" r="2.217" transform="translate(188.831 21.953)" fill="#f2f2f2"/>
  <path id="Path_480" data-name="Path 480" d="M428.671,62.069,424.01,54.28l-4.635,7.788-.762-.453,5.395-9.065,5.424,9.064Z" transform="translate(-232.961 -29.244)" fill="#f2f2f2"/>
  <path id="Path_481" data-name="Path 481" d="M578.428,310.246a9.335,9.335,0,0,0-.22-2h-6.654a1.774,1.774,0,0,0-1.774,1.774v9.5a9.307,9.307,0,0,0,8.648-9.28Z" transform="translate(-382.28 -257.913)" fill="#d8bce8"/>
  <path id="Path_482" data-name="Path 482" d="M556.032,310.262a9.757,9.757,0,1,1,9.527-11.847l.118.538h-7.205a1.332,1.332,0,0,0-1.331,1.33V310.2l-.489.035C556.446,310.248,556.241,310.262,556.032,310.262Zm0-18.627a8.87,8.87,0,1,0,0,17.74c.074,0,.148,0,.222-.006v-9.086a2.22,2.22,0,0,1,2.218-2.217h6.085A8.921,8.921,0,0,0,556.032,291.636Z" transform="translate(-369.197 -248.173)" fill="#fff"/>
  <path id="Path_483" data-name="Path 483" d="M581.641,322.329H571a2.22,2.22,0,0,1-2.218-2.217v-1.555l.412-.029a8.845,8.845,0,0,0,8.026-10.738l-.118-.538h4.54a2.22,2.22,0,0,1,2.218,2.217v10.644A2.22,2.22,0,0,1,581.641,322.329Zm-11.974-2.955v.738A1.332,1.332,0,0,0,571,321.442h10.644a1.332,1.332,0,0,0,1.331-1.331V309.468a1.332,1.332,0,0,0-1.33-1.33h-3.454a9.667,9.667,0,0,1,.127,1.552A9.784,9.784,0,0,1,569.667,319.373Z" transform="translate(-381.723 -257.357)" fill="#fff"/>
</svg>
