<svg xmlns="http://www.w3.org/2000/svg" width="259.212" height="201.256" viewBox="0 0 259.212 201.256">
  <g id="undraw_adventure_map_hnin" transform="translate(0 0)">
    <path id="Path_482" data-name="Path 482" d="M708.958,733.537s-3.973-9.78,7.946-17.114Z" transform="translate(-544.97 -532.793)" fill="#e6e6e6"/>
    <path id="Path_483" data-name="Path 483" d="M671.272,755.514s-1.212-6.97-10.592-6.911Z" transform="translate(-512.17 -554.948)" fill="#e6e6e6"/>
    <path id="Path_482-2" data-name="Path 482" d="M980.463,721.392s-5.249-12.92,10.5-22.61Z" transform="translate(-731.749 -520.648)" fill="#e6e6e6"/>
    <path id="Path_483-2" data-name="Path 483" d="M930.673,750.425s-1.6-9.209-13.994-9.13" transform="translate(-688.415 -549.916)" fill="#e6e6e6"/>
    <path id="Path_484" data-name="Path 484" d="M471.76,173.029l-5.184-2.753.388-.206,5.184,2.754Z" transform="translate(-321.218 -117.085)" fill="#cbcbcb"/>
    <path id="Path_485" data-name="Path 485" d="M467.845,173.029l-.388-.206,5.183-2.754.388.206Z" transform="translate(-321.825 -117.085)" fill="#cbcbcb"/>
    <rect id="Rectangle_1576" data-name="Rectangle 1576" width="0.549" height="1.645" transform="translate(107.189 35.088) rotate(-62.868)" fill="#cbcbcb"/>
    <path id="Path_486" data-name="Path 486" d="M568.332,259.194l-2.915-1.494.25-.488,2.915,1.494Zm-5.829-2.987-2.915-1.494.25-.488,2.915,1.494Zm-5.829-2.987-2.915-1.494.25-.488,2.915,1.494Zm-5.829-2.987-2.915-1.494.25-.488,2.915,1.494Zm-5.829-2.987-2.915-1.494.25-.488,2.915,1.494Z" transform="translate(-430.532 -208.42)" fill="#cbcbcb"/>
    <rect id="Rectangle_1577" data-name="Rectangle 1577" width="0.549" height="1.645" transform="translate(140.715 52.268) rotate(-62.868)" fill="#cbcbcb"/>
    <path id="Path_487" data-name="Path 487" d="M247.229,338.764q0,.257-.017.51a7.72,7.72,0,0,1-.723,2.8l-.01.022c-.019.041-.039.082-.06.122a7.629,7.629,0,0,1-.411.725,7.759,7.759,0,0,1-6.367,3.583l.077,4.417,1-.527.179.34-1.173.618.143,8.2,0,.11-.774.172,0-.11.244-13.221a7.743,7.743,0,0,1-5.478-2.383c-.049-.05-.1-.1-.144-.154l-.005-.006A7.776,7.776,0,0,1,232.3,341.8l.023.025A7.768,7.768,0,0,1,236,331.812l.081-.04a7.774,7.774,0,0,1,10.071,3.057c.047.079.093.161.137.242a7.726,7.726,0,0,1,.934,3.692Z" transform="translate(-216.831 -267.446)" fill="#e5e5e5"/>
    <circle id="Ellipse_309" data-name="Ellipse 309" cx="10.179" cy="10.179" r="10.179" transform="translate(19.172 54.298)" fill="#e5e5e5"/>
    <path id="Path_488" data-name="Path 488" d="M248.376,312.138a10.18,10.18,0,0,0,16.962,10.774,10.18,10.18,0,1,1-16.962-10.774Z" transform="translate(-226.54 -254.46)" opacity="0.2"/>
    <path id="Path_489" data-name="Path 489" d="M93.686,235.32l-1.04-.292,0-.112.312-16.932.016-.844v-.025l.055-2.958.079-4.288h0l.054-2.906h.029l.055,3.149.071,4.1.051,2.908v.021l0,.12h0l.1,5.669.01.563.2,11.716Z" transform="translate(-63.783 -142.485)" fill="#3f3d56"/>
    <rect id="Rectangle_1578" data-name="Rectangle 1578" width="1.902" height="0.503" transform="translate(29.316 80.638) rotate(-27.766)" fill="#3f3d56"/>
    <path id="Path_490" data-name="Path 490" d="M345.292,227.217a259.28,259.28,0,0,0-38.554.593,146.151,146.151,0,0,0-18.519,2.509c-4.884,1.086-10.554,2.92-13.6,7.194a6.945,6.945,0,0,0-1.084,6.079,13.108,13.108,0,0,0,4.453,6.052c4.425,3.655,9.915,5.782,14.819,8.687,8.954,5.3,17.148,12.449,22.408,21.528,2.314,3.995,4.516,9.307,1.939,13.709-2.525,4.313-8.161,5.8-12.758,6.5a74.6,74.6,0,0,1-17.481.148,182.134,182.134,0,0,1-18.9-2.768c-12.236-2.349-24.36-5.338-36.766-6.7a106.475,106.475,0,0,0-18.745-.542,57.129,57.129,0,0,0-16.646,3.31c-4.088,1.569-8.445,3.943-10.653,7.9-2.128,3.816-1.3,8.217,1.019,11.737,2.788,4.236,7.137,7.139,11.657,9.261a84.589,84.589,0,0,0,16.165,5.313c2.8.675,5.607,1.286,8.418,1.893.586.127.837-.774.248-.9-5.669-1.225-11.354-2.454-16.882-4.227-5.116-1.641-10.351-3.743-14.54-7.189-3.389-2.788-6.611-6.859-6.411-11.488.2-4.667,4.117-7.925,7.955-9.931a45.24,45.24,0,0,1,15.584-4.365,94.688,94.688,0,0,1,18.409-.25c12.377.942,24.477,3.761,36.611,6.22,11.789,2.389,23.945,4.6,36.026,3.988,4.788-.243,9.919-.929,14.147-3.346a11.262,11.262,0,0,0,4.665-4.7,10.522,10.522,0,0,0,.8-6.182c-.686-4.6-3.419-8.868-6.146-12.533a60.568,60.568,0,0,0-10.324-10.695,81.438,81.438,0,0,0-13.661-8.9c-2.567-1.351-5.17-2.651-7.616-4.216a18.116,18.116,0,0,1-6.091-5.742,6.305,6.305,0,0,1-.176-6.649,13.627,13.627,0,0,1,5.77-4.77c5.342-2.654,11.552-3.365,17.4-4.093a257.3,257.3,0,0,1,37.837-1.887q4.609.108,9.212.382c.6.035.6-.9,0-.935Z" transform="translate(-183.986 -195.684)" fill="#707070"/>
    <path id="Path_491" data-name="Path 491" d="M669.184,128.574l1.941-1.552a2.056,2.056,0,0,0-2.381,1.307,3.306,3.306,0,0,0-2.46.152l3.883,1.41A2.939,2.939,0,0,0,669.184,128.574Z" transform="translate(-516.028 -127)" fill="#3f3d56"/>
    <path id="Path_492" data-name="Path 492" d="M638.952,144.347l1.941-1.552a2.056,2.056,0,0,0-2.381,1.307,3.306,3.306,0,0,0-2.46.152l3.883,1.41A2.938,2.938,0,0,0,638.952,144.347Z" transform="translate(-495.215 -137.859)" fill="#3f3d56"/>
    <path id="Path_493" data-name="Path 493" d="M669.184,169.322l1.941-1.552a2.056,2.056,0,0,0-2.381,1.307,3.306,3.306,0,0,0-2.46.152l3.883,1.41A2.938,2.938,0,0,0,669.184,169.322Z" transform="translate(-516.028 -155.053)" fill="#3f3d56"/>
    <g id="Group_27" data-name="Group 27" transform="translate(113.605 4.75)">
      <circle id="Ellipse_7" data-name="Ellipse 7" cx="5.847" cy="5.847" r="5.847" transform="translate(4.609 0.124)" fill="#fecece"/>
      <path id="Path_63" data-name="Path 63" d="M577.434,166.236H548.749a.587.587,0,0,1-.107-.008l13.567-23.5a.95.95,0,0,1,1.653,0l9.1,15.768.436.754Z" transform="translate(-548.642 -142.248)" fill="#ecdaf8"/>
      <path id="Path_65" data-name="Path 65" d="M637.5,181.538H612.687l4.807-6.983.346-.5,6.265-9.1a1.268,1.268,0,0,1,1.883-.112,1.153,1.153,0,0,1,.09.112Z" transform="translate(-592.734 -157.549)" fill="#ecdaf8"/>
    </g>
    <path id="Path_494" data-name="Path 494" d="M508.784,392.235c2.719,1.359,4.374,3.154,4.374,5.122,0,4.241-7.674,7.678-17.139,7.678a32.192,32.192,0,0,1-10.846-1.733,29.579,29.579,0,0,0,12.765,2.556c9.466,0,17.139-3.438,17.139-7.678C515.078,395.783,512.625,393.643,508.784,392.235Z" transform="translate(-391.34 -309.603)" fill="#f1f1f1"/>
    <path id="Path_495" data-name="Path 495" d="M521.5,401.585c3.068,1.533,4.936,3.559,4.936,5.78,0,4.785-8.659,8.664-19.34,8.664a36.326,36.326,0,0,1-12.238-1.956,33.377,33.377,0,0,0,14.4,2.884c10.681,0,19.34-3.879,19.34-8.664C528.6,405.589,525.832,403.174,521.5,401.585Z" transform="translate(-398.007 -316.04)" fill="#f1f1f1"/>
    <path id="Path_496" data-name="Path 496" d="M516.771,396.353c1.915.957,3.082,2.222,3.082,3.609,0,2.988-5.406,5.41-12.075,5.41a22.681,22.681,0,0,1-7.641-1.221,20.84,20.84,0,0,0,8.993,1.8c6.669,0,12.075-2.422,12.075-5.41C521.205,398.853,519.478,397.345,516.771,396.353Z" transform="translate(-401.643 -312.438)" fill="#f1f1f1"/>
    <path id="Path_497" data-name="Path 497" d="M467.141,394.593s.421,6.153,12.487,6.153,15.669-6.153,15.669-6.153Z" transform="translate(-378.927 -311.227)" fill="#7f7f7f"/>
    <path id="Path_498" data-name="Path 498" d="M506.358,338.964a8.47,8.47,0,0,0-6.1-1.669A8.5,8.5,0,0,1,499.227,354a8.5,8.5,0,0,0,7.13-15.039Z" transform="translate(-401.016 -271.74)" fill="#7f7f7f"/>
    <rect id="Rectangle_1579" data-name="Rectangle 1579" width="0.823" height="19.583" transform="translate(100.564 64.444)" fill="#3f3d56"/>
    <path id="Path_499" data-name="Path 499" d="M677.952,258.005l0-.008-.011-.478,2.577-3.742-2.574,3.384-.009.1-.088-3.825,2.226-3.88-2.232,3.208.023-7.924v0l-.148,6.245-2.029-2.537,2.022,3.075-.044,3.421-1.867-3.339,1.86,3.842-.025,1.9-.068,5.27,0,.394q.258,0,.511-.009l-.117-5.062Z" transform="translate(-522.498 -208.111)" fill="#cbcbcb"/>
    <path id="Path_500" data-name="Path 500" d="M638.342,263.286l0-.008-.011-.478,2.577-3.742-2.574,3.384-.009.1-.088-3.825,2.226-3.88-2.233,3.208.023-7.924v0l-.148,6.245-2.029-2.537,2.022,3.075-.044,3.421-1.867-3.339,1.86,3.842-.025,1.9L637.95,268l0,.394q.258,0,.511-.009l-.117-5.062Z" transform="translate(-495.228 -211.747)" fill="#cbcbcb"/>
    <path id="Path_501" data-name="Path 501" d="M657.707,246.562l0-.008-.011-.478,2.577-3.742-2.574,3.384-.009.1-.088-3.825,2.226-3.88-2.232,3.208.023-7.924v0l-.148,6.245-2.029-2.537,2.022,3.075-.044,3.421-1.867-3.339,1.86,3.842-.025,1.9-.068,5.27,0,.394q.258,0,.511-.009L657.7,246.6Z" transform="translate(-508.56 -200.233)" fill="#cbcbcb"/>
    <circle id="Ellipse_310" data-name="Ellipse 310" cx="3.291" cy="3.291" r="3.291" transform="translate(43.936 130.808)" fill="#a2d2ff"/>
    <path id="Path_502" data-name="Path 502" d="M695.814,599.451l-3.047,1.132-5.816-11.212,4.5-1.67Z" transform="translate(-472.938 -404.607)" fill="#ffb7b7"/>
    <path id="Path_503" data-name="Path 503" d="M883.024,752.247,873.2,755.9l-.046-.124a4.079,4.079,0,0,1,2.4-5.244h0l6-2.229Z" transform="translate(-658.273 -554.738)" fill="#2f2e41"/>
    <path id="Path_504" data-name="Path 504" d="M608.563,607.871h-3.25l-1.546-12.536h4.8Z" transform="translate(-415.668 -409.863)" fill="#ffb7b7"/>
    <path id="Path_505" data-name="Path 505" d="M781.8,763.379H771.32v-.133a4.079,4.079,0,0,1,4.079-4.079h6.4Z" transform="translate(-588.341 -562.221)" fill="#2f2e41"/>
    <path id="Path_506" data-name="Path 506" d="M803.458,478.818,802.4,476.7l-9.013,4.507.265,1.856-1.723,2.253s-2.916,1.591-2.386,6.893l.53,5.037.663,6.495-4.639,16.038-2.386,21.208-1.723,17.1,8.351-.4,7.688-27.835,13.52,29.956,9.278-2.386L808.1,527.729l-1.591-12.46s1.06-6.627-3.977-11.134l.8-2.386v-2.94l2.651-14.026Z" transform="translate(-595.683 -367.752)" fill="#2f2e41"/>
    <rect id="Rectangle_1580" data-name="Rectangle 1580" width="21.484" height="0.312" transform="translate(202.19 162.055) rotate(-74.249)" opacity="0.2"/>
    <rect id="Rectangle_1581" data-name="Rectangle 1581" width="12.99" height="1.325" transform="translate(194.52 135.985)" fill="#3f3d56"/>
    <ellipse id="Ellipse_311" data-name="Ellipse 311" cx="0.53" cy="1.325" rx="0.53" ry="1.325" transform="translate(193.99 135.455)" fill="#3f3d56"/>
    <circle id="Ellipse_312" data-name="Ellipse 312" cx="7.066" cy="7.066" r="7.066" transform="translate(190.787 98.626) rotate(-28.663)" fill="#ffb7b7"/>
    <circle id="Ellipse_313" data-name="Ellipse 313" cx="6.251" cy="6.251" r="6.251" transform="translate(204.939 86.412)" fill="#2f2e41"/>
    <path id="Path_507" data-name="Path 507" d="M860.391,422.285a6.252,6.252,0,1,1-12.195,2.564,6.252,6.252,0,0,0,12.195-2.564Z" transform="translate(-641.267 -330.291)" fill="#2f2e41"/>
    <path id="Path_508" data-name="Path 508" d="M802.509,431.809a7.391,7.391,0,1,0,4.41-5.95c-1.234-1-2.765-.687-4.009.364a11.457,11.457,0,0,0-2.916,3.958C801.068,430.331,801.436,431.658,802.509,431.809Z" transform="translate(-608.082 -332.333)" fill="#2f2e41"/>
    <path id="Path_509" data-name="Path 509" d="M860.688,490.642c-.079,2.094-.236,6.216-.236,6.427s-3.125,6.692-4.475,9.477h0c-.1.2-.182.374-.258.531a1.255,1.255,0,0,1-1.154.709l-5.9-.106a1.257,1.257,0,0,1-1.236-1.226l-.658-25.956a.642.642,0,0,1,.641-.658h7.608a1.711,1.711,0,0,1,1.539.966l3.652,7.555a4.83,4.83,0,0,1,.476,2.281Z" transform="translate(-640.286 -369.916)" fill="#a2d2ff"/>
    <path id="Path_510" data-name="Path 510" d="M829.2,507.283a16.9,16.9,0,0,1-4.031-3.407,18.7,18.7,0,0,1-4.659-10.869c-.3-3.45.384-6.014,2.034-7.621a6.715,6.715,0,0,1,5.072-1.733l.128.014,1.934,1.636-.547.647-1.73-1.464A5.912,5.912,0,0,0,823.127,486c-1.454,1.422-2.051,3.755-1.775,6.934a17.854,17.854,0,0,0,4.426,10.355,16.4,16.4,0,0,0,3.829,3.253Z" transform="translate(-622.158 -372.525)" fill="#6c63ff"/>
    <rect id="Rectangle_1582" data-name="Rectangle 1582" width="10.524" height="0.282" transform="matrix(0.98, -0.201, 0.201, 0.98, 207.709, 127.014)" fill="#3f3d56"/>
    <rect id="Rectangle_1583" data-name="Rectangle 1583" width="0.282" height="16.417" transform="matrix(0.999, -0.041, 0.041, 0.999, 210.943, 109.932)" fill="#3f3d56"/>
    <path id="Path_511" data-name="Path 511" d="M881.031,511.877c-.079,2.094-.236,6.216-.236,6.427S877.67,525,876.32,527.78l2.516-14.611a3.221,3.221,0,0,1,2.091-2.484A4.744,4.744,0,0,1,881.031,511.877Z" transform="translate(-660.629 -391.151)" fill="#3f3d56"/>
    <path id="Path_512" data-name="Path 512" d="M831.906,589.527a2.486,2.486,0,0,0-.808-3.725l.511-5.657-3.362-1.149-.61,8a2.5,2.5,0,0,0,4.269,2.532Z" transform="translate(-626.965 -438.18)" fill="#ffb7b7"/>
    <path id="Path_513" data-name="Path 513" d="M830.06,522.705l-5.958-.216.252-28.731a3.878,3.878,0,0,1,2.627-3.691,3.523,3.523,0,0,1,2.216,0,3.879,3.879,0,0,1,2.624,3.97Z" transform="translate(-624.679 -376.832)" fill="#cbcbcb"/>
    <path id="Path_514" data-name="Path 514" d="M748,771.623H629.3a.312.312,0,0,1,0-.623H748a.312.312,0,0,1,0,.623Z" transform="translate(-490.353 -570.367)" fill="#cbcbcb"/>
  </g>
</svg>
