<svg xmlns="http://www.w3.org/2000/svg" xmlns:xlink="http://www.w3.org/1999/xlink" width="507.027" height="378.329" viewBox="0 0 507.027 378.329">
  <defs>
    <linearGradient id="linear-gradient" x1="0.5" y1="1" x2="0.5" gradientUnits="objectBoundingBox">
      <stop offset="0" stop-color="gray" stop-opacity="0.251"/>
      <stop offset="0.54" stop-color="gray" stop-opacity="0.122"/>
      <stop offset="1" stop-color="gray" stop-opacity="0.102"/>
    </linearGradient>
    <linearGradient id="linear-gradient-2" x1="0.5" x2="0.5" y2="0" xlink:href="#linear-gradient"/>
    <linearGradient id="linear-gradient-3" x1="0.5" x2="0.5" y2="0" xlink:href="#linear-gradient"/>
    <linearGradient id="linear-gradient-4" x1="1.096" x2="1.096" y2="0" xlink:href="#linear-gradient"/>
    <linearGradient id="linear-gradient-5" x1="0.5" x2="0.5" y2="0" xlink:href="#linear-gradient"/>
  </defs>
  <g id="undraw_team_spirit_hrr4" transform="translate(0.013 -0.004)">
    <path id="Path_538" data-name="Path 538" d="M43.44,426.65c8.022,31.263,25.006,58.288,51.848,71.386,55.806,27.225,181.585,13.183,275.473-2.932,48.577-8.338,91.245-31.33,122.259-63.73Z" transform="translate(-37.974 -248.422)" fill="#6c63ff" opacity="0.1"/>
    <path id="Path_539" data-name="Path 539" d="M551.926,54.155H500.412a4.078,4.078,0,1,1,0-8.12h8.913a4.285,4.285,0,0,1-4.457-4.06,4.278,4.278,0,0,1,4.457-4.056h-6.36a4.285,4.285,0,0,1-4.457-4.06,4.282,4.282,0,0,1,4.457-4.06h26.887a76.174,76.174,0,0,0-20.973-5.268c-73.316-8.588-99.494-2.91-108.742,2.932a107.9,107.9,0,0,1-37.681,15.059c-45.235,8.508-129.83,18.745-206.507-3.28C117.842,28.3,89.52,46.82,72.54,77.708H560.87a67.2,67.2,0,0,0-6.048-24.543A4.67,4.67,0,0,1,551.926,54.155Z" transform="translate(-54.106 -20.14)" fill="#6c63ff" opacity="0.1"/>
    <path id="Path_540" data-name="Path 540" d="M32.254,280.23a188.935,188.935,0,0,0,2,54.545l452.294,15.081a193.045,193.045,0,0,0,31.424-43.675Zm178.876,38.911h-8.913a4.076,4.076,0,1,1,0,8.115H150.724a4.076,4.076,0,1,1,0-8.115h8.913a4.078,4.078,0,1,1,0-8.12h-6.368a4.076,4.076,0,1,1,0-8.115h51.514a4.076,4.076,0,1,1,0,8.115h6.346a4.078,4.078,0,1,1,0,8.12Z" transform="translate(-31.16 -166.094)" fill="#6c63ff" opacity="0.1"/>
    <path id="Path_541" data-name="Path 541" d="M539.407,149.94,45.612,160.89A165.852,165.852,0,0,0,33.78,207.381H530.752a177.819,177.819,0,0,0,7.175-29.632A128.357,128.357,0,0,0,539.407,149.94ZM134.041,185.82h-8.913a4.078,4.078,0,1,1,0,8.12H73.618a4.078,4.078,0,1,1,0-8.12h8.913a4.076,4.076,0,1,1,0-8.116H76.163a4.078,4.078,0,1,1,0-8.12h51.514a4.078,4.078,0,1,1,0,8.12h6.364a4.076,4.076,0,1,1,0,8.116Z" transform="translate(-32.62 -92.945)" fill="#6c63ff" opacity="0.1"/>
    <ellipse id="Ellipse_317" data-name="Ellipse 317" cx="33.527" cy="7.527" rx="33.527" ry="7.527" transform="translate(262.537 321.885)" fill="#6c63ff" opacity="0.1"/>
    <ellipse id="Ellipse_318" data-name="Ellipse 318" cx="60.485" cy="4.965" rx="60.485" ry="4.965" transform="translate(313.485 348.353)" fill="#6c63ff" opacity="0.1"/>
    <ellipse id="Ellipse_319" data-name="Ellipse 319" cx="60.485" cy="7.527" rx="60.485" ry="7.527" transform="translate(70.63 338.263)" fill="#6c63ff" opacity="0.1"/>
    <ellipse id="Ellipse_320" data-name="Ellipse 320" cx="45.511" cy="7.527" rx="45.511" ry="7.527" transform="translate(177.826 301.402)" fill="#6c63ff" opacity="0.1"/>
    <ellipse id="Ellipse_321" data-name="Ellipse 321" cx="36.433" cy="7.527" rx="36.433" ry="7.527" transform="translate(199.61 363.278)" fill="#d8bce8" opacity="0.1"/>
    <path id="Path_542" data-name="Path 542" d="M499.379,220.049c-.963-6.48-6.85-21.6-6.85-21.6h0q-.154-.669-.348-1.337c-4.176-14.35-9.956-15.6-9.956-15.6l-20.706-4.457a1.605,1.605,0,0,1,.446.414,2.873,2.873,0,0,0-.325.049,8.111,8.111,0,0,1-1.814-3.922c-.04-.214-.076-.446-.1-.664a14.564,14.564,0,0,0-1.185-21.9c-.218-.169-.446-.334-.664-.49a3.3,3.3,0,0,0,.276-3.926c-1.631-3.387-5.178-5.531-8.824-6.578a14.96,14.96,0,0,0-8.566-.183,30.939,30.939,0,0,0-4.483,2.081c-2.75,1.373-5.794,2.46-7.848,4.72a2.3,2.3,0,0,0-.784,1.894,5.112,5.112,0,0,0,.78,1.377,4.156,4.156,0,0,1,.04,3.449,33.4,33.4,0,0,0-1.279,3.316,3.466,3.466,0,0,0,.691,3.329,14.664,14.664,0,0,0,1.292.891A6.776,6.776,0,0,1,430.4,162.3q1.23,1.649,2.451,3.311a34.114,34.114,0,0,1,3.071,4.666,22.747,22.747,0,0,0,1.9,3.565,5.283,5.283,0,0,0,.816.856l-.241-.094a3.713,3.713,0,0,0,2.723,1.11h.125a.749.749,0,0,0,.5-.205v.446c.049,1.591.04,3.285-.071,4.876l-.192-.1a1.671,1.671,0,0,0-1.783.187l-19.061,15.3s-4.145,5.669-3.565,15.456l-3.342,14.676s-4.176,12.452-.963,21.343,5.076,13.976,5.076,13.976,1.284,10.1,3.213,10.928,2.763,1.27,2.763,1.27l.383,2.415h0s.129.236.357.633c1.4,2.442,6.6,11.061,9.626,10.139a38.635,38.635,0,0,1,.49,7.082l2.99,20.077s2.086,5.459,1.957,8.32,2.433,6.939,2.433,6.939a13.259,13.259,0,0,0-1.283,9.337c1.221,5.348,2.763,29.984,2.763,29.984l2.228,5.972-.062,7a6.684,6.684,0,0,1-1.382,3.12c-1.444,1.569-1.337,3.383-4.818,5.526s-5.687,2.955-5.687,5.794a7.449,7.449,0,0,1-.107,1.181c-.321,2.086-.945,3.218,5.455,3.824a16.873,16.873,0,0,0,12.532-4.189s1.105-2.005,6.311-2.817c0,0,1.783-.094,1.876-1.667.036-.544.027-1.582,0-2.727-.085-2.179-.294-4.724-.57-4.849-.348-.156-.954-2.349-1.163-3.142H459.6s1.337-10.1,0-16.645a27.005,27.005,0,0,1-.129-11.182l-.258-17.278s-1.783-1.907-.383-5.277,0-20.01,0-20.01.517-5.972,1.992-7.371.071-8.748,0-9.132l2.629,8.82s1.154,17.532,3.6,20.705l.7,7.942s5.009,7.309,4.047,11.244,1.029,18.17,1.029,18.17v14.551s-2.251,5.843.891,7.942l1.337-.053c-.446.414-.789,1.038-1.31,1.578-.6.619-.945,2.977-1.136,5-.16,1.716-.214,3.191-.214,3.191a5.254,5.254,0,0,0,3.855,2.286c2.518.147,10.816,6.458,10.816,6.458s8.2,0,10.317-.446l.125-.031a2.786,2.786,0,0,0,1.6-1.306,3.342,3.342,0,0,0,.383-2.4c-.263-1.252-1.257-2.625-3.458-3.793-5.477-2.888-6.293-5.593-6.293-5.593l-3.6-5.4h.513a23.087,23.087,0,0,1,3.6-12.135L490,343.39s1.6-9.72-1.154-15c0,0-.227-5.589,1.618-7.3s-2.456-19.057-2.456-19.057-.891-9.31-1.939-17.8h0c4.336,4.113,8.833-10.7,9.591-13.33h.111l-.049-.192c.031-.125.049-.187.049-.187h0s-.963-3.423-.258-2.727,2.442-1.907,2.442-1.907-.259-14.168,2.763-21.307S499.379,220.049,499.379,220.049Zm-12.924,9.016.022-.04c.446,8.65-.085,27.11-.085,27.11s-.6,2.367-1.234,5.152l-.446-17.537h0l-.446-16.521ZM431.143,223.1s2.184,27.315,0,31.254a20.636,20.636,0,0,0-1.573,5.4c-.722-1.894-2.251-6.342-1.7-8.7.709-3.048-1.413-11.057-1.413-11.244a19,19,0,0,1,1.337-7.719c1.529-3.262.526-4.675.526-4.675S429.6,222.068,431.143,223.1Z" transform="translate(-242.033 -86.201)" fill="url(#linear-gradient)"/>
    <path id="Path_543" data-name="Path 543" d="M453.093,448.475c-1.9,8.365-9.47-4.283-11.2-7.318-.223-.4-.348-.628-.348-.628l.82-3.846,4.336-1.783a12.112,12.112,0,0,1,1.943,1.266A11.715,11.715,0,0,1,453.093,448.475Z" transform="translate(-258.662 -252.479)" fill="#d38884"/>
    <path id="Path_544" data-name="Path 544" d="M583.668,431.984a.586.586,0,0,1-.049.187.952.952,0,0,1-.058.2c-.744,2.612-5.156,17.314-9.417,13.232-4.662-4.457-2.4-14.76-2.4-14.76h.031l9.8-1,1.943,2h0Z" transform="translate(-330.53 -249.645)" fill="#d38884"/>
    <path id="Path_545" data-name="Path 545" d="M511.853,505.745l.25,28.077a23.027,23.027,0,0,0-3.53,12.033l-12.675.5c-3.093-2.081-.891-7.879-.891-7.879V524.017S493.05,509.894,494,505.981s-3.971-11.142-3.971-11.142l-.7-7.884c-2.4-3.151-3.534-20.554-3.534-20.554l-2.572-8.788c.071.379,1.408,7.714,0,9.065s-1.956,7.313-1.956,7.313,1.386,16.525,0,19.863.374,5.237.374,5.237l.254,17.153a26.825,26.825,0,0,0,.125,11.1c1.324,6.493,0,16.525,0,16.525h-13.6l.062-7-2.2-5.927s-1.515-24.467-2.714-29.766a13.3,13.3,0,0,1,1.257-9.27s-2.518-4.033-2.393-6.872-1.943-8.254-1.943-8.254l-2.932-19.926A38.71,38.71,0,0,0,456.1,445.5c-1.7-5.678-4.225-13.12-4.225-13.12l2.848.254,14.368,1.279s34.935-2.349,36.5-.4a6.554,6.554,0,0,1,.66,2.037c1.569,7.046,3.641,29.12,3.641,29.12s4.225,17.216,2.411,18.918-1.591,7.246-1.591,7.246C513.435,496.074,511.853,505.745,511.853,505.745Z" transform="translate(-264.388 -251.941)" fill="#555"/>
    <path id="Path_546" data-name="Path 546" d="M488.008,689.817c-.1,1.564-1.841,1.658-1.841,1.658-5.107.8-6.195,2.79-6.195,2.79a16.4,16.4,0,0,1-12.3,4.163c-6.284-.606-5.673-1.725-5.348-3.8a7.847,7.847,0,0,0,.1-1.168c0-2.839,2.175-3.646,5.58-5.794s3.311-3.926,4.728-5.486S474.3,677.6,474.3,677.6c1.6-2.794,5.673.446,5.673.446.192.989,6.239.851,6.239.851s.8,3.218,1.217,3.4c.272.125.477,2.647.557,4.813C488.035,688.248,488.044,689.278,488.008,689.817Z" transform="translate(-270.078 -387.857)" fill="#b07473"/>
    <path id="Path_547" data-name="Path 547" d="M488.008,703.076c-.1,1.564-1.841,1.658-1.841,1.658-5.107.8-6.195,2.79-6.195,2.79a16.4,16.4,0,0,1-12.3,4.163c-6.284-.606-5.673-1.725-5.348-3.8,2.808.7,8.173,1.667,11.306-.036,4.354-2.362,7.478-4.011,7.478-4.011l6.881-3.463C488.035,701.507,488.044,702.537,488.008,703.076Z" transform="translate(-270.078 -401.143)" opacity="0.1"/>
    <path id="Path_548" data-name="Path 548" d="M573.971,700.48a2.718,2.718,0,0,1-1.569,1.3l-.12.031c-2.081.446-10.126.446-10.126.446s-8.133-6.288-10.593-6.431a5.173,5.173,0,0,1-3.784-2.273s.049-1.462.205-3.164c.192-2.014.526-4.354,1.119-4.969,1.087-1.137,1.337-2.674,3.784-1.7,0,0,3.494-6.159,7.612-1.4l4.261,6.462s.8,2.674,6.2,5.575c2.157,1.159,3.12,2.522,3.391,3.766A3.32,3.32,0,0,1,573.971,700.48Z" transform="translate(-317.549 -390.123)" fill="#b07473"/>
    <path id="Path_549" data-name="Path 549" d="M573.971,712.764c-.481.405-1.012.842-1.569,1.3l-.12.031c-2.081.446-10.126.446-10.126.446s-8.133-6.288-10.593-6.431a5.173,5.173,0,0,1-3.784-2.273s.049-1.462.205-3.164c2.5.749,6.3,2.072,7.313,3.5,1.56,2.17,6.3,5.2,6.3,5.2s8.833-.851,12.755-.967A3.32,3.32,0,0,1,573.971,712.764Z" transform="translate(-317.549 -402.431)" opacity="0.1"/>
    <path id="Path_550" data-name="Path 550" d="M500.12,213.131l-11.632,12.3s-14.1-1.038-11.636-5.2c1.252-2.121,1.448-6.56,1.337-10.42-.1-3.721-.486-6.89-.486-6.89s19.77-9.84,18.272-.664a15.1,15.1,0,0,0-.053,5.237C496.764,212.124,500.12,213.131,500.12,213.131Z" transform="translate(-278.071 -119.994)" fill="#d38884"/>
    <path id="Path_551" data-name="Path 551" d="M497.374,202.253a15.1,15.1,0,0,0-.053,5.237,14.511,14.511,0,0,1-10.348,4.318c-2.674,0-5.566-2.2-7.728-3.467-.1-3.726-.125-5.424-.125-5.424S498.89,193.077,497.374,202.253Z" transform="translate(-279.488 -119.954)" opacity="0.1"/>
    <path id="Path_552" data-name="Path 552" d="M493.176,176.055a14.569,14.569,0,1,1-5.482-11.382A14.569,14.569,0,0,1,493.176,176.055Z" transform="translate(-271.128 -99.35)" fill="#d38884"/>
    <path id="Path_553" data-name="Path 553" d="M509,435.858c-3.628,8.633-26.963,8.811-26.963,8.811v-9.412l-1.413-.094c.611,2.7-.856,9.27-.856,9.27-18.442,2.6-22.938-7.906-22.938-7.906l.642-3.6,14.368,1.279s34.935-2.349,36.5-.4A6.558,6.558,0,0,1,509,435.858Z" transform="translate(-267.132 -251.347)" opacity="0.1"/>
    <path id="Path_554" data-name="Path 554" d="M482.037,329.7v-9.412l-1.413-.089c.611,2.674-.856,9.27-.856,9.27-13.878,1.956-19.859-3.507-21.967-6.333a8.63,8.63,0,0,1-.972-1.569l5.633-31.687,1.337-46.634,2.019-8.182.468-3.926v-.045h.049l1.435.615,8.588,3.712,9.756-7.367.143-.1.486-.37.807.646,2.005,1.609,6.431,41.531s11.142,31.976,13.227,44.883c.085.517.152,1,.205,1.448C510.8,329.481,482.037,329.7,482.037,329.7Z" transform="translate(-267.132 -136.713)" fill="#ddedfa"/>
    <circle id="Ellipse_322" data-name="Ellipse 322" cx="0.829" cy="0.829" r="0.829" transform="translate(209.441 99.113)" fill="#67647e"/>
    <circle id="Ellipse_323" data-name="Ellipse 323" cx="0.829" cy="0.829" r="0.829" transform="translate(209.824 106.585)" fill="#67647e"/>
    <circle id="Ellipse_324" data-name="Ellipse 324" cx="0.829" cy="0.829" r="0.829" transform="translate(210.653 118.682)" fill="#67647e"/>
    <circle id="Ellipse_325" data-name="Ellipse 325" cx="0.829" cy="0.829" r="0.829" transform="translate(212.021 131.711)" fill="#67647e"/>
    <circle id="Ellipse_326" data-name="Ellipse 326" cx="0.829" cy="0.829" r="0.829" transform="translate(212.85 143.945)" fill="#67647e"/>
    <circle id="Ellipse_327" data-name="Ellipse 327" cx="0.829" cy="0.829" r="0.829" transform="translate(213.679 156.974)" fill="#67647e"/>
    <circle id="Ellipse_328" data-name="Ellipse 328" cx="0.829" cy="0.829" r="0.829" transform="translate(213.349 169.863)" fill="#67647e"/>
    <path id="Path_555" data-name="Path 555" d="M466.834,298.693s-.927,12.135-2.629,15.665-2.46,13.432-2.46,13.432l-3.953-.446a8.629,8.629,0,0,1-.971-1.569l5.633-31.687,1.337-46.634,2.023-8.187.468-3.926.053-.022a1.6,1.6,0,0,1,1.408.022l.187.1q-.085.241-.16.495c-1.542,4.827-2.117,13.722-2.117,13.722s2.228,16.271,2.46,23.839S466.834,298.693,466.834,298.693Z" transform="translate(-267.126 -140.922)" opacity="0.1"/>
    <path id="Path_556" data-name="Path 556" d="M448.649,436.179a2.283,2.283,0,0,1-.152.294c-1.533,2.589-5.419,4.234-6.6,4.684-.223-.4-.348-.628-.348-.628l.82-3.846,4.336-1.783a12.109,12.109,0,0,1,1.943,1.279Z" transform="translate(-258.662 -252.414)" opacity="0.1"/>
    <path id="Path_557" data-name="Path 557" d="M422.7,298.81l-3.6,2.144-3.276,14.569s-4.1,12.358-.949,21.187,4.982,13.882,4.982,13.882,1.261,10.027,3.155,10.847,2.71,1.261,2.71,1.261l.379,2.4s5.134-1.743,6.948-4.813-1.337-10.7-1.337-10.7-2.71-6.5-2.014-9.524-1.391-10.972-1.391-11.141a18.885,18.885,0,0,1,1.337-7.665c1.524-3.249.508-4.635.508-4.635l-.949-9.27Z" transform="translate(-243.217 -176.5)" fill="#67647e"/>
    <path id="Path_558" data-name="Path 558" d="M545.435,319.691s-9.524,3.592-12.55.446-2.714-17.911-2.714-17.911-2.9-27.243-4.728-31.718-.891-36.767-.891-36.767-1.23-4.176-2.3-5.268a1.168,1.168,0,0,0-.227-.183l.37.08,1.292.276,2.005,1.609,6.431,41.531s11.142,31.976,13.227,44.883Z" transform="translate(-303.269 -137.062)" opacity="0.1"/>
    <path id="Path_559" data-name="Path 559" d="M584.34,432.351h-.107c-1.2.156-11.779,1.435-11.824-.766a6.474,6.474,0,0,1,.04-.762l9.8-1,1.943,2h0c.036.129.062.241.089.33Z" transform="translate(-331.202 -249.549)" opacity="0.1"/>
    <path id="Path_560" data-name="Path 560" d="M574.187,266.07l6.952,3.628s5.794,15,6.721,21.432c0,0,4.292,17.229,1.337,24.315s-2.71,21.151-2.71,21.151-1.7,2.585-2.4,1.894.254,2.71.254,2.71-11.886,1.578-11.935-.758,2.728-13.495,2.728-13.495.758-26.548-.316-30.711S574.187,266.07,574.187,266.07Z" transform="translate(-331.201 -158.181)" fill="#67647e"/>
    <path id="Path_561" data-name="Path 561" d="M522.79,329.52s-3.913,9.582-5.174,10.215.254,3.151.254,3.151S525,332.925,522.79,329.52Z" transform="translate(-300.55 -193.432)" opacity="0.1"/>
    <path id="Path_562" data-name="Path 562" d="M517.018,254.094c.045-.183-4.666,4.622-5.927,5.348S515.694,259.4,517.018,254.094Z" transform="translate(-297.113 -151.153)" opacity="0.1"/>
    <path id="Path_563" data-name="Path 563" d="M487.312,327.82s-7.188,4.648-6.239,6.489S487.312,327.82,487.312,327.82Z" transform="translate(-280.523 -192.449)" opacity="0.1"/>
    <path id="Path_564" data-name="Path 564" d="M524.47,480.07a38.48,38.48,0,0,0,15.638,4.9Z" transform="translate(-304.627 -277.701)" opacity="0.1"/>
    <path id="Path_565" data-name="Path 565" d="M491.5,501.3s5.673,7.131,8.263,7.313S491.5,501.3,491.5,501.3Z" transform="translate(-286.351 -289.607)" opacity="0.1"/>
    <path id="Path_566" data-name="Path 566" d="M500.815,564c-.254.125-3.218,6.431-6.239,6.623S500.815,564,500.815,564Z" transform="translate(-287.72 -324.716)" opacity="0.1"/>
    <path id="Path_567" data-name="Path 567" d="M568.33,594.768s5.624-1.261,6.877,2.772C575.207,597.526,574.828,596.265,568.33,594.768Z" transform="translate(-328.941 -341.811)" opacity="0.1"/>
    <path id="Path_568" data-name="Path 568" d="M559.84,646.148s6.814-1.39,8.263.5S559.84,646.148,559.84,646.148Z" transform="translate(-324.234 -370.4)" opacity="0.1"/>
    <path id="Path_569" data-name="Path 569" d="M508.267,654c0,.062-6.934,1.391-6.685,2.273s7.4.758,7.652-.633a1.337,1.337,0,0,0-.967-1.64Z" transform="translate(-291.936 -375.083)" opacity="0.1"/>
    <path id="Path_570" data-name="Path 570" d="M554.75,666.921s11.4-1.391,10.7,1.007S554.75,666.921,554.75,666.921Z" transform="translate(-321.413 -382.089)" opacity="0.1"/>
    <path id="Path_571" data-name="Path 571" d="M420.89,352.44c.062.187,7.5,1.2,8.512,3.6,0,0-7.313-3.409-8.468-3.409" transform="translate(-247.209 -206.221)" opacity="0.1"/>
    <path id="Path_572" data-name="Path 572" d="M437.212,396.16s-6.181,1.956-5.74,4.9S430.844,399.7,437.212,396.16Z" transform="translate(-253.062 -230.717)" opacity="0.1"/>
    <path id="Path_573" data-name="Path 573" d="M437.92,426.616s2.251-3.088,4.394-2.523S437.92,426.616,437.92,426.616Z" transform="translate(-256.649 -246.301)" opacity="0.1"/>
    <path id="Path_574" data-name="Path 574" d="M487.721,164.669a3.507,3.507,0,0,1-.722.539c-1.783,1.038-2.273,2.638-3.12,4.483-.789,1.689-1.658,3.476-3.249,4.434-2.055,1.239-4.76.784-6.894,1.863a5.348,5.348,0,0,0-2.852,5.272,15.207,15.207,0,0,0,.606,2.416,17.226,17.226,0,0,1,.651,5.245.882.882,0,0,1,0,.156,14.564,14.564,0,1,1,15.6-24.409Z" transform="translate(-271.154 -99.343)" opacity="0.1"/>
    <path id="Path_575" data-name="Path 575" d="M478.3,149.772c-1.6-3.36-5.081-5.491-8.659-6.529a14.543,14.543,0,0,0-8.41-.178,30.847,30.847,0,0,0-4.4,2.063c-2.7,1.364-5.669,2.442-7.7,4.684a2.347,2.347,0,0,0-.771,1.881,5.251,5.251,0,0,0,.762,1.364,4.139,4.139,0,0,1,.04,3.427,31.421,31.421,0,0,0-1.257,3.294,3.465,3.465,0,0,0,.677,3.3,12.339,12.339,0,0,0,1.275.891,6.707,6.707,0,0,1,1.208,1.373l2.406,3.289a33.35,33.35,0,0,1,3.013,4.63,22.069,22.069,0,0,0,1.863,3.534,4.033,4.033,0,0,0,3.378,1.8.655.655,0,0,0,.535-.254.7.7,0,0,0,.067-.334,17.1,17.1,0,0,0-.637-5.228,15.092,15.092,0,0,1-.606-2.415,5.37,5.37,0,0,1,2.852-5.272c2.139-1.079,4.844-.624,6.894-1.858,1.6-.963,2.465-2.75,3.249-4.457.86-1.845,1.337-3.445,3.12-4.483S479.182,151.541,478.3,149.772Z" transform="translate(-262.107 -87.978)" fill="#585268"/>
    <path id="Path_576" data-name="Path 576" d="M501.63,693.06s2.228,2.839,1.649,4.457S501.63,693.06,501.63,693.06Z" transform="translate(-291.966 -396.975)" opacity="0.1"/>
    <path id="Path_577" data-name="Path 577" d="M569.28,704.159s.495-3.806,2.478-3.842,2.081-.205,3.6.379,2.937,1.489,2.482,1.622-2.607-2.175-4.818-.994A15.915,15.915,0,0,0,569.28,704.159Z" transform="translate(-329.467 -401.002)" opacity="0.1"/>
    <path id="Path_578" data-name="Path 578" d="M479.481,244.586l6.239-4.372s-9.127-5.393-10.215-4.635-1.836,7.576-1.836,7.576Z" transform="translate(-276.467 -140.758)" opacity="0.1"/>
    <path id="Path_579" data-name="Path 579" d="M479.421,243.851l6.239-4.457s-9.127-5.393-10.215-4.635-1.836,7.951-1.836,7.951Z" transform="translate(-276.434 -140.299)" fill="#e1e7ef"/>
    <path id="Path_580" data-name="Path 580" d="M479.421,243.851l6.239-4.457s-9.127-5.393-10.215-4.635-1.836,7.951-1.836,7.951Z" transform="translate(-276.434 -140.299)" fill="#6c63ff"/>
    <path id="Path_581" data-name="Path 581" d="M449.932,234.594l-.187-.094a1.618,1.618,0,0,0-1.751.183l-18.718,15.184s-4.069,5.629-3.5,15.34l11.039,15.638s1.261-5.294,2.772-4.287c0,0,2.144,27.119,0,31.027s-3.088,18.54-3.088,18.54l7.251.82s.758-9.9,2.46-13.432,2.629-15.665,2.629-15.665,1.533-17.63,1.279-25.2-2.46-23.839-2.46-23.839S448.274,239.273,449.932,234.594Z" transform="translate(-249.886 -140.448)" fill="#67647e"/>
    <path id="Path_582" data-name="Path 582" d="M512.217,237.829l-7.777-2.879s9.9-10.847,11.142-4.831Z" transform="translate(-293.524 -136.724)" opacity="0.1"/>
    <path id="Path_583" data-name="Path 583" d="M512.217,236.979,504.44,234.1s9.9-10.847,11.142-4.831Z" transform="translate(-293.524 -136.248)" fill="#e1e7ef"/>
    <path id="Path_584" data-name="Path 584" d="M512.217,236.979,504.44,234.1s9.9-10.847,11.142-4.831Z" transform="translate(-293.524 -136.248)" fill="#6c63ff"/>
    <path id="Path_585" data-name="Path 585" d="M521.32,228.113a.446.446,0,0,1,.321.071Z" transform="translate(-302.881 -136.586)" opacity="0.1"/>
    <path id="Path_586" data-name="Path 586" d="M523,226.42l20.634,4.457s5.678,1.261,9.778,15.514S547.8,278.1,547.8,278.1l-2.144-1.823,1.074,41.62s-9.524,3.592-12.55.446-2.709-17.925-2.709-17.925-2.9-27.239-4.733-31.718-.891-36.763-.891-36.763S524.159,226.171,523,226.42Z" transform="translate(-303.812 -136.008)" fill="#67647e"/>
    <path id="Path_587" data-name="Path 587" d="M565.023,285.708c-.29.267-.628,12.862.633,22.448a122.328,122.328,0,0,0,3.565,17.278l-1.872-38.4S565.906,284.887,565.023,285.708Z" transform="translate(-326.958 -168.906)" opacity="0.1"/>
    <path id="Path_588" data-name="Path 588" d="M559.7,261.6c.5.316,2.714,5.549,1.7,7.692S559.7,261.6,559.7,261.6Z" transform="translate(-324.157 -155.368)" opacity="0.1"/>
    <path id="Path_589" data-name="Path 589" d="M492.047,152.881a11.391,11.391,0,0,0-4.537-4.751,10.789,10.789,0,0,1,3.4,4.011c.891,1.783.628,3.565-1.105,4.541s-2.273,2.638-3.12,4.483c-.789,1.689-1.658,3.476-3.253,4.457-2.05,1.239-4.755.78-6.894,1.858a5.384,5.384,0,0,0-2.852,5.277,15.159,15.159,0,0,0,.611,2.411,17.235,17.235,0,0,1,.651,5.245.7.7,0,0,1-.071.334.637.637,0,0,1-.53.254,3.07,3.07,0,0,1-1.555-.29,3.619,3.619,0,0,0,2.674,1.047.526.526,0,0,0,.6-.588,17.1,17.1,0,0,0-.646-5.245,14.652,14.652,0,0,1-.61-2.415,5.37,5.37,0,0,1,2.852-5.272c2.139-1.079,4.844-.624,6.894-1.858,1.6-.963,2.465-2.75,3.249-4.457.86-1.845,1.337-3.445,3.12-4.483S492.938,154.65,492.047,152.881Z" transform="translate(-275.979 -91.087)" opacity="0.1"/>
    <path id="Path_590" data-name="Path 590" d="M692.813,221.591c-6.141-.12-11.56-4.457-14.631-9.756a9.8,9.8,0,0,1-1.48-4.176,4.814,4.814,0,0,1,.169-1,10.366,10.366,0,0,0,.446-1.529,2.68,2.68,0,0,0,0-.624v-.036a3.687,3.687,0,0,0-1.337-3c-.82-.771-1.85-1.337-2.705-2.1-2.638-2.317-3.441-6.034-3.49-9.573v-.187c.031-1.515.151-3.035.138-4.55a19.122,19.122,0,0,0-.111-2.576,8.512,8.512,0,0,0-2.754-5.7c-4.394-3.565-11.783.147-16.334-3.222-1.105-.824-2-2.041-3.343-2.362a5.631,5.631,0,0,0-3.053.414c-3.352,1.105-7.091,2.558-8.4,5.794-.749,1.858-.539,3.98-1.225,5.86a29.262,29.262,0,0,1-1.916,3.539,5.54,5.54,0,0,0-.713,2.955,3.335,3.335,0,0,0,.218,1.573,4.012,4.012,0,0,0,1.092,1.564,5.2,5.2,0,0,1-.651,1.043c-.856,1.047-2.17,1.783-3.062,2.825-1.649,1.912-1.587,4.51-.775,6.756s2.277,4.292,3.289,6.48a3.478,3.478,0,0,1,.334,2.955,8.469,8.469,0,0,1-1.48,1.72,5.406,5.406,0,0,0-1.337,2.986c-10.032,2.291-10.041,10.353-10.041,10.353h0l-5.419,13.628s-.869,2.3-1.89,5.326l-6.413-1.15,4.457,7.46c-.842,3.039-1.439,5.856-1.243,7.273,0,0-1.992,9.359,1.551,10.994l7.817,3.516a4.632,4.632,0,0,0,1.083.486l.316.143a.837.837,0,0,0,.731,0h.107a1.051,1.051,0,0,0,.446-.067.891.891,0,0,0,.392-.423.13.13,0,0,1,0-.045l2.34-.677,1.983,2.349c.891.628,1.783,1.172,2.625,1.662l-3.071,30.492s-.495,40.555-1.992,49.8a25.889,25.889,0,0,0-.348,7.345l-.058.1c.37,2.607,1.337,3.12,1.337,3.12v-.036a.29.29,0,0,0,.058.036,26.238,26.238,0,0,1,1.6-3.441v.668c-.031,3.441-.138,8.258-.495,11.391-.606,5.348,1.551,22.974,1.551,22.974l.744,16.044a14.832,14.832,0,0,1-1.827,7.817c-1.783,3.2-4.06,7.714-4.225,9.715a1.983,1.983,0,0,0,0,.325h0l-3.824,4.6s-1.493,2.309,1.881,3.24c1.814.5,4.943,0,7.456-.593a4.983,4.983,0,0,0,3.864-4.849,17.158,17.158,0,0,1,3.155-6.057l.628,3.695,4.207,1.043.539-10.125a4.458,4.458,0,0,0,.29-1.783h0c.829-7.2-1.952-6.556-1.952-6.556a.387.387,0,0,1,.134.25l-.134-.245h0c-1.707-3.369-.891-8.913-.891-8.913s2.228-16.044,2.99-20.282c.548-2.995.321-12.8.138-18.272a6.541,6.541,0,0,0-.022-.664c6.525-.085,14.52-.3,20.131-.847v.66l-1.034,37.9a20.806,20.806,0,0,1-1.453,7.05.384.384,0,0,1-.049.129,30.749,30.749,0,0,0-2.054,9.934l-.481,12.033v.334h0c-.838.321-2.161,1.252-2.2,3.953-.058,3.958,6.917,2.638,6.917,2.638,6.97,0,7.028-7.255,7.028-7.255s.218-6.654.553-11.106-1.052-3.472-1.052-3.472l-.107,12.666v-11l.107-1.609V421.3h0v-.343l.878-13.062s6.422-21.766,7.416-25.942c.709-2.968.415-11.908.183-16.85a3.931,3.931,0,0,0-.036-.655c1.992-.178,3.752-.2,4.457-.2h.326s-.33-34.958-1.163-48.132-2.157-25.229-5.477-28.857c-2.005-2.193-4.8-8.962-6.685-13.976a69.92,69.92,0,0,0,12.287,4.011c10.513,2.2,9.074-6.926,9.074-6.926l-1.065-17.261h.071a87.993,87.993,0,0,0-1.159-13.495,39.7,39.7,0,0,0-2.71-9.8c1.141-.446,2.268-.923,3.374-1.413,2.857-1.261,6.074-3.048,6.484-6.128h-.138a3.966,3.966,0,0,0,.107-.677Zm-65.169,24.957h0c.022,1.783-.044,4.876-.151,8.294l-3.338-4.457,3.347-5.428ZM672.37,255.6Zm1.391,6.743L668.2,260.56a24.957,24.957,0,0,1,3.436-4.252l.481-.446-.174.036.267-.245.16-.036-.254.245.3-.062a9.488,9.488,0,0,0,1.894,3.81c2,2.179-.548,2.732-.548,2.732Z" transform="translate(-349.789 -108.641)" fill="url(#linear-gradient-2)"/>
    <path id="Path_591" data-name="Path 591" d="M644.093,715.66,643.443,728l-4.149-1.038-.873-5.13Z" transform="translate(-353.907 -401.525)" fill="#a27772"/>
    <path id="Path_592" data-name="Path 592" d="M644.093,715.66,643.443,728l-4.149-1.038-.873-5.13Z" transform="translate(-353.907 -401.525)" opacity="0.1"/>
    <path id="Path_593" data-name="Path 593" d="M716.48,669.254l6.328,1.31,4.693-4.145V654.739l.107-1.6v-.049h0v-.339l.874-12.982s6.333-21.61,7.318-25.759c.7-2.941.406-11.819.174-16.726-.094-2.01-.174-3.356-.174-3.356l-13.972-3.382-.294,10.74-1.021,37.632a20.854,20.854,0,0,1-1.43,7l-.049.129a30.624,30.624,0,0,0-2.028,9.858l-.472,11.966v.33Z" transform="translate(-411.065 -341.148)" fill="#cc818c"/>
    <path id="Path_594" data-name="Path 594" d="M741.45,730.139v.33h0v-.339Z" transform="translate(-424.908 -418.522)" opacity="0.1"/>
    <path id="Path_595" data-name="Path 595" d="M716.48,762.388l6.328,1.31,4.693-4.145v-.994a1.337,1.337,0,0,1-.673,1.07l-.067.04a12.612,12.612,0,0,1-7.1,1.4l-2.469-.209a2.313,2.313,0,0,0-.655.161v.33Z" transform="translate(-411.065 -434.282)" opacity="0.1"/>
    <path id="Path_596" data-name="Path 596" d="M724.111,744.543l.067-.036a1.337,1.337,0,0,0,.682-1.159l.1-12.572s1.364-.976,1.034,3.445-.544,11.026-.544,11.026-.054,7.2-6.93,7.2c0,0-6.877,1.31-6.823-2.621s2.839-4.091,2.839-4.091l2.469.214A12.581,12.581,0,0,0,724.111,744.543Z" transform="translate(-408.416 -418.829)" fill="#b07473"/>
    <path id="Path_597" data-name="Path 597" d="M642.52,671.7c.16,2.839,8.512,1.2,8.512,1.2l5.62-10.91s4.693-3.606,2.344-6.77a5.014,5.014,0,0,1-.343-.539l-.023-.027h0c-.049-.08-.094-.165-.138-.254h0c-1.684-3.342-.856-8.824-.856-8.824s2.179-15.937,2.946-20.14c.54-2.968.317-12.706.138-18.152-.071-2.264-.138-3.784-.138-3.784l-13.864-3.712v4.136c-.031,3.418-.138,8.2-.49,11.311-.6,5.29,1.529,22.809,1.529,22.809l.735,15.942a14.765,14.765,0,0,1-1.783,7.759c-1.738,3.182-4.011,7.665-4.167,9.649A1.944,1.944,0,0,0,642.52,671.7Z" transform="translate(-370.067 -346.27)" fill="#cc818c"/>
    <path id="Path_598" data-name="Path 598" d="M642.515,739.98c.16,2.839,8.512,1.2,8.512,1.2l5.62-10.91s4.693-3.605,2.344-6.77a5.069,5.069,0,0,1-.343-.539c-.076,1.653-1.89,5.794-1.89,5.794s-4.639,9.283-6.115,11.409-7.884-.4-8.124-.486A1.957,1.957,0,0,0,642.515,739.98Z" transform="translate(-370.062 -414.547)" opacity="0.1"/>
    <path id="Path_599" data-name="Path 599" d="M653.337,722.282s2.745-.637,1.925,6.511h0a4.6,4.6,0,0,1-2.17,4.087,15.607,15.607,0,0,0-6.529,9.056h0a4.938,4.938,0,0,1-3.81,4.813c-2.478.579-5.566,1.087-7.353.588-3.329-.927-1.854-3.218-1.854-3.218l3.819-4.532s6.658,2.621,8.129.49,6.115-11.4,6.115-11.4S654.152,722.883,653.337,722.282Z" transform="translate(-364.911 -414.163)" fill="#b07473"/>
    <path id="Path_600" data-name="Path 600" d="M728.114,593.52l-.294,10.741c3.721-.361,6.386-.865,6.841-1.573.985-1.524,4.559-2.166,7.6-2.429-.094-2.01-.174-3.356-.174-3.356Z" transform="translate(-417.352 -341.284)" opacity="0.1"/>
    <path id="Path_601" data-name="Path 601" d="M651.94,606.856a5.1,5.1,0,0,1,1.529-1.845c1.471-.816,1.31,5.241,1.31,5.241s4.9.045,11.164-.036c-.071-2.264-.138-3.788-.138-3.788L651.94,602.72S651.967,604.44,651.94,606.856Z" transform="translate(-375.289 -346.409)" opacity="0.1"/>
    <path id="Path_602" data-name="Path 602" d="M646.593,489.358s1.64-4.457,3.12-5.25,1.31,5.237,1.31,5.237,36.018.33,37.819-2.456,12.278-2.62,12.278-2.62-.325-34.708-1.145-47.8-2.126-25.051-5.4-28.652c-2.117-2.331-5.13-9.871-6.993-14.9-1.012-2.745-1.685-4.746-1.685-4.746l-34.378,1.961-.281,2.785-3.65,36.509s-.49,40.275-1.965,49.442S646.593,489.358,646.593,489.358Z" transform="translate(-371.524 -226.949)" fill="#555"/>
    <g id="Group_384" data-name="Group 384" transform="translate(273.665 161.221)" opacity="0.1">
      <path id="Path_603" data-name="Path 603" d="M695.856,486.889c1.783-2.781,12.278-2.621,12.278-2.621s-.325-34.708-1.145-47.8-2.126-25.051-5.4-28.652c-2.126-2.34-5.129-9.871-6.992-14.9-.851-2.309-1.462-4.087-1.631-4.595l2.674-.151s.673,2,1.689,4.746c1.863,5.027,4.871,12.568,6.988,14.9,3.276,3.6,4.586,15.554,5.4,28.652s1.15,47.8,1.15,47.8-10.477-.16-12.282,2.621c-1.537,2.375-28.041,2.487-35.733,2.464C672.721,489.331,694.465,489.037,695.856,486.889Z" transform="translate(-655.002 -388.17)"/>
      <path id="Path_604" data-name="Path 604" d="M646.965,603.345c.664-.37.994.655,1.159,1.9a25.7,25.7,0,0,0-1.546,3.352s-.949-.513-1.337-3.12A6.064,6.064,0,0,1,646.965,603.345Z" transform="translate(-645.24 -507.407)"/>
    </g>
    <path id="Path_605" data-name="Path 605" d="M663.7,193.615c-2.38,3.244.027,7.857-2.527,11.012-.842,1.043-2.139,1.783-3.017,2.808-1.627,1.9-1.564,4.479-.767,6.707s2.228,4.261,3.245,6.435a3.443,3.443,0,0,1,.33,2.932,8.31,8.31,0,0,1-1.462,1.707,6.155,6.155,0,0,0-.8,6.533,21.144,21.144,0,0,0,4.229,5.838,2.886,2.886,0,0,0,4.194.958,16.49,16.49,0,0,0,7.505-21.521c-1.382-3.311-3.686-6.484-3.708-9.983,0-2.776,1.426-5.428,1.68-8.191.307-3.36-1.68-8.695-5.736-10.161C667.134,190.847,664.91,191.948,663.7,193.615Z" transform="translate(-378.008 -114.657)" fill="#585268"/>
    <path id="Path_606" data-name="Path 606" d="M663.7,193.615c-2.38,3.244.027,7.857-2.527,11.012-.842,1.043-2.139,1.783-3.017,2.808-1.627,1.9-1.564,4.479-.767,6.707s2.228,4.261,3.245,6.435a3.443,3.443,0,0,1,.33,2.932,8.31,8.31,0,0,1-1.462,1.707,6.155,6.155,0,0,0-.8,6.533,21.144,21.144,0,0,0,4.229,5.838,2.886,2.886,0,0,0,4.194.958,16.49,16.49,0,0,0,7.505-21.521c-1.382-3.311-3.686-6.484-3.708-9.983,0-2.776,1.426-5.428,1.68-8.191.307-3.36-1.68-8.695-5.736-10.161C667.134,190.847,664.91,191.948,663.7,193.615Z" transform="translate(-378.008 -114.657)" opacity="0.1"/>
    <path id="Path_607" data-name="Path 607" d="M698.966,464.55c-4.764.25-9.248,2.3-13.419,4.617s-8.209,4.942-12.7,6.587" transform="translate(-386.88 -269.052)" opacity="0.1"/>
    <path id="Path_608" data-name="Path 608" d="M696.993,489.74a19.64,19.64,0,0,0-12.367,6.016c-1.159,1.226-2.157,2.6-3.365,3.775a14.949,14.949,0,0,1-6.631,3.757" transform="translate(-387.867 -283.179)" opacity="0.1"/>
    <path id="Path_609" data-name="Path 609" d="M693.457,508.91a21.625,21.625,0,0,0-9.947,6c-.731.789-1.395,1.631-2.126,2.42-3.944,4.234-9.515,6.48-14.894,8.606" transform="translate(-383.354 -293.943)" opacity="0.1"/>
    <path id="Path_610" data-name="Path 610" d="M702.569,242.774a97.831,97.831,0,0,0,.98,11.373c.446,2.674,1.07,5.081,1.965,6.146,2.621,3.12-12.768,7.287-12.768,7.287l-9.087-7.042s7.2-6.631,3.846-13.1S702.569,242.774,702.569,242.774Z" transform="translate(-392.872 -144.756)" fill="#cc818c"/>
    <path id="Path_611" data-name="Path 611" d="M658.79,392.916h36.344c-1.012-2.745-1.685-4.746-1.685-4.746l-34.378,1.961Z" transform="translate(-379.086 -226.236)" opacity="0.1"/>
    <path id="Path_612" data-name="Path 612" d="M644.715,328h38.857a13.482,13.482,0,0,1,1.555-10.3,22.773,22.773,0,0,1,4.069-5.277l.267-.245,13.566-3,.731-.16s.111-24.667-8.624-28.054a51.07,51.07,0,0,1-13.971-7.964l-12,3.708-8.842-4.457c-2.839,3.053-10.371,1.854-10.371,1.854-12.331,1.417-12.331,10.7-12.331,10.7s7.2,16.806,7.75,16.806S644.715,328,644.715,328Z" transform="translate(-367.35 -161.537)" fill="#a2d2ff"/>
    <path id="Path_613" data-name="Path 613" d="M670.43,356.157s-7.924-1.756-10.62-4.827" transform="translate(-379.651 -205.606)" opacity="0.1"/>
    <path id="Path_614" data-name="Path 614" d="M761.86,341.51l-9.19,7.532a15.675,15.675,0,0,0,.3,1.783l.267-.245,13.566-3Z" transform="translate(-431.127 -200.128)" opacity="0.1"/>
    <path id="Path_615" data-name="Path 615" d="M717.46,378.166s2.01,1.132,5.089,2.621h5.281a13.483,13.483,0,0,1,1.555-10.3l-9.31-3.013C723.245,370.416,717.46,378.166,717.46,378.166Z" transform="translate(-411.609 -214.689)" opacity="0.1"/>
    <path id="Path_616" data-name="Path 616" d="M629.492,293.76l-5.455,2.946-5.348,13.535s-5.566,14.841-5.023,18.771c0,0-1.961,9.279,1.529,10.914l9.091,4.118a.847.847,0,0,0,1.092-1.168c-1.3-2.456-2.723-6.3-.446-8.41l-2.62-5.455,9.47-15.5,3.164-5.348Z" transform="translate(-353.768 -173.578)" fill="#a2d2ff"/>
    <path id="Path_617" data-name="Path 617" d="M677,350.533c.472,1.925,2.068,4.9,7.349,6.012l5.793,4.746,6.164,2.794,2.514,1.136,1.065-7.7-2.42-1.337-2.821-1.542s-6.364-11.529-16.44-6.685A2.228,2.228,0,0,0,677,350.533Z" transform="translate(-389.142 -203.123)" opacity="0.1"/>
    <path id="Path_618" data-name="Path 618" d="M677.753,349.1c.472,1.93,2.063,4.9,7.344,6.012l5.794,4.746,6.168,2.794,2.509,1.137,1.065-7.7-2.42-1.337-2.8-1.529s-6.369-11.529-16.445-6.663A2.228,2.228,0,0,0,677.753,349.1Z" transform="translate(-389.564 -202.332)" fill="#cc818c"/>
    <circle id="Ellipse_329" data-name="Ellipse 329" cx="14.078" cy="14.078" r="14.078" transform="translate(285.467 80.075)" opacity="0.1"/>
    <circle id="Ellipse_330" data-name="Ellipse 330" cx="14.078" cy="14.078" r="14.078" transform="translate(285.467 79.754)" fill="#cc818c"/>
    <path id="Path_619" data-name="Path 619" d="M717.614,282.749l-4.234-8.227s6.195-2.5,6.645-5.406,5.936,3.4,4.751,5.491S717.614,282.749,717.614,282.749Z" transform="translate(-409.347 -159.182)" opacity="0.1"/>
    <path id="Path_620" data-name="Path 620" d="M717.614,281.28l-4.234-8.227s6.195-2.5,6.645-5.406,5.936,3.4,4.751,5.491S717.614,281.28,717.614,281.28Z" transform="translate(-409.347 -158.359)" fill="#ffc8dd"/>
    <path id="Path_621" data-name="Path 621" d="M624.132,343.057l23.393,31.45s-8.624,4.693-20.5-3.708l-5.13-6.114L607.25,340Z" transform="translate(-350.515 -199.422)" fill="#f6f8fb"/>
    <path id="Path_622" data-name="Path 622" d="M634.118,375.152l2.13-.058s13.013-12.63,16.209-6.239-8.107,12.363-8.107,12.363l-3.436,1.854-4.479,1.337-2.866-3.846Z" transform="translate(-365.106 -214.476)" fill="#cc818c"/>
    <path id="Path_623" data-name="Path 623" d="M633.595,390.387a3.179,3.179,0,0,1,.053,2.2.89.89,0,0,1-.388.423.993.993,0,0,1-.446.062,4.479,4.479,0,0,1-2.937-1.453,13.407,13.407,0,0,1-1.9-2.754,5.08,5.08,0,0,1-.976-3.28,4.784,4.784,0,0,1,2.42-2.826c2.157-1.426,2.229.236,2.7,2.072S633.1,388.533,633.595,390.387Z" transform="translate(-361.44 -222.94)" opacity="0.1"/>
    <path id="Path_624" data-name="Path 624" d="M632.863,390.387a3.2,3.2,0,0,1,.054,2.2.891.891,0,0,1-.388.423,1,1,0,0,1-.446.062,4.457,4.457,0,0,1-2.937-1.453,13.263,13.263,0,0,1-1.907-2.754,5.051,5.051,0,0,1-.971-3.28,4.777,4.777,0,0,1,2.415-2.826c2.162-1.426,2.229.236,2.705,2.072S632.364,388.533,632.863,390.387Z" transform="translate(-361.034 -222.94)" fill="#fbd9d9"/>
    <path id="Path_625" data-name="Path 625" d="M623.85,315.651l1.087-1.841-.949,3.418Z" transform="translate(-345.83 -175.726)" opacity="0.1"/>
    <path id="Path_626" data-name="Path 626" d="M721.19,374.327l2.509,1.136,1.065-7.7-2.42-1.337C724.016,368.346,722.554,371.889,721.19,374.327Z" transform="translate(-413.676 -214.084)" opacity="0.1"/>
    <path id="Path_627" data-name="Path 627" d="M729.433,361.966s-8.1.495-11.543-1.716" transform="translate(-411.847 -210.585)" opacity="0.1"/>
    <g id="Group_385" data-name="Group 385" transform="translate(282.084 111.335)" opacity="0.1">
      <path id="Path_628" data-name="Path 628" d="M737.04,320.094a22.814,22.814,0,0,1,4.069-5.281,10.877,10.877,0,0,1,1.2-.651l12.63-2.594.731-.16s.112-24.667-8.619-28.054a52.462,52.462,0,0,1-13.62-7.67l.958-.294a50.93,50.93,0,0,0,13.971,7.964c8.735,3.383,8.619,28.054,8.619,28.054h-1.31l-12.924,2.473s-.557.539-.726.7a25.051,25.051,0,0,0-4.131,5.464A13.7,13.7,0,0,0,736.8,330.4h-1.337A13.623,13.623,0,0,1,737.04,320.094Z" transform="translate(-702.545 -274.628)"/>
      <path id="Path_629" data-name="Path 629" d="M664.13,277.895c.21-.031.41-.062.628-.085a22.61,22.61,0,0,0,2.674.218A24.323,24.323,0,0,1,664.13,277.895Z" transform="translate(-664.13 -275.969)"/>
      <path id="Path_630" data-name="Path 630" d="M695.755,278.15l-8-4.047a4.208,4.208,0,0,0,.446-.423l8.343,4.22Z" transform="translate(-677.229 -273.68)"/>
    </g>
    <path id="Path_631" data-name="Path 631" d="M743.062,340l5.348,6.551,1.092,17.791s1.417,9.056-8.949,6.872-22.363-8.931-22.363-8.931,5.794-7.75,2.62-10.7l14.845,4.8s2.509-.548.544-2.727-2.313-6.115-2.313-6.115Z" transform="translate(-412.014 -199.398)" fill="#a2d2ff"/>
    <path id="Path_632" data-name="Path 632" d="M779.42,382.17l2.946,3.383A4.247,4.247,0,0,1,779.42,382.17Z" transform="translate(-445.956 -222.868)" opacity="0.1"/>
    <path id="Path_633" data-name="Path 633" d="M736.99,360.8l4.586,5.892-2.291.548Z" transform="translate(-408.548 -202.056)" opacity="0.1"/>
    <path id="Path_634" data-name="Path 634" d="M665.292,194.467a4.7,4.7,0,0,1,.49-3.837,30.271,30.271,0,0,0,1.894-3.516c.673-1.863.468-3.971,1.2-5.794,1.3-3.231,4.982-4.675,8.285-5.794a5.571,5.571,0,0,1,3.013-.41c1.337.316,2.206,1.529,3.3,2.344,4.483,3.342,11.774-.339,16.111,3.2a8.432,8.432,0,0,1,2.714,5.651,49.9,49.9,0,0,1-.027,6.426c-.071,3.752.633,7.857,3.44,10.344.847.749,1.845,1.31,2.674,2.086a3.651,3.651,0,0,1,1.337,2.981,10.317,10.317,0,0,1-.446,1.515c-.557,1.956.276,4.011,1.292,5.794,3.031,5.245,8.374,9.568,14.431,9.689-.405,3.057-3.565,4.831-6.4,6.083-3.565,1.6-7.362,3.169-11.289,2.968s-8.022-2.714-8.708-6.582c-.236-1.337-.2-2.946-1.337-3.641-.7-.423-1.6-.316-2.344-.633a4.13,4.13,0,0,1-1.974-2.781,25.031,25.031,0,0,1-1.163-7.131c-.049-2.87.33-6-1.3-8.365-1.506-2.188-4.18-3.3-5.919-5.308-1.6-1.863-3.347-4.109-5.976-4.457C674.963,194.788,667.44,199.73,665.292,194.467Z" transform="translate(-382.562 -107.026)" opacity="0.1"/>
    <path id="Path_635" data-name="Path 635" d="M665.292,193a4.7,4.7,0,0,1,.49-3.837,30.27,30.27,0,0,0,1.894-3.516c.673-1.863.468-3.971,1.2-5.794,1.3-3.235,4.982-4.679,8.285-5.794a5.57,5.57,0,0,1,3.013-.41c1.337.316,2.206,1.529,3.3,2.344,4.483,3.342,11.774-.339,16.111,3.2a8.433,8.433,0,0,1,2.714,5.655,49.828,49.828,0,0,1-.027,6.422c-.071,3.752.633,7.857,3.44,10.344.847.749,1.845,1.31,2.674,2.086a3.651,3.651,0,0,1,1.337,2.982,10.315,10.315,0,0,1-.446,1.515c-.557,1.957.276,4.011,1.292,5.794,3.039,5.228,8.361,9.564,14.417,9.684-.406,3.057-3.565,4.831-6.4,6.088-3.565,1.6-7.362,3.164-11.289,2.964s-8.022-2.714-8.708-6.582c-.236-1.337-.2-2.946-1.337-3.641-.7-.423-1.6-.316-2.344-.633a4.13,4.13,0,0,1-1.974-2.781,25.005,25.005,0,0,1-1.163-7.131c-.049-2.87.33-6-1.3-8.365-1.506-2.188-4.18-3.3-5.918-5.308-1.6-1.863-3.347-4.109-5.976-4.457C674.963,193.318,667.44,198.269,665.292,193Z" transform="translate(-382.562 -106.201)" fill="#585268"/>
    <path id="Path_636" data-name="Path 636" d="M684.545,282.237l8.071-6.551s-5.526-2.995-6.186-5.548-5.08,1.212-4.63,3.5S684.545,282.237,684.545,282.237Z" transform="translate(-391.823 -159.69)" opacity="0.1"/>
    <path id="Path_637" data-name="Path 637" d="M685.289,280.032l8.071-6.547s-5.526-2.995-6.159-5.548-5.081,1.212-4.63,3.5S685.289,280.032,685.289,280.032Z" transform="translate(-392.25 -158.457)" fill="#f6c1c1"/>
    <circle id="Ellipse_331" data-name="Ellipse 331" cx="0.642" cy="0.642" r="0.642" transform="translate(300.784 119.77)" opacity="0.1"/>
    <circle id="Ellipse_332" data-name="Ellipse 332" cx="0.642" cy="0.642" r="0.642" transform="translate(300.784 123.291)" opacity="0.1"/>
    <circle id="Ellipse_333" data-name="Ellipse 333" cx="0.642" cy="0.642" r="0.642" transform="translate(300.784 126.807)" opacity="0.1"/>
    <g id="Group_386" data-name="Group 386" transform="translate(282.6 72.158)" opacity="0.1">
      <path id="Path_638" data-name="Path 638" d="M671.848,189.932c.637-1.751.5-3.717,1.1-5.482a5.993,5.993,0,0,0-.682,1.257c-.74,1.841-.53,3.949-1.208,5.794l-.045.107A10.183,10.183,0,0,0,671.848,189.932Z" transform="translate(-668.46 -184.45)"/>
      <path id="Path_639" data-name="Path 639" d="M719.593,246.249c-3.565,1.6-7.362,3.164-11.289,2.964s-8.022-2.714-8.708-6.578c-.236-1.337-.2-2.95-1.337-3.646-.7-.423-1.6-.316-2.344-.633a4.13,4.13,0,0,1-1.974-2.781,25,25,0,0,1-1.163-7.131c-.049-2.866.334-6-1.293-8.365-1.511-2.188-4.185-3.293-5.923-5.308-1.6-1.858-3.347-4.109-5.976-4.457-3.605-.49-11.142,4.457-13.272-.811a4.143,4.143,0,0,1,.138-3.044c-.156.263-.308.526-.446.793a4.721,4.721,0,0,0-.486,3.842c2.144,5.259,9.666.316,13.272.811,2.629.357,4.372,2.607,5.976,4.457,1.738,2.014,4.412,3.12,5.919,5.312,1.631,2.362,1.248,5.5,1.3,8.361a25,25,0,0,0,1.163,7.131,4.139,4.139,0,0,0,1.974,2.781c.749.316,1.649.214,2.344.633,1.15.7,1.119,2.322,1.337,3.646.7,3.864,4.786,6.377,8.708,6.578s7.7-1.364,11.289-2.964c2.585-1.15,5.464-2.741,6.239-5.348C723.8,244.185,721.607,245.353,719.593,246.249Z" transform="translate(-665.288 -196.651)"/>
    </g>
    <path id="Path_640" data-name="Path 640" d="M857.627,289.9c-9.435-5.428-13-6.765-13.018-6.765l-.2-.138a7.846,7.846,0,0,1-2.375-3,6.234,6.234,0,0,1,0-.646.273.273,0,0,0,0,.062c.147-2.874,2.193-5.491,4.131-7.772l4.96-5.834a5.747,5.747,0,0,0,1.279-2.023,4.664,4.664,0,0,0,.134-1.243v-.508c-.027-1.448-.067-2.9-.12-4.35-.045-1.266-.37-2.861-1.636-3.12-.659-.134-1.533.1-1.881-.446a1.083,1.083,0,0,1-.085-.753.26.26,0,0,0,0,.062v-.071a16.788,16.788,0,0,0,.468-2.981,4.062,4.062,0,0,0-.205-1.511c-.731-2.1-3.258-2.964-5.49-3.36s-4.738-.735-6.137-2.482a18.15,18.15,0,0,0-1.221-1.68,4.817,4.817,0,0,0-2.282-1.128,12.924,12.924,0,0,0-8.3.722A7.453,7.453,0,0,1,822.3,242c-1.186-.071-2.282-.927-3.494-1.132-1.961-.334-3.837,1.105-4.8,2.812a6.876,6.876,0,0,0-.891,3.316v.2h0a4.849,4.849,0,0,0,1.275,3.387c.847.891,2.1,1.48,2.456,2.634.143.468.107.976.236,1.453a1.3,1.3,0,0,0,.054.174l-.062.085a14.709,14.709,0,0,0-3.12,9.065,15.046,15.046,0,0,0,10.571,14.261v.446a6.411,6.411,0,0,1-2.05,4.991l-13.365,5.339s-8.058-.958-10.963,10.816a20.081,20.081,0,0,0-.5,5.972,17.31,17.31,0,0,1-2.228,8.944c-3.3,6.471-2.549,21.325,4.207,22.8,6.377,1.391,8.873.811,9.136.744v.258c-.107,2.79-1.119,26.829-4.8,29.735-1.016.807-.829,1.337,0,1.716,0,0,0,.156-.022.446-.111,1.783-.677,8.468-3.12,12.265-2.857,4.412-2.558,29.859-2.558,29.859l-1.948,15s1.2,9.265,0,10.883c-1.074,1.44-2.5,35.715-2.8,43.149h-.125a3.619,3.619,0,0,0-2.888,1.783c-1.578,2.563-7.1,7.3-7.1,7.3-1.2,1.7-5.633,3.333-7.977,4.1a4.958,4.958,0,0,0-.891.392,4.755,4.755,0,0,0-2.014,2.121,2.278,2.278,0,0,0-.214,1.783c.6,1.466,13.062,2.5,16.218,1.025,2.478-1.154,12.3-2.674,16.378-3.271a3.36,3.36,0,0,0,2.915-2.915,1.921,1.921,0,0,0-.374-1.457h0c-.78-.967-1.176-3.61-1.337-5.348a3.614,3.614,0,0,0,.918-.544,39.152,39.152,0,0,1,2.228-15.736c3-7.942,3.9-22.649,3.155-32.208,0,0,9.158-39.414,16.369-43.091h0c.111.143,3.61,4.631,4.056,18.531.446,14.119,5.553,23.384,5.553,23.384s-2.255,23.972,0,32.943l-2.946,14.15c-.218-.183-.357-.325-.357-.325s.089.392.21,1.021l-.062.3.129.027a27.851,27.851,0,0,1,.624,6.685c-.116,1.029-.405,2.442-.6,3.828-.312,2.179-.4,4.292.749,4.755,1.881.758,12.924,1.783,14.8-.642a3.472,3.472,0,0,0,.544-3.632,3.675,3.675,0,0,0-.544-.927s-2.933-4.791-2.1-8.169a2.487,2.487,0,0,0-.352-1.939A99.641,99.641,0,0,1,851,469.685c1.881-7.077,5.843-22.6,2.928-32.8h0q-.165-.6-.374-1.177a44.047,44.047,0,0,1-1.653-17.207,35.071,35.071,0,0,1,0-15c1.8-8.236,3.066-16.325,3.066-16.325s.994-10.883.125-17.555a4.378,4.378,0,0,0-.058-.446l.472-.107s-2.554-11.324-3.454-18.531c-.214-1.7-.49-3.855-.793-6.155a15.706,15.706,0,0,0,2.447-.611c8.107-2.794,10.66-28.077,10.66-28.077v-8.022S867.089,295.346,857.627,289.9ZM797.213,485.212c-.25-.125-.4-.209-.4-.209h0Z" transform="translate(-441.96 -146.735)" fill="url(#linear-gradient-3)"/>
    <path id="Path_641" data-name="Path 641" d="M879.945,590.311c3.516,10.112-.588,26.526-2.5,33.87a102.4,102.4,0,0,0-2.491,16.124,33.956,33.956,0,0,1-12.9-.294l3.08-15.095c-2.2-8.94,0-32.832,0-32.832s-4.982-9.234-5.424-23.3c-.446-13.847-3.846-18.326-3.953-18.464h0c-7.033,3.663-15.973,42.944-15.973,42.944.731,9.524-.152,24.182-3.08,32.088a39.666,39.666,0,0,0-2.2,15.678,4.767,4.767,0,0,1-4.011.767c-4.185-.677-9.2-4.283-9.2-4.283s1.609-42.784,2.785-44.406,0-10.847,0-10.847l1.9-14.947s-.294-25.358,2.491-29.753c2.407-3.8,2.959-10.473,3.066-12.225v-.446l4.243-5.081s41.037-3.08,44.121,0c.753.753,1.221,2.473,1.5,4.635.847,6.649-.125,17.492-.125,17.492s-1.23,8.062-2.99,16.267a35.706,35.706,0,0,0,0,14.952A44.761,44.761,0,0,0,879.945,590.311Z" transform="translate(-469.171 -301.174)" fill="#555"/>
    <path id="Path_642" data-name="Path 642" d="M927.883,801.367c-1.832,2.42-12.6,1.395-14.439.642-1.119-.446-1.034-2.572-.731-4.742.192-1.377.472-2.785.588-3.81.29-2.638-.891-7.991-.891-7.991s2.416,2.567,3,0a2.8,2.8,0,0,1,2.094-1.988,5.473,5.473,0,0,1,3.806.236c1.9.829,5.076,2.589,4.51,4.969-.807,3.365,2.05,8.142,2.05,8.142a3.709,3.709,0,0,1,.535.918A3.516,3.516,0,0,1,927.883,801.367Z" transform="translate(-519.677 -447.965)" fill="#a27772"/>
    <path id="Path_643" data-name="Path 643" d="M928.016,818.81c-1.832,2.42-12.6,1.395-14.439.642-1.119-.446-1.034-2.572-.731-4.742,1.159.544,3.12.994,6.4.691a18.094,18.094,0,0,1,2.3-.071,53.6,53.6,0,0,0,7-.143A3.516,3.516,0,0,1,928.016,818.81Z" transform="translate(-519.809 -465.408)" opacity="0.1"/>
    <path id="Path_644" data-name="Path 644" d="M851.228,629.354c.731,9.524-.151,24.182-3.079,32.088a39.66,39.66,0,0,0-2.2,15.678,4.767,4.767,0,0,1-4.011.767c.891-6.181,4.653-32.814,7.064-53.858a88.13,88.13,0,0,1,15.6-40.448l2.563,2.821C860.168,590.073,851.228,629.354,851.228,629.354Z" transform="translate(-480.613 -337.284)" opacity="0.1"/>
    <path id="Path_645" data-name="Path 645" d="M900.108,318.776l-1.783,8.793L889.559,342.3l-10.807-4.617s-14.707-15.389-5.459-17.586a8.184,8.184,0,0,0,3.066-1.364,6.341,6.341,0,0,0,2.393-5.3,16.261,16.261,0,0,0-1.488-6.3l18.9-5.936a30.343,30.343,0,0,0-1.337,7.656c-.147,5.152,1.783,7.688,3.338,8.913A5.68,5.68,0,0,0,900.108,318.776Z" transform="translate(-496.3 -177.696)" fill="#fbbebe"/>
    <path id="Path_646" data-name="Path 646" d="M904.887,301.19a30.34,30.34,0,0,0-1.337,7.656,14.4,14.4,0,0,1-1.1,1.172,14.957,14.957,0,0,1-14.948,3.409,16.261,16.261,0,0,0-1.5-6.3Z" transform="translate(-505.037 -177.562)" opacity="0.1"/>
    <path id="Path_647" data-name="Path 647" d="M896.054,277.167a14.881,14.881,0,1,1-4.359-10.59A14.952,14.952,0,0,1,896.054,277.167Z" transform="translate(-494.033 -155.801)" fill="#fbbebe"/>
    <path id="Path_648" data-name="Path 648" d="M900.108,339.37l-1.783,8.793-8.766,14.729-10.807-4.617s-14.707-15.389-5.459-17.586a8.183,8.183,0,0,0,3.066-1.364c-1.667,4.581,5.214,14.114,5.214,14.114.8,1.181,2.638.446,2.638.446,4.434-.673,12.594-13.423,13.927-15.545A5.677,5.677,0,0,0,900.108,339.37Z" transform="translate(-496.3 -198.43)" opacity="0.1"/>
    <path id="Path_649" data-name="Path 649" d="M894.208,524.44c-2.6.593-17,3.779-22.461,2.982-6.008-.891-17.688-1.462-17.688-1.462s-7.438.4-9.729-.646v-.446l4.243-5.081s41.037-3.079,44.121,0C893.464,520.559,893.932,522.279,894.208,524.44Z" transform="translate(-481.938 -299.208)" opacity="0.1"/>
    <path id="Path_650" data-name="Path 650" d="M854.525,354.052s-7.732-10.7-4.818-14.885l-13.062,5.348s-7.862-.954-10.7,10.781a20.413,20.413,0,0,0-.486,5.954,17.613,17.613,0,0,1-2.152,8.913c-3.222,6.449-2.491,21.254,4.1,22.729s8.936.731,8.936.731-.891,26.82-4.688,29.9,9.715,2.344,9.715,2.344,11.681.588,17.693,1.466,22.862-3.08,22.862-3.08-2.491-11.284-3.374-18.464-2.937-22.475-2.937-22.475l14.947-20.251s2.638-12.238-6.6-17.662-12.706-6.752-12.706-6.752-9.279,15.108-14.114,15.839C857.163,354.489,855.327,355.229,854.525,354.052Z" transform="translate(-469.257 -199.02)" fill="#a2d2ff"/>
    <path id="Path_651" data-name="Path 651" d="M854.081,382.74s-.143,4.84.735,6.743,4.1,12.479,4.1,12.479H851.59s3.957-4.252,3.668-6.306S854.081,382.74,854.081,382.74Z" transform="translate(-485.962 -223.277)" opacity="0.1"/>
    <path id="Path_652" data-name="Path 652" d="M876.807,439.081s-16.186-3.957-17.693-7.327-5.664-10.914-5.664-10.914l1.707-2.3,7.87,6.177s9.359,7.474,13.78,8.209S876.807,439.081,876.807,439.081Z" transform="translate(-486.993 -243.341)" fill="#fbbebe"/>
    <path id="Path_653" data-name="Path 653" d="M876.807,439.081s-16.186-3.957-17.693-7.327-5.664-10.914-5.664-10.914l1.707-2.3,7.87,6.177s9.359,7.474,13.78,8.209S876.807,439.081,876.807,439.081Z" transform="translate(-486.993 -243.341)" opacity="0.05"/>
    <path id="Path_654" data-name="Path 654" d="M900.89,421.759v8.78h-1.408a41.04,41.04,0,0,0-19.937,5.165l-2.64,1.462-.709.4-4.546-10.25,4.252-3.81h.218c1.039.1,5.535.477,7.443-.165,1.809-.615,4.056-2.563,9.386-1.2,2.625.673,4.871,3.614,7.416,2.7Z" transform="translate(-497.082 -245.06)" fill="#fbbebe"/>
    <path id="Path_655" data-name="Path 655" d="M929.3,373.608l2.928,3.3V384.9s-2.491,25.207-10.4,27.992-22.042-1.613-22.042-1.613-3.65-9.671-1.943-10.25,15.086-4.118,15.086-4.118-.187-14.787,2.741-19.186c0,0-1.9-13.775,4.693-14.07S929.3,373.608,929.3,373.608Z" transform="translate(-511.351 -212.768)" opacity="0.1"/>
    <path id="Path_656" data-name="Path 656" d="M930.307,373.608l2.932,3.3V384.9s-2.491,25.207-10.406,27.992-22.042-1.613-22.042-1.613-3.65-9.671-1.939-10.25,15.086-4.118,15.086-4.118-.192-14.787,2.741-19.186c0,0-1.907-13.775,4.688-14.07S930.307,373.608,930.307,373.608Z" transform="translate(-511.908 -212.768)" fill="#a2d2ff"/>
    <path id="Path_657" data-name="Path 657" d="M895.756,283.447a5.891,5.891,0,0,0-.334-2.857,2.175,2.175,0,0,0-2.326-1.337c-1.252.294-1.783,1.925-3.022,2.317A2.415,2.415,0,0,1,887.4,280.2a6.837,6.837,0,0,1-.508-3.191v-3.672a6.078,6.078,0,0,0-.865-3.819c-1.021-1.3-3.423-1.872-5.027-1.818a4.265,4.265,0,0,0-2.87,1.154,3.694,3.694,0,0,1-3.017,1.074,2.6,2.6,0,0,1-2.1-1.818v-.045A14.947,14.947,0,1,1,895.231,287.9a40.23,40.23,0,0,0,.526-4.457Z" transform="translate(-497.836 -155.717)" opacity="0.1"/>
    <path id="Path_658" data-name="Path 658" d="M870.293,258.212a2.621,2.621,0,0,1-2.108-1.823c-.12-.472-.089-.976-.227-1.444-.343-1.154-1.573-1.751-2.4-2.629-1.649-1.751-1.542-4.63-.374-6.738.945-1.7,2.772-3.12,4.688-2.8,1.185.2,2.228,1.047,3.414,1.128a6.888,6.888,0,0,0,3.267-1.056,12.309,12.309,0,0,1,8.12-.722,4.68,4.68,0,0,1,2.229,1.128,19.526,19.526,0,0,1,1.19,1.671c1.364,1.738,3.811,2.081,5.99,2.473s4.644,1.257,5.348,3.351c.477,1.39,0,2.9-.259,4.341a1.311,1.311,0,0,0,.058.891c.343.562,1.194.325,1.836.446,1.235.263,1.551,1.854,1.6,3.12q.076,2.166.116,4.336a5.517,5.517,0,0,1-.129,1.6,5.662,5.662,0,0,1-1.244,2.019l-4.84,5.816c-2.148,2.576-4.425,5.58-4.011,8.913A2.076,2.076,0,0,1,890,280.75a6.657,6.657,0,0,1,.16-3.3,40.469,40.469,0,0,0,.775-5.727,5.87,5.87,0,0,0-.334-2.852,2.175,2.175,0,0,0-2.326-1.337c-1.257.294-1.783,1.925-3.022,2.317a2.415,2.415,0,0,1-2.674-1.373,6.82,6.82,0,0,1-.508-3.186v-3.677a6.078,6.078,0,0,0-.865-3.819c-1.021-1.3-3.423-1.872-5.027-1.818a4.265,4.265,0,0,0-2.866,1.154A3.7,3.7,0,0,1,870.293,258.212Z" transform="translate(-493.016 -144.371)" fill="#7c5c5c"/>
    <path id="Path_659" data-name="Path 659" d="M885.3,381.92l4.59,18.856S893.509,400.754,885.3,381.92Z" transform="translate(-504.649 -222.815)" opacity="0.1"/>
    <path id="Path_660" data-name="Path 660" d="M915.258,374.85s-6.007,9.84-3.663,20.019l1.119.08S910.717,390.239,915.258,374.85Z" transform="translate(-518.924 -218.861)" opacity="0.1"/>
    <path id="Path_661" data-name="Path 661" d="M929,499.169s7.38-2.442,7.915,3.222C936.933,502.391,935.542,498.509,929,499.169Z" transform="translate(-528.873 -288.095)" opacity="0.1"/>
    <path id="Path_662" data-name="Path 662" d="M865.5,426.81s-1.466,10.25,1.172,14.364a32.144,32.144,0,0,1-12.9,1.76l-.891-16.124Z" transform="translate(-486.677 -247.946)" opacity="0.1"/>
    <path id="Path_663" data-name="Path 663" d="M876.9,439.454l-.709.4L871.65,429.6l4.252-3.81h.218C876.053,426.3,874.868,435.109,876.9,439.454Z" transform="translate(-497.082 -247.361)" opacity="0.1"/>
    <path id="Path_664" data-name="Path 664" d="M860.225,425.83s-1.466,10.25,1.172,14.359a32.049,32.049,0,0,1-12.9,1.76l-5.129-16.12Z" transform="translate(-481.405 -247.397)" fill="#a2d2ff"/>
    <path id="Path_665" data-name="Path 665" d="M809.522,794.661a3.32,3.32,0,0,1-2.848,2.906c-3.98.593-13.566,2.108-15.986,3.262-3.08,1.466-15.242.446-15.83-1.025a2.327,2.327,0,0,1,.209-1.783,4.7,4.7,0,0,1,1.965-2.112,5.2,5.2,0,0,1,.891-.392c2.291-.762,6.618-2.384,7.786-4.087,0,0,5.4-4.72,6.935-7.269a3.521,3.521,0,0,1,2.817-1.756c1.284-.058,2.714.588,3.3,3.4,0,0,7.028,4.011,8.913.495,0,0,.294,5.4,1.462,6.881h0A1.961,1.961,0,0,1,809.522,794.661Z" transform="translate(-443.377 -447.499)" fill="#a27772"/>
    <path id="Path_666" data-name="Path 666" d="M809.522,808.07a3.32,3.32,0,0,1-2.848,2.906c-3.98.593-13.566,2.108-15.986,3.262-3.08,1.466-15.242.446-15.83-1.025a2.327,2.327,0,0,1,.209-1.783,4.7,4.7,0,0,1,1.965-2.112c1.983,1.337,6.386,2.6,16.071,1.092,9.239-1.444,13.815-2.857,16.044-3.819h0a1.96,1.96,0,0,1,.374,1.48Z" transform="translate(-443.377 -460.907)" opacity="0.1"/>
    <g id="Group_387" data-name="Group 387" transform="translate(371.286 104.24)" opacity="0.1">
      <path id="Path_667" data-name="Path 667" d="M942.429,267.92v-.071a13.121,13.121,0,0,0,.446-3.329,21.953,21.953,0,0,1-.446,2.674A1.62,1.62,0,0,0,942.429,267.92Z" transform="translate(-907.58 -261.302)"/>
      <path id="Path_668" data-name="Path 668" d="M890.581,277.636a4.24,4.24,0,0,1,.361,1.676,5.056,5.056,0,0,0-.361-2.335,2.167,2.167,0,0,0-2.322-1.337c-1.257.294-1.783,1.925-3.026,2.318a2.42,2.42,0,0,1-2.674-1.373,6.78,6.78,0,0,1-.508-3.191v-3.672a6.078,6.078,0,0,0-.865-3.819c-1.025-1.306-3.423-1.872-5.027-1.823a4.269,4.269,0,0,0-2.87,1.159,3.7,3.7,0,0,1-3.022,1.074,2.611,2.611,0,0,1-2.1-1.818c-.12-.472-.089-.98-.227-1.448-.343-1.15-1.573-1.751-2.4-2.625a4.8,4.8,0,0,1-1.234-3.12,5,5,0,0,0,1.234,3.757c.824.891,2.054,1.475,2.4,2.625.138.446.107.976.227,1.448a2.611,2.611,0,0,0,2.1,1.818,3.7,3.7,0,0,0,3.022-1.074,4.269,4.269,0,0,1,2.87-1.159c1.6-.049,4.011.517,5.027,1.823a6.114,6.114,0,0,1,.865,3.819v3.672a6.745,6.745,0,0,0,.508,3.187,2.426,2.426,0,0,0,2.674,1.377c1.23-.392,1.783-2.023,3.026-2.317A2.251,2.251,0,0,1,890.581,277.636Z" transform="translate(-864.285 -257.3)"/>
      <path id="Path_669" data-name="Path 669" d="M937.746,292.7a5.635,5.635,0,0,1-1.248,2.014l-4.84,5.816c-2.037,2.447-4.189,5.281-4.011,8.405.147-2.866,2.144-5.473,4.011-7.746l4.84-5.816a5.633,5.633,0,0,0,1.248-2.014,5.567,5.567,0,0,0,.129-1.609A4.25,4.25,0,0,1,937.746,292.7Z" transform="translate(-899.403 -276.397)"/>
      <path id="Path_670" data-name="Path 670" d="M921.8,327.134a3.427,3.427,0,0,1-.147-.784,3.955,3.955,0,0,0,.147,1.444,2.068,2.068,0,0,0,2.558,1.484,6.172,6.172,0,0,1-.053-.642A2.071,2.071,0,0,1,921.8,327.134Z" transform="translate(-896.079 -295.577)"/>
    </g>
    <path id="Path_671" data-name="Path 671" d="M812.69,789.36s1.533,2.674,7.086.321" transform="translate(-464.398 -451.355)" opacity="0.1"/>
    <path id="Path_672" data-name="Path 672" d="M918,790.82s4.786,5.638,10.821,1.849" transform="translate(-522.776 -452.165)" opacity="0.1"/>
    <path id="Path_673" data-name="Path 673" d="M944.914,641.23s-3.383,2.112-3.49,3.32,1.747-.891,1.747-.891Z" transform="translate(-535.758 -367.94)" opacity="0.1"/>
    <path id="Path_674" data-name="Path 674" d="M944.706,677.59a7.073,7.073,0,0,1-4.167,1.627c-2.531.111-2.318,3.409-.664,2.42A41.483,41.483,0,0,0,944.706,677.59Z" transform="translate(-534.214 -388.307)" opacity="0.1"/>
    <path id="Path_675" data-name="Path 675" d="M950.041,682.34s-1.622,7.973-2.941,6.435" transform="translate(-538.907 -390.991)" opacity="0.1"/>
    <path id="Path_676" data-name="Path 676" d="M244.407,491.287s10.183,2.794,15.086-.923,7.028-2.522,7.028-2.522,11.69-.646,12.652-3.409-4.483-12.8-4.483-12.8c-.388-.891-.954-2.023-1.208-2.023l.053-4.234h0l1.694-17.715c3.908-10.023.071-22.974.071-22.974l-.7-3.213a8.129,8.129,0,0,1,.664-5.348l7.1-14.261a21.335,21.335,0,0,1,1.337-2.736c.446-.816,1.038-1.823,1.783-3.031.218-.348.446-.709.7-1.087.86-1.337,1.9-2.852,3.164-4.6,3.142-4.354,4.8-9.8,5.651-13.815l.379,1.257h.085l.1.022h.169l.183.031h.067l2.184,27.792c.134,10.839,4.113,16.837,4.113,16.837l-.548,23.928c.749,5.762-.891,13.446-1.644,16.512l-1.72,3.882a4.666,4.666,0,0,0-2.536,3.53c-.339,2.866-3.356,9.042-3.356,9.042-1.168,1.48-3.7,5.477-3.7,5.477s-1.194,3.859-.455,5.3,6.926,1.3,6.926,1.3c7.064,1.564,12.479-2.228,12.135-4.84s1.1-3.276,1.1-3.276c2.808-.891,2.536-2.794,2.536-2.794a17.488,17.488,0,0,0-2.126-11.382l-.446,1.029a15.672,15.672,0,0,1,.847-6.074l-.258.178-.08.049h-.027c.446-3.908,4.55-11.142,4.55-11.142,7.541-13.227,4.8-31.152,4.8-31.152l-1.168-5.589-.067-2.108a70.35,70.35,0,0,1,1.136-15.019c.406-2.193.824-4.84,1.145-7.759a68.58,68.58,0,0,1,3.868-15.228l.3-.053h.036c.41-.071.824-.143,1.243-.223h.08s.241-1.3.446-3.516c.12-1.413.218-3.2.218-5.263a59.214,59.214,0,0,0-2.812-18.321l.227-.325s.539-.731,1.524-2h0c1.809-2.3,4.626-5.794,8.1-9.733,6.217-7.09,4.39-14.261,4.39-14.261s-4.5-16.494-6.507-26.4a30.015,30.015,0,0,0-4.938-11.743,23.376,23.376,0,0,0,.624-4.76c.134-2.932.031-5.99-1.288-8.624s-4.127-4.715-7.059-4.363a2.7,2.7,0,0,1-1.266,0,1.925,1.925,0,0,1-.833-.726c-1.716-2.366-1.827-5.549-1.292-8.419s1.631-5.615,2.121-8.494.267-6.074-1.564-8.356c-2.152-2.674-5.9-3.427-8.7-5.437-1.965-1.413-3.44-3.441-5.513-4.693s-4.011-.775-6.262-.3c-3.784.8-7.38,1.163-10.959,2.79a29.186,29.186,0,0,0-9.551,6.948,9.065,9.065,0,0,0-2.13,3.36c-.891,2.946.851,6.083.486,9.132-.258,2.161-1.533,4.042-2.545,5.972s-1.783,4.22-.989,6.239c1.248,3.155,5.317,3.824,8.276,5.5a2.527,2.527,0,0,1,.98.851c.731,1.275-.762,2.6-1.7,3.73a5.621,5.621,0,0,0-1.114,2.264,8.075,8.075,0,0,0-4.844,5.847c-1,4.488.539,10.152,1.9,13.9-1.484,8.338.446,11.627,1.867,12.889a7.153,7.153,0,0,1,2.478,4.876v.156c.094,1.515.254,3.026.468,4.532h0c-.049-.352-.1-.727-.125-.891-1.163,2.152-3.378,7.652-4.626,16.9a50.809,50.809,0,0,1-1.128,5.887,32.2,32.2,0,0,0-.945,10.527l.223,3a.945.945,0,0,1-.606-.2l1.564,2.866V362.3a17.827,17.827,0,0,1-1.185,6.377c-.111.294-.232.588-.361.891a5.189,5.189,0,0,0-.526,2.625c-3.365,5.156-11.079,34.053-11.079,34.053-4.185,9.475.343,15.6.343,15.6s2.193,26.379,2.6,27.743,1.319,17.443,1.319,17.443h0v1.279a3,3,0,0,0-.762-.218c-3.668-.2-4.662,5.589-4.662,5.589l-7.5,7.166s-3.427-.579-8.468,3.2S244.407,491.287,244.407,491.287Zm74.938-152.457-.022-.08-.2.12h0l-.085.049-.04.027h0l-3.458-12.207a20.269,20.269,0,0,1-.254-10.041l2.674-11.712h0V302.17l8.5,22.649C327,327.872,321.948,335.265,319.345,338.831Z" transform="translate(-145.241 -136.02)" fill="url(#linear-gradient-4)"/>
    <path id="Path_677" data-name="Path 677" d="M392.991,557a70.183,70.183,0,0,0-4.305,16.356c-.316,2.888-.727,5.5-1.128,7.665a70.05,70.05,0,0,0-1.1,14.827l.067,2.081,1.114,5.513s2.674,17.706-4.711,30.751c0,0-4.376,7.812-4.51,11.511l-2.964,1.145-5.99-1.68s2.892-10.371,1.952-17.639l.539-23.62S368.07,598,367.936,587.3l-2.286-29.351Z" transform="translate(-216.587 -322.55)" fill="#fdc2cc"/>
    <path id="Path_678" data-name="Path 678" d="M317.59,547.62s-.735,11.445-6.4,19.333-6.863,11.311-6.863,11.311l-6.97,14.092a8.071,8.071,0,0,0-.655,5.272l.686,3.173s3.77,12.791-.067,22.689l-1.818,19.119H284.874s-.891-15.888-1.279-17.234-2.558-27.4-2.558-27.4-4.457-6.061-.339-15.415c0,0,9.292-35.007,11.779-34.4S317.59,547.62,317.59,547.62Z" transform="translate(-168.527 -317.35)" fill="#fdc2cc"/>
    <g id="Group_388" data-name="Group 388" transform="translate(125.901 230.27)" opacity="0.1">
      <path id="Path_679" data-name="Path 679" d="M315.565,600.823l-.682-3.173a8.021,8.021,0,0,1,.651-5.294l6.97-14.105s1.208-3.432,6.863-11.311c5.433-7.576,6.328-18.433,6.391-19.266l1.083-.053s-.735,11.445-6.4,19.333-6.863,11.311-6.863,11.311l-6.97,14.092a8.071,8.071,0,0,0-.655,5.272l.686,3.173s3.77,12.791-.067,22.689l-1.818,19.119H313.68L315.5,623.49C319.335,613.591,315.565,600.823,315.565,600.823Z" transform="translate(-313.68 -547.62)"/>
    </g>
    <path id="Path_680" data-name="Path 680" d="M388.787,645.718c.134-3.7,4.51-11.511,4.51-11.511,7.407-13.058,4.711-30.751,4.711-30.751l-1.141-5.517-.067-2.081a70.047,70.047,0,0,1,1.1-14.827c.4-2.166.807-4.777,1.123-7.665a70.174,70.174,0,0,1,4.292-16.32l1.105-.045a70.187,70.187,0,0,0-4.305,16.356c-.316,2.888-.726,5.5-1.128,7.665a70.054,70.054,0,0,0-1.1,14.827l.067,2.081,1.114,5.513s2.674,17.706-4.711,30.751c0,0-4.376,7.812-4.51,11.511l-2.964,1.145-.624-.174Z" transform="translate(-228.012 -322.55)" opacity="0.1"/>
    <path id="Path_681" data-name="Path 681" d="M375.76,753.614a5.152,5.152,0,0,0,4.9-.606,15.821,15.821,0,0,0-.4,8.886c1.212,4.849-11.311-3.9-11.311-3.9l2.674-6.11S372.662,753.814,375.76,753.614Z" transform="translate(-218.417 -430.579)" fill="#d39999"/>
    <path id="Path_682" data-name="Path 682" d="M376.7,753.869a5,5,0,0,0,3.98-.891,15.821,15.821,0,0,0-.4,8.886c1.212,4.849-11.311-3.9-11.311-3.9l2.674-6.11a3.82,3.82,0,0,0,3.053,1.72C375.388,753.65,376.047,753.744,376.7,753.869Z" transform="translate(-218.428 -430.562)" opacity="0.1"/>
    <path id="Path_683" data-name="Path 683" d="M289.32,443.7h5.232V414.014l-3.926-.7Z" transform="translate(-160.388 -231.623)" fill="#fdc2cc"/>
    <path id="Path_684" data-name="Path 684" d="M289.32,443.7h5.232V414.014l-3.926-.7Z" transform="translate(-160.388 -231.623)" opacity="0.05"/>
    <path id="Path_685" data-name="Path 685" d="M361.439,760.247a5.217,5.217,0,0,1,4.777,2.759l1.818,1.413.891-2.086a17.381,17.381,0,0,1,2.059,11.244s.267,1.881-2.491,2.759c0,0-1.413.673-1.078,3.231s-4.978,6.328-11.913,4.777c0,0-6.061.138-6.8-1.279s.472-5.183.472-5.183,2.491-3.949,3.632-5.406c0,0,2.964-6.106,3.3-8.913S359.688,758.7,361.439,760.247Z" transform="translate(-207.06 -434.922)" fill="#7e5659"/>
    <path id="Path_686" data-name="Path 686" d="M302.384,761.012l.053-4.185s-6.021,1.734-10.9-.227c0,0,.41,4.207-.267,4.782s2.255,5.99,2.255,5.99L296.8,770.8l5.633-2.05,1.529-4.813S302.785,761.012,302.384,761.012Z" transform="translate(-175.302 -433.195)" fill="#d39999"/>
    <path id="Path_687" data-name="Path 687" d="M302.384,761.012l.053-4.185s-6.021,1.734-10.9-.227c0,0,.41,4.207-.267,4.782s2.255,5.99,2.255,5.99L296.8,770.8l5.633-2.05,1.529-4.813S302.785,761.012,302.384,761.012Z" transform="translate(-175.302 -433.195)" opacity="0.1"/>
    <path id="Path_688" data-name="Path 688" d="M263.384,763.093s3.2.37,2.794,4.456.169,0,.169,0,3.4,1.377,4.613,3.3,3.4-1.716,3.565-2.759,1.529-1.475,1.529-1.475,5.348,9.916,4.4,12.644-12.425,3.356-12.425,3.356-2.09-1.177-6.9,2.491S246.32,786,246.32,786s-8.147-3.4-3.2-7.131,8.312-3.164,8.312-3.164l7.371-7.1S259.783,762.888,263.384,763.093Z" transform="translate(-147.782 -436.792)" fill="#7e5659"/>
    <path id="Path_689" data-name="Path 689" d="M336.907,236.094c2.037,1.235,3.485,3.24,5.415,4.635,2.745,1.983,6.431,2.723,8.543,5.37,1.783,2.255,2.014,5.406,1.533,8.249s-1.56,5.557-2.081,8.392-.414,5.976,1.27,8.312a1.885,1.885,0,0,0,.816.718,2.674,2.674,0,0,0,1.243,0c2.879-.348,5.642,1.711,6.934,4.31s1.395,5.62,1.261,8.517a17.6,17.6,0,0,1-1.422,6.939c-1.783,3.637-5.49,5.883-9.149,7.6a70.867,70.867,0,0,1-7.3,2.95,10.992,10.992,0,0,1-5.294.8c-3.044-.526-5.2-3.293-8.089-4.376-2.366-.891-4.991-.57-7.509-.348-2.148.187-4.6.183-6.083-1.386-1.9-2.014-1.043-5.263-.071-7.857a5.593,5.593,0,0,1-3.958-9.145c.918-1.119,2.384-2.424,1.667-3.686a2.442,2.442,0,0,0-.963-.838c-2.9-1.658-6.9-2.322-8.12-5.433-.784-2-.027-4.265.967-6.168s2.228-3.766,2.5-5.9c.356-3.013-1.337-6.11-.477-9.016a9.039,9.039,0,0,1,2.09-3.325,28.683,28.683,0,0,1,9.359-6.859c3.516-1.609,7.041-1.97,10.758-2.754C332.972,235.327,334.817,234.828,336.907,236.094Z" transform="translate(-183.089 -140.867)" fill="#865a61"/>
    <path id="Path_690" data-name="Path 690" d="M319.207,337.753s-8.525-.446-10.139,6.823,3.5,17.679,3.5,17.679Z" transform="translate(-185.048 -198.098)" fill="#a2d2ff"/>
    <path id="Path_691" data-name="Path 691" d="M319.207,337.753s-8.525-.446-10.139,6.823,3.5,17.679,3.5,17.679Z" transform="translate(-292.662 -125.606)" fill="#feffaf" opacity="0.05"/>
    <path id="Path_692" data-name="Path 692" d="M320,337.466l3.231,2.558,15.077.673,9.412-6.462,9.573-16.427a11.835,11.835,0,0,1-9.1-9.314,20.394,20.394,0,0,1-.187-7.781s-15.349-7.946-13.463,4.457a16.849,16.849,0,0,1,.143,4.608c-.891,7.264-7.942,5.9-7.942,5.9l-2.705,4.171-3.1,10.25Z" transform="translate(-191.282 -176.03)" fill="#fdc2cc"/>
    <path id="Path_693" data-name="Path 693" d="M352.46,305.147a16.849,16.849,0,0,1,.143,4.608,13.606,13.606,0,0,0,13.508-1.266,20.394,20.394,0,0,1-.187-7.781S350.575,292.762,352.46,305.147Z" transform="translate(-209.187 -175.885)" opacity="0.1"/>
    <circle id="Ellipse_334" data-name="Ellipse 334" cx="13.597" cy="13.597" r="13.597" transform="translate(135.474 107.503)" fill="#fdc2cc"/>
    <path id="Path_694" data-name="Path 694" d="M326.582,356.289c.33,0,.655.049.98.08,1.783.178,9.23.579,13.472-4.488,4.746-5.669,11.066-12.67,11.324-12.955l6.431,1.943s-5.09-1.809-8.468,7.656a9.8,9.8,0,0,0,3.311,11.28,10.188,10.188,0,0,0,4.207,1.783.022.022,0,0,1,0,.022v4.154h0l-2.629,11.587a20.087,20.087,0,0,0,.25,9.916l4.011,14.177c-.606.419-25.492,17.345-42.115,5.655h0c.062-.508,2.117-17.145.691-25.287a56.235,56.235,0,0,1-.744-6.293v-.156a7.1,7.1,0,0,0-2.438-4.813c-1.5-1.337-3.525-4.9-1.52-14.324a34.612,34.612,0,0,1,2.228-6.787l5.575-12.6h0l5.138.1v.036c-.446.553-6.4,8-7.05,12.791C318.6,354.328,317.825,355.727,326.582,356.289Z" transform="translate(-187.128 -197.895)" fill="#a2d2ff"/>
    <path id="Path_695" data-name="Path 695" d="M395.038,347.837s5.027,4.31,7,14.092,6.373,26.031,6.373,26.031,1.783,7.09-4.31,14.092S393.96,414.53,393.96,414.53l-4.011,5.909a5.031,5.031,0,0,1-2.888,2.041,9.755,9.755,0,0,1-7.068-.5,4.118,4.118,0,0,1-1.783-5.2l.891-2.063s-8.258,5.205-8.976,2.331,9.6-5.745,9.6-5.745,8.526-1.435,10.25-5.473c0,0,9.154-11.761,8.436-15.8l-8.842-23.7s-11.057-1.462-7.287-13.882S395.038,347.837,395.038,347.837Z" transform="translate(-219.049 -202.731)" fill="#a2d2ff"/>
    <path id="Path_696" data-name="Path 696" d="M298.853,548.907s14.054,3.422,18.814,2.882H335.3s7.665,1.716,25-1.034q1.7-.268,3.525-.6l.406-.071s3.063-37.948,3.251-40.136a60.2,60.2,0,0,0-2.937-24.44l-2.915-8.976s-18.014,10.8-29.94,9.8c-1.065-.089-2.121-.174-3.186-.209-2.447-.094-6.239,0-8.7-1.974l-5.17.891v14.707a17.622,17.622,0,0,1-1.168,6.293c-.111.294-4.56,9.083-4.56,9.083S298.668,547.889,298.853,548.907Z" transform="translate(-189.535 -275.976)" fill="#7f7f7f"/>
    <path id="Path_697" data-name="Path 697" d="M364.58,552.112v4.577s8.824,1.974,28.928-1.707c0,0,.236-1.284.423-3.472C387.763,552.5,370.752,554.879,364.58,552.112Z" transform="translate(-215.994 -317.714)" opacity="0.1"/>
    <path id="Path_698" data-name="Path 698" d="M307.349,546.649s21,5.745,25.762,5.205h-.293v-4.577c-2.3.954-18.718-3-24.667-4.488-.111.294-.227.584-.357.891a4.679,4.679,0,0,0-.446,2.968Z" transform="translate(-184.228 -312.857)" opacity="0.1"/>
    <path id="Path_699" data-name="Path 699" d="M417.31,536.43l1.5,9.288q1.7-.267,3.525-.6c-.468-2.714-1.488-8.913-1.208-9.943l-1.885-1.613Z" transform="translate(-245.224 -307.713)" fill="#65617d"/>
    <path id="Path_700" data-name="Path 700" d="M417.78,535.98l1.5,9.292q1.7-.272,3.525-.6c-.468-2.714-1.489-8.913-1.208-9.943l-1.885-1.618Z" transform="translate(-245.485 -307.461)" opacity="0.1"/>
    <g id="Group_389" data-name="Group 389" transform="translate(129.391 200.541)" opacity="0.05">
      <path id="Path_701" data-name="Path 701" d="M333.186,495.8c-1.061-.089-2.121-.174-3.186-.21-2.38-.089-6.012,0-8.49-1.823l.865-.152c2.478,1.965,6.239,1.881,8.7,1.974,1.065.036,2.121.12,3.186.21.348.031.7.049,1.065.058A20,20,0,0,1,333.186,495.8Z" transform="translate(-321.51 -485.99)"/>
      <path id="Path_702" data-name="Path 702" d="M396.98,514.074q1.7-.267,3.525-.6l.41-.076s.236-1.284.419-3.472a60.05,60.05,0,0,0-2.937-24.44l-2.745-8.468c.584-.33.891-.521.891-.521l2.915,8.976a60.207,60.207,0,0,1,2.937,24.44c-.187,2.188-.423,3.472-.423,3.472l-.406.076q-1.823.33-3.525.6a111,111,0,0,1-18.161,1.56A114.532,114.532,0,0,0,396.98,514.074Z" transform="translate(-353.867 -476.5)"/>
      <path id="Path_703" data-name="Path 703" d="M360.279,559.3v.049H359.7Q360.03,559.327,360.279,559.3Z" transform="translate(-342.68 -522.399)"/>
    </g>
    <ellipse id="Ellipse_335" data-name="Ellipse 335" cx="0.762" cy="1.569" rx="0.762" ry="1.569" transform="translate(173.832 227.366)" fill="#d39999"/>
    <path id="Path_704" data-name="Path 704" d="M311.161,448.33c1.23-9.136,3.4-14.564,4.546-16.69.045.29.16,1.23.214,1.52a44.131,44.131,0,0,1,.1,4.72l-1.141,20.661L316.406,465c1.435,5.116-3.882,1.074-3.882,1.074a3.164,3.164,0,0,1-3.12,2.157l-.276-3.708a32.025,32.025,0,0,1,.927-10.4,49.543,49.543,0,0,0,1.105-5.8Z" transform="translate(-185.206 -250.793)" fill="#fdc2cc"/>
    <path id="Path_705" data-name="Path 705" d="M311.161,448.33c1.23-9.136,3.4-14.564,4.546-16.69.045.29.16,1.23.214,1.52a44.131,44.131,0,0,1,.1,4.72l-1.141,20.661L316.406,465c1.435,5.116-3.882,1.074-3.882,1.074a3.164,3.164,0,0,1-3.12,2.157l-.276-3.708a32.025,32.025,0,0,1,.927-10.4,49.543,49.543,0,0,0,1.105-5.8Z" transform="translate(-185.206 -250.793)" opacity="0.05"/>
    <path id="Path_706" data-name="Path 706" d="M397.027,482.714c-.967,1.252-1.5,1.97-1.5,1.97l-4.011,5.905a5.009,5.009,0,0,1-2.888,2.041,9.732,9.732,0,0,1-7.068-.5,4.109,4.109,0,0,1-1.783-5.2l.891-2.068s-8.258,5.205-8.976,2.335,9.6-5.745,9.6-5.745,8.526-1.435,10.25-5.477c0,0,.744-.954,1.783-2.415" transform="translate(-219.919 -274.158)" fill="#fdc2cc"/>
    <path id="Path_707" data-name="Path 707" d="M399.555,508.183s-9.764-.949-12.857-6.533l-1.417,4.613s10.25,7.077,12.59,6.159Z" transform="translate(-227.469 -289.829)" fill="#65617d"/>
    <path id="Path_708" data-name="Path 708" d="M398.78,508.078s-9.76-.949-12.857-6.538l-1.413,4.6s10.25,7.077,12.586,6.159Z" transform="translate(-227.042 -289.768)" opacity="0.1"/>
    <path id="Path_709" data-name="Path 709" d="M312.491,510.46s-3.418,1.212-4.091.539l1.538,2.83,2.906-2.228Z" transform="translate(-184.852 -294.708)" fill="#65617d"/>
    <path id="Path_710" data-name="Path 710" d="M312.491,510.46s-3.418,1.212-4.091.539l1.538,2.83,2.906-2.228Z" transform="translate(-184.852 -294.708)" opacity="0.1"/>
    <path id="Path_712" data-name="Path 712" d="M357.282,263.154a5.245,5.245,0,0,1-3.663,1.93,28.855,28.855,0,0,1-4.256,0,10.675,10.675,0,0,0-6.422,1.618,16.332,16.332,0,0,0-2.946,3.12c-2.754,3.365-6.578,6.516-10.919,6.164a2.83,2.83,0,0,1-2.028-.856,3.253,3.253,0,0,1-.517-1.845,42.178,42.178,0,0,1,.263-8.316,17.535,17.535,0,0,1,1.257-4.96,16.935,16.935,0,0,1,3.022-4.314,18.481,18.481,0,0,1,5.272-4.225,9.457,9.457,0,0,1,6.6-.851c2.6.709,4.621,2.741,7.1,3.788C352.87,255.6,360.384,258.773,357.282,263.154Z" transform="translate(-194.85 -149.142)" opacity="0.1"/>
    <path id="Path_713" data-name="Path 713" d="M357.282,261.939a5.245,5.245,0,0,1-3.663,1.93,28.86,28.86,0,0,1-4.256,0,10.64,10.64,0,0,0-6.422,1.613A16.332,16.332,0,0,0,340,268.6c-2.754,3.365-6.578,6.516-10.919,6.163a2.812,2.812,0,0,1-2.028-.856,3.239,3.239,0,0,1-.517-1.845,42.181,42.181,0,0,1,.263-8.316,17.533,17.533,0,0,1,1.257-4.96,16.82,16.82,0,0,1,3.022-4.31,18.417,18.417,0,0,1,5.272-4.229,9.457,9.457,0,0,1,6.6-.851c2.6.709,4.621,2.741,7.1,3.788C352.87,254.38,360.384,257.549,357.282,261.939Z" transform="translate(-194.85 -148.458)" fill="#865a61"/>
    <path id="Path_714" data-name="Path 714" d="M291.8,473.47l-.036,1.627-.365-1.555Z" transform="translate(-161.541 -265.12)" fill="#fdc2cc"/>
    <path id="Path_715" data-name="Path 715" d="M291.8,473.47l-.036,1.627-.365-1.555Z" transform="translate(-161.541 -265.12)" opacity="0.05"/>
    <g id="Group_390" data-name="Group 390" transform="translate(162.225 143.164)" opacity="0.05">
      <path id="Path_716" data-name="Path 716" d="M397.589,352.073c-3.775,12.421,7.229,13.878,7.229,13.878l8.842,23.7c.717,4.038-8.441,15.8-8.441,15.8a7.832,7.832,0,0,1-3.966,3.5,6.213,6.213,0,0,0,2.353-2.585s9.154-11.757,8.436-15.794l-8.842-23.7s-11-1.457-7.229-13.878c1.261-4.149,3.12-6.039,5-6.716C399.674,347.313,398.484,349.118,397.589,352.073Z" transform="translate(-395.184 -346.27)"/>
    </g>
    <g id="Group_391" data-name="Group 391" transform="translate(125.41 138.967)" opacity="0.1">
      <path id="Path_717" data-name="Path 717" d="M401,384.61a9.286,9.286,0,0,0,1.783,1.689,10.129,10.129,0,0,0,4.207,1.783v.468a10.1,10.1,0,0,1-3.815-1.689A9.248,9.248,0,0,1,401,384.61Z" transform="translate(-361.593 -363.316)"/>
      <path id="Path_718" data-name="Path 718" d="M322.3,419.618v.156a57.557,57.557,0,0,0,.767,6.315c1.337,7.683-.414,22.938-.664,25.046-.143-.094-.285-.183-.446-.285.067-.508,2.121-17.145.7-25.282a56.448,56.448,0,0,1-.744-6.293v-.156a6.878,6.878,0,0,0-1.2-3.409A6.93,6.93,0,0,1,322.3,419.618Z" transform="translate(-317.086 -380.556)"/>
      <path id="Path_719" data-name="Path 719" d="M326,337.441l-4.359-.085a.022.022,0,0,0-.022,0l-5.571,12.594a34.725,34.725,0,0,0-2.228,6.787c-1.622,7.621-.6,11.418.637,13.294-1.395-1.644-2.834-5.393-1.038-13.816a34.349,34.349,0,0,1,2.206-6.792l5.611-12.594h0l5.139.1v.031C326.332,337.017,326.194,337.187,326,337.441Z" transform="translate(-312.577 -336.83)"/>
      <path id="Path_720" data-name="Path 720" d="M416.39,345.87l.076.022Z" transform="translate(-370.125 -341.841)"/>
      <path id="Path_721" data-name="Path 721" d="M366.042,343.4l-4.368-1.315h-.022c-.258.285-6.574,7.287-11.32,12.955-4.243,5.067-11.681,4.671-13.472,4.492-.325-.036-.655-.062-.98-.085-4.871-.312-6.787-.891-7.429-2.121.914.891,2.924,1.337,7.024,1.586.33,0,.655.049.98.08,1.783.178,9.23.575,13.472-4.488,4.746-5.673,11.066-12.675,11.324-12.96h0l6.355,1.925A3.967,3.967,0,0,0,366.042,343.4Z" transform="translate(-321.376 -339.446)"/>
    </g>
    <path id="Path_722" data-name="Path 722" d="M287.64,776.438s-6.15,1.68-7.34-.958" transform="translate(-169.275 -443.661)" opacity="0.1"/>
    <path id="Path_723" data-name="Path 723" d="M373.46,773.547s-7.131,1.841-8.78-1.007" transform="translate(-216.05 -442.031)" opacity="0.1"/>
    <path id="Path_724" data-name="Path 724" d="M555.143,750.3c.1-.891.249-1.783.41-2.674a18.636,18.636,0,0,0-.891-9.038h0c-.165-.468-.285-.731-.285-.731-2.839-.776-14.029,7.906-18.107,11.177-1.413,0-2.946.063-4.621.174-.731.053-1.462.071-2.193.058h-2.674c-3.784-3.048-15.5-12.216-18.41-11.422,0,0-.12.263-.285.731h0a18.314,18.314,0,0,0-.914,9.038c.16.891.308,1.783.41,2.674a12.8,12.8,0,0,0,4.011,8.249c.637,4.635,3.022,10.727,4.858,14.426a10.334,10.334,0,0,0,.624,2.037c-.758,2.924-1.631,6.738-1.382,8.022,0,0-3.957-.958-4.359,3.806v.147c-1.431.655-3.218,2.157-1.208,5.3a2.063,2.063,0,0,0,1.034.842c.357.125.7.125.669-.374l2.473,2.785s4.483.517,4.537-2.086l.263.04c.6.089,1.23.165,1.876.232l.312,1.03s-3.365-.071-2.447,2c0,0,.847.784,1.136.5,0,0-.446,1.359,1.31,1.359,0,0,1.885,1,2.621.285s2.26-1.783,2.4-2.228c.04-.12.058-1.177.067-2.638h.29c3.757.089,7.746-.031,11.373-.227h.294c0,1.582.022,2.75.062,2.874.147.446,1.676,1.5,2.407,2.228s2.616-.285,2.616-.285c1.747,0,1.31-1.359,1.31-1.359.294.285,1.141-.5,1.141-.5.918-2.072-2.451-2-2.451-2l.4-1.337,1.858-.156.294-.027c-.178,2.83,4.532,2.286,4.532,2.286l2.478-2.785c-.04.5.307.5.664.374a2.044,2.044,0,0,0,1-.851c3.035-4.746-2.571-5.753-2.571-5.753a2.75,2.75,0,0,0-.53-.085.917.917,0,0,1,.022-.245h0a9.769,9.769,0,0,0,.036-1.881,4.137,4.137,0,0,0-3.338-2.429c-1.141-.142-1.163-5.384-1.047-9.016a10.373,10.373,0,0,0,.178-2.068,10.912,10.912,0,0,0-.446-3.311c2.228-3.779,4.011-7.741,4.211-8.913A12.966,12.966,0,0,0,555.143,750.3Z" transform="translate(-294.91 -422.769)" fill="url(#linear-gradient-5)"/>
    <path id="Path_725" data-name="Path 725" d="M557.116,826.561h0c-.178,2.469-.655,6.431-.655,6.431s-1.983.241-5.049.517l-2.081.178c-1.6.129-3.387.254-5.281.361-3.5.192-7.34.312-10.963.223-1.809-.04-3.565-.134-5.192-.294-.726-.071-1.431-.156-2.1-.254-4.154-.619-7.131-1.8-7.385-3.886a12.034,12.034,0,0,1-.094-2.674c.388-4.679,4.2-3.735,4.2-3.735-.245-1.292.677-5.308,1.426-8.214.472-1.832.891-3.222.891-3.222l26.793-1.783h.089a1.31,1.31,0,0,1,1.31,1.377c-.16,3.213-.388,10.571.927,10.736a4.04,4.04,0,0,1,3.222,2.384A10.011,10.011,0,0,1,557.116,826.561Z" transform="translate(-301.197 -462.913)" fill="#ecdaf8"/>
    <path id="Path_726" data-name="Path 726" d="M529.134,752.573s-10.1,12.162-14.97,8.793c-.116-.08-.227-.16-.334-.245-3.271-2.478-4.131-6.471-4.359-8.5-.1-.891-.241-1.751-.4-2.62a18.2,18.2,0,0,1,.891-8.873h0c.16-.446.272-.717.272-.717C513.6,739.475,529.134,752.573,529.134,752.573Z" transform="translate(-295.971 -424.194)" fill="#ecdaf8"/>
    <path id="Path_727" data-name="Path 727" d="M523.678,754.648s-3.182,2.228-7.67,5.892a16.2,16.2,0,0,1-2.228,1.533c-3.271-2.478-4.131-6.471-4.358-8.5-.1-.891-.241-1.751-.4-2.621a18.2,18.2,0,0,1,.891-8.873h0C516.209,742.517,523.678,754.648,523.678,754.648Z" transform="translate(-295.943 -425.146)" fill="#6c63ff"/>
    <path id="Path_728" data-name="Path 728" d="M523.678,754.648s-3.182,2.228-7.67,5.892a16.2,16.2,0,0,1-2.228,1.533c-3.271-2.478-4.131-6.471-4.358-8.5-.1-.891-.241-1.751-.4-2.621a18.2,18.2,0,0,1,.891-8.873h0C516.209,742.517,523.678,754.648,523.678,754.648Z" transform="translate(-295.943 -425.146)" fill="#b9732c" opacity="0.5"/>
    <path id="Path_729" data-name="Path 729" d="M524.575,759.247s-1.7,1.2-4.1,3.146a8.63,8.63,0,0,1-1.176.816,6.561,6.561,0,0,1-2.326-4.532c-.049-.472-.125-.936-.209-1.4a9.743,9.743,0,0,1,.495-4.733h0C520.591,752.772,524.575,759.247,524.575,759.247Z" transform="translate(-300.302 -430.945)" opacity="0.1"/>
    <path id="Path_730" data-name="Path 730" d="M569.05,752.573s10.1,12.162,14.97,8.793c.112-.08.227-.16.334-.245,3.271-2.478,4.131-6.471,4.359-8.5.1-.891.241-1.751.392-2.62a18.141,18.141,0,0,0-.891-8.873h0c-.16-.446-.276-.717-.276-.717C584.581,739.475,569.05,752.573,569.05,752.573Z" transform="translate(-329.34 -424.194)" fill="#ecdaf8"/>
    <path id="Path_731" data-name="Path 731" d="M581.22,754.648s3.186,2.228,7.674,5.892a16.191,16.191,0,0,0,2.206,1.533c3.271-2.478,4.131-6.471,4.358-8.5.1-.891.241-1.751.392-2.621a18.144,18.144,0,0,0-.891-8.873h0C588.7,742.517,581.22,754.648,581.22,754.648Z" transform="translate(-336.086 -425.146)" fill="#6c63ff"/>
    <path id="Path_732" data-name="Path 732" d="M581.22,754.648s3.186,2.228,7.674,5.892a16.191,16.191,0,0,0,2.206,1.533c3.271-2.478,4.131-6.471,4.358-8.5.1-.891.241-1.751.392-2.621a18.144,18.144,0,0,0-.891-8.873h0C588.7,742.517,581.22,754.648,581.22,754.648Z" transform="translate(-336.086 -425.146)" fill="#b9732c" opacity="0.5"/>
    <path id="Path_733" data-name="Path 733" d="M589.05,759.266s1.689,1.194,4.069,3.12a8.157,8.157,0,0,0,1.172.811,6.581,6.581,0,0,0,2.313-4.505c.049-.446.125-.932.209-1.395a9.762,9.762,0,0,0-.468-4.706h0C593.012,752.831,589.05,759.266,589.05,759.266Z" transform="translate(-340.426 -430.972)" opacity="0.1"/>
    <path id="Path_734" data-name="Path 734" d="M558.658,810.23a24.185,24.185,0,0,1-3.868,4.929c-4.011,3.565-21.329,2.148-22.452,1.965-.236-.04-.727-.74-1.337-1.876.472-1.832.891-3.222.891-3.222Z" transform="translate(-308.247 -462.924)" opacity="0.1"/>
    <path id="Path_735" data-name="Path 735" d="M538.06,765.252c-.7.049-1.408.067-2.117.053-3.614-.062-15.79.1-17.14,5.014-1.591,5.794,5.522,21.307,6.64,21.494s18.433,1.591,22.457-1.965,9.261-14.707,8.98-15.719C556.88,774.129,561.872,763.6,538.06,765.252Z" transform="translate(-301.358 -437.894)" fill="#ecdaf8"/>
    <path id="Path_736" data-name="Path 736" d="M543.79,786.453a12.785,12.785,0,0,0-13.094,7.4,10.7,10.7,0,0,0,.789,10.781c1.391,1.956,3.431,3.414,6.27,2.228C544.066,804.262,543.79,786.453,543.79,786.453Z" transform="translate(-307.471 -449.701)" opacity="0.1"/>
    <path id="Path_737" data-name="Path 737" d="M543.16,785.193a12.784,12.784,0,0,0-13.094,7.4,10.7,10.7,0,0,0,.789,10.781c1.391,1.956,3.432,3.414,6.271,2.228C543.436,803,543.16,785.193,543.16,785.193Z" transform="translate(-307.122 -449.002)" opacity="0.1"/>
    <path id="Path_738" data-name="Path 738" d="M543.16,785.823a12.784,12.784,0,0,0-13.094,7.4A10.7,10.7,0,0,0,530.855,804c1.391,1.956,3.432,3.414,6.271,2.228C543.436,803.631,543.16,785.823,543.16,785.823Z" transform="translate(-307.122 -449.351)" fill="#6c63ff"/>
    <path id="Path_739" data-name="Path 739" d="M543.16,785.823a12.784,12.784,0,0,0-13.094,7.4A10.7,10.7,0,0,0,530.855,804c1.391,1.956,3.432,3.414,6.271,2.228C543.436,803.631,543.16,785.823,543.16,785.823Z" transform="translate(-307.122 -449.351)" fill="#b9732c" opacity="0.5"/>
    <path id="Path_740" data-name="Path 740" d="M538.175,803.13s-1.216,1.123-.749,1.4S538.175,803.13,538.175,803.13Z" transform="translate(-311.75 -458.989)" fill="#3f2b3b"/>
    <path id="Path_741" data-name="Path 741" d="M541.731,806.35s-.664,1.466-.192,1.627.753-1.052.753-1.052Z" transform="translate(-313.995 -460.774)" fill="#3f2b3b"/>
    <path id="Path_742" data-name="Path 742" d="M535.23,811.32s-.651,1.729,0,1.729S535.23,811.32,535.23,811.32Z" transform="translate(-310.432 -463.529)" fill="#3f2b3b"/>
    <path id="Path_743" data-name="Path 743" d="M533.78,821.71s1.3,3.325,4.688,3.089" transform="translate(-309.788 -469.288)" fill="none" stroke="#3f2b3b" stroke-miterlimit="10" stroke-width="1"/>
    <path id="Path_744" data-name="Path 744" d="M540.61,823.91a2.345,2.345,0,0,0,2.8.374" transform="translate(-313.574 -470.508)" fill="none" stroke="#3f2b3b" stroke-miterlimit="10" stroke-width="1"/>
    <path id="Path_745" data-name="Path 745" d="M564,786.453a12.785,12.785,0,0,1,13.094,7.4,10.7,10.7,0,0,1-.789,10.781c-1.386,1.956-3.432,3.414-6.271,2.228C563.7,804.262,564,786.453,564,786.453Z" transform="translate(-326.538 -449.701)" opacity="0.1"/>
    <path id="Path_746" data-name="Path 746" d="M564.588,785.193a12.785,12.785,0,0,1,13.094,7.4,10.7,10.7,0,0,1-.789,10.781c-1.386,1.956-3.431,3.414-6.27,2.228C564.325,803,564.588,785.193,564.588,785.193Z" transform="translate(-326.866 -449.002)" opacity="0.1"/>
    <path id="Path_747" data-name="Path 747" d="M564.588,785.823a12.785,12.785,0,0,1,13.094,7.4A10.7,10.7,0,0,1,576.893,804c-1.386,1.956-3.431,3.414-6.27,2.228C564.325,803.631,564.588,785.823,564.588,785.823Z" transform="translate(-326.866 -449.351)" fill="#6c63ff"/>
    <path id="Path_748" data-name="Path 748" d="M564.588,785.823a12.785,12.785,0,0,1,13.094,7.4A10.7,10.7,0,0,1,576.893,804c-1.386,1.956-3.431,3.414-6.27,2.228C564.325,803.631,564.588,785.823,564.588,785.823Z" transform="translate(-326.866 -449.351)" fill="#b9732c" opacity="0.5"/>
    <path id="Path_749" data-name="Path 749" d="M586.16,803.13s1.217,1.123.749,1.4S586.16,803.13,586.16,803.13Z" transform="translate(-338.824 -458.989)" fill="#3f2b3b"/>
    <path id="Path_750" data-name="Path 750" d="M582.521,806.35s.664,1.466.192,1.627-.753-1.052-.753-1.052Z" transform="translate(-336.496 -460.774)" fill="#3f2b3b"/>
    <path id="Path_751" data-name="Path 751" d="M589.463,811.32s.646,1.729,0,1.729S589.463,811.32,589.463,811.32Z" transform="translate(-340.496 -463.529)" fill="#3f2b3b"/>
    <path id="Path_752" data-name="Path 752" d="M585.788,821.71s-1.3,3.325-4.688,3.089" transform="translate(-336.019 -469.288)" fill="none" stroke="#3f2b3b" stroke-miterlimit="10" stroke-width="1"/>
    <path id="Path_753" data-name="Path 753" d="M581.308,823.91a2.35,2.35,0,0,1-2.808.374" transform="translate(-334.578 -470.508)" fill="none" stroke="#3f2b3b" stroke-miterlimit="10" stroke-width="1"/>
    <path id="Path_754" data-name="Path 754" d="M553.2,841.811a12.941,12.941,0,0,1,9.261,0Z" transform="translate(-320.553 -479.941)" fill="#3f2b3b"/>
    <path id="Path_755" data-name="Path 755" d="M525.795,854.005c-4.154-.62-7.131-1.8-7.385-3.886a12.031,12.031,0,0,1-.094-2.674,6,6,0,0,1,1.587-.579c.753-.209,1.685-.067,3.65.495s1.823,2.875,2.228,5.892A2.49,2.49,0,0,1,525.795,854.005Z" transform="translate(-301.197 -483.182)" opacity="0.1"/>
    <path id="Path_756" data-name="Path 756" d="M517.129,847.52s-5.4.99-2.478,5.651a1.994,1.994,0,0,0,1,.825c.343.12.673.12.637-.37l2.389,2.736s4.769.561,4.35-2.456-.281-5.348-2.228-5.892S517.891,847.31,517.129,847.52Z" transform="translate(-298.703 -483.546)" fill="#ecdaf8"/>
    <path id="Path_757" data-name="Path 757" d="M524.18,854.67s1.145,2.616,2.736.419" transform="translate(-304.467 -487.559)" fill="none" stroke="#3f2b3b" stroke-miterlimit="10" stroke-width="1"/>
    <path id="Path_758" data-name="Path 758" d="M518.28,857s.593,2.478,2.839.633" transform="translate(-301.196 -488.851)" fill="none" stroke="#3f2b3b" stroke-miterlimit="10" stroke-width="1"/>
    <path id="Path_759" data-name="Path 759" d="M598.308,846.844h0c-.178,2.469-.655,6.431-.655,6.431s-1.983.241-5.049.517a2.576,2.576,0,0,1,0-.517c.419-3.017.281-5.348,2.228-5.892A8.57,8.57,0,0,1,598.308,846.844Z" transform="translate(-342.389 -483.196)" opacity="0.1"/>
    <path id="Path_760" data-name="Path 760" d="M599.159,847.52s5.406.99,2.482,5.651a2.012,2.012,0,0,1-1,.825c-.343.12-.677.12-.642-.37l-2.384,2.736s-4.773.561-4.35-2.456.281-5.348,2.228-5.892S598.41,847.31,599.159,847.52Z" transform="translate(-342.749 -483.546)" fill="#ecdaf8"/>
    <path id="Path_761" data-name="Path 761" d="M600.236,854.67s-1.15,2.616-2.736.419" transform="translate(-345.111 -487.559)" fill="none" stroke="#3f2b3b" stroke-miterlimit="10" stroke-width="1"/>
    <path id="Path_762" data-name="Path 762" d="M606,857s-.6,2.478-2.843.633" transform="translate(-348.248 -488.851)" fill="none" stroke="#3f2b3b" stroke-miterlimit="10" stroke-width="1"/>
    <path id="Path_763" data-name="Path 763" d="M542.847,851.651c-1.809-.04-3.565-.134-5.192-.294l-1.618-5.446a3.534,3.534,0,0,1-.147-.994,3.467,3.467,0,0,1,6.93-.022C542.838,847.016,542.856,849.7,542.847,851.651Z" transform="translate(-310.958 -480.293)" opacity="0.1"/>
    <path id="Path_764" data-name="Path 764" d="M534.839,845.766l1.907,6.426s-3.244-.071-2.357,1.965c0,0,.815.771,1.1.49,0,0-.423,1.337,1.261,1.337,0,0,1.818.985,2.522.281s2.179-1.756,2.322-2.175c.089-.276.062-5.651.031-9.359a3.458,3.458,0,0,0-3.463-3.432h0a3.463,3.463,0,0,0-3.32,4.466Z" transform="translate(-310.041 -480.148)" fill="#ecdaf8"/>
    <path id="Path_765" data-name="Path 765" d="M540.267,869.47s-1.417,1.337-.668,2.126" transform="translate(-312.893 -495.763)" fill="none" stroke="#3f2b3b" stroke-miterlimit="10" stroke-width="1"/>
    <path id="Path_766" data-name="Path 766" d="M538.37,867.56a1.925,1.925,0,0,0-1.31,1.645" transform="translate(-311.607 -494.705)" fill="none" stroke="#3f2b3b" stroke-miterlimit="10" stroke-width="1"/>
    <path id="Path_767" data-name="Path 767" d="M583.084,844.769a3.525,3.525,0,0,1-.143.994l-1.511,5.156c-1.6.129-3.387.254-5.281.361,0-1.925,0-4.488.031-6.533a3.463,3.463,0,0,1,6.925.022Z" transform="translate(-333.275 -480.145)" opacity="0.1"/>
    <path id="Path_768" data-name="Path 768" d="M583.532,845.766l-1.907,6.426s3.249-.071,2.362,1.965c0,0-.815.771-1.1.49,0,0,.419,1.337-1.266,1.337,0,0-1.818.985-2.522.281s-2.175-1.756-2.318-2.175c-.089-.276-.062-5.651-.031-9.359a3.458,3.458,0,0,1,3.463-3.432h0a3.463,3.463,0,0,1,3.316,4.466Z" transform="translate(-333.593 -480.148)" fill="#ecdaf8"/>
    <path id="Path_769" data-name="Path 769" d="M586.23,869.47s1.417,1.337.668,2.126" transform="translate(-338.863 -495.763)" fill="none" stroke="#3f2b3b" stroke-miterlimit="10" stroke-width="1"/>
    <path id="Path_770" data-name="Path 770" d="M587.63,867.56a1.924,1.924,0,0,1,1.31,1.645" transform="translate(-339.639 -494.705)" fill="none" stroke="#3f2b3b" stroke-miterlimit="10" stroke-width="1"/>
    <path id="Path_771" data-name="Path 771" d="M552.346,782.769s-6.6-.209-6.81,4.9,10.313,2.946,10.313,2.946,4.421-.593,3.65-3.7S557.119,783.049,552.346,782.769Z" transform="translate(-316.303 -447.701)" opacity="0.1"/>
    <path id="Path_772" data-name="Path 772" d="M552.346,781.508s-6.6-.209-6.81,4.9,10.313,2.946,10.313,2.946,4.421-.593,3.65-3.7S557.119,781.789,552.346,781.508Z" transform="translate(-316.303 -447.002)" opacity="0.1"/>
    <path id="Path_773" data-name="Path 773" d="M552.346,782.138s-6.6-.209-6.81,4.9,10.313,2.946,10.313,2.946,4.421-.593,3.65-3.7S557.119,782.419,552.346,782.138Z" transform="translate(-316.303 -447.352)" fill="#3f2b3b"/>
    <path id="Path_774" data-name="Path 774" d="M527.78,839.92s2.228.793,2.674,2.313" transform="translate(-306.462 -479.383)" opacity="0.1"/>
    <path id="Path_775" data-name="Path 775" d="M596.444,837.4s-1.582.664-1.471,3.436" transform="translate(-343.707 -477.986)" opacity="0.1"/>
    <ellipse id="Ellipse_336" data-name="Ellipse 336" cx="1.033" cy="1.713" rx="1.033" ry="1.713" transform="translate(220.506 371.153) rotate(-29.887)" fill="#6c63ff"/>
    <ellipse id="Ellipse_337" data-name="Ellipse 337" cx="1.707" cy="1.029" rx="1.707" ry="1.029" transform="translate(251.873 371.555) rotate(-60)" fill="#6c63ff"/>
    <ellipse id="Ellipse_338" data-name="Ellipse 338" cx="1.033" cy="1.713" rx="1.033" ry="1.713" transform="translate(220.506 371.153) rotate(-29.887)" fill="#fff" opacity="0.5"/>
    <ellipse id="Ellipse_339" data-name="Ellipse 339" cx="1.707" cy="1.029" rx="1.707" ry="1.029" transform="translate(251.873 371.555) rotate(-60)" fill="#fff" opacity="0.5"/>
    <ellipse id="Ellipse_340" data-name="Ellipse 340" cx="12.002" cy="2.028" rx="12.002" ry="2.028" transform="translate(73.826 312.285)" fill="#6c63ff" opacity="0.1"/>
    <ellipse id="Ellipse_341" data-name="Ellipse 341" cx="12.002" cy="2.028" rx="12.002" ry="2.028" transform="translate(26.545 341.044)" fill="#6c63ff" opacity="0.1"/>
    <path id="Path_1297" data-name="Path 1297" d="M17.92,0c9.9,0,17.92,1.357,17.92,3.031S27.817,6.061,17.92,6.061,0,4.7,0,3.031,8.023,0,17.92,0Z" transform="translate(8.131 314.313)" fill="#6c63ff"/>
    <path id="Path_776" data-name="Path 776" d="M70.8,721.608a5.183,5.183,0,0,1-1.711-2.576,2.3,2.3,0,0,1,1.194-2.625c1.1-.419,2.268.339,3.155,1.105s1.907,1.644,3.071,1.484a4.675,4.675,0,0,1-1.444-4.377,1.782,1.782,0,0,1,.4-.891c.606-.651,1.711-.37,2.442.143,2.313,1.631,2.964,4.777,2.973,7.612a14.039,14.039,0,0,0,.045-3.12,3.209,3.209,0,0,1,1.177-2.772,3.565,3.565,0,0,1,1.783-.446,3.728,3.728,0,0,1,2.915.829,2.866,2.866,0,0,1-.116,3.565,11.65,11.65,0,0,1-3.013,2.415,6.652,6.652,0,0,0-2.157,2.055,2.1,2.1,0,0,0-.16.365H74.845A18.028,18.028,0,0,1,70.8,721.608Z" transform="translate(-52.163 -409.22)" fill="#6c63ff"/>
    <ellipse id="Ellipse_343" data-name="Ellipse 343" cx="12.002" cy="2.028" rx="12.002" ry="2.028" transform="translate(446.948 329.247)" fill="#6c63ff" opacity="0.1"/>
    <path id="Path_777" data-name="Path 777" d="M1042.91,748.51s6.845-.21,8.913-1.68,10.527-3.222,11.039-.865,10.291,11.716,2.558,11.779-17.956-1.2-20.015-2.46S1042.91,748.51,1042.91,748.51Z" transform="translate(-592.018 -426.66)" fill="#a8a8a8"/>
    <path id="Path_778" data-name="Path 778" d="M1065.554,761.523c-7.728.062-17.956-1.2-20.015-2.46-1.569-.954-2.193-4.381-2.4-5.963h-.227s.446,5.522,2.491,6.774,12.287,2.522,20.015,2.46c2.228,0,3-.811,2.959-1.988C1068.068,761.077,1067.216,761.523,1065.554,761.523Z" transform="translate(-592.018 -431.255)" opacity="0.2"/>
  </g>
</svg>
