<svg id="undraw_information_tab_ocka" xmlns="http://www.w3.org/2000/svg" width="378.872" height="289.174" viewBox="0 0 378.872 289.174">
  <ellipse id="Ellipse_420" data-name="Ellipse 420" cx="80.744" cy="6.158" rx="80.744" ry="6.158" transform="translate(217.384 276.858)" fill="#e6e6e6"/>
  <path id="Path_1265" data-name="Path 1265" d="M174.982,123.8A1.985,1.985,0,0,0,173,125.784V167.2a1.985,1.985,0,0,0,1.982,1.982h160.8a1.985,1.985,0,0,0,1.983-1.982V125.784a1.985,1.985,0,0,0-1.982-1.982Z" transform="translate(-171.678 -122.921)" fill="#6c63ff"/>
  <path id="Path_1266" data-name="Path 1266" d="M334.1,280.84H173.3a3.308,3.308,0,0,1-3.3-3.3V125.106a3.308,3.308,0,0,1,3.3-3.3H334.1a3.308,3.308,0,0,1,3.3,3.3v152.43A3.308,3.308,0,0,1,334.1,280.84ZM173.3,123.124a1.985,1.985,0,0,0-1.982,1.982v152.43a1.985,1.985,0,0,0,1.983,1.982H334.1a1.984,1.984,0,0,0,1.982-1.982V125.106a1.984,1.984,0,0,0-1.982-1.982Z" transform="translate(-170 -121.802)" fill="#7f7f7f"/>
  <path id="Path_1267" data-name="Path 1267" d="M337.659,266.117h-48.24V267h48.24a8.955,8.955,0,1,1,0,17.91H264.664a8.955,8.955,0,1,1,0-17.91h2.728v-.881h-2.728a9.836,9.836,0,1,0,0,19.672h72.994a9.836,9.836,0,1,0,0-19.672Z" transform="translate(-217.457 -202.539)" fill="#e6e6e6"/>
  <path id="Path_1268" data-name="Path 1268" d="M337.659,335.117h-48.24V336h48.24a8.955,8.955,0,0,1,0,17.91H264.664a8.955,8.955,0,1,1,0-17.91h2.728v-.881h-2.728a9.836,9.836,0,0,0,0,19.672h72.994a9.836,9.836,0,0,0,0-19.672Z" transform="translate(-217.457 -241.141)" fill="#e6e6e6"/>
  <path id="Path_1269" data-name="Path 1269" d="M337.659,404.117h-48.24V405h48.24a8.955,8.955,0,0,1,0,17.91H264.664a8.955,8.955,0,1,1,0-17.91h2.728v-.881h-2.728a9.836,9.836,0,0,0,0,19.672h72.994a9.836,9.836,0,0,0,0-19.672Z" transform="translate(-217.457 -279.743)" fill="#e6e6e6"/>
  <path id="Path_40" data-name="Path 40" d="M292.379,260.834a2.62,2.62,0,1,0,0,5.239h11.492a2.62,2.62,0,0,0,.086-5.239H292.379Z" transform="translate(-236.999 -199.583)" fill="#3f3d56"/>
  <path id="Path_40-2" data-name="Path 40" d="M292.379,330.834a2.62,2.62,0,1,0,0,5.239h11.492a2.62,2.62,0,0,0,.086-5.239H292.379Z" transform="translate(-236.999 -238.745)" fill="#3f3d56"/>
  <path id="Path_40-3" data-name="Path 40" d="M292.379,398.834a2.62,2.62,0,1,0,0,5.239h11.492a2.62,2.62,0,0,0,.086-5.239H292.379Z" transform="translate(-236.999 -276.787)" fill="#3f3d56"/>
  <path id="Path_40-4" data-name="Path 40" d="M282.032,282.5a2.62,2.62,0,1,0,0,5.239h65.68a2.62,2.62,0,1,0,.086-5.239H282.032Z" transform="translate(-231.211 -211.703)" fill="#e6e6e6"/>
  <path id="Path_40-5" data-name="Path 40" d="M282.032,351.5a2.62,2.62,0,1,0,0,5.239h65.68a2.62,2.62,0,1,0,.086-5.239H282.032Z" transform="translate(-231.211 -250.305)" fill="#e6e6e6"/>
  <path id="Path_40-6" data-name="Path 40" d="M282.032,420.5a2.62,2.62,0,1,0,0,5.239h65.68a2.62,2.62,0,1,0,.086-5.239H282.032Z" transform="translate(-231.211 -288.907)" fill="#e6e6e6"/>
  <ellipse id="Ellipse_421" data-name="Ellipse 421" cx="10.573" cy="10.573" rx="10.573" ry="10.573" transform="translate(13.618 12.996)" fill="#fff"/>
  <path id="Path_40-7" data-name="Path 40" d="M264.63,156.356a2.62,2.62,0,1,0,0,5.239h65.68a2.62,2.62,0,1,0,.086-5.239H264.63Z" transform="translate(-221.475 -141.133)" fill="#fff"/>
  <path id="Path_40-8" data-name="Path 40" d="M264.63,182.356a2.62,2.62,0,1,0,0,5.239H372.6a2.62,2.62,0,0,0,.086-5.239H264.63Z" transform="translate(-221.475 -155.679)" fill="#fff"/>
  <ellipse id="Ellipse_422" data-name="Ellipse 422" cx="12.364" cy="12.364" rx="12.364" ry="12.364" transform="translate(304.604 70.928)" fill="#2f2e41"/>
  <ellipse id="Ellipse_423" data-name="Ellipse 423" cx="14.719" cy="14.719" rx="14.719" ry="14.719" transform="translate(281.643 83.292)" fill="#2f2e41"/>
  <path id="Path_1270" data-name="Path 1270" d="M804.193,629.723l7.219,12.772s9.44-9.44,4.442-11.939l-7.774-2.5Z" transform="translate(-524.8 -405.027)" fill="#ffb8b8"/>
  <path id="Path_1271" data-name="Path 1271" d="M660.364,587.557,658.143,597l6.664,2.221,2.221-10.829Z" transform="translate(-368.199 -328.71)" fill="#ffb8b8"/>
  <path id="Path_1272" data-name="Path 1272" d="M776.022,487.85l-1.431,14.6s-25.768,23.754-16.883,32.639A141.819,141.819,0,0,0,777.7,551.2l5-3.61L771.314,532.04l23.046-16.382-5.276,68.582,8.052,2.221,18.048-69.415s5.553-22.213-8.052-33.319Z" transform="translate(-497.752 -324.281)" fill="#2f2e41"/>
  <path id="Path_1273" data-name="Path 1273" d="M824.292,726.96s-4.165-5.276-6.108-.555a65.97,65.97,0,0,0-3.054,10s-7.219,10.829,3.887,9.441,7.774-6.386,7.774-6.386a3.718,3.718,0,0,0,1.666-3.609c-.278-2.5-1.666-8.33-1.666-8.33S825.4,725.016,824.292,726.96Z" transform="translate(-529.629 -458.95)" fill="#2f2e41"/>
  <path id="Path_1274" data-name="Path 1274" d="M811.8,633.269s-2.36,2.36,1.527,6.247c0,0,.556,10.829,5.553,9.718s6.664-14.716,6.109-16.1.833-11.662-2.5-11.384-7.5,3.887-7.5,3.887,7.219,6.664.278,11.106A8.1,8.1,0,0,1,811.8,633.269Z" transform="translate(-528.659 -401.493)" fill="#2f2e41"/>
  <path id="Path_1275" data-name="Path 1275" d="M832.859,375.755l-21.1.555c4.65-6.6,5.525-14.384,3.609-23.046l13.883,2.777C826.575,363.109,826.529,369.173,832.859,375.755Z" transform="translate(-529.032 -251.294)" fill="#ffb8b8"/>
  <path id="Path_1276" data-name="Path 1276" d="M825.19,431.318l-32.764,9.163-6.288-43.318a8.339,8.339,0,0,1,7.365-7.736l7.53-.869,13.605,1.388,6.435,1.819a8.308,8.308,0,0,1,6.04,8.37Z" transform="translate(-514.7 -271.039)" fill="#6c63ff"/>
  <path id="Path_1277" data-name="Path 1277" d="M780.644,432.856l-5.276,6.109L762.6,425.359l4.749-23.544A14.429,14.429,0,0,1,778.776,390.5l3.535-.677-7.775,31.653Z" transform="translate(-501.529 -271.745)" fill="#6c63ff"/>
  <path id="Path_1278" data-name="Path 1278" d="M798.012,496.094l-3.9-5.254,3.332-3.332,5.412,1.412a4.588,4.588,0,0,1,2.228,7.534h0a4.587,4.587,0,0,1-7.068-.36Z" transform="translate(-519.159 -326.397)" fill="#ffb8b8"/>
  <path id="Path_1279" data-name="Path 1279" d="M859.431,436.637l5.275,6.109,12.772-13.605L872.731,405.6A14.43,14.43,0,0,0,861.3,394.277l-3.535-.677,7.775,31.653Z" transform="translate(-554.771 -273.86)" fill="#6c63ff"/>
  <path id="Path_1280" data-name="Path 1280" d="M851.639,499.876l3.9-5.254-3.332-3.332L846.8,492.7a4.587,4.587,0,0,0-2.228,7.534h0a4.587,4.587,0,0,0,7.068-.36Z" transform="translate(-546.717 -328.513)" fill="#ffb8b8"/>
  <ellipse id="Ellipse_424" data-name="Ellipse 424" cx="9.639" cy="9.639" rx="9.639" ry="9.639" transform="translate(284.687 89.562)" fill="#ffb8b8"/>
  <path id="Path_1281" data-name="Path 1281" d="M814.646,330.8h16.485l5-6.771c-4.923-4.309-11.085-5.082-17.957-3.827Z" transform="translate(-530.648 -232.49)" fill="#2f2e41"/>
  <path id="Path_1282" data-name="Path 1282" d="M967.506,588.838a105.407,105.407,0,0,1-4.923,29.133c-.069.219-.141.435-.212.653H944c.02-.2.039-.415.059-.653,1.225-14.083,8.288-99.8-.157-114.456C944.639,504.7,968.932,544.09,967.506,588.838Z" transform="translate(-602.96 -335.352)" fill="#e6e6e6"/>
  <path id="Path_1283" data-name="Path 1283" d="M976.246,684.368c-.154.219-.314.438-.477.653H961.986c.1-.186.225-.405.366-.653,2.277-4.109,9.017-16.4,15.273-29.133,6.723-13.688,12.891-27.9,12.371-33.037C990.156,623.357,994.809,658.711,976.246,684.368Z" transform="translate(-613.078 -401.749)" fill="#e6e6e6"/>
  <path id="Path_1284" data-name="Path 1284" d="M701.943,675.486a53.5,53.5,0,0,0,2.5,14.788c.035.111.071.22.108.332h9.325c-.01-.1-.02-.211-.03-.332-.622-7.148-4.207-50.656.08-58.1C713.551,632.781,701.22,652.772,701.943,675.486Z" transform="translate(-467.579 -407.332)" fill="#e6e6e6"/>
  <path id="Path_1285" data-name="Path 1285" d="M694.3,723.975c.078.111.159.222.242.332h7c-.053-.094-.115-.206-.186-.332-1.156-2.086-4.577-8.322-7.752-14.788-3.413-6.948-6.543-14.159-6.28-16.769C687.24,693.007,684.878,710.951,694.3,723.975Z" transform="translate(-459.237 -441.034)" fill="#e6e6e6"/>
</svg>
