<svg xmlns="http://www.w3.org/2000/svg" width="330.868" height="260.001" viewBox="0 0 330.868 260.001">
  <g id="undraw_Celebration_re_kc9k" transform="translate(0 0)">
    <path id="Path_996" data-name="Path 996" d="M376.086,345.032c-1.771-2.294-4.273-4.417-4.431-7.248-.145-2.6,1.791-5.174.974-7.659-.628-1.91-2.7-3.062-4.723-3.673a18.357,18.357,0,0,0-11.8.454l.2-.145a7.143,7.143,0,0,0-6.81,1.6,14.387,14.387,0,0,0-3.726,5.924,46.39,46.39,0,0,1-2.645,6.483,9.511,9.511,0,0,1-5.287,4.608,3.32,3.32,0,0,0,4.681,1.025,5.921,5.921,0,0,0,.985-1.018l2.882-3.5c.988,1.758-.488,4.184.727,5.811a4.616,4.616,0,0,0,2.833,1.387,51.249,51.249,0,0,0,25.072-.93,2.447,2.447,0,0,0,1.65-1.052A2.124,2.124,0,0,0,376.086,345.032Z" transform="translate(-275.937 -244.78)" fill="#2f2e41"/>
    <path id="Path_997" data-name="Path 997" d="M452.376,392.095a4.448,4.448,0,0,0-.1.693L434.122,403.26l-4.412-2.54-4.7,6.158,7.374,5.256a3.381,3.381,0,0,0,4.056-.1l18.719-14.767a4.436,4.436,0,1,0-2.779-5.173Z" transform="translate(-328.678 -282.889)" fill="#ffb7b7"/>
    <path id="Path_998" data-name="Path 998" d="M419.85,413.71l-5.867,7.6a1.9,1.9,0,0,1-2.875.157l-6.642-6.9a5.281,5.281,0,0,1,6.477-8.343l8.33,4.658a1.9,1.9,0,0,1,.577,2.821Z" transform="translate(-315.013 -292.843)" fill="#6c63ff"/>
    <path id="Path_999" data-name="Path 999" d="M245.038,610.967h5.181l2.465-19.983h-7.646Z" transform="translate(-148.275 -357.612)" fill="#ffb7b7"/>
    <path id="Path_1000" data-name="Path 1000" d="M422.76,758.1h10.2a6.5,6.5,0,0,1,6.5,6.5v.211h-16.7Z" transform="translate(-327.319 -506.433)" fill="#2f2e41"/>
    <path id="Path_1001" data-name="Path 1001" d="M155.148,610.967h5.181l2.464-19.983h-7.646Z" transform="translate(-93.882 -357.612)" fill="#ffb7b7"/>
    <path id="Path_1002" data-name="Path 1002" d="M332.87,758.1h10.2a6.5,6.5,0,0,1,6.5,6.5v.212h-16.7Z" transform="translate(-272.925 -506.433)" fill="#2f2e41"/>
    <circle id="Ellipse_367" data-name="Ellipse 367" cx="8.954" cy="8.954" r="8.954" transform="translate(74.875 104.374) rotate(-83.735)" fill="#ffb7b7"/>
    <path id="Path_1003" data-name="Path 1003" d="M360.669,399.03l5.275,2.613s5.893,10.242,2.513,19.961c-1.641,4.719,2.981,19.761,2.981,19.761s7.161,68.135,7.184,89.164c-8.9,1.368-17.348,3.058-17.771-1.168s-5.049-54.19-5.049-54.19-6.361,55.458-11.432,56.3-15.213-.423-15.213-.423,8.052-81.235,13.545-86.306l.845-4.226-.023-37.932,6.329-3.02Z" transform="translate(-270.678 -289.157)" fill="#2f2e41"/>
    <path id="Path_1004" data-name="Path 1004" d="M350.811,471.157a4.54,4.54,0,0,0,1.391-6.821l6.134-40.889-8.015-.385-4.782,40.72a4.564,4.564,0,0,0,5.271,7.375Z" transform="translate(-279.689 -303.7)" fill="#ffb7b7"/>
    <path id="Path_1005" data-name="Path 1005" d="M362.37,423.63l-9.585-.605a1.9,1.9,0,0,1-1.74-2.294l2-9.365a5.281,5.281,0,1,1,10.539.7l.8,9.51a1.9,1.9,0,0,1-2.015,2.057Z" transform="translate(-283.898 -293.637)" fill="#6c63ff"/>
    <path id="Path_1006" data-name="Path 1006" d="M389.142,340.992a6.831,6.831,0,0,0-2.788-3.854,11.417,11.417,0,0,0-14.595.888,7.458,7.458,0,0,0-2.254,3.613,4.431,4.431,0,0,0,.944,4.035l.179.112a1.612,1.612,0,0,1,1.011-1.679,8.075,8.075,0,0,1,2.062-.462,7.579,7.579,0,0,0,5.137-3.625,8.559,8.559,0,0,0,4.905,5.112c1.183.463,4.434,1.1,5.56.512C390.74,344.893,389.49,342.575,389.142,340.992Z" transform="translate(-295.006 -250.362)" fill="#2f2e41"/>
    <path id="Path_438" data-name="Path 438" d="M251.077,692.5a9.562,9.562,0,0,0,9.234-1.626c3.234-2.715,4.248-7.185,5.073-11.326l2.44-12.248-5.109,3.518c-3.674,2.53-7.431,5.141-9.975,8.805s-3.654,8.667-1.61,12.632" transform="translate(-222.821 -451.493)" fill="#e6e6e6"/>
    <path id="Path_439" data-name="Path 439" d="M253.084,724.193c-.643-4.685-1.3-9.43-.852-14.165a22.281,22.281,0,0,1,4.3-11.681,19.433,19.433,0,0,1,4.985-4.518c.5-.315.957.475.461.789a18.473,18.473,0,0,0-7.307,8.816,29.611,29.611,0,0,0-1.572,12.755c.166,2.6.518,5.181.871,7.76a.473.473,0,0,1-.319.562.459.459,0,0,1-.562-.319Z" transform="translate(-224.04 -467.5)" fill="#f2f2f2"/>
    <path id="Path_442" data-name="Path 442" d="M266.34,740.118a7.039,7.039,0,0,0,6.133,3.166c3.106-.147,5.694-2.314,8.023-4.372l6.892-6.085-4.561-.218c-3.28-.157-6.645-.3-9.769.708s-6.005,3.446-6.576,6.68" transform="translate(-232.667 -490.943)" fill="#e6e6e6"/>
    <path id="Path_443" data-name="Path 443" d="M249.924,755.989c3.1-5.478,6.686-11.565,13.1-13.511a14.62,14.62,0,0,1,5.511-.569c.585.051.439.952-.145.9a13.584,13.584,0,0,0-8.795,2.327,22.861,22.861,0,0,0-6.045,6.523c-1,1.524-1.9,3.113-2.794,4.7C250.472,756.868,249.634,756.5,249.924,755.989Z" transform="translate(-222.697 -496.603)" fill="#f2f2f2"/>
    <path id="Path_1007" data-name="Path 1007" d="M739.539,509.395c-5.809-7.774-16.442-9.65-21.725-5.7s-6.5,14.676-.688,22.451c5.377,7.2,15.12,9.158,20.485,6.463a.671.671,0,0,0,0,.255l.3,1.5a.682.682,0,0,0,1.089.4l2.562-2a.682.682,0,0,0-.127-1.154l-1.378-.655a.677.677,0,0,0-.151-.048C744.041,526.527,744.928,516.606,739.539,509.395Z" transform="translate(-503.116 -351.277)" fill="#ccc"/>
    <path id="Path_1008" data-name="Path 1008" d="M747.032,512.245a11.227,11.227,0,0,1,9.4,12.275c-.062.655.962.651,1.024,0A12.276,12.276,0,0,0,747.3,511.258C746.659,511.149,746.382,512.135,747.032,512.245Z" transform="translate(-523.316 -357.063)" fill="#fff"/>
    <path id="Path_1009" data-name="Path 1009" d="M762.968,144.526c5.079-8.27,2.9-18.843-2.725-22.3s-16.038-.617-21.117,7.653c-4.7,7.655-2.927,17.433,1.56,21.424a.673.673,0,0,0-.239.091l-1.278.833a.682.682,0,0,0,.028,1.161L742,155.034a.682.682,0,0,0,1.026-.544l.1-1.523a.673.673,0,0,0-.012-.158C748.71,155.038,758.257,152.2,762.968,144.526Z" transform="translate(-517.076 -120.791)" fill="#ccc"/>
    <path id="Path_1010" data-name="Path 1010" d="M786.124,147.419a11.227,11.227,0,0,1-7.934,13.272c-.632.184-.25,1.134.378.951a12.276,12.276,0,0,0,8.574-14.335C787.006,146.668,785.987,146.775,786.124,147.419Z" transform="translate(-542.198 -136.577)" fill="#fff"/>
    <path id="Path_1011" data-name="Path 1011" d="M532.962,254.286c-.425-9.7-8.156-17.232-14.745-16.943s-13.632,8.472-13.207,18.168c.393,8.975,7.34,16.081,13.293,16.874a.674.674,0,0,0-.146.209L517.564,274a.682.682,0,0,0,.673.946l3.244-.212a.682.682,0,0,0,.545-1.025l-.77-1.317a.679.679,0,0,0-.1-.125C527.038,270.981,533.357,263.281,532.962,254.286Z" transform="translate(-377.078 -191.313)" fill="#6c63ff"/>
    <path id="Path_1012" data-name="Path 1012" d="M553.188,254.755a11.227,11.227,0,0,1,.861,15.439c-.421.507.428,1.079.846.576a12.276,12.276,0,0,0-.927-16.677C553.5,253.639,552.713,254.3,553.188,254.755Z" transform="translate(-406.153 -201.361)" fill="#fff"/>
    <path id="Path_1013" data-name="Path 1013" d="M595.379,423.735a16.105,16.105,0,0,1-12.6-7.462c-.381-.61-.879-1.28-.615-2.03a1.335,1.335,0,0,1,1.383-.924,1.749,1.749,0,0,1,.181,3.371c-1.762.751-3.539-.41-4.974-1.337-3.27-2.112-6.866-4.022-10.828-4.262-3.666-.223-7.6,1.215-9.635,4.393-.357.556.529,1.07.884.517,2.022-3.153,6.11-4.285,9.664-3.8a18.788,18.788,0,0,1,6.047,2.053c.977.507,1.924,1.069,2.853,1.66a18.2,18.2,0,0,0,2.8,1.6c1.632.67,3.791.618,4.931-.925a2.81,2.81,0,0,0-1.537-4.241,2.4,2.4,0,0,0-2.815,2.859,7.009,7.009,0,0,0,1.31,2.37,17.13,17.13,0,0,0,12.951,7.175c.658.033.657-.991,0-1.024Z" transform="translate(-409.282 -296.442)" fill="#ccc"/>
    <path id="Path_1014" data-name="Path 1014" d="M870.639,262.315a11.475,11.475,0,0,1,9.095-.52c2.852,1.211,4.8,4.317,3.874,7.065-.418,1.246-1.37,2.471-1,3.73a3.84,3.84,0,0,0,2.26,2.063,8.418,8.418,0,0,1,2.756,1.6,1.8,1.8,0,0,1-.029,2.682c-.291.2-.655.289-.937.5a1.49,1.49,0,0,0-.46,1.667,3.513,3.513,0,0,0,1.126,1.481c1,.865,2.329,1.855,2.018,3.084a2.163,2.163,0,0,1-1.46,1.365,7.252,7.252,0,0,1-2.143.283l-29.6.933a11.226,11.226,0,0,1-2.923-.163,3.46,3.46,0,0,1-2.3-1.542,3.214,3.214,0,0,1,.505-3.322,31.507,31.507,0,0,1,2.51-2.652,4.21,4.21,0,0,0,1.344-3.186,8.142,8.142,0,0,0-1.17-2.581,2.571,2.571,0,0,1-.126-2.681c.8-1.1,2.735-1,3.65-2.019.69-.771.557-1.881.625-2.875a6.975,6.975,0,0,1,4.178-5.7,8.226,8.226,0,0,1,7.484.51Z" transform="translate(-586.234 -205.548)" fill="#2f2e41"/>
    <path id="Path_1015" data-name="Path 1015" d="M782.9,443.476v4.841l-18.673,2.3v-7.146Z" transform="translate(-462.443 -268.352)" fill="#9e616a"/>
    <path id="Path_1016" data-name="Path 1016" d="M994.849,561.141v15.61h-.2a6.076,6.076,0,0,1-6.074-6.076h0v-9.534Z" transform="translate(-669.702 -387.253)" fill="#2f2e41"/>
    <path id="Path_1017" data-name="Path 1017" d="M722.629,457.307,721.44,462l-18.667-2.351,1.754-6.926Z" transform="translate(-425.257 -273.948)" fill="#9e616a"/>
    <path id="Path_1018" data-name="Path 1018" d="M933.218,582.649l-3.832,15.132-.191-.048a6.076,6.076,0,0,1-4.4-7.382h0l2.341-9.242Z" transform="translate(-630.994 -399.335)" fill="#2f2e41"/>
    <path id="Path_1019" data-name="Path 1019" d="M885.63,447.637l1.008,1.05s6.579,5.159,1.712,18.749l-7.963,22.939,26.69,1.041L906.5,501.9s-38.706,2.153-38.367-4.226,1.767-30,1.767-30l-8.042-6.458,1.939-10.923Z" transform="translate(-593.026 -318.57)" fill="#2f2e41"/>
    <path id="Path_1020" data-name="Path 1020" d="M848.533,474l-3.092,3.17-10.367,28.5s-1.58,7.108,1.974,8.688,26.422,10.415,26.422,10.415l2.335-8.4-17.62-10.576L856.4,495l1.236-17Z" transform="translate(-576.604 -334.522)" fill="#2f2e41"/>
    <path id="Path_1021" data-name="Path 1021" d="M862.288,338.629l26.313-5.261.572,14.437-6.816,14.528,1.449,17.209-23.583,4.12.739-22.629s-6.333-8.934-2.6-17.94Z" transform="translate(-590.194 -249.424)" fill="#e4e4e4"/>
    <path id="Path_1022" data-name="Path 1022" d="M964.937,254.779a4.242,4.242,0,0,1-3.985,5.141l-25.233,29.26-5.867-7.12L956.5,255.538a4.265,4.265,0,0,1,8.437-.759Z" transform="translate(-634.167 -199.82)" fill="#9e616a"/>
    <path id="Path_1023" data-name="Path 1023" d="M932.432,326.769a1.9,1.9,0,0,1-.629,1.454l-7.1,6.387a5.283,5.283,0,0,1-8.164-6.706l4.953-8.2a1.9,1.9,0,0,1,2.84-.483l7.406,6.119a1.9,1.9,0,0,1,.69,1.426Z" transform="translate(-625.387 -240.602)" fill="#e4e4e4"/>
    <path id="Path_1024" data-name="Path 1024" d="M765.613,388.7a4.242,4.242,0,0,1,4.711-4.485l29.338-25.143,4.732,7.919-30.326,22.224a4.265,4.265,0,0,1-8.455-.516Z" transform="translate(-534.778 -264.978)" fill="#9e616a"/>
    <path id="Path_1025" data-name="Path 1025" d="M836.858,352.8a1.9,1.9,0,0,1,.84-1.343l7.973-5.25a5.283,5.283,0,1,1,7.066,7.855l-6.127,7.362a1.9,1.9,0,0,1-2.88.051l-6.4-7.161A1.9,1.9,0,0,1,836.858,352.8Z" transform="translate(-577.885 -256.372)" fill="#e4e4e4"/>
    <circle id="Ellipse_368" data-name="Ellipse 368" cx="9.699" cy="9.699" r="9.699" transform="translate(273.61 63.072)" fill="#9e616a"/>
    <path id="Path_1026" data-name="Path 1026" d="M891.037,282.958a6.012,6.012,0,0,1-5.287-6.362,5.137,5.137,0,0,1-4.4,5.231c-1.4.155-2.945-.27-4.168.438-1.354.785-1.788,2.691-3.2,3.37a3.029,3.029,0,0,1-3.769-1.593,6.037,6.037,0,0,1-.062-4.427,12.5,12.5,0,0,1,20.806-5.124,8,8,0,0,1,2.476,4.766,4.694,4.694,0,0,1-2.312,4.61Z" transform="translate(-597.806 -211.566)" fill="#2f2e41"/>
    <path id="Path_1027" data-name="Path 1027" d="M331.914,775.482H181.462a.395.395,0,1,1,0-.79H331.914a.395.395,0,1,1,0,.79Z" transform="translate(-181.067 -516.475)" fill="#cacaca"/>
  </g>
</svg>
