<svg xmlns="http://www.w3.org/2000/svg" xmlns:xlink="http://www.w3.org/1999/xlink" width="335.831" height="276" viewBox="0 0 335.831 276">
  <defs>
    <linearGradient id="linear-gradient" x1="0.5" y1="1" x2="0.5" gradientUnits="objectBoundingBox">
      <stop offset="0" stop-color="gray" stop-opacity="0.251"/>
      <stop offset="0.535" stop-color="gray" stop-opacity="0.122"/>
      <stop offset="1" stop-color="gray" stop-opacity="0.102"/>
    </linearGradient>
    <linearGradient id="linear-gradient-3" x1="0.5" y1="1" x2="0.5" y2="0" xlink:href="#linear-gradient"/>
  </defs>
  <g id="Group_736" data-name="Group 736" transform="translate(0)">
    <path id="Path_960" data-name="Path 960" d="M211.253,612.912c0,16.688-9.921,22.515-22.158,22.515-.285,0-.568,0-.85-.011-.567-.012-1.129-.037-1.683-.077-11.045-.781-19.626-6.909-19.626-22.427,0-16.059,20.519-36.324,22.067-37.829h0c.059-.059.089-.088.089-.088S211.253,596.223,211.253,612.912Z" transform="translate(-160.617 -390.886)" fill="#707070"/>
    <g id="Group_734" data-name="Group 734" transform="translate(200.302 101.039)" opacity="0.7">
      <path id="Path_962" data-name="Path 962" d="M949.407,353.821V349.8H929.312V368.39a3.919,3.919,0,0,0,3.918,3.918h12.258a3.919,3.919,0,0,0,3.919-3.918V364.27a5.225,5.225,0,1,0,0-10.449Zm0,8.44v-6.43a3.215,3.215,0,1,1,0,6.43Z" transform="translate(-929.312 -349.802)" fill="url(#linear-gradient)"/>
    </g>
    <path id="Path_963" data-name="Path 963" d="M973.873,362.4a4.77,4.77,0,1,0,4.77,4.77A4.77,4.77,0,0,0,973.873,362.4Zm0,7.706a2.936,2.936,0,1,1,2.936-2.936,2.935,2.935,0,0,1-2.936,2.936Z" transform="translate(-754.122 -256.715)" fill="#eaeaea"/>
    <path id="Path_964" data-name="Path 964" d="M973.873,362.4a4.77,4.77,0,1,0,0,9.541,4.851,4.851,0,0,0,4.516-3.229,4.41,4.41,0,0,0,.255-1.541A4.77,4.77,0,0,0,973.873,362.4Zm0,7.706a2.936,2.936,0,1,1,2.936-2.936,2.935,2.935,0,0,1-2.936,2.936Z" transform="translate(-754.122 -256.715)" fill="#fff" opacity="0.1"/>
    <path id="Path_965" data-name="Path 965" d="M782.493,276.563H800.84v16.953a3.6,3.6,0,0,1-3.6,3.6H786.09a3.6,3.6,0,0,1-3.6-3.6Z" transform="translate(-581.09 -174.545)" fill="#eaeaea"/>
    <path id="Path_966" data-name="Path 966" d="M966.961,352.455v16.971A3.578,3.578,0,0,1,963.383,373h1.835a3.578,3.578,0,0,0,3.578-3.578V352.455Z" transform="translate(-750.512 -250.437)" opacity="0.1"/>
    <path id="Path_967" data-name="Path 967" d="M940.608,314.569a1.071,1.071,0,0,0-.81.411c-.241.436.2.928.593,1.228a7.893,7.893,0,0,1,2.01,1.871,2.346,2.346,0,0,1,.11,2.593c-.713.967-2.415,1.176-2.58,2.366-.106.764.555,1.417,1.225,1.8,1.653.947,3.783,1.2,4.98,2.681a3.861,3.861,0,0,1,2.707-1.858c1.1-.251,2.251-.233,3.371-.4a1.165,1.165,0,0,0,.93-.493c.313-.635-.579-1.4-.271-2.034.234-.485.922-.448,1.425-.642a1.856,1.856,0,0,0,.924-2.216,4.172,4.172,0,0,0-1.578-2.049,17.676,17.676,0,0,0-6.356-2.938,16.291,16.291,0,0,0-3.379-.782A16.887,16.887,0,0,0,940.608,314.569Z" transform="translate(-735.584 -226.23)" fill="#eee"/>
    <line id="Line_34" data-name="Line 34" x1="38.363" y2="119.517" transform="translate(125.126 126.9)" fill="none" stroke="#e0e0e0" stroke-miterlimit="10" stroke-width="8"/>
    <g id="Group_735" data-name="Group 735" transform="translate(70.594)" opacity="0.7">
      <path id="Path_968" data-name="Path 968" d="M463.8,335.769c-4.719.274-8.923,4.227-8.923,4.227l-2.033-5.043-.166.054c.993-4.347,21.2-93.96.972-101.686-15.542-5.936-32.027-13.283-44.943-13.007v-21.17h18.108v-.754h14.335c2.748-1.963-1.245-3.313-5.708-4.156a4.081,4.081,0,0,0,.478-.675l22.96-41.193s5.281-8.677,1.886-12.826-8.3,10.563-8.3,10.563L433.6,177.265s-19.037-19.842-31.148-29.71a21.2,21.2,0,0,0-4.508-3.407c-2.211-1.5-3.884-2.271-4.709-1.967-.009,0-.015.008-.024.012a21.131,21.131,0,0,0-5.635-.766h-1.509v-3.1a24.2,24.2,0,0,0,14.949-14.165,27.185,27.185,0,0,0,2.154-23.67,1.571,1.571,0,0,0,.635-.22,2.317,2.317,0,0,0,.685-2.212,16.8,16.8,0,0,0-8.529-13.139c-1.911-1.045-4.1-1.765-5.51-3.426-1.211-1.427-1.72-3.424-3.185-4.588-1.741-1.384-4.256-1.146-6.393-.528a23.261,23.261,0,0,0-6.672,3.149c-2.311,1.583-4.4,3.616-7.057,4.492-1.89.622-3.941.61-5.843,1.195a9.814,9.814,0,0,0-6.314,6.158,12.82,12.82,0,0,0-.54,4.813,27.008,27.008,0,0,0-2.71,6.165c-.142.077-.285.152-.426.231l.414-.186a27.156,27.156,0,0,0,7.651,27.7,24.181,24.181,0,0,0,11.6,8.233v3.745a28.527,28.527,0,0,0-9.259,3.792l0,0s-.241.149-.653.426l-.124.084c-2.792,1.895-12.146,8.817-11.83,16.3q-.018.431,0,.865a28.762,28.762,0,0,0-.77,6.6v54.288a26.661,26.661,0,0,0,5.722,16.535c-7.872,1.764-12.889,4.433-12.889,7.42a2.416,2.416,0,0,1,0,.755c0,5.313,15.876,9.62,35.461,9.62,2.368,0,4.681-.064,6.919-.184l22.129,17.914-35.461,56.964s-11.695,9.054-2.641,12.071,27.539,5.282,27.539,5.282,3.018-5.281-1.132-7.545-9.808-1.132-9.808-1.132l.754-4.527s61.491-52.814,48.665-70.922c-2.454-3.464-4.908-7.039-7.383-10.557l9.68.882,2.2,82.908.276-.09c-.553,1.629-4.464,13.921,4.2,11.841,9.28-2.227,26.166-10.082,26.166-10.082S468.517,335.5,463.8,335.769Zm-36.986-142.66L408.7,187.852V172.361l19.681,20.892C427.418,193.156,426.812,193.109,426.812,193.109Z" transform="translate(-341.177 -75.892)" fill="url(#linear-gradient)"/>
    </g>
    <circle id="Ellipse_362" data-name="Ellipse 362" cx="26.559" cy="26.559" r="26.559" transform="translate(81.23 9.966)"/>
    <path id="Path_969" data-name="Path 969" d="M496.84,289.309l20.269,21.516a3.96,3.96,0,0,0,6.341-.787L545.9,269.759l-6.271-2.213L521.186,294.1s-34.626-36.09-39.47-34.306S496.84,289.309,496.84,289.309Z" transform="translate(-358.803 -191.92)" fill="#eee2f7"/>
    <line id="Line_35" data-name="Line 35" x1="29.879" y2="77.464" transform="translate(69.426 171.903)" fill="none" stroke="#bdbdbd" stroke-miterlimit="10" stroke-width="5"/>
    <line id="Line_36" data-name="Line 36" x2="29.879" y2="77.464" transform="translate(114.061 171.903)" fill="none" stroke="#bdbdbd" stroke-miterlimit="10" stroke-width="5"/>
    <ellipse id="Ellipse_363" data-name="Ellipse 363" cx="34.675" cy="9.406" rx="34.675" ry="9.406" transform="translate(72.009 163.049)" fill="#b84733"/>
    <ellipse id="Ellipse_364" data-name="Ellipse 364" cx="34.675" cy="9.406" rx="34.675" ry="9.406" transform="translate(72.009 162.312)" fill="#eaeaea"/>
    <line id="Line_37" data-name="Line 37" x2="32.716" y2="10.081" transform="translate(92.092 188.922)" fill="none" stroke="#bdbdbd" stroke-miterlimit="10" stroke-width="5"/>
    <line id="Line_38" data-name="Line 38" x1="32.716" y2="10.081" transform="translate(88.558 188.922)" fill="none" stroke="#bdbdbd" stroke-miterlimit="10" stroke-width="5"/>
    <path id="Path_970" data-name="Path 970" d="M242.279,182.016h10.294a20.657,20.657,0,0,1,20.657,20.657v54.594H214.209V210.086a28.07,28.07,0,0,1,28.07-28.07Z" transform="translate(-135.192 -114.875)" fill="#eee2f7"/>
    <path id="Path_971" data-name="Path 971" d="M214.209,386.016h59.021v32.092H240.4a26.19,26.19,0,0,1-26.19-26.19v-5.9Z" transform="translate(-135.192 -243.623)" fill="#a2d2ff"/>
    <path id="Path_972" data-name="Path 972" d="M366.073,288.74l36.091,34.291H442v-5.164l-34.306-9.96-29.345-36.239S365.025,279.9,366.073,288.74Z" transform="translate(-286.259 -199.451)" opacity="0.05"/>
    <path id="Path_973" data-name="Path 973" d="M366.073,286.74l36.091,34.291H442v-5.164l-34.306-9.96-29.345-36.239S365.025,277.9,366.073,286.74Z" transform="translate(-286.259 -198.189)" fill="#eee2f7"/>
    <path id="Path_974" data-name="Path 974" d="M572.012,394.908s19.182,1.476,14.017,5.164H572.012Z" transform="translate(-416.269 -277.23)" fill="#e0ad97"/>
    <path id="Path_975" data-name="Path 975" d="M640.012,262s4.8-14.386,8.115-10.329-1.844,12.542-1.844,12.542Z" transform="translate(-459.185 -186.377)" fill="#e0ad97"/>
    <path id="Path_976" data-name="Path 976" d="M214.209,386.016v1.722l59.02.123v-1.844Z" transform="translate(-135.192 -243.623)" opacity="0.05"/>
    <path id="Path_977" data-name="Path 977" d="M480.733,499.263l39.7,3.618,2.154,81.069,14.213-4.627s21.257-91.85.987-99.592-42.18-17.937-55.262-9.629S480.733,499.263,480.733,499.263Z" transform="translate(-355.804 -322.732)" fill="#a2d2ff"/>
    <path id="Path_978" data-name="Path 978" d="M495.012,486.908s21.764,11.066,24.715,23.608" transform="translate(-367.673 -335.293)" opacity="0.1"/>
    <path id="Path_979" data-name="Path 979" d="M425.7,508.14l30.985,25.084-34.675,55.7,14.386,4.058s60.127-51.643,47.585-69.349S458.9,485.27,443.407,484.9,425.7,508.14,425.7,508.14Z" transform="translate(-321.6 -334.024)" fill="#a2d2ff"/>
    <path id="Path_980" data-name="Path 980" d="M414.209,251.016l7.746,13.28,1.844-3.689Z" transform="translate(-261.416 -158.422)" opacity="0.05"/>
    <path id="Path_981" data-name="Path 981" d="M411.843,766.908s-11.435,8.853-2.582,11.8,26.928,5.164,26.928,5.164,2.951-5.164-1.107-7.377-9.591-1.107-9.591-1.107l.738-4.427Z" transform="translate(-311.432 -512.007)" fill="#707070"/>
    <path id="Path_982" data-name="Path 982" d="M600.463,775.488s-5.023,13.93,4.051,11.753,25.585-9.858,25.585-9.858-.227-5.944-4.841-5.676-8.725,4.133-8.725,4.133l-1.988-4.931Z" transform="translate(-433.349 -514.532)" fill="#707070"/>
    <rect id="Rectangle_1671" data-name="Rectangle 1671" width="14.755" height="22.133" rx="7.378" transform="translate(101.15 54.231)" fill="#e0ad97"/>
    <path id="Path_983" data-name="Path 983" d="M431.39,224.908a7.378,7.378,0,0,0-7.378,7.378v2.507a23.61,23.61,0,0,0,14.755,0v-2.507a7.378,7.378,0,0,0-7.378-7.378Z" transform="translate(-322.863 -169.939)" opacity="0.05"/>
    <circle id="Ellipse_365" data-name="Ellipse 365" cx="23.608" cy="23.608" r="23.608" transform="translate(84.919 18.081)" fill="#e0ad97"/>
    <path id="Path_984" data-name="Path 984" d="M377.488,141.134s5.9,1.521,9.222-5.187,5.9-10.367,19.551-6.4,16.394,4.447,17.05.7c.448-2.561-4.4-8.783-7.524-12.466a8.733,8.733,0,0,0-6.657-2.869H393.718l-9.222,4.269-7.009,6.1-1.475,8.233Z" transform="translate(-292.568 -100.516)" opacity="0.05"/>
    <path id="Path_985" data-name="Path 985" d="M377.488,139.134s5.9,1.521,9.222-5.187,5.9-10.367,19.551-6.4,16.394,4.447,17.05.7c.448-2.561-4.4-8.783-7.524-12.466a8.733,8.733,0,0,0-6.657-2.869H393.718l-9.222,4.269-7.009,6.1-1.475,8.233Z" transform="translate(-292.568 -99.254)"/>
    <ellipse id="Ellipse_366" data-name="Ellipse 366" cx="2.398" cy="4.795" rx="2.398" ry="4.795" transform="translate(84.919 35.05)" fill="#e0ad97"/>
    <path id="Path_986" data-name="Path 986" d="M375.565,108.635c-.547-3.088-1.085-6.331-.089-9.3a9.6,9.6,0,0,1,6.174-6.021c1.86-.572,3.865-.56,5.713-1.168,2.6-.857,4.641-2.845,6.9-4.393a22.744,22.744,0,0,1,6.524-3.079c2.089-.6,4.548-.836,6.251.517,1.433,1.139,1.931,3.091,3.115,4.486,1.378,1.624,3.519,2.328,5.388,3.35a16.432,16.432,0,0,1,8.34,12.848,2.266,2.266,0,0,1-.67,2.163,2.391,2.391,0,0,1-1.345.246c-9.435-.135-18.882-.27-28.279-1.136a67.842,67.842,0,0,0-8.779-.5,28.719,28.719,0,0,0-12.927,3.647" transform="translate(-289.962 -81.13)"/>
    <path id="Path_988" data-name="Path 988" d="M12.093,0H44.745a12.093,12.093,0,1,1,0,24.187H12.093A12.093,12.093,0,0,1,12.093,0Z" transform="translate(0 238.025)" fill="#d8bce8"/>
    <path id="Path_987" data-name="Path 987" d="M724.765,485.182a.554.554,0,1,0-.534-.553A.554.554,0,0,0,724.765,485.182Z" transform="translate(-512.337 -333.506)" fill="url(#linear-gradient-3)"/>
    <line id="Line_39" data-name="Line 39" x2="38.363" y2="136.519" transform="translate(293.616 126.9)" fill="none" stroke="#e0e0e0" stroke-miterlimit="10" stroke-width="8"/>
    <rect id="Rectangle_1673" data-name="Rectangle 1673" width="207.164" height="8.073" transform="translate(124.971 122.902)" fill="#d8d8d8"/>
  </g>
</svg>
