<svg xmlns="http://www.w3.org/2000/svg" xmlns:xlink="http://www.w3.org/1999/xlink" width="580.502" height="440.936" viewBox="0 0 580.502 440.936">
    <defs>
      <linearGradient id="linear-gradient" x1="0.5" y1="1" x2="0.5" gradientUnits="objectBoundingBox">
        <stop offset="0" stop-color="gray" stop-opacity="0.251"/>
        <stop offset="0.54" stop-color="gray" stop-opacity="0.122"/>
        <stop offset="1" stop-color="gray" stop-opacity="0.102"/>
      </linearGradient>
    </defs>
    <g id="undraw_business_deal_cpi9" transform="translate(0.148 0.192)">
      <path id="Path_1100" data-name="Path 1100" d="M658.872,165.841c-.1.473-.2.945-.308,1.413a151.913,151.913,0,0,1-17.642,45.761c-.281.473-.563.945-.85,1.418a131.506,131.506,0,0,1-19.888,25.1A60.289,60.289,0,0,1,605.9,250.507c-7.663,4-16.622,5.629-25.427,6.957-9.145,1.386-18.417,2.544-27.663,3.792q-4.928.653-9.8,1.386c-8.932,1.322-17.8,2.852-26.457,4.88a155.108,155.108,0,0,0-30.87,10.387q-1.174.531-2.321,1.126c-.765.382-1.535.77-2.289,1.163s-1.5.786-2.236,1.19c-.382.207-.765.414-1.142.632s-.749.409-1.115.621c-1.1.616-2.188,1.248-3.271,1.885l-.043.026c-.717.42-1.423.85-2.124,1.28-4,2.432-7.923,4.971-11.843,7.525l-2.464,1.593-3.818,2.469c-.743.483-1.5.967-2.252,1.444-.531.35-1.062.7-1.641,1.062-2.783,1.753-5.6,3.473-8.5,5.114-.685.393-1.375.786-2.071,1.168a117.709,117.709,0,0,1-18.279,8.242l-.085.032a83.393,83.393,0,0,1-9.708,2.74c-1.9.414-3.8.754-5.719,1.014a61.316,61.316,0,0,1-15.507.218c-10.127-1.174-19.617-5.061-29.739-6.373-20.839-2.655-41.077,5.9-60.673,12.6q-7.228,2.469-14.562,4.625c-3.25.961-6.511,1.869-9.8,2.746a368.676,368.676,0,0,1-61.443,10.775,173.051,173.051,0,0,1-26.1.579,95.855,95.855,0,0,1-9.793-1.062c-10.993-1.7-21.242-5.263-29.516-11.789-6.776-5.358-11.625-12.342-15.316-19.649a85.748,85.748,0,0,1-7.918-23.653c-.2-1.121-.382-2.246-.531-3.372q-.4-2.889-.595-5.81a83.159,83.159,0,0,1,3.654-30.722c3.5-11.11,9.347-21.773,11.917-32.968q.159-.712.3-1.418a49.071,49.071,0,0,0,.781-5.146c1.312-13.754-3.717-27.163-7.663-40.615-.138-.467-.276-.94-.409-1.413q-.637-2.241-1.221-4.477c-3.654-14.222-4.668-29.447-1.413-43.642.1-.473.223-.945.34-1.413a63.9,63.9,0,0,1,12.013-24.6c6.1-7.647,14.1-14.015,22.65-19.607q6.25-4.089,12.926-7.642,4.779-2.549,9.793-4.827a192.855,192.855,0,0,1,87.576-16.861c1.593.069,3.186.154,4.779.271s3.335.255,5,.409c19.469,1.891,38.411,6.452,57.221,11.439,6.3,1.673,12.6,3.388,18.884,5.072,2.8.743,5.592,1.487,8.391,2.209,13.706,3.542,27.615,6.75,41.7,9.145q4.891.844,9.793,1.54a280.506,280.506,0,0,0,34.248,2.9q6.686.133,13.377-.117,3.378-.122,6.76-.366c23.287-1.641,45.793-7.132,68.336-12.262q4.891-1.115,9.8-2.2c4.291-.945,8.582-1.859,12.894-2.7,26.834-5.273,50.753-2.241,75.7,8.64,5.672,2.469,11.338,5.454,14.811,10.09s4.344,10.329,4.992,15.825c.919,7.828,1.519,15.756,1.747,23.728,0,.467,0,.94.032,1.413A212.976,212.976,0,0,1,658.872,165.841Z" transform="translate(-85.895 -38.191)" fill="#6c63ff" opacity="0.1"/>
      <path id="Path_1101" data-name="Path 1101" d="M486.3,213.216h-1.753v1.418h1.986Zm-19.877,0a.092.092,0,0,0,0,.037c-.048.388-.1.775-.154,1.168v.212h15.188v-.085l1.062-1.333Zm-40.705,0V167.455h17.472c-.186-.122-.377-.25-.573-.366l-.255-.165-.329-.2c-.191-.112-.382-.223-.584-.329s-.324-.181-.494-.271l-.117-.064H425.716v-2.523l-.409.159-.43.2h-.032l-.09.048-.271.143-.271.143c-.266.143-.531.3-.8.467l-.255.17-.531.34c-.685.457-1.36.935-2.055,1.381-.175.112-.35.223-.531.324-.377.223-.765.435-1.163.627a4.424,4.424,0,0,1-.531.228l-.287.112-.266.09h0a12.438,12.438,0,0,1-1.912.5v44.736h-26.2c0,.053.037.1.053.149.143.425.287.844.425,1.269h25.756v49.048h.4l.462.027.834.048,1.333.159.611.058.664.069h.1l1.174.143.249.032.568.08.812.117h0l1.949-.085h0l.266.048a1.841,1.841,0,0,1,.329.053V214.634h40.541v-.212c.053-.393.106-.781.154-1.168a.086.086,0,0,1,0-.037Zm60.583,0h-1.753v1.418h1.986Zm-20.971,0c-.064.473-.122.945-.186,1.418h16.935l1.152-1.418Zm-39.611,0V167.455h17.472c-.186-.122-.377-.25-.573-.366l-.255-.165-.329-.2c-.191-.112-.382-.223-.584-.329s-.324-.181-.494-.271l-.117-.064H425.716v-2.523l-.409.159-.43.2h-.032l-.09.048-.271.143-.271.143c-.266.143-.531.3-.8.467l-.255.17-.531.34c-.685.457-1.359.935-2.055,1.381-.175.112-.35.223-.531.324-.377.223-.765.435-1.163.627a4.42,4.42,0,0,1-.531.228l-.287.112-.266.09h0a12.436,12.436,0,0,1-1.912.5v44.736h-26.2c0,.053.037.1.053.149.143.42.292.844.43,1.269h25.751v49.043h.4l.462.027.834.048,1.333.165.611.058.664.069h.1l1.174.143.249.032.568.08.812.117h0l1.949-.085h0l.266.048a1.841,1.841,0,0,1,.329.053V214.634h39.479c.064-.473.122-.945.186-1.418Zm132.52-95.293H668.413c0-.473,0-.945-.032-1.413H558.235V60.952q-4.907,1.062-9.8,2.2v53.36H428.61l-.3-.271.457-.4h0l44.572-40.052q-6.691.255-13.377.117L425.711,106.67V73.006q-4.907-.7-9.793-1.54v33.653L365.845,60.112c-6.288-1.683-12.581-3.4-18.884-5.072l68.1,61.2-.3.271H289.745V43.65q-2.5-.234-5-.409c-1.593-.117-3.186-.2-4.78-.271v73.541H192.37V59.831q-4.96,2.273-9.793,4.827v51.852H134.99c-.117.467-.239.94-.34,1.413h47.928v48.119H137.284c.133.473.271.945.409,1.413h44.885v45.761h-38q-.143.706-.3,1.418h38.3V342.581c3.186.494,6.484.839,9.793,1.062V214.634h87.576V332.278c3.287-.876,6.548-1.784,9.8-2.746v-114.9H415.923V317.419a83.377,83.377,0,0,0,9.708-2.74l.085-.032V214.634H548.437v48.209q4.886-.717,9.8-1.375V214.634H645.5c.287-.473.568-.945.85-1.418H558.235V167.455H663.99c.111-.467.207-.94.308-1.413H558.235Zm-365.865,0h87.576v48.119H192.37Zm0,95.293V167.455h87.576v45.761Zm97.374-95.293H415.923v48.119H289.745Zm0,95.293V167.455H415.923v45.761Zm258.693,0H425.716V167.455H548.437Zm0-47.174H425.716V119.214l1.721-1.29h121Zm-82.016,47.174a.092.092,0,0,0,0,.037c-.048.388-.1.775-.154,1.168v.212h15.188v-.085l1.062-1.333Zm19.877,0h-1.753v1.418h1.986Zm-60.583,0V167.455h17.472c-.186-.122-.377-.25-.573-.366l-.255-.165-.329-.2c-.191-.112-.382-.223-.584-.329s-.324-.181-.494-.271l-.117-.064H425.716v-2.523l-.409.159-.43.2h-.032l-.09.048-.271.143-.271.143c-.266.143-.531.3-.8.467l-.255.17-.531.34c-.685.457-1.36.935-2.055,1.381-.175.112-.35.223-.531.324-.377.223-.765.435-1.163.627a4.424,4.424,0,0,1-.531.228l-.287.112-.266.09h0a12.438,12.438,0,0,1-1.912.5v44.736h-26.2c0,.053.037.1.053.149.143.425.287.844.425,1.269h25.756v49.048h.4l.462.027.834.048,1.333.159.611.058.664.069h.1l1.174.143.249.032.568.08.812.117h0l1.949-.085h0l.266.048a1.841,1.841,0,0,1,.329.053V214.634h40.541v-.212c.053-.393.106-.781.154-1.168a.086.086,0,0,1,0-.037Z" transform="translate(-91.32 -38.391)" fill="#6c63ff" opacity="0.1"/>
      <path id="Path_1102" data-name="Path 1102" d="M319.769,119.071h.759a1.541,1.541,0,0,1-.929-1.237h0c0-.977,1.46-1.774,3.245-1.774h22.708c1.784,0,3.239.8,3.239,1.774h0c0,.972-1.455,1.774-3.239,1.774h-.759a1.524,1.524,0,0,1,.929,1.232c0,.834-1.062,1.535-2.48,1.721h6.537c1.779,0,3.239.8,3.239,1.774s-1.461,1.774-3.239,1.774H327.066c-1.779,0-3.24-.8-3.24-1.774,0-.834,1.062-1.529,2.48-1.721h-6.537c-1.785,0-3.239-.8-3.239-1.774S317.985,119.071,319.769,119.071Z" transform="translate(-176.612 -72.667)" fill="#6c63ff" opacity="0.1"/>
      <path id="Path_1103" data-name="Path 1103" d="M783.21,150.841h.759a1.539,1.539,0,0,1-.924-1.237h0c0-.977,1.455-1.774,3.239-1.774h22.708c1.784,0,3.245.8,3.245,1.774h0c0,.972-1.46,1.768-3.245,1.768h-.754a1.54,1.54,0,0,1,.924,1.237c0,.834-1.062,1.535-2.48,1.721h6.537c1.784,0,3.24.8,3.24,1.774s-1.455,1.774-3.24,1.774H790.511c-1.784,0-3.245-.8-3.245-1.774,0-.834,1.062-1.535,2.48-1.721H783.21c-1.779,0-3.24-.8-3.24-1.774S781.43,150.841,783.21,150.841Z" transform="translate(-393.94 -87.565)" fill="#6c63ff" opacity="0.1"/>
      <path id="Path_1104" data-name="Path 1104" d="M254.135,286.8h.754a1.535,1.535,0,0,1-.924-1.237h0c0-.972,1.46-1.774,3.239-1.774h22.713c1.779,0,3.24.8,3.24,1.774h0c0,.977-1.46,1.774-3.24,1.774h-.759a1.519,1.519,0,0,1,.924,1.232c0,.834-1.062,1.535-2.48,1.72h6.537c1.784,0,3.245.8,3.245,1.774s-1.46,1.774-3.245,1.774H261.453c-1.784,0-3.239-.8-3.239-1.774,0-.828,1.062-1.529,2.48-1.721h-6.559c-1.784,0-3.245-.8-3.245-1.774S252.372,286.8,254.135,286.8Z" transform="translate(-145.83 -151.323)" fill="#6c63ff" opacity="0.1"/>
      <ellipse id="Ellipse_392" data-name="Ellipse 392" cx="34.497" cy="113.524" rx="34.497" ry="113.524" transform="translate(306.526 313.06) rotate(-78.45)" fill="#6c63ff" opacity="0.1"/>
      <path id="Path_1105" data-name="Path 1105" d="M828.56,396.684s6.038-29.638,29.091-26.892c0,0,15.931,1.094,19.208,11.524v23.053Z" transform="translate(-416.726 -191.569)" fill="#3a3768"/>
      <path id="Path_1106" data-name="Path 1106" d="M807.636,390.53,602.346,373.51,576,379l1.646,36.776,1.795.218,2.045,55.224,201.445,36.223,21.412-18.114V429.462l2.741-1.609Z" transform="translate(-269.554 -174.433)" fill="#d48a9b"/>
      <path id="Path_1107" data-name="Path 1107" d="M992.339,405.56l-.552,37.323-22.23,10.43-.276-38.974Z" transform="translate(-453.98 -189.462)" opacity="0.05"/>
      <path id="Path_1108" data-name="Path 1108" d="M987.316,478.94l.271,58.735L966.18,555.789l1.375-68.065Z" transform="translate(-452.527 -223.873)" opacity="0.05"/>
      <path id="Path_1109" data-name="Path 1109" d="M582.864,456l205.03,25.018L788,476.27,582.71,454.13Z" transform="translate(-272.7 -212.239)" opacity="0.05"/>
      <path id="Path_1110" data-name="Path 1110" d="M988.043,481.1V478.94L967.73,487.9v4.758Z" transform="translate(-453.253 -223.873)" opacity="0.05"/>
      <path id="Path_1111" data-name="Path 1111" d="M575.48,379l26.346-5.491,205.29,17.021-23.053,8.778Z" transform="translate(-269.31 -174.433)" fill="#efc6cd"/>
      <path id="Path_1112" data-name="Path 1112" d="M957.124,407.55l10.074.659-16.7,5-8.5-.611Z" transform="translate(-441.188 -190.395)" opacity="0.1"/>
      <path id="Path_1113" data-name="Path 1113" d="M957.124,406.72l10.074.658-16.7,5-8.5-.616Z" transform="translate(-441.188 -190.006)" fill="#fff"/>
      <path id="Path_1114" data-name="Path 1114" d="M1022.32,444.517c.4-.17.818.154,1.243.234.244.048.494,0,.738.048.494.064.982.393,1.455.228" transform="translate(-507.588 -226.672)" fill="#d3dae1"/>
      <path id="Path_1115" data-name="Path 1115" d="M1021.34,445.087c.393-.17.818.149,1.243.234.245.042.494,0,.738.042.494.069.983.4,1.455.234" transform="translate(-507.129 -226.939)" fill="#d3dae1"/>
      <path id="Path_1116" data-name="Path 1116" d="M1019.08,446.227c.4-.17.823.149,1.248.229.239.048.494,0,.733.048.5.069.987.4,1.455.228" transform="translate(-506.069 -227.474)" fill="#d3dae1"/>
      <path id="Path_1117" data-name="Path 1117" d="M875.124,398.21l10.074.664-16.7,5-8.5-.616Z" transform="translate(-402.734 -186.016)" opacity="0.1"/>
      <path id="Path_1118" data-name="Path 1118" d="M875.124,397.39l10.074.658-16.7,5-8.5-.611Z" transform="translate(-402.734 -185.631)" fill="#fff"/>
      <path id="Path_1119" data-name="Path 1119" d="M940.32,435.187c.4-.17.817.149,1.243.234.244.042.494,0,.738.042.494.069.982.4,1.455.234" transform="translate(-469.135 -222.296)" fill="#d3dae1"/>
      <path id="Path_1120" data-name="Path 1120" d="M939.34,435.757c.393-.17.818.149,1.243.228.244.048.494,0,.738.048.494.069.983.4,1.455.228" transform="translate(-468.676 -222.564)" fill="#d3dae1"/>
      <path id="Path_1121" data-name="Path 1121" d="M937.08,436.887c.4-.17.823.154,1.248.234.239.048.495,0,.733.048.5.064.987.4,1.455.228" transform="translate(-467.616 -223.094)" fill="#d3dae1"/>
      <path id="Path_1122" data-name="Path 1122" d="M914.455,402.88l10.079.658-16.7,5-8.508-.616Z" transform="translate(-421.177 -188.205)" opacity="0.1"/>
      <path id="Path_1123" data-name="Path 1123" d="M914.455,402.06l10.079.658-16.7,5-8.508-.616Z" transform="translate(-421.177 -187.821)" fill="#fff"/>
      <path id="Path_1124" data-name="Path 1124" d="M979.65,439.856c.4-.17.823.149,1.248.228.239.048.489,0,.733.048.494.064.988.4,1.455.228" transform="translate(-487.579 -224.486)" fill="#d3dae1"/>
      <path id="Path_1125" data-name="Path 1125" d="M978.67,440.417c.4-.17.823.154,1.248.234.239.048.488,0,.733.048.494.064.988.4,1.455.228" transform="translate(-487.119 -224.75)" fill="#d3dae1"/>
      <path id="Path_1126" data-name="Path 1126" d="M976.42,441.557c.393-.17.818.149,1.243.234.245.042.494,0,.738.042.494.069.983.4,1.455.234" transform="translate(-486.064 -225.284)" fill="#d3dae1"/>
      <ellipse id="Ellipse_393" data-name="Ellipse 393" cx="107.528" cy="22.134" rx="107.528" ry="22.134" transform="translate(157.666 376.721)" fill="#6c63ff" opacity="0.1"/>
      <path id="Path_1127" data-name="Path 1127" d="M592.917,341.855a72.042,72.042,0,0,0-5.687-19.7l.345-3.4s.074-1.7-.037-4.248a19.338,19.338,0,0,1,.621-4.716c.929-2.947-1.163-6.569-1.4-6.9s.117-6.8-1.975-9.968-16.027-9.065-16.027-9.065-.749-1.567-1.806-3.4l.1-.186a19.966,19.966,0,0,0-3.186-4.3c-.855-.913-1.678-1.434-2.342-1.179a19.084,19.084,0,0,1-.616-2.692c.138.037.281.074.419.1a4.334,4.334,0,0,0,1.753.042,5.207,5.207,0,0,0,2.878-2.549c3.6-5.47,6.7-11.471,7.334-17.944a11.414,11.414,0,0,0-.186-3.962,13.375,13.375,0,0,0-1.243-2.894,23.272,23.272,0,0,0-3.5-5.167,19.966,19.966,0,0,0-9.416-5.157,32.594,32.594,0,0,0-12.161-.908c-1.062.122-2.124.3-3.186.366a33.1,33.1,0,0,1-4.041-.069l-6.952-.4-.032-.106-1.158-.069a2.93,2.93,0,0,0,.568,2.836,4.841,4.841,0,0,1,1.174,2.74,5.6,5.6,0,0,1-1.344,2.655c-.568.844-1,1.949-.43,2.777a1.6,1.6,0,0,0,.281.308,3.5,3.5,0,0,0,2.554.68h.159a17.3,17.3,0,0,0-3.521,10.473,17.61,17.61,0,0,0,9.607,15.6c.1.345.2.7.3,1.062A32.536,32.536,0,0,1,541.873,284l-.122.266-.074-.281s-8.189,5.555-10.621,7.026-4.875,6.458-4.992,7.817-3.951,21.863-3.951,21.863a50.244,50.244,0,0,0-1.922,6.33l-4.891,4.3s-10.09.908-13.011.228l.085.563a44.128,44.128,0,0,0-7.838-1.062,8.312,8.312,0,0,0-4.249.568l-.1.048-.08.037a16.828,16.828,0,0,0-4.461,1.253c-.17.069-.324.138-.473.207l.032-.7-10.918-.563-5.576-1.131s-1.976-1.593-3.139-1.359-3.6-1.359-3.6-1.359a9.733,9.733,0,0,0-1.795-1.115c-.186-1.285-.3-2.066-.3-2.066s-4.339-17.217-7.589-27.339c-2.177-6.76-5.311-10.09-7.159-11.54-.823-1.434-1.365-2.358-1.365-2.358-.356-1.243-2.31-4.041-2.809-4.11-.08-.127-.138-.191-.17-.191a.621.621,0,0,0-.313.048c-.913-4.546-1.444-10.244-.048-15.209a16.787,16.787,0,0,0,6.128-12.937v-.451A16.712,16.712,0,0,0,442.6,240l-.181-.2a1.413,1.413,0,0,0,.138-.112,2.845,2.845,0,0,0,1-2.74,18.773,18.773,0,0,0-1.444-2.788,18.038,18.038,0,0,1-.589-2.273,7.01,7.01,0,0,0-1.673-2.915l.079.212a10.09,10.09,0,0,0-8.884-2.984c-2.4.382-4.626,1.5-7.031,1.843-1.726.244-3.484.085-5.22.26a13.548,13.548,0,0,0-4.631,1.338,2.655,2.655,0,0,0-.983.722,3.883,3.883,0,0,0-.488,1.365c-.59,2.151-2.459,3.685-3.813,5.48a12.826,12.826,0,0,0-2.57,7.084,5.551,5.551,0,0,0,.186,1.938c.117.377.3.733.382,1.115.265,1.168-.345,2.331-.643,3.489a6.792,6.792,0,0,0,.377,4.429c2.1,4.695,8.985,6.261,10.419,11.189a13.707,13.707,0,0,0,3.447,1.062c.1.489.181.982.25,1.482a.4.4,0,0,0-.09.053c-1.859,1.811-2.321,5.311-2.321,5.311l-.223.181c-.759.627-3.356,2.73-5.7,4.349-2.788,1.928-7.435,8.385-10.685,10.313s-5.927,13.807-5.226,18.125,3.6,16.426,2.438,20.844,1.742,24.583,1.742,24.583a29.683,29.683,0,0,1,5.693,1.689l-.058.881-.175,2.655s-5.263,19.033-3.25,33.685-.929,16.16-.929,16.16.616,6.495-.929,8.762-1.859,7.249-1.859,7.249-.154,11.179.154,14.339.462,8.916-.621,10.276-3.1,10.265-2.942,12.984-3.871,8.916-1.7,16.919-6.373,8.157-6.373,8.157,1.089,12.214,3.409,15.709l.34.5c-.058.2-.117.414-.18.643-.876,3.186-2.077,8.215-1.243,9.431,1.237,1.816,1.859,1.508,1.859,1.508l.462,8.157s9.293,7.854,16.42,7.557,5.73-7.557,5.73-7.557l-6.07-15.74-.207-.531,6.745-12.745s1.859-5.587,2.321-7.552,2.984-8.927,2.984-8.927,6.373-15.1,6.505-16.919.621-11.625,1.859-13.595,4.647-13.277,4.647-13.277l.085.074a4.476,4.476,0,0,1,1.158,4.456c-.781,2.868-.313,8.757-.313,8.757a59.551,59.551,0,0,1-.929,7.557c-.621,2.57-.77,23.563.313,28.544.866,3.988.839,11.455.8,14.28-.728,3-1.365,6.728-.181,7.169,2.018.759,12.241.605,12.241.605s4.333-1.513,10.223,3.776,24-1.508,24-1.508,5.576-1.514-5.422-5.889c-7.674-3.054-12.628-5.087-15.868-7.265.074-.143.154-.287.223-.441,0,0-4.493-4.248-.775-11.779a32.8,32.8,0,0,0,3.563-13.9l.621-25.379-1.859-33.69-1.439-35.358.255-.085c.244,6.5,1.513,21.975,8.157,18.975,8.364-3.776,1.237-13.595,1.237-13.595l-3.755-7.318,1.121-.382-4.2-13.574a30.622,30.622,0,0,1-.159-8,31.7,31.7,0,0,0-.1-4.673c5.5-.961,10.77-1.981,11.715-1.747,1.115.271,7.355.324,9.809.335-.8.627-1.444,1.248-1.444,1.248l9.989,6.723s3.388-1.853,4.094-3.818a4.409,4.409,0,0,0,1.869-1c.106,2.321.722,4.832,2.868,4.891a3.715,3.715,0,0,0,1.561-.308l16.335-3.234-1.4,8.757.977,1.737c-.494,7.387-1.062,15.231-1.561,22.129l-.228,1.508.117.027c-.775,10.621-1.4,18.667-1.4,18.667a9.786,9.786,0,0,1,4.073-4.094l.106,15.762s.818,24.922.818,28.321.111,10.987.111,10.987,1.747,9.288,2.788,12.347,1.859,16.994,1.859,16.994,2.443,3.85,1.4,5.311,4.068,4.641,4.068,4.641-3.255,4.418-3.489,7.366c-.026.34.308.7.913,1.062-.191.154-.387.308-.605.457a10.609,10.609,0,0,1-7.042,1.423c-9.065-.8-15.454,7.589-9.878,9.288s22.3,2.039,22.3,2.039,5.066-3.16,9.028-1.737c-.058,3.324.106,6.373.133,6.776l-.048.037c-2.369,2.124-6.9,5.778-11.333,7.27-6.372,2.151-7.785,10.876.462,12.007s20.329-1.36,20.329-1.36,6.272-4.641,11.035-5.661,8.832-3.287,8.019-6.006c-.531-1.737-1.9-6.288-2.82-9.347q-.08-.276-.159-.531c.143-.319.287-.648.419-.988,0,0-2.437-12.687-.462-15.857s.93-34.9.93-34.9-3.372-8.04-1.625-12.91-2.788-11.784-2.788-11.784.494-13.855,1.821-21.577q.09-.494.175-.956a43.51,43.51,0,0,0,6.479-2.5s1.163-17.45,1.859-21.412c.069-.372.165-.972.282-1.752l.531-2.8h0l.627-3.186h0l2.124-10.86,3.834-4.96,9.877-10.09S594.08,351.94,592.917,341.855ZM440.59,279.546l-.074.053a.883.883,0,0,1-.027-.117A.484.484,0,0,0,440.59,279.546Zm97.592,12.368-.382.834,1.4-1.391-1.9,2.124.637-1.338ZM528.75,311.4c-.367.972-.759,2.023-1.168,3.117l.749-2.236Z" transform="translate(-209.973 -124.26)" fill="url(#linear-gradient)"/>
      <path id="Path_1128" data-name="Path 1128" d="M595.756,443.63s-1.3,8.662,2.6,8.773,6.51-6.681,6.51-6.681l-1.593-5.433Z" transform="translate(-307.456 -224.713)" fill="#585b8a"/>
      <path id="Path_1129" data-name="Path 1129" d="M595.756,443.63s-1.3,8.662,2.6,8.773,6.51-6.681,6.51-6.681l-1.593-5.433Z" transform="translate(-307.456 -224.713)" opacity="0.2"/>
      <path id="Path_1130" data-name="Path 1130" d="M414.936,773.758c-6.946.3-16.006-7.546-16.006-7.546l-.451-8.152s-.6.3-1.811-1.508c-.812-1.216.356-6.256,1.211-9.426.414-1.55.754-2.655.754-2.655l15.241,4.078.727,1.928,5.916,15.73S421.877,773.455,414.936,773.758Z" transform="translate(-214.063 -367.356)" fill="#636992"/>
      <path id="Path_1131" data-name="Path 1131" d="M522.651,740.835s-17.658,6.792-23.367,1.508-9.963-3.776-9.963-3.776-9.963.154-11.927-.605c-1.158-.441-.531-4.217.191-7.222.489-2.077,1.02-3.792,1.02-3.792s17.355-5.889,20.074-2.268a13,13,0,0,0,2.894,2.761c3.144,2.273,8.056,4.333,15.825,7.5C528.083,739.322,522.651,740.835,522.651,740.835Z" transform="translate(-251.748 -357.524)" fill="#636992"/>
      <path id="Path_1132" data-name="Path 1132" d="M529.476,496.35l4.827,9.66s6.946,9.814-1.205,13.584-8-21.731-8-21.731Z" transform="translate(-274.42 -251.002)" fill="#ffd6d6"/>
      <path id="Path_1133" data-name="Path 1133" d="M495.25,338.61s5.284,2.416,8.454,12.528,7.4,27.323,7.4,27.323,2.868,19.469,2.411,24.3a31.323,31.323,0,0,0,.154,8l4.073,13.585-8.152,2.868-12.528-48Z" transform="translate(-260.422 -177.03)" fill="#dce6f2"/>
      <path id="Path_1134" data-name="Path 1134" d="M495.25,338.61s5.284,2.416,8.454,12.528,7.4,27.323,7.4,27.323,2.868,19.469,2.411,24.3a31.323,31.323,0,0,0,.154,8l4.073,13.585-8.152,2.868-12.528-48Z" transform="translate(-260.422 -177.03)" opacity="0.05"/>
      <path id="Path_1135" data-name="Path 1135" d="M415.171,748.563l.728,1.928-.892,1.7c-3.473,1.508-12.076.3-12.076.3s-1.593-2.024-3.771-5.353c.414-1.551.754-2.655.754-2.655Z" transform="translate(-215.361 -367.366)" opacity="0.1"/>
      <path id="Path_1136" data-name="Path 1136" d="M502.818,728.153c-4.4,9.973-19.367,6.272-23.526,5.024-.685-.207-1.062-.345-1.062-.345s.027-.813.037-2.092c.489-2.077,1.02-3.792,1.02-3.792s17.355-5.889,20.074-2.268a13.032,13.032,0,0,0,2.894,2.762A5.156,5.156,0,0,0,502.818,728.153Z" transform="translate(-252.44 -357.524)" opacity="0.1"/>
      <path id="Path_1137" data-name="Path 1137" d="M461.912,592.291c-3.622,7.541.759,11.773.759,11.773-4.4,9.968-19.368,6.272-23.526,5.018-.685-.2-1.062-.34-1.062-.34s.3-10.419-.754-15.4-.908-25.958-.3-28.523a60.7,60.7,0,0,0,.9-7.551s-.451-5.884.3-8.752a4.52,4.52,0,0,0-1.126-4.45l-.08-.079s-3.319,11.322-4.53,13.276-1.657,11.773-1.811,13.585-6.341,16.909-6.341,16.909-2.411,6.941-2.862,8.9-2.268,7.551-2.268,7.551l-7.275,14.041c-3.473,1.508-12.076.3-12.076.3s-1.657-2.124-3.925-5.587-3.319-15.693-3.319-15.693,8.3-.154,6.187-8.152,1.811-14.19,1.662-16.909,1.811-11.62,2.868-12.979.9-7.095.6-10.265-.149-14.338-.149-14.338.3-4.981,1.811-7.243.908-8.757.908-8.757,2.862-1.508.9-16.149,3.186-33.658,3.186-33.658l.175-2.656.276-4.3s43.17-2.719,46.643.6a11.452,11.452,0,0,1,2.2,3.16,31.445,31.445,0,0,1,2.5,8.035l1.811,45.734,1.811,33.659-.606,25.358A33.712,33.712,0,0,1,461.912,592.291Z" transform="translate(-212.294 -234.338)" fill="#565988"/>
      <path id="Path_1138" data-name="Path 1138" d="M487.909,538.42l-4.53,98.107-5.438,8.943c-.685-.2-1.062-.34-1.062-.34s.3-10.419-.754-15.4-.908-25.958-.3-28.523a60.727,60.727,0,0,0,.9-7.552s-.451-5.884.3-8.752a4.519,4.519,0,0,0-1.126-4.45l.074-.531Z" transform="translate(-251.089 -270.73)" opacity="0.1"/>
      <path id="Path_1139" data-name="Path 1139" d="M406.877,733.737s11.773-4.679,13.585-3.186-13.882,3.771-13.882,3.771Z" transform="translate(-218.841 -360.691)" opacity="0.1"/>
      <path id="Path_1140" data-name="Path 1140" d="M506.915,713.5c-.452.154-11.922,4.249-10.865,8.6S506.915,713.5,506.915,713.5Z" transform="translate(-260.764 -352.833)" opacity="0.1"/>
      <path id="Path_1141" data-name="Path 1141" d="M449.07,288.089s3.845,9.283,1.811,14.041,21.959,12.9,21.959,12.9-7.015-18.114-.223-28.305S449.07,288.089,449.07,288.089Z" transform="translate(-238.766 -150.731)" fill="#ffd6d6"/>
      <path id="Path_1142" data-name="Path 1142" d="M681.69,782.834c-4.641,1.02-10.754,5.661-10.754,5.661s-11.773,2.49-19.813,1.36-6.675-9.851-.451-12c4.317-1.487,8.741-5.157,11.051-7.26,1.019-.94,1.625-1.594,1.625-1.594l22.533-4.53s.367,1.259.876,3c.9,3.064,2.236,7.61,2.745,9.341C690.293,779.552,686.331,781.814,681.69,782.834Z" transform="translate(-330.901 -376.735)" fill="#505484"/>
      <path id="Path_1143" data-name="Path 1143" d="M661.357,751.11s-9.511,1.02-13.473-1.243-9.623,1.36-9.623,1.36-16.3-.34-21.736-2.039.791-10.09,9.623-9.283a10.143,10.143,0,0,0,6.866-1.423A7.234,7.234,0,0,0,636,734l19.118,1.131,2.655,6.776Z" transform="translate(-316.34 -362.446)" fill="#505484"/>
      <path id="Path_1144" data-name="Path 1144" d="M674.425,745s-22.219-3.632-25.055-6.516A7.232,7.232,0,0,0,652.36,734l19.118,1.131,2.655,6.776Z" transform="translate(-332.695 -362.446)" opacity="0.1"/>
      <path id="Path_1145" data-name="Path 1145" d="M634.52,514.031l.228,33.165s.792,24.906.792,28.305.111,10.977.111,10.977,1.7,9.283,2.719,12.342,1.811,16.994,1.811,16.994,2.379,3.85,1.36,5.31,3.961,4.641,3.961,4.641-3.186,4.419-3.393,7.361,25.352,7.121,25.352,7.121L657.5,538.141l-7.929-25.581Z" transform="translate(-325.732 -258.603)" fill="#575988"/>
      <path id="Path_1146" data-name="Path 1146" d="M634.52,514.031l.228,33.165s.792,24.906.792,28.305.111,10.977.111,10.977,1.7,9.283,2.719,12.342,1.811,16.994,1.811,16.994,2.379,3.85,1.36,5.31,3.961,4.641,3.961,4.641-3.186,4.419-3.393,7.361,25.352,7.121,25.352,7.121L657.5,538.141l-7.929-25.581Z" transform="translate(-325.732 -258.603)" opacity="0.1"/>
      <path id="Path_1147" data-name="Path 1147" d="M701.044,767.491c-7.4,17.637-24.991,4.025-24.991,4.025s0-.34-.043-.924c1.02-.94,1.625-1.594,1.625-1.594l22.533-4.53S700.534,765.755,701.044,767.491Z" transform="translate(-345.188 -376.735)" opacity="0.1"/>
      <path id="Path_1148" data-name="Path 1148" d="M685.931,644.553c-7.249,18.587-25.246,4.641-25.246,4.641s-.568-9.623.568-14.036-1.248-17.663-1.248-17.663-1.36-11.773-2.6-14.487-1.131-8.152-1.131-8.6.452-4.078-.568-6.569-1.593-8.6-1.593-8.6,0-8.6-1.02-13.7l-3.51-17.525-6.341-35.889,1.98-.34,35.491-6.224s6.681,33.987,4.413,37.471a14.608,14.608,0,0,0-1.274,4.594c-1.3,7.711-1.779,21.556-1.779,21.556s4.413,6.9,2.719,11.773,1.593,12.9,1.593,12.9,1.02,31.7-.908,34.869S685.931,644.553,685.931,644.553Z" transform="translate(-329.821 -255.321)" fill="#575988"/>
      <path id="Path_1149" data-name="Path 1149" d="M693.886,310.985s-32.15,22.639-24.906,11.317c3.9-6.1,3.186-13.86,1.657-19.723a46.509,46.509,0,0,0-3.186-8.651s27.318-11.619,23.7-1.206a19.519,19.519,0,0,0-1.062,7.562A20.183,20.183,0,0,0,693.886,310.985Z" transform="translate(-341.174 -153.478)" fill="#d28690"/>
      <path id="Path_1150" data-name="Path 1150" d="M593.543,427.01s-13.584-3.925-15.847-.074.68,12.3,4.779,13.659,13.51-4.6,13.51-4.6Z" transform="translate(-298.716 -217.657)" fill="#d28690"/>
      <path id="Path_1151" data-name="Path 1151" d="M620.313,416l-5.661,5.21s-9.851.9-12.682.223c0,0,2.608,17.434-1.131,19.585l22.867-4.641Z" transform="translate(-309.938 -213.322)" fill="#585b8a"/>
      <path id="Path_1152" data-name="Path 1152" d="M620.313,416l-5.661,5.21s-9.851.9-12.682.223c0,0,2.608,17.434-1.131,19.585l22.867-4.641Z" transform="translate(-309.938 -213.322)" opacity="0.1"/>
      <path id="Path_1153" data-name="Path 1153" d="M470.626,259.491a16.994,16.994,0,0,1-16.994,16.994c-8.72-4.19-16.994-7.6-16.994-16.994a16.994,16.994,0,1,1,33.961,0Z" transform="translate(-232.93 -131.644)" opacity="0.1"/>
      <path id="Path_1154" data-name="Path 1154" d="M470.692,259.261a16.962,16.962,0,1,1-3.845-10.743A16.962,16.962,0,0,1,470.692,259.261Z" transform="translate(-232.996 -131.87)" fill="#ffd6d6"/>
      <path id="Path_1155" data-name="Path 1155" d="M475.932,465.654a38.417,38.417,0,0,1-5.263,2.73s-8.6-1.248-9.846.223-12.214,2.039-12.214,2.039-16.755-.791-19.245-2.942a10.192,10.192,0,0,0-2.544-1.508l.276-4.3s43.169-2.719,46.643.6A11.456,11.456,0,0,1,475.932,465.654Z" transform="translate(-228.332 -234.352)" opacity="0.1"/>
      <path id="Path_1156" data-name="Path 1156" d="M469.483,391.04c-.34,1.922-7.36,4.864-7.36,4.864s-8.6-1.243-9.846.228-12.214,2.039-12.214,2.039-16.755-.8-19.245-2.948-8.04-3.186-8.04-3.186-2.831-20.148-1.694-24.561-1.7-16.532-2.379-20.833,1.922-16.186,5.093-18.109,7.7-8.38,10.414-10.3c2.289-1.62,4.817-3.717,5.555-4.349l.218-.181s.456-3.51,2.268-5.31S450.7,319.825,450.7,319.825s.117,1.02,1.248-.9c.255-.43,2.448,2.735,2.831,4.073,0,0,9.054,15.852,9.623,19.118s2.942,13.924,3.393,16.526c.117.669.308,3.016.531,6.16.042.616.08,1.269.127,1.949.335,5.215.7,11.874.913,16.909,0,.574.048,1.126.064,1.657A56.39,56.39,0,0,1,469.483,391.04Z" transform="translate(-219.785 -162.781)" fill="#dce6f2"/>
      <path id="Path_1157" data-name="Path 1157" d="M415,387.21s6.224,7.584,8.263,7.584S415,387.21,415,387.21Z" transform="translate(-222.789 -199.821)" opacity="0.1"/>
      <path id="Path_1158" data-name="Path 1158" d="M431.781,417.91S421.59,429,422.95,431.043,431.781,417.91,431.781,417.91Z" transform="translate(-226.458 -214.218)" opacity="0.1"/>
      <path id="Path_1159" data-name="Path 1159" d="M425.62,444.286s11.683-12.793,12.214-17.206Z" transform="translate(-227.769 -218.518)" opacity="0.1"/>
      <path id="Path_1160" data-name="Path 1160" d="M453.33,448.93s13.473-7.132,14.6-12.793S453.33,448.93,453.33,448.93Z" transform="translate(-240.764 -222.259)" opacity="0.1"/>
      <path id="Path_1161" data-name="Path 1161" d="M483.869,330.276,482,334.8l3.112,1.471,3.059,8.55s8.433,16.866,8.093,25.639,1.53,21.959,1.53,21.959l4.864-.9-2.294-25.8a37.222,37.222,0,0,0-2.963-11.582c-3.887-8.9-11.12-25.331-11.577-25.331-.621,0-.186.228-.186.228Z" transform="translate(-254.208 -172.43)" opacity="0.1"/>
      <path id="Path_1162" data-name="Path 1162" d="M484.719,329.421l-1.869,4.53,3.117,1.471,3.054,8.55s8.433,16.866,8.093,25.639,1.529,21.959,1.529,21.959l4.87-.9-2.3-25.8a37.073,37.073,0,0,0-2.958-11.582c-3.887-8.906-11.12-25.331-11.572-25.331-.627,0-.191.228-.191.228Z" transform="translate(-254.607 -172.031)" fill="#575989"/>
      <path id="Path_1163" data-name="Path 1163" d="M580.234,442.083c-2.369-.181-8.051-3.054-10.308-4.248l-.956-.531.117-8.768a15.408,15.408,0,0,1,1.731-.876c3.016-1.317,9.2-3.107,12.3,2.655C587.307,438.041,583.234,442.284,580.234,442.083Z" transform="translate(-294.992 -218.163)" fill="#ffd6d6"/>
      <path id="Path_1164" data-name="Path 1164" d="M466.766,248.467a2.511,2.511,0,0,1-.791.324c-1.97.43-4.211-1.264-5.9-.175-1.03.669-1.269,2.055-1.407,3.277q-.361,3.186-.722,6.33a7.807,7.807,0,0,1-.468,2.183c-.834,1.906-3.123,2.8-5.21,2.772a3.107,3.107,0,0,1-2.246-.743c-.366-.372-.563-.892-.967-1.232-2.655-2.225-3.462,3.229-2.762,4.779,1.126,2.533,5.125,4.976,3.447,8.194a3.071,3.071,0,0,1-1.232,1.237,16.994,16.994,0,1,1,18.258-26.946Z" transform="translate(-232.915 -131.82)" opacity="0.1"/>
      <path id="Path_1165" data-name="Path 1165" d="M443.778,254.4c.4.335.6.855.966,1.227a3.112,3.112,0,0,0,2.246.743c2.087.032,4.376-.86,5.2-2.777a7.573,7.573,0,0,0,.473-2.177l.722-6.33c.138-1.221.372-2.607,1.407-3.277,1.689-1.062,3.93.605,5.9.175a2.884,2.884,0,0,0,2.124-3.324,18.69,18.69,0,0,0-1.4-2.783,18.182,18.182,0,0,1-.579-2.268c-1.1-4.121-5.937-6.436-10.143-5.746-2.337.388-4.509,1.5-6.851,1.843-1.678.244-3.394.085-5.088.266a12.841,12.841,0,0,0-4.514,1.333,2.622,2.622,0,0,0-.956.722,3.981,3.981,0,0,0-.478,1.359c-.569,2.124-2.4,3.691-3.718,5.48a13.059,13.059,0,0,0-2.517,7.068,5.668,5.668,0,0,0,.18,1.938c.112.372.287.733.372,1.115.26,1.163-.335,2.326-.627,3.484a6.967,6.967,0,0,0,.372,4.429c2.039,4.689,8.757,6.256,10.154,11.179a11.155,11.155,0,0,0,3.951,1.062,3.811,3.811,0,0,0,3.484-1.779c1.673-3.186-2.321-5.661-3.447-8.189C440.31,257.618,441.1,252.17,443.778,254.4Z" transform="translate(-228.089 -125.04)" fill="#353045"/>
      <path id="Path_1166" data-name="Path 1166" d="M691.191,292.722a19.511,19.511,0,0,0-1.062,7.562c-.818.7-1.71-1.386-2.655-.85-2.592,1.5-5.587,5.061-8.794,5.061a17.612,17.612,0,0,1-8-1.917,46.547,46.547,0,0,0-3.186-8.651S694.812,282.308,691.191,292.722Z" transform="translate(-341.193 -153.478)" opacity="0.1"/>
      <path id="Path_1167" data-name="Path 1167" d="M690.585,268.163A17.663,17.663,0,1,1,672.923,250.5,17.662,17.662,0,0,1,690.585,268.163Z" transform="translate(-335.458 -135.712)" fill="#d28690"/>
      <path id="Path_1168" data-name="Path 1168" d="M681.836,329.533s-3.325,3.622-3.776,3.919-10.09,40.891-10.26,41.364-11.476,37.126-11.476,37.126l-18.114,8.906,1.514-44.832L653,339.044s4.381-4.981,5.736-6.792S677,319.57,677,319.57l2.889,5.953Z" transform="translate(-327.462 -168.102)" fill="#f0f3f7"/>
      <path id="Path_1169" data-name="Path 1169" d="M697.163,327.233l-20.828,14.912L676,333.956c1.36-1.811,18.263-12.676,18.263-12.676Z" transform="translate(-345.184 -168.904)" opacity="0.1"/>
      <path id="Path_1170" data-name="Path 1170" d="M698.022,325.523l-20.828,14.912-.324-8.184c1.36-1.816,18.263-12.681,18.263-12.681Z" transform="translate(-345.591 -168.102)" fill="#f0f3f7"/>
      <path id="Path_1171" data-name="Path 1171" d="M652.905,336.59l.7,3.643-4.657,4.732,3.718-8.322s-7.966,5.55-10.356,7.021-4.779,6.452-4.87,7.812-3.85,21.848-3.85,21.848-2.831,7.583-2.034,9.734-4.3,69.961-4.3,69.961a10.089,10.089,0,0,1,6.808-5.22l-1.816-40.073s2.209-26.659,2.321-27,5.151-15.794,5.151-15.794Z" transform="translate(-322.323 -176.083)" fill="#585b8a"/>
      <path id="Path_1172" data-name="Path 1172" d="M656.285,344.3l-.361,7.435s-5.04,15.905-6.734,18.507-6.851,18.114-6.851,18.114L639.435,415.3l-4.981,2.268L632,413.05l4.079-26.022s7.7-21.959,8.831-24.227l5.677-11.959Z" transform="translate(-324.55 -179.699)" opacity="0.1"/>
      <path id="Path_1173" data-name="Path 1173" d="M655.411,343.45l-.356,7.435s-5.039,15.905-6.739,18.507-6.845,18.114-6.845,18.114l-2.889,26.941-4.981,2.262-2.491-4.525,4.079-26.021s7.7-21.965,8.826-24.227l5.719-11.943Z" transform="translate(-324.133 -179.3)" fill="#663d5c"/>
      <path id="Path_1174" data-name="Path 1174" d="M566.31,448.129l9.734,6.739s6.867-3.85,2.867-6.341a17.729,17.729,0,0,0-8.831-2.868C568.8,445.66,566.31,448.129,566.31,448.129Z" transform="translate(-293.745 -227.231)" fill="#d28690"/>
      <path id="Path_1175" data-name="Path 1175" d="M579.376,426.059a1.5,1.5,0,0,0-.707,1.28c0,2.066.234,7.536,1.965,5.066,2.124-3.022,1.736-5.735,4.981-3.776a19.121,19.121,0,0,1,5.2,4.779l-.9-6.489S583.248,423.627,579.376,426.059Z" transform="translate(-299.541 -217.619)" fill="#d28690"/>
      <path id="Path_1176" data-name="Path 1176" d="M686.646,542.991a14.611,14.611,0,0,0-1.275,4.593C665.52,553.538,651,540.952,651,540.952a173.2,173.2,0,0,1-4.3-18.109,59.016,59.016,0,0,1,.053-11.1l35.491-6.224S688.914,539.481,686.646,542.991Z" transform="translate(-331.332 -255.302)" opacity="0.1"/>
      <path id="Path_1177" data-name="Path 1177" d="M707,354.34c-.9,2.947-.563,8.943-.563,8.943l-8.152,38.491s-3.962,29.659-4.642,33.621-1.811,21.4-1.811,21.4c-23.1,11.322-40.891-4.073-40.891-4.073a173.722,173.722,0,0,1-4.3-18.114c-1.136-6.723,2.21-33.658,3.792-45.623.473-3.542.791-5.773.791-5.773l5.943-22.076s7.3-18.624,10.021-24.057,13.637-17.636,13.637-17.636c1.354-.86,3.521,2.177,5.13,4.944,1.216,2.092,2.124,4.036,2.124,4.036s13.585,5.884,15.618,9.028,1.7,9.623,1.928,9.963S707.9,351.4,707,354.34Z" transform="translate(-331.305 -167.971)" fill="#585b8a"/>
      <path id="Path_1178" data-name="Path 1178" d="M678.932,341.042s1.02,6-1.593,7.812c-2.523,1.752-21.3,38.677-22.469,40.982.473-3.547.791-5.778.791-5.778l5.942-22.071s7.308-18.624,10.021-24.062,13.643-17.637,13.643-17.637c1.354-.86,3.516,2.177,5.125,4.944C687.965,330.273,682.9,339.8,678.932,341.042Z" transform="translate(-335.275 -168.369)" opacity="0.1"/>
      <path id="Path_1179" data-name="Path 1179" d="M678.073,340.192s1.014,6-1.593,7.812-21.3,38.672-22.48,40.976c.473-3.542.792-5.772.792-5.772l5.942-22.076s7.3-18.624,10.021-24.057,13.638-17.636,13.638-17.636c1.354-.86,3.521,2.177,5.13,4.944C687.106,329.417,682.04,338.95,678.073,340.192Z" transform="translate(-334.867 -167.97)" fill="#585b8a"/>
      <path id="Path_1180" data-name="Path 1180" d="M639.47,415.952l-6.388,33.239v.005l-.611,3.181v.005l-1.375,7.153-5.868-1.243-2.735-.579L584.644,449.7l-2.783-.59-6.351-1.344,1.243-8.253.515-3.431,4.583-30.429Z" transform="translate(-269.324 -189.504)" fill="#6c63ff"/>
      <path id="Path_1181" data-name="Path 1181" d="M672.74,511.92s-15.056,5.433-11.774,11.885,24.338-4.981,24.338-4.981Z" transform="translate(-337.914 -258.303)" fill="#d28690"/>
      <path id="Path_1182" data-name="Path 1182" d="M703.8,599.1c0,.451.569,6.229,2.831,8.263S703.8,599.1,703.8,599.1Z" transform="translate(-358.22 -299.186)" opacity="0.1"/>
      <path id="Path_1183" data-name="Path 1183" d="M675.24,637.68s2.714,7.472,13.468,10.531S675.24,637.68,675.24,637.68Z" transform="translate(-344.827 -317.278)" opacity="0.1"/>
      <path id="Path_1184" data-name="Path 1184" d="M693.62,268.2a17.657,17.657,0,0,1-8.853,15.31,9.4,9.4,0,0,1-2.655-2.215,3.431,3.431,0,0,1-.908-3.324c.372-.9,1.354-1.466,1.593-2.395a3.527,3.527,0,0,0-.085-1.71c-.2-.876-.382-1.752-.573-2.623-.164-.743-.457-1.62-1.195-1.8s-1.354.435-1.933.892c-1.418,1.121-4.137,1.88-5.842.961s-1.227-3.993-1.5-5.656a.989.989,0,0,0-.372-.749,1.55,1.55,0,0,0-.77-.053,2.218,2.218,0,0,1-1.922-1.7,14.676,14.676,0,0,1-.308-2.735,3.051,3.051,0,0,0-1.221-2.363,3.776,3.776,0,0,0-2.013-.329l-3.33.037a17.663,17.663,0,0,1,31.863,10.473Z" transform="translate(-338.492 -135.752)" opacity="0.1"/>
      <path id="Path_1185" data-name="Path 1185" d="M676.759,266.133c.579-.457,1.216-1.062,1.933-.887s1.025,1.062,1.19,1.795l.573,2.618a3.557,3.557,0,0,1,.091,1.715c-.271.935-1.248,1.5-1.625,2.4a3.432,3.432,0,0,0,.908,3.319,9.559,9.559,0,0,0,5.464,3.266,4.013,4.013,0,0,0,1.7.037,5.045,5.045,0,0,0,2.8-2.544c3.51-5.47,6.532-11.465,7.148-17.934a11.5,11.5,0,0,0-.181-3.956,13.279,13.279,0,0,0-1.21-2.894,23.373,23.373,0,0,0-3.415-5.167,19.4,19.4,0,0,0-9.177-5.146,31.078,31.078,0,0,0-11.848-.929c-1.062.122-2.082.3-3.128.366a31.469,31.469,0,0,1-3.941-.064l-7.817-.467a3.036,3.036,0,0,0,.531,2.836,5.087,5.087,0,0,1,1.147,2.74,5.639,5.639,0,0,1-1.312,2.655c-.552.85-.972,1.949-.419,2.777s1.678.881,2.655.871l3.941-.042a3.763,3.763,0,0,1,2,.345A3.06,3.06,0,0,1,666,256.2a15.578,15.578,0,0,0,.308,2.735,2.21,2.21,0,0,0,1.922,1.7,1.433,1.433,0,0,1,.77.058.976.976,0,0,1,.372.743c.276,1.662-.234,4.732,1.5,5.656S675.341,267.254,676.759,266.133Z" transform="translate(-335.768 -131.547)" fill="#663d5c"/>
      <path id="Path_1186" data-name="Path 1186" d="M707.891,353.427a8.656,8.656,0,0,0-9.107,5.815c-2.125,6.049-5.667,16.962-4.78,21.274,1.248,6.113,2.719,16.3,2.719,16.3s6.453,3.717,3.187,7.467a21.146,21.146,0,0,0-4.19,9.06s-4.19,1.811-5.093,5.661-7.021,9.166-7.021,9.166l-9.166,9.171s15.167,15.4,18.226,16.187l9.394-10.982,11.094-14.715,9.623-10.09s2.263-5.311,1.132-15.4a73.717,73.717,0,0,0-5.55-19.7l.34-3.4S719.739,354.9,707.891,353.427Z" transform="translate(-344.452 -183.956)" opacity="0.1"/>
      <path id="Path_1187" data-name="Path 1187" d="M709.6,353.428a8.656,8.656,0,0,0-9.1,5.815c-2.124,6.049-5.667,16.962-4.78,21.274,1.243,6.113,2.714,16.3,2.714,16.3s6.452,3.717,3.186,7.467a21.107,21.107,0,0,0-4.185,9.06s-4.19,1.811-5.1,5.661-7.015,9.166-7.015,9.166l-9.171,9.171s15.167,15.4,18.226,16.187l9.395-10.982,11.067-14.716,9.623-10.09s2.267-5.311,1.131-15.4a74.015,74.015,0,0,0-5.544-19.7l.34-3.4S721.444,354.9,709.6,353.428Z" transform="translate(-345.254 -183.957)" fill="#585b8a"/>
      <path id="Path_1188" data-name="Path 1188" d="M721.28,418.34s9.623,11.768,13.7,9.166S721.28,418.34,721.28,418.34Z" transform="translate(-366.417 -214.419)" opacity="0.1"/>
      <path id="Path_1189" data-name="Path 1189" d="M728.1,401.28c1.02.34,9.4,12,13.7,10.621S728.1,401.28,728.1,401.28Z" transform="translate(-369.616 -206.419)" opacity="0.1"/>
      <path id="Path_1190" data-name="Path 1190" d="M732.58,439s.568,6.681,7.472,5.773S732.58,439,732.58,439Z" transform="translate(-371.716 -224.108)" opacity="0.1"/>
      <path id="Path_1191" data-name="Path 1191" d="M617.724,301.83l-3.734,8.322,4.663-4.732Z" transform="translate(-287.369 -140.819)" opacity="0.1"/>
      <path id="Path_1192" data-name="Path 1192" d="M617.724,300.98,613.99,309.3l4.663-4.732Z" transform="translate(-287.369 -140.42)" fill="#f0f3f7"/>
      <path id="Path_1193" data-name="Path 1193" d="M585.742,476.566l-2.783-.589-5.109-9.6.515-3.431Z" transform="translate(-270.421 -216.375)" opacity="0.3"/>
      <path id="Path_1194" data-name="Path 1194" d="M674.569,487.65l-.611,3.181v.005l-7.244,5.91-2.735-.579Z" transform="translate(-310.811 -227.958)" opacity="0.3"/>
      <path id="Path_1195" data-name="Path 1195" d="M474.867,402.169c-1.4.234-2.761.446-4,.606-6.9.908-23.324-7.244-23.324-7.244s-20.037-16.755-25.809-32.6,6.9-18.226,6.9-18.226c4.779-2.719,15.172,4.864,16.643,6.112a9.452,9.452,0,0,1,2.6,6.452c-.117,2.039,3.4,4.642,3.4,4.642s6,10.414,7.472,11.545,1.811,2.151,2.262,4.079,4.413,3.51,6.113,3.393,3.717.568,3.717,1.471c0,.728,1.662,1.089,3.027,1.205C474.272,389.408,474.67,397.013,474.867,402.169Z" transform="translate(-225.238 -179.614)" opacity="0.1"/>
      <path id="Path_1196" data-name="Path 1196" d="M475.6,398.914c-1.062.17-2.082.324-3.037.451-6.9.908-23.319-7.244-23.319-7.244s-20.037-16.755-25.809-32.6,6.9-18.226,6.9-18.226c4.78-2.719,15.167,4.865,16.638,6.112a9.483,9.483,0,0,1,2.607,6.452c-.111,2.039,3.394,4.641,3.394,4.641s6,10.414,7.472,11.545,1.811,2.151,2.268,4.078,4.413,3.505,6.112,3.394,3.717.568,3.717,1.471c0,.531.945.887,2,1.062.042.616.08,1.269.127,1.949C475.026,387.22,475.388,393.879,475.6,398.914Z" transform="translate(-226.04 -178.015)" opacity="0.1"/>
      <path id="Path_1197" data-name="Path 1197" d="M570.818,428.84l-.43,10.175h-.462l-.956-.531.117-8.768A15.474,15.474,0,0,1,570.818,428.84Z" transform="translate(-294.992 -219.343)" opacity="0.1"/>
      <path id="Path_1198" data-name="Path 1198" d="M428.633,343s-12.676,2.379-6.9,18.226,25.809,32.607,25.809,32.607,16.415,8.147,23.324,7.244,17.429-3.282,18.789-2.942,10.531.34,10.531.34l.451-10.621-10.621-.568-5.432-1.131s-1.928-1.593-3.059-1.36-3.505-1.36-3.505-1.36-1.816-1.471-3.186-1.471-3.961-.34-3.961-1.243-2.039-1.593-3.717-1.471-5.688-1.471-6.155-3.42-.791-2.942-2.262-4.073-7.472-11.55-7.472-11.55-3.51-2.6-3.4-4.636a9.5,9.5,0,0,0-2.6-6.458C443.79,347.86,433.381,340.282,428.633,343Z" transform="translate(-225.238 -178.814)" fill="#dce6f2"/>
      <path id="Path_1199" data-name="Path 1199" d="M494.078,412.15s-4.87,4.87-3.627,5.773Z" transform="translate(-258.076 -211.517)" opacity="0.1"/>
      <path id="Path_1200" data-name="Path 1200" d="M502.906,419.4s-6.341,4.87-4.641,5.21S502.906,419.4,502.906,419.4Z" transform="translate(-261.7 -214.916)" opacity="0.1"/>
      <path id="Path_1201" data-name="Path 1201" d="M487,433c.908.457,14.376,8.5,19.474,8.38Z" transform="translate(-256.553 -221.294)" opacity="0.1"/>
      <path id="Path_1202" data-name="Path 1202" d="M470.234,321.554s-2.379,7.812-3.287,7.812c-.712,0-12.66-9.676-17.647-13.744l.218-.18s.451-3.51,2.262-5.311S470.234,321.554,470.234,321.554Z" transform="translate(-238.874 -163.596)" opacity="0.1"/>
      <path id="Path_1203" data-name="Path 1203" d="M469.374,319.844s-2.374,7.812-3.282,7.812c-.717,0-12.666-9.676-17.652-13.744l.218-.18s.456-3.51,2.268-5.311S469.374,319.844,469.374,319.844Z" transform="translate(-238.47 -162.794)" fill="#dce6f2"/>
      <g id="Group_859" data-name="Group 859" transform="translate(198.844 105.596)" opacity="0.15">
        <path id="Path_1204" data-name="Path 1204" d="M427.49,282.54h0c1.593,3.638,5.98,5.4,8.523,8.3C434.5,287.277,430.076,285.53,427.49,282.54Z" transform="translate(-427.49 -256.332)"/>
        <path id="Path_1205" data-name="Path 1205" d="M451.9,295.61a3.816,3.816,0,0,1-3.484,1.779,10.166,10.166,0,0,1-3.494-.892,6.792,6.792,0,0,1,.9,1.922,11.1,11.1,0,0,0,3.951,1.062,3.779,3.779,0,0,0,3.484-1.779c1.014-1.939-.043-3.6-1.28-5.162A3.373,3.373,0,0,1,451.9,295.61Z" transform="translate(-435.664 -261.022)"/>
        <path id="Path_1206" data-name="Path 1206" d="M474.517,241.161a18.223,18.223,0,0,0-1.4-2.783,17.387,17.387,0,0,1-.579-2.273,7.041,7.041,0,0,0-1.63-2.916,6.745,6.745,0,0,1,.271.8,18.234,18.234,0,0,0,.595,2.284,18.206,18.206,0,0,1,1.4,2.783,2.884,2.884,0,0,1-2.124,3.324c-1.965.43-4.206-1.269-5.895-.175-1.036.664-1.275,2.05-1.413,3.271q-.356,3.186-.722,6.336a7.591,7.591,0,0,1-.468,2.177c-.834,1.912-3.123,2.809-5.21,2.778a3.128,3.128,0,0,1-2.241-.744,14.772,14.772,0,0,0-.972-1.232c-2.655-2.23-3.462,3.223-2.761,4.78a9.626,9.626,0,0,0,1.3,1.949c-.584-1.752.234-6.8,2.825-4.636a13.741,13.741,0,0,1,.967,1.232,3.149,3.149,0,0,0,2.246.743c2.087.032,4.376-.866,5.21-2.777a7.587,7.587,0,0,0,.467-2.183q.361-3.186.722-6.33c.138-1.221.377-2.608,1.407-3.271,1.694-1.094,3.935.605,5.9.17A2.878,2.878,0,0,0,474.517,241.161Z" transform="translate(-438.575 -233.19)"/>
      </g>
      <path id="Path_1207" data-name="Path 1207" d="M688.019,278.968a4.107,4.107,0,0,1-1.7-.042,9.562,9.562,0,0,1-5.46-3.261,3.42,3.42,0,0,1-.908-3.324c.372-.9,1.349-1.46,1.593-2.4a3.561,3.561,0,0,0-.09-1.715l-.574-2.618c-.164-.743-.451-1.62-1.189-1.8s-1.354.43-1.933.887c-1.418,1.121-4.142,1.885-5.841.961s-1.227-3.994-1.5-5.656a.993.993,0,0,0-.372-.744,1.514,1.514,0,0,0-.775-.058,2.223,2.223,0,0,1-1.923-1.7,15.093,15.093,0,0,1-.3-2.735,3.064,3.064,0,0,0-1.227-2.363,3.819,3.819,0,0,0-2-.345l-3.94.042c-.972,0-2.124-.064-2.656-.871a2.645,2.645,0,0,1,.42-2.777,5.5,5.5,0,0,0,1.311-2.655,4.992,4.992,0,0,0-1.147-2.74,4.912,4.912,0,0,1-.669-1.519L656,241.47a3.055,3.055,0,0,0,.531,2.836,5.068,5.068,0,0,1,1.147,2.735,5.639,5.639,0,0,1-1.312,2.655,2.6,2.6,0,0,0-.414,2.778c.553.828,1.673.887,2.656.876l3.94-.048a3.815,3.815,0,0,1,2,.35,3.049,3.049,0,0,1,1.226,2.363,14.657,14.657,0,0,0,.308,2.735,2.2,2.2,0,0,0,1.922,1.7,1.556,1.556,0,0,1,.77.058,1,1,0,0,1,.372.749c.276,1.657-.234,4.732,1.5,5.656s4.445.159,5.841-.961c.579-.457,1.221-1.062,1.939-.892s1.025,1.062,1.184,1.795l.579,2.623a3.548,3.548,0,0,1,.085,1.715c-.266.929-1.248,1.5-1.62,2.39a3.428,3.428,0,0,0,.908,3.324,9.558,9.558,0,0,0,5.5,3.261,4.107,4.107,0,0,0,1.7.042,4,4,0,0,0,2.209-1.678A2.949,2.949,0,0,1,688.019,278.968Z" transform="translate(-335.658 -131.477)" opacity="0.1"/>
      <ellipse id="Ellipse_394" data-name="Ellipse 394" cx="12.836" cy="1.97" rx="12.836" ry="1.97" transform="translate(95.894 378.085)" fill="#6c63ff" opacity="0.1"/>
      <ellipse id="Ellipse_395" data-name="Ellipse 395" cx="12.836" cy="1.97" rx="12.836" ry="1.97" transform="translate(544.062 326.86)" fill="#6c63ff" opacity="0.1"/>
      <ellipse id="Ellipse_396" data-name="Ellipse 396" cx="37.174" cy="5.704" rx="37.174" ry="5.704" transform="translate(388.866 402.519)" fill="#6c63ff" opacity="0.1"/>
      <ellipse id="Ellipse_397" data-name="Ellipse 397" cx="28.996" cy="4.45" rx="28.996" ry="4.45" transform="translate(502.719 379.61)" fill="#6c63ff" opacity="0.1"/>
      <ellipse id="Ellipse_398" data-name="Ellipse 398" cx="49.17" cy="7.546" rx="49.17" ry="7.546" transform="translate(477.77 420.857)" fill="#6c63ff" opacity="0.1"/>
      <ellipse id="Ellipse_399" data-name="Ellipse 399" cx="37.174" cy="5.704" rx="37.174" ry="5.704" transform="translate(16.618 429.338)" fill="#6c63ff" opacity="0.1"/>
      <path id="Path_1208" data-name="Path 1208" d="M255.36,631.85s1.455,1.9-.669,4.779-3.877,5.311-3.186,7.085c0,0,3.186-5.311,5.842-5.406S258.234,635.057,255.36,631.85Z" transform="translate(-146.047 -314.544)" fill="#6c63ff"/>
      <path id="Path_1209" data-name="Path 1209" d="M255.444,631.85a2.124,2.124,0,0,1,.3.6c2.549,3,3.9,5.783,1.455,5.841-2.278.064-5.013,4.142-5.666,5.172a1.969,1.969,0,0,0,.074.234s3.186-5.311,5.842-5.406S258.317,635.057,255.444,631.85Z" transform="translate(-146.13 -314.544)" opacity="0.1"/>
      <path id="Path_1210" data-name="Path 1210" d="M263.7,636.03c0,.669-.08,1.211-.17,1.211s-.17-.531-.17-1.211.1-.35.186-.35S263.7,635.361,263.7,636.03Z" transform="translate(-151.678 -316.302)" fill="#ffd037"/>
      <path id="Path_1211" data-name="Path 1211" d="M264.729,637.512c-.584.319-1.1.531-1.142.43s.393-.4.982-.728.356-.085.4,0S265.319,637.188,264.729,637.512Z" transform="translate(-151.784 -316.982)" fill="#ffd037"/>
      <path id="Path_1212" data-name="Path 1212" d="M241.558,631.85s-1.455,1.9.669,4.779,3.882,5.311,3.186,7.085c0,0-3.186-5.311-5.815-5.406S238.669,635.057,241.558,631.85Z" transform="translate(-139.924 -314.544)" fill="#6c63ff"/>
      <path id="Path_1213" data-name="Path 1213" d="M241.548,631.85a2.339,2.339,0,0,0-.3.6c-2.549,3-3.9,5.783-1.455,5.841,2.278.064,5.013,4.142,5.672,5.172a2.048,2.048,0,0,1-.08.234s-3.186-5.311-5.815-5.406S238.659,635.057,241.548,631.85Z" transform="translate(-139.914 -314.544)" opacity="0.1"/>
      <path id="Path_1214" data-name="Path 1214" d="M239.35,636.03c0,.669.074,1.211.165,1.211s.17-.531.17-1.211-.1-.35-.186-.35S239.35,635.361,239.35,636.03Z" transform="translate(-140.419 -316.302)" fill="#ffd037"/>
      <path id="Path_1215" data-name="Path 1215" d="M237.285,637.512c.589.319,1.1.531,1.147.43s-.4-.4-.988-.728-.356-.085-.4,0S236.7,637.188,237.285,637.512Z" transform="translate(-139.283 -316.982)" fill="#ffd037"/>
      <ellipse id="Ellipse_400" data-name="Ellipse 400" cx="15.204" cy="2.331" rx="15.204" ry="2.331" transform="translate(90.27 339.048)" fill="#6c63ff" opacity="0.1"/>
      <path id="Path_1216" data-name="Path 1216" d="M252.583,648.566l-.074.595-.1.839-.043.35-.1.839-.048.35-.1.839-1.163,9.559c-.1.85-1.492,1.514-3.186,1.514h-6.022c-1.678,0-3.07-.664-3.186-1.514l-1.163-9.559-.1-.839-.042-.35-.106-.839L237.1,650l-.1-.839-.074-.595c-.058-.483.7-.886,1.646-.886h12.368C251.887,647.68,252.641,648.083,252.583,648.566Z" transform="translate(-139.281 -321.967)" fill="#65617d"/>
      <path id="Path_1217" data-name="Path 1217" d="M198.467,614.76l-.1.839H183.061l-.1-.839Z" transform="translate(-85.24 -287.566)" fill="#9d9cb5"/>
      <path id="Path_1218" data-name="Path 1218" d="M198.45,617l-.1.839H183.336L183.23,617Z" transform="translate(-85.366 -288.616)" fill="#9d9cb5"/>
      <path id="Path_1219" data-name="Path 1219" d="M198.438,619.24l-.106.839H183.611l-.1-.839Z" transform="translate(-85.498 -289.666)" fill="#9d9cb5"/>
      <path id="Path_1220" data-name="Path 1220" d="M1082.516,618s-1.816,8.454,6.262,9.453l.5-.94S1083.015,620.623,1082.516,618Z" transform="translate(-535.735 -308.049)" fill="#6c63ff"/>
      <path id="Path_1221" data-name="Path 1221" d="M1094.045,622.678l-1.88.4-.186.043s-5.013-4.068-4.95-13.149a22.458,22.458,0,0,0,2.4,3.787C1091.411,616.385,1093.667,619.89,1094.045,622.678Z" transform="translate(-537.933 -304.283)" fill="#6c63ff"/>
      <path id="Path_1222" data-name="Path 1222" d="M1097.489,620.787a1.178,1.178,0,0,1-1.009.133c-4.822-1.125-3.186-16.84-3.186-16.84.265.122.531,2.124,1.667,4.705C1096.9,613.315,1099.04,619.65,1097.489,620.787Z" transform="translate(-540.746 -301.521)" fill="#6c63ff"/>
      <path id="Path_1223" data-name="Path 1223" d="M1114.268,618s.313,8.454-7.764,9.453l-.5-.956S1113.77,620.623,1114.268,618Z" transform="translate(-546.83 -308.049)" fill="#6c63ff"/>
      <path id="Path_1224" data-name="Path 1224" d="M1109.693,610a15.637,15.637,0,0,1-6.447,13.149l-.191-.043-1.875-.4c.372-2.788,2.656-6.293,4.615-8.922A20.448,20.448,0,0,1,1109.693,610Z" transform="translate(-544.569 -304.297)" fill="#6c63ff"/>
      <path id="Path_1225" data-name="Path 1225" d="M1102.014,619.974a2.94,2.94,0,0,1-1.062.823h0a2.084,2.084,0,0,1-.4.133c-1.184.276-1.593-.579-1.53-2.035.111-2.586,1.737-7.073,3.186-10.435a13.036,13.036,0,0,1,3.027-4.37S1105.163,616.32,1102.014,619.974Z" transform="translate(-543.556 -301.526)" fill="#6c63ff"/>
      <path id="Path_1226" data-name="Path 1226" d="M1099.8,593.7s-5.385,19.118-.749,21.975S1100.986,595.389,1099.8,593.7Z" transform="translate(-542.686 -296.653)" fill="#6c63ff"/>
      <path id="Path_1227" data-name="Path 1227" d="M1082.516,618s-1.816,8.454,6.262,9.453l.5-.94S1083.015,620.623,1082.516,618Z" transform="translate(-535.735 -308.049)" opacity="0.1"/>
      <path id="Path_1228" data-name="Path 1228" d="M1094.045,622.678l-1.88.4-.186.043s-5.013-4.068-4.95-13.149a22.458,22.458,0,0,0,2.4,3.787C1091.411,616.385,1093.667,619.89,1094.045,622.678Z" transform="translate(-537.933 -304.283)" opacity="0.1"/>
      <path id="Path_1229" data-name="Path 1229" d="M1097.489,620.787a1.178,1.178,0,0,1-1.009.133c-4.822-1.125-3.186-16.84-3.186-16.84.265.122.531,2.124,1.667,4.705C1096.9,613.315,1099.04,619.65,1097.489,620.787Z" transform="translate(-540.746 -301.521)" opacity="0.1"/>
      <path id="Path_1230" data-name="Path 1230" d="M1114.268,618s.313,8.454-7.764,9.453l-.5-.956S1113.77,620.623,1114.268,618Z" transform="translate(-546.83 -308.049)" opacity="0.1"/>
      <path id="Path_1231" data-name="Path 1231" d="M1109.693,610a15.637,15.637,0,0,1-6.447,13.149l-.191-.043-1.875-.4c.372-2.788,2.656-6.293,4.615-8.922A20.448,20.448,0,0,1,1109.693,610Z" transform="translate(-544.569 -304.297)" opacity="0.1"/>
      <path id="Path_1232" data-name="Path 1232" d="M1102.014,619.974a2.94,2.94,0,0,1-1.062.823h0a2.084,2.084,0,0,1-.4.133c-1.184.276-1.593-.579-1.53-2.035.111-2.586,1.737-7.073,3.186-10.435a13.036,13.036,0,0,1,3.027-4.37S1105.163,616.32,1102.014,619.974Z" transform="translate(-543.556 -301.526)" opacity="0.1"/>
      <path id="Path_1233" data-name="Path 1233" d="M1099.8,593.7s-5.385,19.118-.749,21.975S1100.986,595.389,1099.8,593.7Z" transform="translate(-542.686 -296.653)" opacity="0.1"/>
      <path id="Path_1234" data-name="Path 1234" d="M1082.629,618s-1.062,8.454,7.01,9.453l.5-.94S1083.128,620.623,1082.629,618Z" transform="translate(-535.849 -308.049)" fill="#6c63ff"/>
      <path id="Path_1235" data-name="Path 1235" d="M1094.779,622.692l-1.88.4-.186.042S1086.952,619.065,1087,610c0,0,1.476,1.593,3.144,3.786C1092.145,616.4,1094.4,619.9,1094.779,622.692Z" transform="translate(-537.92 -304.297)" fill="#6c63ff"/>
      <path id="Path_1236" data-name="Path 1236" d="M1097.57,626.022l-1.88.4c-1.779-1.561-2.485-5.64-2.74-9.32C1094.936,619.729,1097.193,623.234,1097.57,626.022Z" transform="translate(-540.71 -307.627)" opacity="0.1"/>
      <path id="Path_1237" data-name="Path 1237" d="M1098.418,620.787a1.19,1.19,0,0,1-1.015.133c-4.821-1.125-3.94-16.84-3.94-16.84a21.867,21.867,0,0,1,2.416,4.705C1097.829,613.315,1099.964,619.65,1098.418,620.787Z" transform="translate(-540.922 -301.521)" fill="#6c63ff"/>
      <path id="Path_1238" data-name="Path 1238" d="M1114.939,618s1.062,8.454-7.01,9.453l-.5-.94S1114.44,620.623,1114.939,618Z" transform="translate(-547.5 -308.049)" fill="#6c63ff"/>
      <path id="Path_1239" data-name="Path 1239" d="M1110.354,610c.063,9.081-5.7,13.149-5.7,13.149l-.186-.043-1.88-.4c.372-2.788,2.656-6.293,4.62-8.922C1108.878,611.593,1110.354,610,1110.354,610Z" transform="translate(-545.231 -304.297)" fill="#6c63ff"/>
      <path id="Path_1240" data-name="Path 1240" d="M1107.211,617.1c-.245,3.43-.871,7.206-2.4,8.969a2.73,2.73,0,0,1-.346.351l-1.88-.4C1102.962,623.233,1105.224,619.729,1107.211,617.1Z" transform="translate(-545.231 -307.627)" opacity="0.1"/>
      <path id="Path_1241" data-name="Path 1241" d="M1103.425,619.974a2.868,2.868,0,0,1-1.062.823h0a2.179,2.179,0,0,1-.393.133c-1.189.276-1.594-.579-1.535-2.035.117-2.586,1.742-7.073,3.187-10.435a20.448,20.448,0,0,1,2.278-4.37C1105.9,604.084,1106.575,616.32,1103.425,619.974Z" transform="translate(-544.218 -301.526)" fill="#6c63ff"/>
      <path id="Path_1242" data-name="Path 1242" d="M1100.357,624.942a1.277,1.277,0,0,1-.765-.244c-2.268-1.413-2.316-6.712-1.774-11.758C1099.767,617.47,1101.9,623.805,1100.357,624.942Z" transform="translate(-542.859 -305.676)" opacity="0.1"/>
      <path id="Path_1243" data-name="Path 1243" d="M1103.429,623.833c-.26.569-.61.866-1.062.823h0a1.435,1.435,0,0,1-.643-.244,3.432,3.432,0,0,1-1.285-1.657c.116-2.586,1.742-7.074,3.186-10.435C1104.146,616.978,1104.322,621.916,1103.429,623.833Z" transform="translate(-544.222 -305.385)" opacity="0.1"/>
      <path id="Path_1244" data-name="Path 1244" d="M1100.3,593.7s-4.632,19.118,0,21.975S1101.492,595.389,1100.3,593.7Z" transform="translate(-543.193 -296.653)" fill="#6c63ff"/>
      <path id="Path_1245" data-name="Path 1245" d="M1047.722,597.61H1028.44V600.8h2.943l.074.377,1.179,6.2h11.21l1.179-6.2.069-.377h2.628Z" transform="translate(-481.723 -279.523)" fill="#4b4770"/>
      <path id="Path_1246" data-name="Path 1246" d="M1047.722,597.61H1028.44V600.8h2.943l.074.377,1.179,6.2h11.21l1.179-6.2.069-.377h2.628Z" transform="translate(-481.723 -279.523)" opacity="0.1"/>
      <path id="Path_1247" data-name="Path 1247" d="M1049.136,601.14l-.324,1.694-1.179,6.2h-11.21l-1.179-6.2-.324-1.694Z" transform="translate(-484.762 -281.178)" fill="#4b4770"/>
      <path id="Path_1248" data-name="Path 1248" d="M1049.136,601.14l-.324,1.694h-13.569l-.324-1.694Z" transform="translate(-484.762 -281.178)" opacity="0.1"/>
      <rect id="Rectangle_1767" data-name="Rectangle 1767" width="19.283" height="3.192" transform="translate(547.466 318.087)" fill="#4b4770"/>
      <path id="Path_1249" data-name="Path 1249" d="M164.239,732.671a9.261,9.261,0,0,0-1.211,2.283c-.074.2-.149.425-.223.643a2.3,2.3,0,0,0-.42-.149,5.846,5.846,0,0,0-1.9-.159c0-.25.032-.531.037-.781.08-2.8-.249-6.7-2.921-5.045-2.56,1.593-.733,4.248.919,5.947.143.149.287.287.425.42-1.508,1.062-1.795,3.574-2.045,6.181s-2.464,5.46-3.935,7.079c-.149.164-.282.313-.414.451a5.39,5.39,0,0,0-4.275-1.1c-.058-.228-.127-.468-.2-.717-1.19-4.3-3.659-11.736-6.808-13.367l.414-.531c1.338-1.747,2.846-4.349.621-5.013s-2.427,2.252-2.3,4.439q.032.414.064.781a3.254,3.254,0,0,0-2.326,1.136l-.345-.409c-1.805-2.124-5.114-5.507-6.118-2.953-.935,2.379,1.981,5.47,4.031,7.26l.127.112c-1.375,5.581,4.631,10.132,7.865,12.124l.42.255c-4.461,5.258-7.217,15.114-7.217,15.114L149,768.9s8.284-7.148,7.222-13.86h.085c8.279-1.657,10.159-10.483,8.869-15.725l.149-.058a9.371,9.371,0,0,0,3.834-2.9C171.472,733.148,166.628,729.516,164.239,732.671Z" transform="translate(-89.656 -359.97)" fill="#6c63ff"/>
      <path id="Path_1250" data-name="Path 1250" d="M164.239,732.671a9.261,9.261,0,0,0-1.211,2.283c-.074.2-.149.425-.223.643a2.3,2.3,0,0,0-.42-.149,5.846,5.846,0,0,0-1.9-.159c0-.25.032-.531.037-.781.08-2.8-.249-6.7-2.921-5.045-2.56,1.593-.733,4.248.919,5.947.143.149.287.287.425.42-1.508,1.062-1.795,3.574-2.045,6.181s-2.464,5.46-3.935,7.079c-.149.164-.282.313-.414.451a5.39,5.39,0,0,0-4.275-1.1c-.058-.228-.127-.468-.2-.717-1.19-4.3-3.659-11.736-6.808-13.367l.414-.531c1.338-1.747,2.846-4.349.621-5.013s-2.427,2.252-2.3,4.439q.032.414.064.781a3.254,3.254,0,0,0-2.326,1.136l-.345-.409c-1.805-2.124-5.114-5.507-6.118-2.953-.935,2.379,1.981,5.47,4.031,7.26l.127.112c-1.375,5.581,4.631,10.132,7.865,12.124l.42.255c-4.461,5.258-7.217,15.114-7.217,15.114L149,768.9s8.284-7.148,7.222-13.86h.085c8.279-1.657,10.159-10.483,8.869-15.725l.149-.058a9.371,9.371,0,0,0,3.834-2.9C171.472,733.148,166.628,729.516,164.239,732.671Z" transform="translate(-89.656 -359.97)" opacity="0.1"/>
      <path id="Path_1251" data-name="Path 1251" d="M140.05,738.228l-1.46,4.248s-.812-.573-1.837-1.476c-2.05-1.79-4.965-4.88-4.031-7.259,1-2.555,4.312.817,6.118,2.952C139.567,737.543,140.05,738.228,140.05,738.228Z" transform="translate(-90.332 -361.895)" fill="#6c63ff"/>
      <path id="Path_1252" data-name="Path 1252" d="M150.97,733.841a20.193,20.193,0,0,1-1.423,1.678,22.4,22.4,0,0,1-.26-2.252c-.122-2.188.112-5.093,2.3-4.439S152.309,732.093,150.97,733.841Z" transform="translate(-98.172 -359.977)" fill="#6c63ff"/>
      <path id="Path_1253" data-name="Path 1253" d="M184.3,734.815c-.042,1.407-.18,2.533-.18,2.533a18.548,18.548,0,0,1-1.822-1.63c-1.652-1.716-3.478-4.36-.919-5.948C184.022,728.113,184.351,732.017,184.3,734.815Z" transform="translate(-112.636 -360.277)" fill="#6c63ff"/>
      <path id="Path_1254" data-name="Path 1254" d="M198.16,738.769a9.374,9.374,0,0,1-3.834,2.9,11.443,11.443,0,0,1-1.285.467l-1.721-2.416a17.088,17.088,0,0,1,.712-2.347,9.274,9.274,0,0,1,1.211-2.284C195.622,731.934,200.475,735.567,198.16,738.769Z" transform="translate(-117.895 -362.388)" fill="#6c63ff"/>
      <path id="Path_1255" data-name="Path 1255" d="M142.557,740.11c.727.85,1.211,1.509,1.211,1.509l-1.46,4.248s-.812-.574-1.837-1.476a8.335,8.335,0,0,1,1.646-3.754C142.26,740.46,142.414,740.28,142.557,740.11Z" transform="translate(-94.05 -365.312)" opacity="0.1"/>
      <path id="Path_1256" data-name="Path 1256" d="M150.993,737.844a20.244,20.244,0,0,1-1.423,1.678,22.425,22.425,0,0,1-.26-2.252A2.94,2.94,0,0,1,150.993,737.844Z" transform="translate(-98.195 -363.98)" opacity="0.1"/>
      <path id="Path_1257" data-name="Path 1257" d="M153.952,755.492l-3.632,1.593s-.791-.383-1.933-1.094c-3.818-2.347-11.492-8.258-6.373-15.225s9.437,5.528,11.152,11.641C153.681,754.265,153.952,755.492,153.952,755.492Z" transform="translate(-93.974 -364.656)" fill="#6c63ff"/>
      <path id="Path_1258" data-name="Path 1258" d="M184.18,740.523a2.986,2.986,0,0,1,2-.9c-.043,1.407-.181,2.533-.181,2.533A18.491,18.491,0,0,1,184.18,740.523Z" transform="translate(-114.547 -365.082)" opacity="0.1"/>
      <path id="Path_1259" data-name="Path 1259" d="M194.346,744.757a11.455,11.455,0,0,1-1.285.467l-1.721-2.416a17.09,17.09,0,0,1,.712-2.347C193.151,741.108,193.969,742.723,194.346,744.757Z" transform="translate(-117.905 -365.476)" opacity="0.1"/>
      <path id="Path_1260" data-name="Path 1260" d="M173.551,760.806c-.2.043-.4.08-.611.112-12.177,1.848-4.015-4.721-4.015-4.721s.531-.531,1.29-1.333c1.471-1.62,3.68-4.456,3.935-7.079.382-3.946.823-7.647,5.48-6.564C184.2,742.294,185.08,758.5,173.551,760.806Z" transform="translate(-106.138 -365.743)" fill="#6c63ff"/>
      <rect id="Rectangle_1768" data-name="Rectangle 1768" width="23.266" height="6.118" transform="translate(43.919 425.381)" fill="#d4dfec"/>
      <rect id="Rectangle_1769" data-name="Rectangle 1769" width="30.398" height="21.348" transform="translate(40.223 405.499)" fill="#d4dfec"/>
      <rect id="Rectangle_1770" data-name="Rectangle 1770" width="23.266" height="6.118" transform="translate(43.919 425.381)" opacity="0.1"/>
      <rect id="Rectangle_1771" data-name="Rectangle 1771" width="30.398" height="21.348" transform="translate(40.223 405.499)" opacity="0.1"/>
      <rect id="Rectangle_1772" data-name="Rectangle 1772" width="23.266" height="6.118" transform="translate(45.449 425.381)" fill="#d4dfec"/>
      <path id="Path_1261" data-name="Path 1261" d="M160.3,764.51c.531,1.827.786,3.08.786,3.08l-3.632,1.593s-.791-.382-1.933-1.094A9.327,9.327,0,0,1,160.3,764.51Z" transform="translate(-101.107 -376.754)" opacity="0.1"/>
      <path id="Path_1262" data-name="Path 1262" d="M173.551,773.022c-.2.043-.4.08-.611.112-12.177,1.848-4.015-4.721-4.015-4.721s.531-.531,1.29-1.333A8.063,8.063,0,0,1,173.551,773.022Z" transform="translate(-106.138 -377.959)" opacity="0.1"/>
      <path id="Path_1263" data-name="Path 1263" d="M142.72,784.009s6.819-24.429,16.383-16.893-3.893,19.118-3.893,19.118Z" transform="translate(-95.105 -377.299)" fill="#6c63ff"/>
      <circle id="Ellipse_401" data-name="Ellipse 401" cx="0.765" cy="0.765" r="0.765" transform="translate(50.292 379.174)" opacity="0.1"/>
      <circle id="Ellipse_402" data-name="Ellipse 402" cx="0.765" cy="0.765" r="0.765" transform="translate(50.228 382.743)" opacity="0.1"/>
      <circle id="Ellipse_403" data-name="Ellipse 403" cx="0.765" cy="0.765" r="0.765" transform="translate(72.41 379.875)" opacity="0.1"/>
      <circle id="Ellipse_404" data-name="Ellipse 404" cx="0.765" cy="0.765" r="0.765" transform="translate(54.567 398.17)" opacity="0.1"/>
      <circle id="Ellipse_405" data-name="Ellipse 405" cx="0.765" cy="0.765" r="0.765" transform="translate(70.817 385.802)" opacity="0.1"/>
      <circle id="Ellipse_406" data-name="Ellipse 406" cx="0.765" cy="0.765" r="0.765" transform="translate(62.915 393.709)" opacity="0.1"/>
      <circle id="Ellipse_407" data-name="Ellipse 407" cx="0.765" cy="0.765" r="0.765" transform="translate(52.905 380.704)" opacity="0.1"/>
      <circle id="Ellipse_408" data-name="Ellipse 408" cx="0.765" cy="0.765" r="0.765" transform="translate(70.307 382.169)" opacity="0.1"/>
      <circle id="Ellipse_409" data-name="Ellipse 409" cx="0.765" cy="0.765" r="0.765" transform="translate(67.695 388.096)" opacity="0.1"/>
      <circle id="Ellipse_410" data-name="Ellipse 410" cx="0.765" cy="0.765" r="0.765" transform="translate(59.665 397.596)" opacity="0.1"/>
      <circle id="Ellipse_411" data-name="Ellipse 411" cx="0.765" cy="0.765" r="0.765" transform="translate(58.008 393.836)" opacity="0.1"/>
      <circle id="Ellipse_412" data-name="Ellipse 412" cx="0.765" cy="0.765" r="0.765" transform="translate(54.052 385.356)" opacity="0.1"/>
      <rect id="Rectangle_1773" data-name="Rectangle 1773" width="23.266" height="2.236" transform="translate(45.449 425.381)" opacity="0.1"/>
      <rect id="Rectangle_1774" data-name="Rectangle 1774" width="30.398" height="21.348" transform="translate(41.753 405.499)" fill="#d4dfec"/>
      <circle id="Ellipse_413" data-name="Ellipse 413" cx="0.765" cy="0.765" r="0.765" transform="translate(60.685 401.038)" opacity="0.1"/>
      <circle id="Ellipse_414" data-name="Ellipse 414" cx="0.765" cy="0.765" r="0.765" transform="translate(56.096 401.994)" opacity="0.1"/>
      <circle id="Ellipse_415" data-name="Ellipse 415" cx="5.555" cy="5.555" r="5.555" transform="translate(21.556 22.783)" fill="#6c63ff" opacity="0.1"/>
      <circle id="Ellipse_416" data-name="Ellipse 416" cx="7.435" cy="7.435" r="7.435" transform="translate(553.159 195.668)" fill="#6c63ff" opacity="0.1"/>
      <circle id="Ellipse_417" data-name="Ellipse 417" cx="5.427" cy="5.427" r="5.427" transform="translate(569.499 181.744)" fill="#6c63ff" opacity="0.1"/>
      <circle id="Ellipse_418" data-name="Ellipse 418" cx="7.159" cy="7.159" r="7.159" transform="translate(28.488 -0.192)" fill="#6c63ff" opacity="0.1"/>
      <circle id="Ellipse_419" data-name="Ellipse 419" cx="7.159" cy="7.159" r="7.159" transform="translate(-0.148 33.217)" fill="#6c63ff" opacity="0.1"/>
    </g>
  </svg>
