<svg xmlns="http://www.w3.org/2000/svg" xmlns:xlink="http://www.w3.org/1999/xlink" width="44" height="44" viewBox="0 0 44 44">
  <defs>
    <filter id="Ellipse_296" x="0" y="0" width="44" height="44" filterUnits="userSpaceOnUse">
      <feOffset dx="1" dy="1" input="SourceAlpha"/>
      <feGaussianBlur stdDeviation="2" result="blur"/>
      <feFlood flood-color="#d8bce8" flood-opacity="0.4"/>
      <feComposite operator="in" in2="blur"/>
      <feComposite in="SourceGraphic"/>
    </filter>
  </defs>
  <g id="Group_875" data-name="Group 875" transform="translate(-381.809 -527.037)">
    <g transform="matrix(1, 0, 0, 1, 381.81, 527.04)" filter="url(#Ellipse_296)">
      <circle id="Ellipse_296-2" data-name="Ellipse 296" cx="16" cy="16" r="16" transform="translate(5 5)" fill="#fff"/>
    </g>
    <path id="Icon_awesome-heart" data-name="Icon awesome-heart" d="M14.666,3.31a4.079,4.079,0,0,0-5.92.472l-.625.7-.625-.7a4.079,4.079,0,0,0-5.92-.472,5.3,5.3,0,0,0-.314,7.208L7.4,17.444a.937.937,0,0,0,1.437,0l6.139-6.927a5.3,5.3,0,0,0-.311-7.208Z" transform="translate(394.81 538.257)" fill="none" stroke="#ffafcc" stroke-width="1"/>
  </g>
</svg>
