<svg xmlns="http://www.w3.org/2000/svg" width="528.001" height="407.996" viewBox="0 0 528.001 407.996">
  <g id="Group_877" data-name="Group 877" transform="translate(-75.999 -2931)">
    <path id="Rectangle_1661" data-name="Rectangle 1661" d="M0,0H508a20,20,0,0,1,20,20V388a20,20,0,0,1-20,20H0a0,0,0,0,1,0,0V0A0,0,0,0,1,0,0Z" transform="translate(75.999 2931)" fill="#eee2f7"/>
    <rect id="Rectangle_1662" data-name="Rectangle 1662" width="432.003" height="311.286" rx="16" transform="translate(123.998 2979.355)" fill="#fff"/>
    <path id="Path_326" data-name="Path 326" d="M75.228,0a5.131,5.131,0,0,1,3.358,1.343C79.93,2.687,80.6,3.358,80.6,5.373V55.75a5.131,5.131,0,0,1-1.343,3.358c-1.343.672-2.015,1.343-4.03,1.343H5.373c-2.015,0-2.687-.672-4.03-1.343C.672,57.765,0,57.093,0,55.078V5.373A5.131,5.131,0,0,1,1.343,2.015C2.687.672,3.358,0,5.373,0ZM22.837,12.09a7.627,7.627,0,0,0-5.373-2.015A7.627,7.627,0,0,0,12.09,12.09a7.627,7.627,0,0,0-2.015,5.373,7.627,7.627,0,0,0,2.015,5.373,7.627,7.627,0,0,0,5.373,2.015,7.627,7.627,0,0,0,5.373-2.015,7.627,7.627,0,0,0,2.015-5.373A7.627,7.627,0,0,0,22.837,12.09ZM70.527,50.376,50.376,20.15,32.241,43.659,20.15,34.927,10.075,50.376Z" transform="translate(299.699 3104.774)" fill="#707070"/>
  </g>
</svg>
