<svg xmlns="http://www.w3.org/2000/svg" width="365" height="397" viewBox="0 0 365 397">
  <g id="Group_875" data-name="Group 875" transform="translate(-606 -2074)">
    <rect id="Rectangle_554" data-name="Rectangle 554" width="365" height="397" rx="20" transform="translate(606 2074)" fill="#fff"/>
    <g id="Photos" transform="translate(738.288 2223.662)">
      <rect id="Rectangle_549" data-name="Rectangle 549" width="98" height="97" transform="translate(-0.289 0.337)" fill="none"/>
      <path id="Path_148" data-name="Path 148" d="M91.044,0a6.209,6.209,0,0,1,4.064,1.626c1.626,1.626,2.439,2.439,2.439,4.877V67.47a6.209,6.209,0,0,1-1.626,4.064c-1.626.813-2.439,1.626-4.877,1.626H6.5c-2.439,0-3.252-.813-4.877-1.626C.813,69.909,0,69.1,0,66.657V6.5A6.209,6.209,0,0,1,1.626,2.439C3.252.813,4.064,0,6.5,0ZM27.638,14.632a9.23,9.23,0,0,0-6.5-2.439,9.23,9.23,0,0,0-6.5,2.439,9.23,9.23,0,0,0-2.439,6.5,9.23,9.23,0,0,0,2.439,6.5,9.23,9.23,0,0,0,6.5,2.439,9.23,9.23,0,0,0,6.5-2.439,9.23,9.23,0,0,0,2.439-6.5A9.23,9.23,0,0,0,27.638,14.632ZM85.354,60.967,60.967,24.387,39.019,52.838,24.387,42.27l-12.193,18.7Z" transform="translate(0.866 11.317)" fill="#707070"/>
    </g>
  </g>
</svg>
