<svg xmlns="http://www.w3.org/2000/svg" viewBox="0 0 1991.38 658.55"><defs><style>.cls-1{fill:#3e3d4d;}.cls-2{fill:#fecece;}.cls-3{fill:#d5ebfe;}.cls-4{fill:#90bf6f;}.cls-5{fill:#b3ecae;}.cls-6{fill:#fff0bd;}</style></defs><g id="Layer_2" data-name="Layer 2"><g id="Layer_1-2" data-name="Layer 1"><path class="cls-1" d="M1124.21,538.55h-47.08l-231-323.71V538.55H817.59V174.76l-37.27-53h75.11l239.92,336.89V121.79h28.86Z"/><path class="cls-1" d="M1322.65,269.21A136.15,136.15,0,0,1,1376.74,280a138.4,138.4,0,0,1,43.86,29.43,136.7,136.7,0,0,1,29.29,43.72,139.88,139.88,0,0,1,0,107.07,136.59,136.59,0,0,1-29.29,43.72,138.07,138.07,0,0,1-43.86,29.43,136.15,136.15,0,0,1-54.09,10.79,131.69,131.69,0,0,1-53.11-10.79,137.77,137.77,0,0,1-43.31-29.43,139.94,139.94,0,0,1-29.29-43.72,138.2,138.2,0,0,1,0-107.07,140.05,140.05,0,0,1,29.29-43.72A138.1,138.1,0,0,1,1269.54,280,131.69,131.69,0,0,1,1322.65,269.21Zm-.56,25.51q-21.87,0-36.86,8.4A65.75,65.75,0,0,0,1261,326.67q-9.26,15.13-13.32,35.87a234.88,234.88,0,0,0-4.06,45.13,221.7,221.7,0,0,0,4.2,44.56q4.21,20.46,13.46,35.45a66.07,66.07,0,0,0,24.24,23.41q15,8.4,36.58,8.41t36.71-8.41a69.21,69.21,0,0,0,24.81-23.41q9.66-15,14-35.45a214.33,214.33,0,0,0,4.34-44.56,220,220,0,0,0-4.34-45.13q-4.35-20.73-14-35.87a68.85,68.85,0,0,0-24.81-23.55Q1343.67,294.72,1322.09,294.72Z"/><path class="cls-1" d="M1635.71,269.21a136.17,136.17,0,0,1,54.1,10.79,138.51,138.51,0,0,1,43.86,29.43A137,137,0,0,1,1763,353.15a139.88,139.88,0,0,1,0,107.07,137.3,137.3,0,0,1-127.25,83.94,131.76,131.76,0,0,1-53.11-10.79,137.61,137.61,0,0,1-43.3-29.43A139.77,139.77,0,0,1,1510,460.22a138.2,138.2,0,0,1,0-107.07,139.88,139.88,0,0,1,29.29-43.72A138,138,0,0,1,1582.6,280,131.76,131.76,0,0,1,1635.71,269.21Zm-.56,25.51q-21.86,0-36.85,8.4a65.85,65.85,0,0,0-24.25,23.55q-9.24,15.13-13.31,35.87a234.88,234.88,0,0,0-4.06,45.13,221.7,221.7,0,0,0,4.2,44.56q4.2,20.46,13.45,35.45a66.17,66.17,0,0,0,24.25,23.41q15,8.4,36.57,8.41t36.72-8.41a69.11,69.11,0,0,0,24.8-23.41q9.67-15,14-35.45a215,215,0,0,0,4.34-44.56,220.67,220.67,0,0,0-4.34-45.13q-4.35-20.73-14-35.87a68.74,68.74,0,0,0-24.8-23.55Q1656.74,294.72,1635.15,294.72Z"/><path class="cls-1" d="M1887.4,295.28q11.2-7.84,19.76-12.9a145.73,145.73,0,0,1,15.27-8,56.67,56.67,0,0,1,23.83-5.19q21.85,0,32.51,15.14t12.61,42.88l-49.05,14.57q-2.8-20.18-7.57-28.59t-14.85-8.4a47.12,47.12,0,0,0-13.87,2.52,104.7,104.7,0,0,0-18.64,8.41V538.55h-56.9v-264h56.9Z"/><path class="cls-1" d="M269.41,359.18c-11.17-1.88-20.79.29-30.22,2.71-9.84,2.54-19.34,6.37-29.17,8.94-14.38,3.76-28.8,7.66-43.44,10.14-24.87,4.2-44.42-5.55-58.19-25.78-17.79-26.12-23.9-55.33-20.68-86.56a119.13,119.13,0,0,1,11.8-41.38c4.83-9.69,9.15-19.66,14.42-29.11,11.17-20.06,26.31-36.39,48-45.53,17.39-7.33,34.74-15.12,52.8-20.42,13.78-4,28.57-5.18,43-6.41,22.87-1.94,45.75-2.8,68.44,2.76,26,6.36,42.9,21.81,50.79,47.06,1.17,3.75,2.38,7.5,3.82,12,5.46-.49,10.9-1.84,16.13-1.28,19.05,2,38.55,1.08,56.87,8.5a161.07,161.07,0,0,0,24.95,7.81c42.66,9.66,75,60.76,70.38,99.1C546.41,324.34,540,344.56,525,362c-16.47,19.24-32.47,38.88-49.19,57.91-31.85,36.24-80.64,44.93-124.12,23.16a265.39,265.39,0,0,0-37.15-15.33c-29.23-9.45-44.43-28.71-45.16-59.06C269.36,365.8,269.41,362.94,269.41,359.18Zm1-18.32c.82-3.1,1.8-5.45,2-7.87,2.09-21.35,8.3-41.59,16.06-61.51,4.32-11.05,7.88-22.41,11.37-33.75,2.76-9,7.71-16.55,15.51-21.58A288.84,288.84,0,0,1,343,200.94c6.09-3.05,12.63-5.2,19.31-7.89-3-16.89-6.94-33.22-22.65-41.79-23.89-13-49.34-18.47-76.27-8.82A54.55,54.55,0,0,1,252.78,145c-28.75,4.13-55.57,14.08-81.72,26.16-17.83,8.23-31,21.28-40.24,38.24-4.67,8.55-8.76,17.4-13.23,26.06a99.39,99.39,0,0,0-10.4,37.25c-2.27,25.2,2.69,48.83,16.36,70.31,9,14.19,21.93,22.11,39.41,20,10.07-1.24,20.27-2.67,29.93-5.6C218.23,349.68,243,339.71,270.43,340.86Zm22.05,17.72c-6.71,28.14,8.61,44.89,26.14,50.6,14.07,4.58,27.61,11.11,40.82,17.84,18,9.16,36.62,11.28,56.19,8.1,21.34-3.45,37.07-15.62,50.45-31.68,10.41-12.49,21.3-24.6,31.93-36.92,5.68-6.57,11.38-13.13,16.86-19.87,8.65-10.66,13-23.08,15.63-36.4,8.92-45.41-23.06-85-59.56-92.49-7.44-1.53-14.69-4.17-21.89-6.69a110.41,110.41,0,0,0-38.51-6.41c-9.37-.24-16.71-4.71-26.73-3.43.66,5,1.4,8.81,1.65,12.69,1.2,18.32,3.2,36.64,3.13,55-.08,20.09-6.33,38.94-15.78,56.79-9.79,18.51-25.2,28.37-45.89,30.59-5.07.54-10.17.7-15.26,1Zm72.57-150c-14,5.74-26,11.46-36.89,19.47a28.42,28.42,0,0,0-11,16.8c-2.45,9.76-5.66,19.34-8.68,28.95-3.44,11-7.45,21.84-10.45,32.95a113.82,113.82,0,0,0-4.37,33.63c8.39-.41,15.95-.83,23.52-1.15,19.71-.82,33.08-9.68,41.28-28.09C373.21,278.13,369.79,244.46,365.05,208.61Z"/><path class="cls-1" d="M163.3,83.94s0-.08,0-.11a5.53,5.53,0,0,1,.84-2.87C170.86,67.64,183.94,55.78,196.7,48,297.14-13.92,393.88-12.5,501.2,32.6c26.54,10.31,48.55,27.17,67.71,48.1,44.35,48.43,69.91,105.58,82.17,169.24,10,51.79,11.27,104,5.45,156.11-6.23,55.84-14.16,111.51-21.7,167.2-1.2,8.85-3.8,17.58-6.5,26.13-2.94,9.35-9,15.07-19.83,15.36-56.42,1.48-112.84,4.06-169.28.72-7.59-.89-21.16-.5-20.06-11.3.47-4.44,3.43-7.13,7.88-7.72a80,80,0,0,1,9.8-.48q80.3-1.15,160.58-2.27c3.56-.05,7.11-.12,11.37-.2,6.61-49.08,13-97.23,19.61-145.36,5.43-39.68,9.47-79.46,8.17-119.58-1.5-46-8.26-91.1-23.6-134.74-13.72-39-35.13-73.47-62.66-104.32a146.86,146.86,0,0,0-47.49-35.8C468.47,37.6,432.82,25,395.15,19.37c-50.51-7.58-99.39-.41-146.6,18.55a378.94,378.94,0,0,0-42.46,19.66,224.45,224.45,0,0,0-20,12.4c-6.19,4.34-11.61,9.78-17.78,14.06a17.58,17.58,0,0,1-1.91,1.15,3.27,3.27,0,0,1-1.5.48C163.85,85.67,163.41,84.81,163.3,83.94Z"/><path class="cls-1" d="M178.78,450.06c.68-10.46,1.2-22.32,2.37-34.12,4.23-35.44,47,6.68,57.77,17.24,24.16,23.72,40.82,53.67,50.24,85.92,11.58,39.64,17,80.27,18.88,121.41a42.48,42.48,0,0,1-.5,10.76c-3.85,18-22.22-2.27-28.07-8.14C224.46,587.88,176.55,532.9,178.78,450.06Zm107.5,161.58c-.16-2.48-.17-5-.49-7.43-3.46-26.44-8-52.66-15-78.45-9.13-33.42-25.93-62.44-49.7-87.64-2.54-2.69-5.37-5.12-9.18-8.72C214.68,457,263.47,577.85,286.28,611.64ZM274,615.56A1061.06,1061.06,0,0,1,197.4,438.72a35,35,0,0,0-3.12,15c-1,27.51,5.32,53.93,16.19,78.69C224.68,564.81,248.66,590.73,274,615.56Z"/><path class="cls-1" d="M326.4,599.33c1.12-33,16.85-72,45-91C391.23,495,413,486.21,436.1,480.17c6.82-1.78,21.18-11.08,27.83-5.86,2.15,1.69,3.09,4.45,3.72,7.1,7.4,31.35-12.17,66.06-34.58,86.93-26.32,24.5-58.2,39.21-92.43,49.28C329.12,621,326,611.47,326.4,599.33Zm31.48-7.48c46.22-15.28,89.39-53.17,91.07-91.29-3.15,3.39-5.42,6.05-7.91,8.49-7.73,7.59-14.7,16.25-23.46,22.39C394.15,547.88,378.36,571.33,357.88,591.85Zm-13-12.16,2.31,1.91c15-18.37,30.3-36.68,47.52-53.13,8.44-8.05,17.61-15.34,26.47-23-11,.95-34.48,11.76-39.68,17.55C366.33,540,352.89,558.19,344.92,579.69Z"/><path class="cls-1" d="M50.09,604.94c-5.84-.25-9.51-1.91-11-8C25,538.14,6.14,480.37,1.25,419.6c-4.09-50.74,2.48-103.33,10.68-153.4,1.63-9.92,3.64-20.89,8.25-29.91,3.45-6.77,21.8-24.36,22.41-4.71.11,3.65-1.38,7.14-2.76,10.52C2.62,333.11,9.4,444.47,41.15,536c4.35,12.54,6.94,25.74,9.5,38.8,1.47,7.52,5,11.65,12.65,12.35,34.6,3.21,71.3,2.58,106.8,2.27,3.26,0,7-.44,9.65.9,2.49,1.23,5.28,4.5,5.43,7s-2.31,6-4.64,7.46c-2.53,1.62-6.22,1.83-9.43,2-9.45.5-18.92.68-28.39,1"/><path class="cls-1" d="M94.31,99.2c27.58.34,38.35,15.14,30.57,39.14-2.51,7.75-6.74,14.41-13.86,18.7-10.58,6.37-21.86,8.15-33,1.73-24-13.78-21.28-52.17,7.65-58.19A68.54,68.54,0,0,1,94.31,99.2Zm-6.75,46.42c6.14-2,12.72-3.23,18.32-6.21,7.56-4,9.14-17.39,3.52-22.74-8.63-8.21-28.61-4.15-33.15,6.74C71.55,134.66,76.76,144.7,87.56,145.62Z"/><path class="cls-1" d="M527.08,422.75c3.33.8,8.1,1.34,12.35,3.08C551.3,430.7,558.08,442,557,454.05c-1,10.75-10.35,21.32-21.73,24.28-9.47,2.46-18.8,1.76-27.4-2.92-10.17-5.54-14.24-16.27-12-29.88a26.3,26.3,0,0,1,21.23-21.79C519.9,423.18,522.83,423.15,527.08,422.75ZM526,438.89c-9.35-.14-16.28,4.85-16.67,12-.36,6.43,8.83,14.74,16.23,14.69,7.75-.07,14.06-4.71,14.16-10.43C539.85,446.22,533.77,439,526,438.89Z"/><path class="cls-2" d="M270.43,340.86c.82-3.1,1.8-5.45,2-7.87,2.09-21.35,8.3-41.59,16.06-61.51,4.32-11.05,7.88-22.41,11.37-33.75,2.76-9,7.71-16.55,15.51-21.58A288.84,288.84,0,0,1,343,200.94c6.09-3.05,12.63-5.2,19.31-7.89-3-16.89-6.94-33.22-22.65-41.79-23.89-13-49.34-18.47-76.27-8.82A54.55,54.55,0,0,1,252.78,145c-28.75,4.13-55.57,14.08-81.72,26.16-17.83,8.23-31,21.28-40.24,38.24-4.67,8.55-8.76,17.4-13.23,26.06a99.39,99.39,0,0,0-10.4,37.25c-2.27,25.2,2.69,48.83,16.36,70.31,9,14.19,21.93,22.11,39.41,20,10.07-1.24,20.27-2.67,29.93-5.6C218.23,349.68,243,339.71,270.43,340.86Z"/><path class="cls-3" d="M365.05,208.61c-14,5.74-26,11.46-36.89,19.47a28.42,28.42,0,0,0-11,16.8c-2.45,9.76-5.66,19.34-8.68,28.95-3.44,11-7.45,21.84-10.45,32.95a113.82,113.82,0,0,0-4.37,33.63c8.39-.41,15.95-.83,23.52-1.15,19.71-.82,33.08-9.68,41.28-28.09C373.21,278.13,369.79,244.46,365.05,208.61Z"/><path class="cls-3" d="M292.48,358.58c-6.71,28.14,8.61,44.89,26.14,50.6,14.07,4.58,27.61,11.11,40.82,17.84,18,9.16,36.62,11.28,56.19,8.1,21.34-3.45,37.07-15.62,50.45-31.68,10.41-12.49,21.3-24.6,31.93-36.92,5.68-6.57,11.38-13.13,16.86-19.87,8.65-10.66,13-23.08,15.63-36.4,8.92-45.41-23.06-85-59.56-92.49-7.44-1.53-14.69-4.17-21.89-6.69a110.41,110.41,0,0,0-38.51-6.41c-9.37-.24-16.71-4.71-26.73-3.43.66,5,1.4,8.81,1.65,12.69,1.2,18.32,3.2,36.64,3.13,55-.08,20.09-6.33,38.94-15.78,56.79-9.79,18.51-25.2,28.37-45.89,30.59-5.07.54-10.17.7-15.26,1Z"/><path class="cls-4" d="M286.28,611.64c-.16-2.48-.17-5-.49-7.43-3.46-26.44-8-52.66-15-78.45-9.13-33.42-25.93-62.44-49.7-87.64-2.54-2.69-5.37-5.12-9.18-8.72C214.68,457,263.47,577.85,286.28,611.64Z"/><path class="cls-5" d="M274,615.56A1061.06,1061.06,0,0,1,197.4,438.72a35,35,0,0,0-3.12,15c-1,27.51,5.32,53.93,16.19,78.69C224.68,564.81,248.66,590.73,274,615.56Z"/><path class="cls-5" d="M357.88,591.85c46.22-15.28,89.39-53.17,91.07-91.29-3.15,3.39-5.42,6.05-7.91,8.49-7.73,7.59-14.7,16.25-23.46,22.39C394.15,547.88,378.36,571.33,357.88,591.85Z"/><path class="cls-4" d="M344.92,579.69l2.31,1.91c15-18.37,30.3-36.68,47.52-53.13,8.44-8.05,17.61-15.34,26.47-23-11,.95-34.48,11.76-39.68,17.55C366.33,540,352.89,558.19,344.92,579.69Z"/><path class="cls-6" d="M87.56,145.62c6.14-2,12.72-3.23,18.32-6.21,7.56-4,9.14-17.39,3.52-22.74-8.63-8.21-28.61-4.15-33.15,6.74C71.55,134.66,76.76,144.7,87.56,145.62Z"/><path class="cls-6" d="M526,438.89c-9.35-.14-16.28,4.85-16.67,12-.36,6.43,8.83,14.74,16.23,14.69,7.75-.07,14.06-4.71,14.16-10.43C539.85,446.22,533.77,439,526,438.89Z"/></g></g></svg>