<svg xmlns="http://www.w3.org/2000/svg" width="528.001" height="407.996" viewBox="0 0 528.001 407.996">
  <g id="Group_875" data-name="Group 875" transform="translate(-75.999 -1482)">
    <path id="Rectangle_1661" data-name="Rectangle 1661" d="M0,0H508a20,20,0,0,1,20,20V388a20,20,0,0,1-20,20H0a0,0,0,0,1,0,0V0A0,0,0,0,1,0,0Z" transform="translate(75.999 1482)" fill="#eee2f7"/>
    <rect id="Rectangle_1662" data-name="Rectangle 1662" width="432.003" height="311.286" rx="16" transform="translate(123.998 1530.355)" fill="#fff"/>
    <path id="Path_955" data-name="Path 955" d="M368.228,604.378a3.9,3.9,0,0,1-3.833-3.155l-6.373-80.083c-6.861-67.818,4.883-91.71,5-91.943l.129-.252.282.017,55.087,3.17,11.693,38.251,30.911,41.531a37.618,37.618,0,0,1,7.4,22.821l-.782,60.552a3.93,3.93,0,0,1-3.635,3.847l-16.137,1.122a3.894,3.894,0,0,1-4.155-3.479l-4-65.741a.339.339,0,0,0-.093-.181L393.88,488.127a1.3,1.3,0,0,0-2.167.428L387.09,599.848a3.86,3.86,0,0,1-.958,2.936,3.914,3.914,0,0,1-2.858,1.321l-14.973.273Z" transform="translate(-117.683 1242.823)" fill="#2f2e41"/>
    <ellipse id="Ellipse_361" data-name="Ellipse 361" cx="27.817" cy="27.817" rx="27.817" ry="27.817" transform="translate(238.177 1553.69) rotate(-28.663)" fill="#2f2e41"/>
    <path id="Path_948" data-name="Path 948" d="M532.059,368.415a8.14,8.14,0,0,0-11.683,4.4L501.8,373.852l-2.12,11.442,26.209-1.839a8.185,8.185,0,0,0,6.168-15.04Z" transform="translate(-136.647 1250.943)" fill="#ffb8b8"/>
    <path id="Path_956" data-name="Path 956" d="M357.3,472.582a8.14,8.14,0,0,0-5.164-11.365l-2.275-18.463L338.308,441.4l3.579,26.028a8.185,8.185,0,0,0,15.417,5.153Z" transform="translate(-115.369 1241.184)" fill="#ffb8b8"/>
    <path id="Path_949" data-name="Path 949" d="M21.323,0A21.323,21.323,0,0,1,42.646,21.323c0,11.776-9.547,27.6-21.323,27.6S0,33.1,0,21.323A21.323,21.323,0,0,1,21.323,0Z" transform="translate(253.39 1551.948)" fill="#ffb8b8"/>
    <path id="Path_950" data-name="Path 950" d="M397.368,428.7c-11.338,0-20.839-.918-30.262-4.286-3.879-1.387-4.294-3.106-4.839-5.256-.856-3.375-1.326-43.292,3.095-56.539a19.882,19.882,0,0,1,16.472-13.394c4.209-.5,16.8-2.276,23.929-3.292a13.471,13.471,0,0,1,9.937,2.434c1.89,1.419,2.871,2.943,2.917,4.531l1.938,67.49a7.522,7.522,0,0,1-7.023,7.749C409.174,428.433,403.511,428.7,397.368,428.7Z" transform="translate(-118.452 1253.787)" fill="#ecdaf8"/>
    <path id="Path_951" data-name="Path 951" d="M337.227,446.325a3.907,3.907,0,0,1-3.9-4.058L334,411.313a22.041,22.041,0,0,1,3.314-10.8l26.275-42.148a9.141,9.141,0,0,1,7.755-4.285,9.041,9.041,0,0,1,7.722,4.342h0a9.117,9.117,0,0,1,.215,9.142L353.8,413.89l1.754,28.43a3.907,3.907,0,0,1-3.9,3.977l-14.417.028Z" transform="translate(-114.711 1252.693)" fill="#ecdaf8"/>
    <path id="Path_952" data-name="Path 952" d="M502.976,387.289a3.867,3.867,0,0,1-2.765,1.3l-30.933,1.641a22.039,22.039,0,0,1-11.006-2.5l-43.995-23.049a9.1,9.1,0,0,1-1.1-15.439l.254.352-.254-.352a9.116,9.116,0,0,1,9.1-.9l48.1,21.951,28.24-3.878a3.907,3.907,0,0,1,4.236,3.592l1.106,14.375c.005.072.009.143.011.215A3.869,3.869,0,0,1,502.976,387.289Z" transform="translate(-124.741 1253.557)" fill="#ecdaf8"/>
    <path id="Path_953" data-name="Path 953" d="M91.731,67.177,86.2,52.239l24.874-7.2L128.852,50.5V67.177Z" transform="translate(165.151 1500.396)" fill="#2f2e41"/>
    <path id="Path_954" data-name="Path 954" d="M393.692,269.019A30.3,30.3,0,0,0,340.1,252.426c-5.229,6.356-7.646,14.532-9.414,22.571s-3.049,16.288-6.483,23.768S314.718,313.04,306.725,315s-17.7-2.458-19.548-10.478a40.669,40.669,0,0,0,13.8,28.433c6.925,6.006,18.232,3.882,25.05-2.246s10.192-15.121,13.111-23.811,5.8-17.75,11.989-24.509,23.741-13.943,31.694-9.385C389.06,276.583,391.3,274.31,393.692,269.019Z" transform="translate(-108.629 1267.555)" fill="#2f2e41"/>
  </g>
</svg>
