<svg xmlns="http://www.w3.org/2000/svg" xmlns:xlink="http://www.w3.org/1999/xlink" width="528" height="408" viewBox="0 0 528 408">
  <defs>
    <clipPath id="clip-path">
      <path id="_Clipping_Path_" data-name="&lt;Clipping Path&gt;" d="M400.87,204.641s23.218,6.965,55.729-3.485,99.847,15.092,99.847,15.092,53.406,0,132.358-33.668c0,0-35.991,34.83-10.45,55.729S680.678,289.392,650.49,301s-32.506,34.829-30.188,56.891,0,1.162,0,1.162S529.744,342.8,506.521,398.541L391.582,217.414S384.617,203.484,400.87,204.641Z" transform="translate(-390.099 -182.58)" fill="#6c63ff"/>
    </clipPath>
  </defs>
  <g id="Group_877" data-name="Group 877" transform="translate(-76 -2298)">
    <path id="Rectangle_1473" data-name="Rectangle 1473" d="M0,0H508a20,20,0,0,1,20,20V388a20,20,0,0,1-20,20H0a0,0,0,0,1,0,0V0A0,0,0,0,1,0,0Z" transform="translate(76 2298)" fill="#ddedfa"/>
    <rect id="Rectangle_1476" data-name="Rectangle 1476" width="432" height="312" rx="16" transform="translate(124 2346)" fill="#fff"/>
    <g id="Group_176" data-name="Group 176" transform="translate(214.085 2345.999)">
      <path id="Path_214" data-name="Path 214" d="M343.435,416.077h-.083l-3.9-5.027-6.308,6.308.7,1.047-.794.193s12.732,24.591,14.853,15.257S343.435,416.077,343.435,416.077Z" transform="translate(-316.781 -268.439)" fill="#fdb797"/>
      <path id="_Clipping_Path_2" data-name="&lt;Clipping Path&gt;" d="M400.87,204.641s23.218,6.965,55.729-3.485,99.847,15.092,99.847,15.092,53.406,0,132.358-33.668c0,0-35.991,34.83-10.45,55.729S680.678,289.392,650.49,301s-32.506,34.829-30.188,56.891,0,1.162,0,1.162S529.744,342.8,506.521,398.541L391.582,217.414S384.617,203.484,400.87,204.641Z" transform="translate(-347.637 -144.865)" fill="#6c63ff"/>
      <g id="Group_171" data-name="Group 171" transform="translate(42.461 37.715)" clip-path="url(#clip-path)">
        <path id="Path_215" data-name="Path 215" d="M141.46,84.18,430.551,292l17.415-51.083Z" transform="translate(-188.222 -96.301)" opacity="0.1"/>
        <path id="Path_216" data-name="Path 216" d="M179.39,225.79,339.608,388.331l23.223-17.415Z" transform="translate(-208.737 -172.894)" opacity="0.1"/>
      </g>
      <g id="Group_172" data-name="Group 172" transform="translate(43.352 37.848)" opacity="0.1">
        <path id="Path_217" data-name="Path 217" d="M408.628,221.184s23.218,6.965,55.729-3.485,99.838,15.1,99.838,15.1,43.2,0,109.337-24.5c5.229-13.829,17.213-25.427,17.213-25.427-78.97,33.668-132.358,33.668-132.358,33.668S491.046,191,458.54,201.446s-55.729,3.485-55.729,3.485c-16.253-1.162-9.288,12.773-9.288,12.773l4.779,7.534C399.3,222.7,402.076,220.716,408.628,221.184Z" transform="translate(-392.039 -182.87)"/>
        <path id="Path_218" data-name="Path 218" d="M1015.95,300.5a29.22,29.22,0,0,1-3.333-3.182c-.266,6.855,2.1,13.673,9.137,19.435a36.26,36.26,0,0,1,5.133,5.078C1027.111,314.386,1023.884,306.994,1015.95,300.5Z" transform="translate(-727.68 -244.773)"/>
      </g>
      <path id="Path_220" data-name="Path 220" d="M347.545,701.859l-.6,1.809-8.443-2.41.6-1.208Z" transform="translate(-252.334 -391.692)" opacity="0.1"/>
      <path id="Path_222" data-name="Path 222" d="M237.34,701.859l.6,2.41,8.448-3.012V700.05Z" transform="translate(-197.619 -391.692)" opacity="0.1"/>
      <path id="Path_223" data-name="Path 223" d="M531.042,117.909s-.239-10.725-7.773-16.63-1.9,21.207-1.9,21.207Z" transform="translate(-417.544 -100.437)" fill="#fdb797"/>
      <path id="Path_226" data-name="Path 226" d="M419.167,474.51h-59.9c-19.495,57-17.116,83.128-17.116,83.128l17.116,71.248,12.856-2.375-12.856-71.233c14.929-19.083,29.958-47.5,29.958-47.5s19.251,37.716,29.94,47.5l-12.856,71.248,12.856,2.375,17.116-71.249S438.675,531.51,419.167,474.51Z" transform="translate(-321.655 -302.762)" fill="#333"/>
      <path id="Path_227" data-name="Path 227" d="M379.54,476.32s33.976,12.856,59.912,0Z" transform="translate(-341.928 -303.741)" opacity="0.1"/>
      <path id="Path_228" data-name="Path 228" d="M333.339,271.417l-17.116,17.116,6.428,34.237-8.558,6.428-14.977-44.935s-4.518-8.319,2.14-12.856l25.679-25.679s11.019-7.383,18.595-3.6-12.337,29.017-12.337,29.017" transform="translate(-297.618 -176.49)" fill="#a2d2ff"/>
      <path id="Path_229" data-name="Path 229" d="M374.87,213.554l2.14,77.033s33.976,12.856,59.912,0l-2.14-72.515-.546-2.4.395-1.18,25.711-21.322c7.048-3.88,3.324-12.585,3.324-12.585L452.922,134.46l-9.123,5.592,3.214,34.683L428.7,189.923l-.459-.023v.115l-46.937-2.135" transform="translate(-339.401 -118.839)" fill="#a2d2ff"/>
      <rect id="Rectangle_1490" data-name="Rectangle 1490" width="17.116" height="19.256" rx="8.558" transform="translate(59.128 58.459)" fill="#fdb797"/>
      <path id="Path_230" data-name="Path 230" d="M427.59,236.859a19.251,19.251,0,0,0,16.529-1.837,8.59,8.59,0,0,0-8.044-5.643h0a8.586,8.586,0,0,0-8.485,7.479Z" transform="translate(-367.917 -170.178)" opacity="0.1"/>
      <path id="Path_239" data-name="Path 239" d="M26.32,0a19.256,19.256,0,1,1,0,38.512c-10.635,0-13.259-7-13.259-17.632S15.685,0,26.32,0Z" transform="translate(39.226 28.505)" fill="#fdb797"/>
      <path id="Path_231" data-name="Path 231" d="M397.976,156.238a9.917,9.917,0,0,1-3.581-.2,7.9,7.9,0,0,1-3.03-1.983,14.368,14.368,0,0,1-4.633-9.118,9.559,9.559,0,0,1,4.394-8.893c4.224-2.406,9.61-.505,13.682,2.149,3.5,2.3,7.686,5.239,11.451,3.416a26.007,26.007,0,0,0,3.315-2.433c4.348-3.053,10.822-1.547,14.371,2.406s4.545,9.674,3.935,14.954-2.631,10.271-4.486,15.248a7.4,7.4,0,0,1-1.437,2.677c-2.259,2.319-6.487.519-7.975-2.355-2.585-5,0-13.668-6.106-16.584C413.012,153.2,403.2,155.9,397.976,156.238Z" transform="translate(-345.803 -119.097)" opacity="0.1"/>
      <path id="Path_232" data-name="Path 232" d="M398.606,155.2a9.918,9.918,0,0,1-3.581-.2,7.907,7.907,0,0,1-3.03-1.983,14.369,14.369,0,0,1-4.633-9.118A9.558,9.558,0,0,1,391.756,135c4.224-2.406,9.61-.505,13.682,2.149,3.5,2.3,7.686,5.239,11.451,3.416a26,26,0,0,0,3.315-2.433c4.348-3.053,10.822-1.547,14.371,2.406s4.545,9.674,3.935,14.954-2.658,10.271-4.495,15.248a7.4,7.4,0,0,1-1.437,2.677c-2.259,2.319-6.487.519-7.975-2.355-2.585-5,0-13.668-6.106-16.584C413.656,152.163,403.822,154.862,398.606,155.2Z" transform="translate(-346.144 -118.535)" fill="#333"/>
      <ellipse id="Ellipse_240" data-name="Ellipse 240" cx="2.14" cy="4.279" rx="2.14" ry="4.279" transform="translate(74.105 43.481)" fill="#fdb797"/>
      <path id="Path_233" data-name="Path 233" d="M228.14,234.71l5.432,2.544-5.432,6.639Z" transform="translate(-192.643 -140.004)" opacity="0.1"/>
      <path id="Path_234" data-name="Path 234" d="M353.938,236.75l-3.618,4.022,2.41,3.618,1.41-4.022Z" transform="translate(-258.728 -141.107)" opacity="0.1"/>
      <path id="Path_235" data-name="Path 235" d="M414.89,256.427v3.485s-25.413-4.642-26.06-11.611l16.772,1.161Z" transform="translate(-346.951 -180.412)" fill="#6c63ff"/>
      <path id="Path_236" data-name="Path 236" d="M445.59,256.427v3.485S471,255.269,471.65,248.3l-16.772,1.161Z" transform="translate(-377.651 -180.412)" fill="#6c63ff"/>
      <path id="Path_237" data-name="Path 237" d="M637.09,276.36,720.684,296.1,690.5,308.871Z" transform="translate(-413.831 -162.531)" opacity="0.1"/>
      <path id="Path_238" data-name="Path 238" d="M389,240.076s0-7.3,4.867-7.3,9.729,14.6,9.729,14.6Z" transform="translate(-347.043 -172.017)" fill="#6c63ff"/>
      <g id="Path_242" data-name="Path 242" transform="translate(55.286 41.232)" fill="#fff">
        <path d="M 3.103212356567383 6.106418609619141 C 1.447232365608215 6.106418609619141 0.1000023558735847 4.759188652038574 0.1000023558735847 3.103208541870117 C 0.1000023558735847 1.44722855091095 1.447232365608215 0.09999854117631912 3.103212356567383 0.09999854117631912 C 4.75919246673584 0.09999854117631912 6.106422424316406 1.44722855091095 6.106422424316406 3.103208541870117 C 6.106422424316406 4.759188652038574 4.75919246673584 6.106418609619141 3.103212356567383 6.106418609619141 Z" stroke="none"/>
        <path d="M 3.103212356567383 0.1999983787536621 C 1.502372264862061 0.1999983787536621 0.2000021934509277 1.502368450164795 0.2000021934509277 3.103208541870117 C 0.2000021934509277 4.704048633575439 1.502372264862061 6.006418704986572 3.103212356567383 6.006418704986572 C 4.704052448272705 6.006418704986572 6.006422519683838 4.704048633575439 6.006422519683838 3.103208541870117 C 6.006422519683838 1.502368450164795 4.704052448272705 0.1999983787536621 3.103212356567383 0.1999983787536621 M 3.103212356567383 -1.430511474609375e-06 C 4.81707239151001 -1.430511474609375e-06 6.206422328948975 1.389358520507812 6.206422328948975 3.103208541870117 C 6.206422328948975 4.817058563232422 4.81707239151001 6.206418514251709 3.103212356567383 6.206418514251709 C 1.389352321624756 6.206418514251709 2.384185791015625e-06 4.817058563232422 2.384185791015625e-06 3.103208541870117 C 2.384185791015625e-06 1.389358520507812 1.389352321624756 -1.430511474609375e-06 3.103212356567383 -1.430511474609375e-06 Z" stroke="none" fill="#707070"/>
      </g>
      <g id="Group_173" data-name="Group 173" transform="translate(61.199 43.25)">
        <path id="Path_240" data-name="Path 240" d="M-10.468.136H3.482S6.832.017,6.733,4.853" transform="translate(10.468 -0.136)" fill="none" stroke="#707070" stroke-width="0.2"/>
        <path id="Path_243" data-name="Path 243" d="M-.2,0H13.285" transform="translate(0.237 1.315)" fill="none" stroke="#707070" stroke-width="0.2"/>
        <path id="Path_241" data-name="Path 241" d="M7684.054,2489.812c-.251-2.358-2.877-3.33-3.849-3.31" transform="translate(-7666.852 -2485.186)" fill="none" stroke="#707070" stroke-width="0.2"/>
      </g>
    </g>
  </g>
</svg>
