<svg xmlns="http://www.w3.org/2000/svg" width="528" height="408" viewBox="0 0 528 408">
  <g id="Group_876" data-name="Group 876" transform="translate(-763 -1890)">
    <path id="Rectangle_1663" data-name="Rectangle 1663" d="M20,0H528a0,0,0,0,1,0,0V408a0,0,0,0,1,0,0H20A20,20,0,0,1,0,388V20A20,20,0,0,1,20,0Z" transform="translate(763 1890)" fill="#fad8d8"/>
    <rect id="Rectangle_1664" data-name="Rectangle 1664" width="440" height="314" rx="16" transform="translate(809 1937)" fill="#fff"/>
    <g id="Group_721" data-name="Group 721" transform="translate(931.541 1916.795)">
      <rect id="Rectangle_1489" data-name="Rectangle 1489" width="0.85" height="106.651" transform="translate(86.812 117.023)" fill="#3f3d56"/>
      <path id="Path_185" data-name="Path 185" d="M804.666,69.328h0c-20.461,0-37.048,18.408-37.048,41.116v28.85h8.873l5.137-10.689-1.284,10.689h57.032l4.67-9.717-1.167,9.717H847.3V116.641C847.3,90.511,828.212,69.328,804.666,69.328Z" transform="translate(-711.789 -69.328)" fill="#2f2e41"/>
      <path id="Path_186" data-name="Path 186" d="M807.494,188.195s11.564,26.982-3.854,32.378l15.418,50.88,26.211-1.542,6.938-16.96-1.542-25.44-2.313-16.96s-16.189,3.854-14.647-24.669Z" transform="translate(-732.5 -136.342)" fill="#ffb8b8"/>
      <path id="Path_187" data-name="Path 187" d="M705.1,265.561s-25.44-2.313-23.127,16.189,4.626,22.356,4.626,22.356l2.313,27.753-13.876,8.48H661.925s-40.087,9.251-20.044,19.273,26.982-7.709,26.982-7.709,37,0,39.316-6.167S705.1,265.561,705.1,265.561Z" transform="translate(-636.269 -176.877)" fill="#ffb8b8"/>
      <path id="Path_188" data-name="Path 188" d="M914.277,244.925s23.9-8.48,25.44,10.022,1.542,20.044,1.542,20.044l4.625,26.211s9.251,23.127,9.251,30.066,6.938,28.524,6.938,28.524,9.251,30.065-.771,29.294-11.564-32.378-11.564-32.378l-20.814-41.629-6.167-25.44Z" transform="translate(-796.112 -163.362)" fill="#ffb8b8"/>
      <path id="Path_189" data-name="Path 189" d="M792.687,246.96h-6.168l-.771,32.378s-10.022,13.876,2.313,26.211l3.084,20.044,56.276-2.313,3.854-20.815s7.709-16.96-3.084-32.378L838.17,238.48h-5.4s12.5,46.083-13.876,47.025C797.312,286.276,792.687,246.96,792.687,246.96Z" transform="translate(-720.006 -162.261)" fill="#fff"/>
      <path id="Path_190" data-name="Path 190" d="M820.9,548.94a193.571,193.571,0,0,1-62.217,46.529c-.009-38.577.446-69.911.446-69.911s-3.273,33.111-7.43,73.026a192.3,192.3,0,0,1-75.045,15.14c-.459,0-.918,0-1.377-.008,21.21-76.21,52.148-163.556,53-165.966.006-.017.012-.034.017-.051l1.866-6.223.795-2.648.833-2.776,1.13-3.774,50.108-1.539,1.4,3.15,4.765,10.724a4.137,4.137,0,0,1,1.169.548C799.387,451.083,810.756,496.273,820.9,548.94Z" transform="translate(-658.7 -262.125)" fill="#2f2e41"/>
      <path id="Path_191" data-name="Path 191" d="M857.429,416.225l-60.9,2.313s-2.779,20.815,0,20.815c.771,0,63.985,5.4,63.214-3.855S857.429,416.225,857.429,416.225Z" transform="translate(-727.701 -261.689)" fill="#3f3d56"/>
      <ellipse id="Ellipse_236" data-name="Ellipse 236" cx="21.661" cy="21.661" rx="21.661" ry="21.661" transform="translate(65.246 17.361)" fill="#ffb8b8"/>
      <path id="Path_192" data-name="Path 192" d="M823.49,85.392a19.431,19.431,0,0,0-15.331-7.823h-.727c-14.024,0-25.393,12.69-25.393,28.345h4.7l.759-5.776,1.112,5.776h27.87l2.335-4.887-.584,4.887h5.483q3.838,19.059-11.028,38.119h9.34l4.67-9.774-1.167,9.774h17.8l3.5-22.48C846.834,104.716,837.052,90.439,823.49,85.392Z" transform="translate(-720.082 -74.066)" fill="#2f2e41"/>
    </g>
  </g>
</svg>
