<svg xmlns="http://www.w3.org/2000/svg" width="557.612" height="249.795" viewBox="0 0 557.612 249.795">
  <g id="Group_879" data-name="Group 879" transform="translate(-415.612 -313.66)">
    <g id="Group_878" data-name="Group 878" transform="translate(560.612 350.66)">
      <path id="Rectangle_199" data-name="Rectangle 199" d="M20,0H537.612a20,20,0,0,1,20,20V249.795a0,0,0,0,1,0,0H0a0,0,0,0,1,0,0V20A20,20,0,0,1,20,0Z" transform="translate(-145 -37)" fill="#f5f4f4"/>
    </g>
    <g id="Photos" transform="translate(660.127 405.335)">
      <rect id="Rectangle_549" data-name="Rectangle 549" width="66.444" height="66.444" transform="translate(0 0)" fill="none"/>
      <path id="Path_148" data-name="Path 148" d="M63.266,0A4.315,4.315,0,0,1,66.09,1.13c1.13,1.13,1.695,1.695,1.695,3.389V46.884a4.315,4.315,0,0,1-1.13,2.824,6.056,6.056,0,0,1-3.389,1.13H4.519a6.056,6.056,0,0,1-3.389-1.13A6.056,6.056,0,0,1,0,46.32V4.519A4.315,4.315,0,0,1,1.13,1.695C2.259.565,2.824,0,4.519,0ZM19.206,10.168a6.414,6.414,0,0,0-4.519-1.695,6.414,6.414,0,0,0-4.519,1.695,6.414,6.414,0,0,0-1.695,4.519,6.414,6.414,0,0,0,1.695,4.519A6.414,6.414,0,0,0,14.687,20.9a6.414,6.414,0,0,0,4.519-1.695A6.414,6.414,0,0,0,20.9,14.687,6.414,6.414,0,0,0,19.206,10.168Zm40.106,32.2L42.365,16.946,27.114,36.717,16.946,29.373,8.473,42.365Z" transform="translate(0.798 7.883)" fill="#707070"/>
    </g>
  </g>
</svg>
